<?xml version="1.0" encoding="UTF-8" standalone="no"?>
<!DOCTYPE svg PUBLIC "-//W3C//DTD SVG 1.1//EN"
 "http://www.w3.org/Graphics/SVG/1.1/DTD/svg11.dtd">
<!-- Generated by graphviz version 12.2.1 (20241206.2353)
 -->
<!-- Title: snakemake_dag Pages: 1 -->
<svg width="258pt" height="476pt"
 viewBox="0.00 0.00 258.12 476.00" xmlns="http://www.w3.org/2000/svg" xmlns:xlink="http://www.w3.org/1999/xlink">
<g id="graph0" class="graph" transform="scale(1 1) rotate(0) translate(4 472)">
<title>snakemake_dag</title>
<polygon fill="white" stroke="none" points="-4,4 -4,-472 254.12,-472 254.12,4 -4,4"/>
<!-- 0 -->
<g id="node1" class="node">
<title>0</title>
<path fill="none" stroke="#d85656" stroke-width="2" d="M116.25,-36C116.25,-36 86.25,-36 86.25,-36 80.25,-36 74.25,-30 74.25,-24 74.25,-24 74.25,-12 74.25,-12 74.25,-6 80.25,0 86.25,0 86.25,0 116.25,0 116.25,0 122.25,0 128.25,-6 128.25,-12 128.25,-12 128.25,-24 128.25,-24 128.25,-30 122.25,-36 116.25,-36"/>
<text text-anchor="middle" x="101.25" y="-14.12" font-family="sans" font-size="10.00">all</text>
</g>
<!-- 1 -->
<g id="node2" class="node">
<title>1</title>
<path fill="none" stroke="#56d8c1" stroke-width="2" d="M56.5,-108C56.5,-108 12,-108 12,-108 6,-108 0,-102 0,-96 0,-96 0,-84 0,-84 0,-78 6,-72 12,-72 12,-72 56.5,-72 56.5,-72 62.5,-72 68.5,-78 68.5,-84 68.5,-84 68.5,-96 68.5,-96 68.5,-102 62.5,-108 56.5,-108"/>
<text text-anchor="middle" x="34.25" y="-86.12" font-family="sans" font-size="10.00">plot_skygrid</text>
</g>
<!-- 1&#45;&gt;0 -->
<g id="edge1" class="edge">
<title>1&#45;&gt;0</title>
<path fill="none" stroke="grey" stroke-width="2" d="M51.16,-71.34C58.48,-63.69 67.22,-54.56 75.33,-46.08"/>
<polygon fill="grey" stroke="grey" stroke-width="2" points="77.64,-48.73 82.02,-39.09 72.58,-43.89 77.64,-48.73"/>
</g>
<!-- 2 -->
<g id="node3" class="node">
<title>2</title>
<path fill="none" stroke="#d88d56" stroke-width="2" d="M116.25,-252C116.25,-252 86.25,-252 86.25,-252 80.25,-252 74.25,-246 74.25,-240 74.25,-240 74.25,-228 74.25,-228 74.25,-222 80.25,-216 86.25,-216 86.25,-216 116.25,-216 116.25,-216 122.25,-216 128.25,-222 128.25,-228 128.25,-228 128.25,-240 128.25,-240 128.25,-246 122.25,-252 116.25,-252"/>
<text text-anchor="middle" x="101.25" y="-230.12" font-family="sans" font-size="10.00">beast</text>
</g>
<!-- 2&#45;&gt;1 -->
<g id="edge3" class="edge">
<title>2&#45;&gt;1</title>
<path fill="none" stroke="grey" stroke-width="2" d="M92.76,-215.02C81.54,-191.22 61.6,-148.97 48.16,-120.48"/>
<polygon fill="grey" stroke="grey" stroke-width="2" points="51.39,-119.13 43.96,-111.58 45.06,-122.11 51.39,-119.13"/>
</g>
<!-- 8 -->
<g id="node9" class="node">
<title>8</title>
<path fill="none" stroke="#59d856" stroke-width="2" d="M212,-180C212,-180 104.5,-180 104.5,-180 98.5,-180 92.5,-174 92.5,-168 92.5,-168 92.5,-156 92.5,-156 92.5,-150 98.5,-144 104.5,-144 104.5,-144 212,-144 212,-144 218,-144 224,-150 224,-156 224,-156 224,-168 224,-168 224,-174 218,-180 212,-180"/>
<text text-anchor="middle" x="158.25" y="-158.12" font-family="sans" font-size="10.00">max_clade_credibility_tree</text>
</g>
<!-- 2&#45;&gt;8 -->
<g id="edge9" class="edge">
<title>2&#45;&gt;8</title>
<path fill="none" stroke="grey" stroke-width="2" d="M115.63,-215.34C121.66,-207.93 128.82,-199.14 135.53,-190.9"/>
<polygon fill="grey" stroke="grey" stroke-width="2" points="138.16,-193.21 141.76,-183.25 132.73,-188.79 138.16,-193.21"/>
</g>
<!-- 3 -->
<g id="node4" class="node">
<title>3</title>
<path fill="none" stroke="#d8bc56" stroke-width="2" d="M135.88,-324C135.88,-324 66.62,-324 66.62,-324 60.63,-324 54.62,-318 54.62,-312 54.62,-312 54.62,-300 54.62,-300 54.62,-294 60.62,-288 66.62,-288 66.62,-288 135.88,-288 135.88,-288 141.88,-288 147.88,-294 147.88,-300 147.88,-300 147.88,-312 147.88,-312 147.88,-318 141.88,-324 135.88,-324"/>
<text text-anchor="middle" x="101.25" y="-302.12" font-family="sans" font-size="10.00">create_beast_xml</text>
</g>
<!-- 3&#45;&gt;2 -->
<g id="edge4" class="edge">
<title>3&#45;&gt;2</title>
<path fill="none" stroke="grey" stroke-width="2" d="M101.25,-287.34C101.25,-280.75 101.25,-273.08 101.25,-265.67"/>
<polygon fill="grey" stroke="grey" stroke-width="2" points="104.75,-265.93 101.25,-255.93 97.75,-265.93 104.75,-265.93"/>
</g>
<!-- 4 -->
<g id="node5" class="node">
<title>4</title>
<path fill="none" stroke="#568ad8" stroke-width="2" d="M116.25,-396C116.25,-396 86.25,-396 86.25,-396 80.25,-396 74.25,-390 74.25,-384 74.25,-384 74.25,-372 74.25,-372 74.25,-366 80.25,-360 86.25,-360 86.25,-360 116.25,-360 116.25,-360 122.25,-360 128.25,-366 128.25,-372 128.25,-372 128.25,-384 128.25,-384 128.25,-390 122.25,-396 116.25,-396"/>
<text text-anchor="middle" x="101.25" y="-374.12" font-family="sans" font-size="10.00">treetime</text>
</g>
<!-- 4&#45;&gt;3 -->
<g id="edge5" class="edge">
<title>4&#45;&gt;3</title>
<path fill="none" stroke="grey" stroke-width="2" d="M101.25,-359.34C101.25,-352.75 101.25,-345.08 101.25,-337.67"/>
<polygon fill="grey" stroke="grey" stroke-width="2" points="104.75,-337.93 101.25,-327.93 97.75,-337.93 104.75,-337.93"/>
</g>
<!-- 5 -->
<g id="node6" class="node">
<title>5</title>
<path fill="none" stroke="#88d856" stroke-width="2" d="M60.25,-468C60.25,-468 30.25,-468 30.25,-468 24.25,-468 18.25,-462 18.25,-456 18.25,-456 18.25,-444 18.25,-444 18.25,-438 24.25,-432 30.25,-432 30.25,-432 60.25,-432 60.25,-432 66.25,-432 72.25,-438 72.25,-444 72.25,-444 72.25,-456 72.25,-456 72.25,-462 66.25,-468 60.25,-468"/>
<text text-anchor="middle" x="45.25" y="-446.12" font-family="sans" font-size="10.00">iqtree</text>
</g>
<!-- 5&#45;&gt;4 -->
<g id="edge6" class="edge">
<title>5&#45;&gt;4</title>
<path fill="none" stroke="grey" stroke-width="2" d="M59.38,-431.34C65.3,-423.93 72.34,-415.14 78.93,-406.9"/>
<polygon fill="grey" stroke="grey" stroke-width="2" points="81.52,-409.26 85.04,-399.27 76.06,-404.89 81.52,-409.26"/>
</g>
<!-- 6 -->
<g id="node7" class="node">
<title>6</title>
<path fill="none" stroke="#56c1d8" stroke-width="2" d="M212.5,-468C212.5,-468 102,-468 102,-468 96,-468 90,-462 90,-456 90,-456 90,-444 90,-444 90,-438 96,-432 102,-432 102,-432 212.5,-432 212.5,-432 218.5,-432 224.5,-438 224.5,-444 224.5,-444 224.5,-456 224.5,-456 224.5,-462 218.5,-468 212.5,-468"/>
<text text-anchor="middle" x="157.25" y="-446.12" font-family="sans" font-size="10.00">prepare_treetime_metadata</text>
</g>
<!-- 6&#45;&gt;4 -->
<g id="edge7" class="edge">
<title>6&#45;&gt;4</title>
<path fill="none" stroke="grey" stroke-width="2" d="M143.12,-431.34C137.2,-423.93 130.16,-415.14 123.57,-406.9"/>
<polygon fill="grey" stroke="grey" stroke-width="2" points="126.44,-404.89 117.46,-399.27 120.98,-409.26 126.44,-404.89"/>
</g>
<!-- 7 -->
<g id="node8" class="node">
<title>7</title>
<path fill="none" stroke="#56d88a" stroke-width="2" d="M238.12,-108C238.12,-108 98.38,-108 98.38,-108 92.38,-108 86.38,-102 86.38,-96 86.38,-96 86.38,-84 86.38,-84 86.38,-78 92.38,-72 98.38,-72 98.38,-72 238.12,-72 238.12,-72 244.12,-72 250.12,-78 250.12,-84 250.12,-84 250.12,-96 250.12,-96 250.12,-102 244.12,-108 238.12,-108"/>
<text text-anchor="middle" x="168.25" y="-86.12" font-family="sans" font-size="10.00">max_clade_credibility_tree_render</text>
</g>
<!-- 7&#45;&gt;0 -->
<g id="edge2" class="edge">
<title>7&#45;&gt;0</title>
<path fill="none" stroke="grey" stroke-width="2" d="M151.34,-71.34C144.02,-63.69 135.28,-54.56 127.17,-46.08"/>
<polygon fill="grey" stroke="grey" stroke-width="2" points="129.92,-43.89 120.48,-39.09 124.86,-48.73 129.92,-43.89"/>
</g>
<!-- 8&#45;&gt;7 -->
<g id="edge8" class="edge">
<title>8&#45;&gt;7</title>
<path fill="none" stroke="grey" stroke-width="2" d="M160.77,-143.34C161.71,-136.75 162.81,-129.08 163.87,-121.67"/>
<polygon fill="grey" stroke="grey" stroke-width="2" points="167.32,-122.29 165.26,-111.9 160.39,-121.3 167.32,-122.29"/>
</g>
</g>
</svg>
