<svg width="86" height="128" xmlns="http://www.w3.org/2000/svg" xmlns:xlink="http://www.w3.org/1999/xlink" xml:space="preserve" overflow="hidden"><g transform="translate(-681 -732)"><path d="M20.4846 45.3331 20.4846 125.497 37.2764 108.688 54.0657 125.497 54.0657 45.3331Z" fill="#3A7C9A" transform="matrix(1 0 0 1.00138 686.724 734.33)"/><path d="M51.5955 47.8033 51.5955 119.533 37.9797 105.9 37.2764 105.194 36.5731 105.897 22.9548 119.533 22.9548 47.8033ZM52.5896 46.8092 21.9608 46.8092 21.9608 121.931 37.2764 106.611 52.5896 121.941Z" fill="#89B0C2" transform="matrix(1 0 0 1.00138 686.724 734.33)"/><path d="M63.1959 11.9782C48.8806-2.33577 25.6723-2.33577 11.3569 11.9782-2.95808 26.2925-2.95848 49.5013 11.356 63.8165 18.2304 70.691 27.5545 74.5531 37.2764 74.5528 57.5205 74.5533 73.932 58.1425 73.9325 37.8984 73.9325 28.1765 70.0707 18.8526 63.1959 11.9782Z" fill="#3A7C9A" transform="matrix(1 0 0 1.00138 686.724 734.33)"/><path d="M38.519 7.45528C38.519 8.14152 37.9626 8.69783 37.2764 8.69783 36.5902 8.69783 36.0339 8.14152 36.0339 7.45528 36.0339 6.76904 36.5902 6.21273 37.2764 6.21273 37.9626 6.21273 38.519 6.76904 38.519 7.45528Z" fill="#89B0C2" transform="matrix(1 0 0 1.00138 686.724 734.33)"/><path d="M27.2863 10.4374C27.9317 10.2042 28.266 9.49201 28.0329 8.84659 27.7997 8.20118 27.0875 7.86699 26.4419 8.10014 25.7965 8.33329 25.4623 9.04552 25.6956 9.69092 25.6956 9.69124 25.6959 9.69154 25.6959 9.69186 25.9101 10.3279 26.5992 10.67 27.2354 10.4559 27.2525 10.4501 27.2694 10.4439 27.2863 10.4374ZM16.8986 13.6183C16.3709 14.057 16.2987 14.8404 16.7374 15.3681 17.176 15.8959 17.9594 15.9681 18.4872 15.5294 19.0149 15.0907 19.0871 14.3073 18.6484 13.7796 18.6451 13.7755 18.6416 13.7714 18.6382 13.7674 18.1968 13.2501 17.4216 13.1836 16.8986 13.6183ZM10.2883 23.7575C10.8797 24.1055 11.6413 23.9081 11.9893 23.3167 12.3373 22.7252 12.14 21.9636 11.5485 21.6156 10.9571 21.2676 10.1955 21.465 9.84746 22.0564 9.84527 22.0602 9.84311 22.0639 9.84097 22.0676 9.49567 22.6495 9.68744 23.4012 10.2693 23.7465 10.2756 23.7502 10.2819 23.7539 10.2883 23.7575ZM7.50498 31.3867C6.83048 31.2602 6.18122 31.7046 6.05483 32.3793 5.92844 33.0537 6.37275 33.7028 7.04725 33.8293 7.72176 33.9558 8.37101 33.5115 8.49741 32.8368 8.49795 32.834 8.4985 32.8311 8.49902 32.8281 8.61994 32.1561 8.17606 31.5125 7.50498 31.3867ZM7.08252 41.9732C6.40712 42.0948 5.95814 42.7409 6.07968 43.4161 6.20123 44.0915 6.84725 44.5406 7.52265 44.4191 8.19805 44.2975 8.64703 43.6514 8.52549 42.976 8.52497 42.9732 8.52442 42.9703 8.52387 42.9673 8.39812 42.2963 7.75446 41.8522 7.08252 41.9732ZM10.2883 52.0379C9.69323 52.3798 9.48796 53.1393 9.82979 53.7342 10.1716 54.3294 10.9311 54.5346 11.5262 54.1927 12.1212 53.851 12.3265 53.0913 11.9846 52.4964 11.9825 52.4926 11.9803 52.4889 11.9782 52.4852 11.6227 51.9114 10.8811 51.7153 10.2883 52.0379ZM16.7495 60.4375C16.3042 60.9596 16.3663 61.7439 16.8884 62.1892 17.4105 62.6345 18.1947 62.5724 18.6401 62.0503 19.0855 61.5282 19.0233 60.7439 18.5013 60.2986 18.4972 60.2951 18.4932 60.2919 18.4891 60.2884 17.9906 59.8473 17.2289 59.8937 16.7878 60.392 16.7746 60.4069 16.7619 60.4221 16.7495 60.4375Z" fill="#89B0C2" transform="matrix(1 0 0 1.00138 686.724 734.33)"/><path d="M28.0965 66.5086C28.0965 67.1948 27.5402 67.7511 26.8539 67.7511 26.1677 67.7511 25.6114 67.1948 25.6114 66.5086 25.6114 65.8223 26.1677 65.266 26.8539 65.266 27.5402 65.266 28.0965 65.8223 28.0965 66.5086Z" fill="#89B0C2" transform="matrix(1 0 0 1.00138 686.724 734.33)"/><path d="M37.2764 67.0975C36.5903 67.0975 36.0339 67.6539 36.0339 68.3401 36.0339 69.0262 36.5903 69.5826 37.2764 69.5826 37.9625 69.5826 38.519 69.0262 38.519 68.3401 38.519 67.6539 37.9625 67.0975 37.2764 67.0975ZM47.2665 65.358C46.6211 65.5911 46.2869 66.3033 46.52 66.9487 46.7531 67.5943 47.4653 67.9283 48.1109 67.6952 48.7563 67.4621 49.0905 66.7499 48.8572 66.1045 48.8572 66.1042 48.8569 66.1037 48.8569 66.1035 48.6499 65.4708 47.9695 65.1256 47.3368 65.3326 47.313 65.3403 47.2896 65.3488 47.2665 65.358ZM56.0637 60.2635C55.5359 60.7021 55.4638 61.4857 55.9024 62.0133 56.341 62.5411 57.1246 62.6132 57.6522 62.1746 58.18 61.7359 58.2521 60.9526 57.8135 60.4248 57.8102 60.4208 57.8068 60.4166 57.8033 60.4126 57.3619 59.8952 56.5866 59.8289 56.0637 60.2635ZM64.2645 52.0379C63.6731 51.6899 62.9114 51.8873 62.5635 52.4787 62.2156 53.0702 62.4129 53.8316 63.0043 54.1798 63.5958 54.5277 64.3575 54.3304 64.7054 53.7389 64.7076 53.7352 64.7096 53.7314 64.7118 53.7277 65.0573 53.1457 64.8654 52.3942 64.2834 52.0488 64.2772 52.0451 64.271 52.0416 64.2645 52.0379Z" fill="#89B0C2" transform="matrix(1 0 0 1.00138 686.724 734.33)"/><path d="M69.6323 37.8977 70.6264 34.0209 73.3351 34.1949C73.2357 33.3251 73.1363 32.4553 72.9872 31.6104L72.9872 31.5855C72.8381 30.7158 72.6641 29.8708 72.4405 29.0507L69.9554 30.1193 67.6939 26.8142 67.2963 22.838 69.9057 22.0676C69.5329 21.2973 69.1105 20.5269 68.688 19.7565L68.6631 19.7565 68.6631 19.7316C68.2158 18.9861 67.7685 18.2406 67.2715 17.5199L65.3083 19.3837 62.0528 17.0477 60.3381 13.4444 62.525 11.829C61.9037 11.2326 61.2576 10.6362 60.5866 10.0895 59.9156 9.54276 59.2446 8.99604 58.524 8.47417L57.3063 10.9096 53.4544 9.84097 50.5965 7.03281 52.0876 4.77138C51.2923 4.42347 50.4971 4.07555 49.677 3.80219L49.6522 3.80219 49.6522 3.77734C48.8321 3.47913 48.012 3.20577 47.1671 2.98211L46.8689 5.69086 42.8927 6.01393 39.2645 4.37376 39.8858 1.73957C39.016 1.68986 38.1462 1.64016 37.2764 1.64016 36.4066 1.64016 35.5368 1.66501 34.6671 1.73957L35.2883 4.37376 31.6352 6.03878 27.6591 5.71572 27.3609 3.00696C26.5159 3.25547 25.6959 3.50398 24.8758 3.80219L24.8758 3.82704 24.8509 3.82704C24.0309 4.12526 23.2356 4.44832 22.4404 4.79623L23.9315 7.05767 21.0984 9.86582 17.2465 10.9344 16.0289 8.49902C15.333 9.02089 14.6372 9.54276 13.9662 10.1143 13.2953 10.6611 12.6491 11.2575 12.0279 11.8539L14.1899 13.4692 12.4752 17.0726 9.2197 19.3837 7.25647 17.5199C6.75945 18.2406 6.31214 18.9613 5.86482 19.7316L5.86482 19.7565 5.83997 19.7565C5.4175 20.502 4.99504 21.2724 4.62227 22.0676L7.23162 22.838 6.83401 26.8142 4.57257 30.1193 2.08748 29.0507C1.88867 29.8957 1.68986 30.7406 1.54076 31.5855L1.54076 31.6104 1.51591 31.6104C1.3668 32.4553 1.24255 33.3251 1.16799 34.1949L3.87675 34.0209 4.87078 37.8977 3.87675 41.7744 1.16799 41.6005C1.2674 42.4702 1.3668 43.34 1.51591 44.185L1.54076 44.185C1.68986 45.0547 1.86382 45.8997 2.08748 46.7198L4.57257 45.6512 6.83401 48.9563 7.23162 52.9325 4.62227 53.7029C4.99504 54.4733 5.4175 55.2436 5.83997 56.014L5.86482 56.014 5.86482 56.0389C6.28729 56.7844 6.75945 57.5299 7.25647 58.2506L9.2197 56.3868 12.4752 58.6979 14.1899 62.3013 12.003 63.9166C12.6243 64.513 13.2704 65.1095 13.9414 65.6562 14.6124 66.2277 15.2833 66.7496 16.004 67.2715L17.2217 64.8361 21.0736 65.9047 23.9315 68.7128 22.4404 70.9743C23.2356 71.3222 24.0309 71.6452 24.8509 71.9435L24.8758 71.9435 24.8758 71.9683C25.6959 72.2665 26.5159 72.5399 27.3609 72.7635L27.6591 70.0548 31.6352 69.7317 35.2883 71.3967 34.6671 74.0309C35.5368 74.0806 36.4066 74.1303 37.2764 74.1303 38.1462 74.1303 39.016 74.1055 39.8858 74.0309L39.2645 71.3967 42.9176 69.7317 46.8937 70.0548 47.1919 72.7635C48.0369 72.515 48.8569 72.2665 49.677 71.9683L49.677 71.9435 49.7019 71.9435C50.522 71.6452 51.3172 71.3222 52.1124 70.9743L50.6214 68.7128 53.4792 65.9047 57.3311 64.8361 58.5488 67.2715C59.2446 66.7496 59.9405 66.2277 60.6114 65.6562 61.2824 65.0846 61.9285 64.513 62.5498 63.9166L60.3629 62.3013 62.0776 58.6979 65.3331 56.3868 67.2963 58.2506C67.7934 57.5299 68.2407 56.8092 68.688 56.0389L68.688 56.014 68.7128 56.014C69.1353 55.2685 69.5578 54.4981 69.9305 53.7029L67.3212 52.9325 67.7188 48.9563 69.9802 45.6512 72.4653 46.7446C72.689 45.8997 72.8629 45.0547 73.012 44.2098 73.1612 43.3649 73.2854 42.4951 73.36 41.6253L70.6512 41.7993ZM69.0856 43.514C68.764 45.3609 68.2732 47.1745 67.6194 48.9315 66.9725 50.7034 66.1746 52.4161 65.2337 54.0508 64.2921 55.674 63.2113 57.2123 62.0031 58.6482 60.7983 60.0891 59.4678 61.4196 58.0269 62.6244 56.5774 63.8261 55.0314 64.9067 53.4047 65.855 51.7802 66.7988 50.0754 67.5973 48.3102 68.2407 46.5401 68.8744 44.7195 69.3565 42.8679 69.682 39.1698 70.3448 35.383 70.3448 31.6849 69.682 29.8333 69.3565 28.0127 68.8744 26.2426 68.2407 24.4754 67.6022 22.7701 66.8035 21.1481 65.855 19.5243 64.9238 17.9859 63.851 16.5507 62.6492 13.6741 60.2262 11.2362 57.3261 9.34395 54.0756 8.40126 52.4541 7.61092 50.7486 6.98311 48.9812 6.33756 47.2131 5.84698 45.392 5.51691 43.5388 4.88736 39.8211 4.88736 36.0239 5.51691 32.3062 5.83207 30.4578 6.32302 28.6437 6.98311 26.8887 7.63165 25.1218 8.42114 23.4099 9.34395 21.7694 10.2999 20.1476 11.38 18.6022 12.5746 17.1471 13.7793 15.7063 15.1099 14.3757 16.5507 13.171 17.994 11.961 19.5407 10.88 21.173 9.94037 22.7974 8.99641 24.5022 8.19808 26.2674 7.55468 28.0376 6.92106 29.8582 6.43888 31.7098 6.11333 35.3997 5.45063 39.178 5.45063 42.8679 6.11333 44.7277 6.43883 46.5565 6.92099 48.3351 7.55468 50.0982 8.20295 51.8025 9.00111 53.4295 9.94037 55.0672 10.8714 56.6147 11.9529 58.0518 13.171 59.4872 14.3907 60.8172 15.7291 62.0279 17.172 63.2362 18.6079 64.317 20.1462 65.2586 21.7694 66.2014 23.3995 66.9919 25.1131 67.6194 26.8887 68.2618 28.6494 68.7523 30.4618 69.0856 32.3062 69.7151 36.0157 69.7151 39.8045 69.0856 43.514Z" fill="#89B0C2" transform="matrix(1 0 0 1.00138 686.724 734.33)"/><path d="M67.4703 41.9732C66.7953 41.8495 66.1477 42.296 66.024 42.971 65.9 43.6459 66.3468 44.2936 67.0217 44.4176 67.689 44.5401 68.3311 44.1047 68.4643 43.4394 68.6137 42.7878 68.2064 42.1387 67.555 41.9894 67.527 41.9832 67.4986 41.9777 67.4703 41.9732Z" fill="#89B0C2" transform="matrix(1 0 0 1.00138 686.724 734.33)"/><path d="M68.514 32.6019C68.514 33.2882 67.9577 33.8445 67.2715 33.8445 66.5853 33.8445 66.0289 33.2882 66.0289 32.6019 66.0289 31.9157 66.5853 31.3594 67.2715 31.3594 67.9577 31.3594 68.514 31.9157 68.514 32.6019Z" fill="#89B0C2" transform="matrix(1 0 0 1.00138 686.724 734.33)"/><path d="M63.022 21.5955C62.427 21.9373 62.2218 22.6968 62.5635 23.2918 62.9054 23.8869 63.6649 24.0921 64.2598 23.7503 64.855 23.4085 65.0602 22.649 64.7183 22.054 64.7161 22.0502 64.7141 22.0465 64.7118 22.0428 64.3664 21.4557 63.6127 21.2561 63.022 21.5955ZM55.8898 13.7674C55.4444 14.2895 55.5066 15.0738 56.0287 15.5192 56.5508 15.9645 57.3351 15.9024 57.7804 15.3803 58.2257 14.8582 58.1636 14.0739 57.6415 13.6286 57.6375 13.6251 57.6333 13.6217 57.6293 13.6183 57.1065 13.1836 56.3311 13.2501 55.8898 13.7674ZM48.1114 8.12626C47.4663 7.89258 46.7538 8.22621 46.52 8.87144 46.2864 9.51667 46.6199 10.2292 47.2652 10.4628 47.9104 10.6965 48.6228 10.3629 48.8567 9.71766 48.8567 9.71734 48.8569 9.71704 48.8569 9.71672 49.09 9.07166 48.7563 8.35981 48.1114 8.12626Z" fill="#89B0C2" transform="matrix(1 0 0 1.00138 686.724 734.33)"/><path d="M65.3331 37.8977C65.3331 53.393 52.7717 65.9544 37.2764 65.9544 21.7811 65.9544 9.2197 53.393 9.2197 37.8977 9.2197 22.4024 21.7811 9.84097 37.2764 9.84097 52.7717 9.84097 65.3331 22.4024 65.3331 37.8977Z" fill="#FFFFFF" transform="matrix(1 0 0 1.00138 686.724 734.33)"/><path d="M12.2267 29.0483 18.7948 29.0483C22.4677 29.0483 25.5169 30.2212 25.5169 34.4185 25.5169 38.5662 22.6939 39.841 18.9712 39.841L16.1208 39.841 16.1208 46.7347 12.2267 46.7347ZM16.1208 36.5433 18.7202 36.5433C20.0945 36.5433 21.4687 36.0686 21.4687 34.4185 21.4687 32.5945 19.6198 32.3435 18.1213 32.3435L16.1332 32.3435ZM36.7098 33.3698C36.0836 32.5696 34.836 32.1944 33.8867 32.1944 32.7858 32.1944 31.2625 32.6914 31.2625 34.0184 31.2625 37.2491 39.4086 35.1666 39.4086 41.3644 39.4086 45.3107 36.2351 47.1845 32.587 47.1845 30.3132 47.1845 28.3152 46.511 26.6402 44.9628L29.4136 41.9136C30.2282 42.9601 31.4769 43.5761 32.8032 43.5861 34.0781 43.5861 35.502 42.9871 35.502 41.7396 35.502 38.4916 27.2068 40.2486 27.2068 34.344 27.2068 30.5716 30.4822 28.5985 33.9538 28.5985 35.9419 28.5985 37.8753 29.1228 39.3763 30.4474ZM42.3062 29.0483 48.2108 29.0483 52.2839 40.589 52.3336 40.589 56.4116 29.0483 62.2839 29.0483 62.2839 46.7347 58.3997 46.7347 58.3997 33.1685 58.35 33.1685 53.7029 46.7347 50.7208 46.7347 46.2476 33.1685 46.1979 33.1685 46.1979 46.7347 42.3062 46.7347ZM35.9171 49.7864 38.6357 49.7864 38.6357 62.1273 35.9171 62.1273Z" fill="#3A7C9A" transform="matrix(1 0 0 1.00138 686.724 734.33)"/></g></svg>