<?xml version="1.0" encoding="UTF-8"?>
<svg id="Bold" xmlns="http://www.w3.org/2000/svg" version="1.1" viewBox="0 0 512 512">
  <defs>
    <style>
      .cls-1 {
        fill: #3d3d3d;
      }

      .cls-1, .cls-2, .cls-3, .cls-4 {
        stroke-width: 0px;
      }

      .cls-2 {
        fill: #383838;
      }

      .cls-3 {
        fill: #fffef8;
      }

      .cls-4 {
        fill: #bedddf;
      }
    </style>
  </defs>
  <g>
    <rect class="cls-3" x="60.7" y="60.7" width="390.6" height="390.6" rx="73.2" ry="73.2"/>
    <path class="cls-1" d="M378.1,70.7c34.8,0,63.2,28.4,63.2,63.2v244.2c0,34.8-28.4,63.2-63.2,63.2h-244.2c-34.8,0-63.2-28.4-63.2-63.2v-244.2c0-34.8,28.4-63.2,63.2-63.2h244.2M378.1,50.7h-244.2c-46,0-83.2,37.2-83.2,83.2v244.2c0,46,37.2,83.2,83.2,83.2h244.2c46,0,83.2-37.2,83.2-83.2v-244.2c0-46-37.2-83.2-83.2-83.2h0Z"/>
  </g>
  <g>
    <path class="cls-2" d="M170.1,358.5c-24.1,6.7-49.7-3.8-62.3-25.3-7.4-12.7-9.4-27.5-5.6-41.8,3.7-14.2,12.9-26.1,25.5-33.5,4-2.4,8.4-4.2,12.9-5.4,6.7-1.8,13.5-2.4,20.4-1.7h.8c.5-.1.9-.4,1.2-.9l49.7-72c.5-.6.6-1.5.2-2.2-12.1-25.7-2.5-56.8,22.2-71.1,4.1-2.5,8.4-4.2,13-5.4,9.4-2.6,19.2-2.6,28.7,0,14.2,3.7,26.1,12.9,33.4,25.6,7.4,12.7,9.4,27.6,5.7,41.7-3.7,14.2-12.9,26.1-25.6,33.4-4,2.4-8.4,4.2-13,5.4-6.5,1.8-13.1,2.3-19.9,1.7h-.8c-.5.1-.9.4-1.2.9l-50,72.2c-.5.6-.6,1.5-.2,2.2,11.8,25.5,2.1,56.5-22.2,70.7-4,2.4-8.4,4.2-12.9,5.4h0v.2h0Z"/>
    <g>
      <circle class="cls-4" cx="262.5" cy="152.4" r="34.8" transform="translate(51.5 370.5) rotate(-76.1)"/>
      <circle class="cls-4" cx="155.5" cy="305.5" r="34.8" transform="translate(-178.4 383) rotate(-76.1)"/>
    </g>
  </g>
</svg>