<?xml version="1.0" encoding="UTF-8"?>
<svg id="Bold" xmlns="http://www.w3.org/2000/svg" version="1.1" viewBox="0 0 512 512">
  <defs>
    <style>
      .cls-1 {
        stroke: #58b0c0;
      }

      .cls-1, .cls-2 {
        fill: #fef9f2;
        stroke-miterlimit: 10;
        stroke-width: 23.1px;
      }

      .cls-3 {
        fill: #000;
      }

      .cls-3, .cls-4, .cls-5, .cls-6, .cls-7 {
        stroke-width: 0px;
      }

      .cls-4 {
        fill: #383838;
      }

      .cls-5 {
        fill: #fffef8;
      }

      .cls-6 {
        fill: #58b0c0;
      }

      .cls-2 {
        stroke: #ff88f7;
      }

      .cls-7 {
        fill: #ff88f7;
      }
    </style>
  </defs>
  <rect class="cls-5" x="50.7" y="50.7" width="410.6" height="410.6" rx="83.2" ry="83.2"/>
  <path class="cls-4" d="M370.5,423.1c-4.9,0-9.7-.6-14.5-1.9-14.2-3.9-26-13-33.3-25.7-7.3-12.7-9.2-28.1-5.2-42.4.2-.8,0-1.6-.6-2.1l-16.2-16.4c-.4-.4-1-.6-1.6-.6s-.4,0-.6,0c-4.7,1.4-9.7,2-14.6,2s-9.7-.6-14.5-1.9c-14.2-3.9-26-13-33.3-25.7-15.1-26.3-5.9-60,20.4-75.1,8.3-4.8,17.8-7.3,27.3-7.3s9.7.6,14.5,1.9c14.2,3.9,26,13,33.3,25.7,7.3,12.7,9.2,27.5,5.4,41.7-.2.7,0,1.6.6,2.1l16.8,17c.4.4,1,.6,1.6.6s.4,0,.6,0c4.5-1.1,9.2-1.8,13.8-1.8,19.7,0,38,10.6,47.8,27.6,15.1,26.3,5.9,60-20.4,75.1-8.3,4.8-17.8,7.3-27.3,7.3h0Z"/>
  <path class="cls-4" d="M137.2,317.3c-25,.8-47.4-15.5-54.5-39.4-4.2-14.1-2.6-28.9,4.5-41.9,7-12.9,18.7-22.3,32.7-26.5,4.5-1.4,9.2-2.1,13.8-2.2,6.9-.2,13.7.9,20.2,3.2.3,0,.5.1.8.1.5,0,1-.2,1.4-.6l65.4-58.1c.6-.5.9-1.3.7-2.1-5.7-27.8,11.1-55.8,38.4-63.8,4.6-1.4,9.2-2.1,13.9-2.2,9.7-.3,19.3,2,27.9,6.7,12.9,7,22.3,18.7,26.4,32.8,4.2,14.1,2.6,29-4.4,41.9-7,12.9-18.7,22.3-32.8,26.4-4.5,1.4-9.2,2.1-13.9,2.2-6.7.2-13.3-.9-19.7-3.1-.3,0-.5-.1-.8-.1-.5,0-1,.2-1.4.6l-65.7,58.3c-.6.5-.9,1.3-.7,2.1,5.4,27.6-11.4,55.4-38.4,63.4-4.5,1.4-9.2,2.1-13.8,2.2h0Z"/>
  <path class="cls-3" d="M309.4,129.1c-5.4-18.4-24.8-28.9-43.2-23.6-17.3,5.1-27.7,22.5-24.3,39.9l-94.7,84.1c-6.7-2.4-14.2-2.8-21.6-.6-18.4,5.4-28.9,24.8-23.6,43.2,5.4,18.4,24.8,28.9,43.2,23.6,17.2-5.1,27.5-22.3,24.4-39.5l95-84.4c6.6,2.3,14,2.6,21.2.5,18.4-5.4,28.9-24.8,23.6-43.2h0Z"/>
  <g>
    <path class="cls-6" d="M285.5,153.3l-142.2,126.3c-7.9,5.4-18.8,3.4-24.3-4.6h0c-5.4-7.9-3.4-18.8,4.6-24.3l142.2-126.3c7.9-5.4,18.8-3.4,24.3,4.6h0c5.4,7.9,3.4,18.8-4.6,24.3h0Z"/>
    <circle class="cls-1" cx="276.1" cy="139" r="34.8"/>
    <circle class="cls-1" cx="135.4" cy="262.4" r="34.8"/>
  </g>
  <g>
    <path class="cls-7" d="M358.7,380.6l-80.7-81.4c-7.2-6.5-7.7-17.5-1.1-24.7h0c6.5-7.2,17.5-7.7,24.7-1.1l80.7,81.4c7.2,6.5,7.7,17.5,1.1,24.7h0c-6.5,7.2-17.5,7.7-24.7,1.1h0Z"/>
    <circle class="cls-2" cx="370.5" cy="368.1" r="34.8"/>
    <circle class="cls-2" cx="284" cy="281" r="34.8"/>
  </g>
</svg>