<svg version="1.1" viewBox="349.01312 164.18898 236.18896 98.51967" fill="none" stroke="none" stroke-linecap="square" stroke-miterlimit="10" xmlns:xlink="http://www.w3.org/1999/xlink" xmlns="http://www.w3.org/2000/svg">
    <path fill="#6aa84f" d="m349.01312 164.18898l236.18896 0l0 98.51967l-236.18896 0z" fill-rule="evenodd"/>
    <path stroke="#6aa84f" stroke-width="1.0" stroke-linejoin="round" stroke-linecap="butt" d="m349.01312 164.18898l236.18896 0l0 98.51967l-236.18896 0z" fill-rule="evenodd"/>
    <path fill="#7f6000" d="m383.1497 222.30757q0 1.359375 -0.484375 2.4375q-0.484375 1.078125 -1.375 1.828125q-0.890625 0.765625 -2.1875 1.15625q-1.28125 0.390625 -2.875 0.390625q-1.265625 0 -2.5 -0.34375q-1.234375 -0.34375 -2.203125 -1.15625q-1.0 -0.8125 -1.625 -2.1875q-0.609375 -1.375 -0.609375 -3.453125l-4.578125 0q0 2.796875 0.8125 4.796875q0.828125 2.0 2.1875 3.3125q1.359375 1.34375 3.125 2.03125q1.765625 0.6875 3.703125 0.890625l0 4.71875l3.6875 0l0 -4.75q2.140625 -0.21875 3.90625 -0.953125q1.78125 -0.75 3.015625 -1.984375q1.234375 -1.21875 1.90625 -2.921875q0.6875 -1.703125 0.6875 -3.859375q0 -2.203125 -0.6875 -3.859375q-0.671875 -1.65625 -1.953125 -2.921875q-1.28125 -1.25 -3.140625 -2.1875q-1.859375 -0.953125 -4.1875 -1.71875q-1.90625 -0.640625 -3.25 -1.3125q-1.34375 -0.6875 -2.1875 -1.484375q-0.859375 -0.78125 -1.265625 -1.75q-0.390625 -0.96875 -0.390625 -2.203125q0 -1.265625 0.359375 -2.28125q0.359375 -1.03125 1.046875 -1.765625q0.75 -0.828125 1.921875 -1.265625q1.171875 -0.453125 2.75 -0.453125q1.46875 0 2.59375 0.578125q1.140625 0.5625 1.9375 1.546875q0.765625 1.015625 1.171875 2.421875q0.40625 1.390625 0.40625 3.046875l4.5625 0q-0.03125 -2.84375 -0.78125 -5.03125q-0.734375 -2.1875 -2.140625 -3.671875q-1.09375 -1.109375 -2.578125 -1.8125q-1.484375 -0.703125 -3.28125 -0.953125l0 -5.4375l-3.6875 0l0 5.4375q-2.0 0.25 -3.65625 1.015625q-1.640625 0.765625 -2.78125 2.0q-1.15625 1.265625 -1.796875 2.953125q-0.625 1.671875 -0.625 3.75q0 2.203125 0.71875 3.890625q0.71875 1.671875 2.046875 2.953125q1.3125 1.3125 3.171875 2.265625q1.859375 0.9375 4.15625 1.65625q1.828125 0.59375 3.15625 1.296875q1.34375 0.703125 2.1875 1.515625q0.84375 0.8125 1.21875 1.765625q0.390625 0.953125 0.390625 2.0625zm32.14868 18.328125l0.515625 -2.84375q-1.53125 -0.046875 -2.53125 -0.84375q-1.0 -0.78125 -1.59375 -2.015625q-0.625 -1.21875 -0.875 -2.75q-0.234375 -1.515625 -0.234375 -3.046875l0 -4.171875q-0.03125 -2.953125 -1.390625 -5.1875q-1.359375 -2.234375 -4.234375 -3.375q2.875 -1.15625 4.25 -3.390625q1.375 -2.25 1.375 -5.21875l0 -4.203125q0 -1.515625 0.140625 -3.046875q0.15625 -1.53125 0.703125 -2.765625q0.515625 -1.21875 1.5625 -2.0q1.046875 -0.796875 2.828125 -0.84375l-0.515625 -2.84375q-2.5 0.078125 -4.25 1.078125q-1.75 1.0 -2.84375 2.578125q-1.171875 1.65625 -1.703125 3.75q-0.53125 2.09375 -0.53125 4.09375l0 4.203125q0 3.59375 -1.6875 5.1875q-1.6875 1.59375 -5.1875 1.59375l0 3.578125q3.5 0.03125 5.1875 1.640625q1.6875 1.609375 1.6875 5.171875l0 4.171875q0 1.984375 0.5625 4.0q0.578125 2.015625 1.6875 3.640625q1.171875 1.71875 2.921875 2.75q1.765625 1.046875 4.15625 1.109375z" fill-rule="nonzero"/>
    <path fill="#ffffff" d="m437.63458 232.08882q3.90625 0 6.5625 -1.5625q2.671875 -1.578125 4.0 -3.609375l-2.796875 -2.171875q-1.265625 1.625 -3.171875 2.625q-1.890625 0.984375 -4.34375 0.984375q-1.859375 0 -3.390625 -0.6875q-1.53125 -0.703125 -2.625 -1.921875q-1.0625 -1.125 -1.671875 -2.609375q-0.59375 -1.484375 -0.765625 -3.4375l0 -0.1875l19.109375 0l0 -2.046875q0 -2.796875 -0.703125 -5.1875q-0.703125 -2.40625 -2.140625 -4.1875q-1.4375 -1.75 -3.609375 -2.75q-2.15625 -1.0 -5.046875 -1.0q-2.296875 0 -4.484375 0.9375q-2.1875 0.9375 -3.90625 2.6875q-1.71875 1.78125 -2.765625 4.34375q-1.03125 2.5625 -1.03125 5.796875l0 1.046875q0 2.796875 0.9375 5.171875q0.9375 2.375 2.625 4.09375q1.671875 1.734375 4.03125 2.703125q2.375 0.96875 5.1875 0.96875zm-0.59375 -24.0q1.765625 0 3.03125 0.640625q1.28125 0.640625 2.109375 1.6875q0.84375 1.03125 1.3125 2.453125q0.46875 1.421875 0.46875 2.671875l0 0.21875l-14.390625 0q0.265625 -1.859375 0.953125 -3.28125q0.6875 -1.421875 1.671875 -2.40625q0.984375 -0.96875 2.21875 -1.46875q1.234375 -0.515625 2.625 -0.515625zm19.164307 23.5l4.578125 0l0 -19.1875q0.46875 -0.875 1.09375 -1.59375q0.640625 -0.71875 1.390625 -1.25q0.90625 -0.625 1.984375 -0.984375q1.09375 -0.359375 2.359375 -0.359375q1.46875 0 2.59375 0.34375q1.125 0.34375 1.90625 1.109375q0.765625 0.78125 1.15625 2.015625q0.40625 1.234375 0.40625 3.015625l0 16.890625l4.578125 0l0 -17.0q0 -2.65625 -0.65625 -4.59375q-0.65625 -1.953125 -1.875 -3.21875q-1.203125 -1.25 -2.921875 -1.84375q-1.71875 -0.59375 -3.828125 -0.59375q-1.546875 0.015625 -2.953125 0.453125q-1.390625 0.4375 -2.578125 1.21875q-0.796875 0.515625 -1.5 1.234375q-0.703125 0.703125 -1.296875 1.53125l-0.328125 -3.953125l-4.109375 0l0 26.765625zm39.539337 0l3.484375 0l10.90625 -26.765625l-4.671875 0l-7.5 20.1875l-0.4375 1.65625l-0.421875 -1.65625l-7.671875 -20.1875l-4.703125 0l11.015625 26.765625zm33.086212 0.5q3.90625 0 6.5625 -1.5625q2.671875 -1.578125 4.0 -3.609375l-2.796875 -2.171875q-1.265625 1.625 -3.171875 2.625q-1.890625 0.984375 -4.34375 0.984375q-1.859375 0 -3.390625 -0.6875q-1.53125 -0.703125 -2.625 -1.921875q-1.0625 -1.125 -1.671875 -2.609375q-0.59375 -1.484375 -0.765625 -3.4375l0 -0.1875l19.109375 0l0 -2.046875q0 -2.796875 -0.703125 -5.1875q-0.703125 -2.40625 -2.140625 -4.1875q-1.4375 -1.75 -3.609375 -2.75q-2.15625 -1.0 -5.046875 -1.0q-2.296875 0 -4.484375 0.9375q-2.1875 0.9375 -3.90625 2.6875q-1.71875 1.78125 -2.765625 4.34375q-1.03125 2.5625 -1.03125 5.796875l0 1.046875q0 2.796875 0.9375 5.171875q0.9375 2.375 2.625 4.09375q1.671875 1.734375 4.03125 2.703125q2.375 0.96875 5.1875 0.96875zm-0.59375 -24.0q1.765625 0 3.03125 0.640625q1.28125 0.640625 2.109375 1.6875q0.84375 1.03125 1.3125 2.453125q0.46875 1.421875 0.46875 2.671875l0 0.21875l-14.390625 0q0.265625 -1.859375 0.953125 -3.28125q0.6875 -1.421875 1.671875 -2.40625q0.984375 -0.96875 2.21875 -1.46875q1.234375 -0.515625 2.625 -0.515625z" fill-rule="nonzero"/>
    <path fill="#7f6000" d="m551.08875 237.79195l0.53125 2.84375q2.421875 -0.046875 4.171875 -1.109375q1.75 -1.0625 2.921875 -2.71875q1.140625 -1.65625 1.671875 -3.671875q0.546875 -2.015625 0.546875 -4.0l0 -4.171875q0 -1.734375 0.390625 -3.0q0.40625 -1.265625 1.21875 -2.09375q0.84375 -0.875 2.15625 -1.28125q1.328125 -0.40625 3.109375 -0.4375l0 -3.578125q-2.015625 0 -3.46875 -0.53125q-1.453125 -0.53125 -2.265625 -1.703125q-0.5625 -0.8125 -0.859375 -1.9375q-0.28125 -1.125 -0.28125 -2.609375l0 -4.203125q0 -2.078125 -0.5625 -4.203125q-0.546875 -2.125 -1.8125 -3.828125q-1.109375 -1.515625 -2.828125 -2.453125q-1.71875 -0.9375 -4.109375 -1.015625l-0.5 2.84375q1.78125 0.046875 2.8125 0.84375q1.046875 0.78125 1.59375 2.0q0.515625 1.234375 0.671875 2.765625q0.15625 1.53125 0.15625 3.046875l0 4.203125q0 1.9375 0.5625 3.578125q0.578125 1.640625 1.765625 2.875q0.625 0.671875 1.453125 1.21875q0.828125 0.546875 1.8125 0.9375q-0.953125 0.390625 -1.765625 0.921875q-0.796875 0.515625 -1.453125 1.15625q-1.203125 1.21875 -1.796875 2.875q-0.578125 1.65625 -0.578125 3.609375l0 4.171875q0 1.53125 -0.265625 3.046875q-0.25 1.53125 -0.84375 2.75q-0.609375 1.234375 -1.625 2.015625q-1.015625 0.796875 -2.53125 0.84375z" fill-rule="nonzero"/>
</svg>
