<?xml version="1.0" encoding="UTF-8"?>
<svg width="141px" height="141px" viewBox="0 0 141 141" version="1.1" xmlns="http://www.w3.org/2000/svg" xmlns:xlink="http://www.w3.org/1999/xlink">
    <title>OQS_docs</title>
    <defs>
        <linearGradient x1="12.1924008%" y1="16.4684217%" x2="50%" y2="50%" id="linearGradient-1">
            <stop stop-color="#FFC000" offset="0%"></stop>
            <stop stop-color="#EB6E19" offset="100%"></stop>
        </linearGradient>
    </defs>
    <g id="Page-1" stroke="none" stroke-width="1" fill="none" fill-rule="evenodd">
        <g id="OQS_logo_Q">
            <g id="Combined-Shape">
                <rect id="Rectangle" fill="#FEBA02" x="3" y="11" width="72" height="43"></rect>
                <g id="path-2-link" fill="#EC7423" fill-rule="nonzero">
                    <path d="M70.5,0 C109.436075,0 141,31.5639251 141,70.5 C141,78.9096675 139.527537,86.9754229 136.826363,94.4535145 C131.458426,85.2127681 121.454748,79 110,79 C92.8791728,79 79,92.8791728 79,110 C79,121.454748 85.2127681,131.458426 94.4524738,136.825203 C86.9754229,139.527537 78.9096675,141 70.5,141 C31.5639251,141 0,109.436075 0,70.5 C0,31.5639251 31.5639251,0 70.5,0 Z" id="path-2"></path>
                </g>
                <g id="path-2-link" fill="url(#linearGradient-1)" fill-rule="nonzero">
                    <path d="M70.5,0 C109.436075,0 141,31.5639251 141,70.5 C141,78.9096675 139.527537,86.9754229 136.826363,94.4535145 C131.458426,85.2127681 121.454748,79 110,79 C92.8791728,79 79,92.8791728 79,110 C79,121.454748 85.2127681,131.458426 94.4524738,136.825203 C86.9754229,139.527537 78.9096675,141 70.5,141 C31.5639251,141 0,109.436075 0,70.5 C0,31.5639251 31.5639251,0 70.5,0 Z" id="path-2"></path>
                </g>
            </g>
            <circle id="Oval" fill="#EB6E19" fill-rule="nonzero" cx="110.5" cy="110.5" r="14.5"></circle>
            <g id="RTD_logo_dark" transform="translate(0.000000, 7.000000)" fill="#111E2E" fill-rule="nonzero">
                <path d="M33.5521922,48.192303 C32.4301195,48.3421093 31.567805,49.2667965 31.4895451,50.404145 C31.4112853,51.5414936 32.1387098,52.5771579 33.2295369,52.8814432 C33.2295369,52.8814432 39.0287697,54.8143703 48.901365,55.6206439 C56.8290076,56.2680773 65.8177207,55.0635184 65.8177207,55.0635184 C66.7239774,55.0373519 67.5368538,54.4951044 67.9144172,53.6648697 C68.2919807,52.834635 68.1687153,51.8604778 67.5964721,51.1521728 C67.0242289,50.4438678 66.1023051,50.1243221 65.2185037,50.327951 C65.2185037,50.327951 56.4251627,51.4229865 49.2701139,50.8386495 C39.8475899,50.0691313 34.7045325,48.3315844 34.7045325,48.3315844 C34.3377028,48.1901398 33.9418316,48.1422915 33.5521922,48.192303 L33.5521922,48.192303 Z M33.5521922,36.3069576 C32.4301195,36.4567639 31.567805,37.3814511 31.4895451,38.5187996 C31.4112853,39.6561481 32.1387098,40.6918124 33.2295369,40.9960978 C33.2295369,40.9960978 39.0287697,42.9290249 48.901365,43.7352985 C56.8290076,44.3827319 65.8177207,43.1781729 65.8177207,43.1781729 C66.7239774,43.1520064 67.5368538,42.6097589 67.9144172,41.7795242 C68.2919807,40.9492895 68.1687153,39.9751324 67.5964721,39.2668274 C67.0242289,38.5585224 66.1023051,38.2389766 65.2185037,38.4426056 C65.2185037,38.4426056 56.4251627,39.5376411 49.2701139,38.953304 C39.8475899,38.1837859 34.7045325,36.446239 34.7045325,36.446239 C34.3377028,36.3047944 33.9418316,36.2569461 33.5521922,36.3069576 L33.5521922,36.3069576 Z M33.5521922,24.4216121 C32.4301195,24.5714184 31.567805,25.4961056 31.4895451,26.6334541 C31.4112853,27.7708027 32.1387098,28.806467 33.2295369,29.1107523 C33.2295369,29.1107523 39.0287697,31.0436794 48.901365,31.849953 C56.8290076,32.4973864 65.8177207,31.2928275 65.8177207,31.2928275 C66.7239774,31.266661 67.5368538,30.7244135 67.9144172,29.8941788 C68.2919807,29.0639441 68.1687153,28.0897869 67.5964721,27.3814819 C67.0242289,26.6731769 66.1023051,26.3536312 65.2185037,26.5572601 C65.2185037,26.5572601 56.4251627,27.6522956 49.2701139,27.0679586 C39.8475899,26.2984404 34.7045325,24.5608935 34.7045325,24.5608935 C34.3377028,24.4194489 33.9418316,24.3716006 33.5521922,24.4216121 Z M33.5521922,12.5362667 C32.4301195,12.686073 31.567805,13.6107602 31.4895451,14.7481087 C31.4112853,15.8854572 32.1387098,16.9211215 33.2295369,17.2254069 C33.2295369,17.2254069 39.0287697,19.158334 48.901365,19.9646076 C56.8290076,20.612041 65.8177207,19.407482 65.8177207,19.407482 C66.7239774,19.3813155 67.5368538,18.839068 67.9144172,18.0088333 C68.2919807,17.1785986 68.1687153,16.2044415 67.5964721,15.4961365 C67.0242289,14.7878315 66.1023051,14.4682857 65.2185037,14.6719147 C65.2185037,14.6719147 56.4251627,15.7669502 49.2701139,15.1826131 C39.8475899,14.4130949 34.7045325,12.6755481 34.7045325,12.6755481 C34.3377028,12.5341035 33.9418316,12.4862552 33.5521922,12.5362667 Z M17.020601,0.000690591032 C4.61998708,0.0849633554 0,3.93135382 0,3.93135382 L0,97.2072114 C0,97.2072114 4.511392,93.2827944 19.0356352,93.8820996 C33.5598784,94.4814047 36.5560089,99.6097612 54.4059025,99.9709405 C72.2557962,100.33212 76.7427622,97.2072114 76.7427622,97.2072114 L77,2.11765753 C77,2.11765753 68.9669779,4.40765458 53.3340763,4.53591975 C37.7011748,4.66419234 33.9436752,0.530344391 19.5929844,0.0448607141 C18.6960661,0.0145233699 17.8473094,-0.00386920221 17.020601,0.000690591032 L17.020601,0.000690591032 Z M27.3958807,6.09051847 C27.3958807,6.09051847 34.9100628,8.5924134 48.7895323,9.28607931 C60.5202003,9.87235368 72.2839656,8.12013137 72.2839656,8.12013137 L72.2839656,92.6297853 C72.2839656,92.6297853 66.3299026,95.7732436 51.4476617,94.7025821 C39.914183,93.8728379 27.2243874,89.4774069 27.2243874,89.4774069 L27.3958807,6.09051847 L27.3958807,6.09051847 Z M20.1503351,8.29286407 C21.4763105,8.29286407 22.551226,9.37555728 22.551226,10.711127 C22.551226,12.0466968 21.4763105,13.12939 20.1503351,13.12939 C20.1503351,13.12939 16.2637438,13.1494911 13.8908683,13.3884905 C9.90686834,13.7897739 7.20267338,15.2453707 7.20267338,15.2453707 C6.44446997,15.6465785 5.5313522,15.6098616 4.80731472,15.1490522 C4.08327724,14.6882427 3.65833078,13.8733564 3.69256345,13.0113817 C3.72679612,12.1494069 4.2150066,11.3713127 4.9732736,10.9702268 C4.9732736,10.9702268 8.50088042,9.09054457 13.419265,8.59514703 C16.261288,8.30886026 20.1503351,8.29286407 20.1503351,8.29286407 Z M17.8351894,20.2114469 C19.1623535,20.1775885 20.1503351,20.2114469 20.1503351,20.2114469 C21.3537407,20.3583596 22.2588041,21.3871341 22.2588041,22.6081179 C22.2588041,23.8291017 21.3537407,24.8578762 20.1503351,25.0047889 C20.1503351,25.0047889 16.2637438,25.0248751 13.8908683,25.2638879 C9.90686834,25.6651729 7.20267338,27.1207696 7.20267338,27.1207696 C6.03062271,27.7407266 4.58152363,27.2863553 3.96592663,26.1058735 C3.35032963,24.9253918 3.80132122,23.4657712 4.9732736,22.8456257 C4.9732736,22.8456257 8.50088042,20.9659435 13.419265,20.4705459 C14.8402772,20.3274018 16.5080252,20.2453008 17.8351894,20.2114469 L17.8351894,20.2114469 Z M20.1503351,32.0868443 C21.4763105,32.0868443 22.551226,33.1695375 22.551226,34.5051073 C22.551226,35.840677 21.4763105,36.9233702 20.1503351,36.9233702 C20.1503351,36.9233702 16.2637438,36.9002829 13.8908683,37.1392868 C9.90686834,37.5405703 7.20267338,38.996167 7.20267338,38.996167 C6.03069708,39.6155629 4.58210908,39.1610746 3.96666294,37.9808825 C3.3512168,36.8006905 3.8018223,35.3414273 4.9732736,34.7210246 C4.9732736,34.7210246 8.50088042,32.8413409 13.419265,32.3459448 C16.261288,32.0596566 20.1503351,32.0868443 20.1503351,32.0868443 L20.1503351,32.0868443 Z" id="path3929-8"></path>
            </g>
        </g>
    </g>
</svg>