<?xml version="1.0" encoding="UTF-8"?>
<svg width="527px" height="264px" viewBox="0 0 527 264" version="1.1" xmlns="http://www.w3.org/2000/svg" xmlns:xlink="http://www.w3.org/1999/xlink">
    <title>OrangeQS-logo_tagline_diapositive</title>
    <defs>
        <linearGradient x1="21.6916296%" y1="6.49922382%" x2="50.2120684%" y2="53.4749506%" id="linearGradient-1">
            <stop stop-color="#FCC00D" offset="0%"></stop>
            <stop stop-color="#EC6E19" offset="100%"></stop>
        </linearGradient>
        <linearGradient x1="24.5341669%" y1="10.4272533%" x2="51.1080503%" y2="51.7291388%" id="linearGradient-2">
            <stop stop-color="#FCC00D" offset="0%"></stop>
            <stop stop-color="#EC6E19" offset="100%"></stop>
        </linearGradient>
    </defs>
    <g id="Page-1" stroke="none" stroke-width="1" fill="none" fill-rule="evenodd">
        <g id="OrangeQS-logo_tagline_diapositive" fill-rule="nonzero">
            <g id="Laag_1">
                <g id="Group" transform="translate(0.000000, 181.000000)" fill="#FFFFFF">
                    <polygon id="Path" points="0.83 25.41 0.83 0.71 5.64 0.71 5.64 12.45 16.02 0.67 21.32 0.67 11.84 11.65 21.91 25.41 16.51 25.41 8.81 14.71 5.64 18.02 5.64 25.41"></polygon>
                    <polygon id="Path" points="30.69 9.56 30.69 25.41 25.88 25.41 25.88 0.67 29.61 0.67 42.5 16.91 42.5 0.71 47.31 0.71 47.31 25.41 43.41 25.41"></polygon>
                    <path d="M64.77,25.58 C62.96,25.58 61.31,25.23 59.84,24.52 C58.36,23.81 57.1,22.87 56.04,21.7 C54.98,20.53 54.16,19.19 53.58,17.68 C53,16.17 52.71,14.63 52.71,13.05 C52.71,11.4 53.02,9.82 53.63,8.31 C54.25,6.8 55.09,5.46 56.17,4.3 C57.25,3.14 58.53,2.22 60.02,1.53 C61.51,0.85 63.12,0.5 64.86,0.5 C66.65,0.5 68.28,0.87 69.76,1.6 C71.23,2.33 72.49,3.29 73.54,4.48 C74.59,5.67 75.4,7.01 75.98,8.52 C76.56,10.03 76.85,11.56 76.85,13.12 C76.85,14.77 76.55,16.34 75.94,17.84 C75.34,19.34 74.5,20.66 73.43,21.81 C72.36,22.96 71.08,23.88 69.6,24.56 C68.12,25.24 66.51,25.58 64.77,25.58 Z M57.59,13.04 C57.59,14.11 57.75,15.14 58.08,16.14 C58.41,17.14 58.88,18.02 59.49,18.79 C60.11,19.56 60.86,20.17 61.76,20.64 C62.65,21.1 63.67,21.34 64.81,21.34 C65.97,21.34 67,21.1 67.89,20.63 C68.78,20.15 69.54,19.52 70.15,18.73 C70.77,17.94 71.23,17.05 71.54,16.06 C71.85,15.07 72.01,14.07 72.01,13.05 C72.01,11.98 71.84,10.95 71.51,9.95 C71.17,8.95 70.7,8.07 70.08,7.3 C69.46,6.53 68.71,5.92 67.82,5.47 C66.93,5.02 65.92,4.79 64.81,4.79 C63.65,4.79 62.62,5.03 61.71,5.5 C60.8,5.98 60.05,6.6 59.45,7.38 C58.85,8.16 58.39,9.04 58.07,10.03 C57.74,11.01 57.59,12.02 57.59,13.04 Z" id="Shape"></path>
                    <polygon id="Path" points="89.92 0.74 94.35 0.74 97.14 8.93 99.93 0.74 104.39 0.74 100.17 12 103.31 19.91 110.31 0.68 115.54 0.68 105.47 25.42 101.43 25.42 97.14 15.04 92.85 25.42 88.81 25.42 78.81 0.68 83.97 0.68 91 19.9 94.07 11.99"></polygon>
                    <polygon id="Path" points="130.34 0.67 136.44 12.59 142.64 0.67 147.83 0.67 138.84 16.77 138.84 25.41 134.07 25.41 134.07 16.7 125.12 0.67 130.34 0.67"></polygon>
                    <path d="M161.18,25.58 C159.37,25.58 157.72,25.23 156.25,24.52 C154.77,23.81 153.51,22.87 152.45,21.7 C151.39,20.53 150.57,19.19 149.99,17.68 C149.41,16.17 149.12,14.63 149.12,13.05 C149.12,11.4 149.43,9.82 150.04,8.31 C150.66,6.8 151.5,5.46 152.58,4.3 C153.66,3.14 154.94,2.22 156.43,1.53 C157.92,0.85 159.53,0.5 161.27,0.5 C163.06,0.5 164.69,0.87 166.17,1.6 C167.64,2.33 168.9,3.29 169.95,4.48 C171,5.67 171.81,7.01 172.39,8.52 C172.97,10.03 173.26,11.56 173.26,13.12 C173.26,14.77 172.96,16.34 172.35,17.84 C171.75,19.34 170.91,20.66 169.84,21.81 C168.77,22.96 167.49,23.88 166.01,24.56 C164.53,25.24 162.92,25.58 161.18,25.58 Z M154,13.04 C154,14.11 154.16,15.14 154.49,16.14 C154.82,17.14 155.29,18.02 155.9,18.79 C156.52,19.56 157.27,20.17 158.17,20.64 C159.06,21.1 160.08,21.34 161.22,21.34 C162.38,21.34 163.41,21.1 164.3,20.63 C165.19,20.15 165.95,19.52 166.56,18.73 C167.18,17.94 167.64,17.05 167.95,16.06 C168.26,15.07 168.42,14.07 168.42,13.05 C168.42,11.98 168.25,10.95 167.92,9.95 C167.58,8.95 167.11,8.07 166.49,7.3 C165.87,6.53 165.12,5.92 164.23,5.47 C163.34,5.02 162.33,4.79 161.22,4.79 C160.06,4.79 159.03,5.03 158.12,5.5 C157.21,5.98 156.46,6.6 155.86,7.38 C155.26,8.16 154.8,9.04 154.48,10.03 C154.15,11.01 154,12.02 154,13.04 Z" id="Shape"></path>
                    <path d="M189.15,21.33 C190.29,21.33 191.25,21.1 192.02,20.63 C192.8,20.17 193.43,19.56 193.9,18.82 C194.37,18.08 194.71,17.22 194.91,16.26 C195.11,15.3 195.21,14.3 195.21,13.28 L195.21,0.67 L199.98,0.67 L199.98,13.28 C199.98,14.98 199.78,16.57 199.37,18.05 C198.96,19.53 198.33,20.84 197.45,21.95 C196.57,23.06 195.46,23.95 194.09,24.6 C192.72,25.25 191.08,25.58 189.18,25.58 C187.21,25.58 185.53,25.24 184.15,24.55 C182.77,23.87 181.65,22.96 180.79,21.83 C179.93,20.7 179.31,19.4 178.93,17.91 C178.55,16.42 178.36,14.88 178.36,13.28 L178.36,0.67 L183.17,0.67 L183.17,13.28 C183.17,14.32 183.27,15.33 183.47,16.29 C183.67,17.25 184,18.11 184.48,18.85 C184.96,19.59 185.58,20.19 186.34,20.64 C187.1,21.09 188.04,21.33 189.15,21.33 Z" id="Path"></path>
                    <path d="M206.58,25.41 L206.58,0.67 L217.52,0.67 C218.66,0.67 219.71,0.91 220.67,1.38 C221.63,1.86 222.46,2.48 223.16,3.26 C223.86,4.04 224.4,4.92 224.8,5.91 C225.19,6.9 225.39,7.89 225.39,8.89 C225.39,10.49 224.99,11.95 224.19,13.26 C223.39,14.57 222.3,15.52 220.93,16.1 L226.57,25.4 L221.17,25.4 L216.12,17.11 L211.38,17.11 L211.38,25.4 L206.58,25.4 L206.58,25.41 Z M211.38,12.9 L217.41,12.9 C217.85,12.9 218.26,12.8 218.65,12.59 C219.04,12.38 219.36,12.1 219.64,11.74 C219.92,11.38 220.14,10.96 220.3,10.47 C220.46,9.98 220.54,9.46 220.54,8.9 C220.54,8.32 220.45,7.78 220.26,7.3 C220.07,6.81 219.82,6.39 219.51,6.03 C219.2,5.67 218.84,5.39 218.43,5.19 C218.02,4.99 217.61,4.89 217.19,4.89 L211.37,4.89 L211.37,12.9 L211.38,12.9 Z" id="Shape"></path>
                    <path d="M258.42,23.81 C257.51,24.37 256.54,24.8 255.49,25.12 C254.45,25.43 253.33,25.59 252.15,25.59 C250.34,25.59 248.69,25.23 247.22,24.51 C245.74,23.79 244.48,22.85 243.42,21.69 C242.36,20.53 241.54,19.19 240.96,17.68 C240.38,16.17 240.09,14.63 240.09,13.05 C240.09,11.4 240.4,9.82 241.01,8.31 C241.63,6.8 242.47,5.46 243.55,4.3 C244.63,3.14 245.91,2.22 247.4,1.53 C248.89,0.85 250.5,0.5 252.24,0.5 C254.03,0.5 255.66,0.87 257.14,1.6 C258.61,2.33 259.87,3.29 260.92,4.48 C261.97,5.67 262.78,7.01 263.36,8.52 C263.94,10.03 264.23,11.56 264.23,13.12 C264.23,14.72 263.95,16.26 263.38,17.72 C262.81,19.18 262.02,20.48 260.99,21.62 L264.37,25.42 L259.84,25.42 L258.42,23.81 Z M252.18,21.33 C252.81,21.33 253.39,21.25 253.94,21.1 C254.49,20.95 254.99,20.75 255.46,20.49 L251.7,16.24 L256.23,16.24 L257.94,18.16 C258.4,17.42 258.76,16.6 259.02,15.72 C259.27,14.84 259.4,13.94 259.4,13.04 C259.4,11.97 259.23,10.94 258.9,9.94 C258.56,8.94 258.09,8.06 257.47,7.29 C256.85,6.52 256.1,5.91 255.21,5.44 C254.32,4.98 253.31,4.74 252.2,4.74 C251.04,4.74 250.01,4.98 249.1,5.45 C248.19,5.93 247.44,6.56 246.84,7.35 C246.24,8.14 245.78,9.03 245.46,10.02 C245.15,11.01 244.99,12.01 244.99,13.03 C244.99,14.1 245.15,15.13 245.48,16.13 C245.81,17.13 246.28,18.01 246.89,18.78 C247.51,19.55 248.26,20.16 249.16,20.63 C250.03,21.1 251.05,21.33 252.18,21.33 Z" id="Shape"></path>
                    <path d="M280.09,21.33 C281.23,21.33 282.19,21.1 282.96,20.63 C283.74,20.17 284.37,19.56 284.84,18.82 C285.31,18.08 285.65,17.22 285.85,16.26 C286.05,15.3 286.15,14.3 286.15,13.28 L286.15,0.67 L290.92,0.67 L290.92,13.28 C290.92,14.98 290.72,16.57 290.31,18.05 C289.9,19.53 289.27,20.84 288.39,21.95 C287.51,23.06 286.4,23.95 285.03,24.6 C283.66,25.25 282.02,25.58 280.12,25.58 C278.15,25.58 276.47,25.24 275.09,24.55 C273.71,23.87 272.59,22.96 271.73,21.83 C270.87,20.7 270.25,19.4 269.87,17.91 C269.49,16.42 269.3,14.88 269.3,13.28 L269.3,0.67 L274.11,0.67 L274.11,13.28 C274.11,14.32 274.21,15.33 274.41,16.29 C274.61,17.25 274.94,18.11 275.42,18.85 C275.9,19.59 276.52,20.19 277.28,20.64 C278.04,21.09 278.98,21.33 280.09,21.33 Z" id="Path"></path>
                    <path d="M303.51,0.67 L307.76,0.67 L317.17,25.41 L312.22,25.41 L309.92,19.24 L301.28,19.24 L299.02,25.41 L294.07,25.41 L303.51,0.67 Z M309.05,15.86 L305.63,6.14 L302.08,15.86 L309.05,15.86 Z" id="Shape"></path>
                    <polygon id="Path" points="326.43 9.56 326.43 25.41 321.62 25.41 321.62 0.67 325.35 0.67 338.24 16.91 338.24 0.71 343.05 0.71 343.05 25.41 339.15 25.41"></polygon>
                    <polygon id="Path" points="368.45 4.89 360.54 4.89 360.54 25.41 355.77 25.41 355.77 4.89 347.86 4.89 347.86 0.67 368.45 0.67 368.45 4.89"></polygon>
                    <path d="M383.71,21.33 C384.85,21.33 385.81,21.1 386.58,20.63 C387.35,20.16 387.99,19.56 388.46,18.82 C388.94,18.08 389.27,17.22 389.47,16.26 C389.67,15.3 389.77,14.3 389.77,13.28 L389.77,0.67 L394.54,0.67 L394.54,13.28 C394.54,14.98 394.34,16.57 393.93,18.05 C393.52,19.54 392.88,20.84 392.01,21.95 C391.14,23.06 390.02,23.95 388.65,24.6 C387.28,25.25 385.64,25.58 383.74,25.58 C381.77,25.58 380.09,25.24 378.7,24.55 C377.32,23.87 376.2,22.96 375.34,21.83 C374.48,20.7 373.86,19.4 373.48,17.91 C373.1,16.42 372.9,14.88 372.9,13.28 L372.9,0.67 L377.71,0.67 L377.71,13.28 C377.71,14.32 377.81,15.33 378.01,16.29 C378.21,17.25 378.54,18.11 379.02,18.85 C379.5,19.59 380.12,20.19 380.88,20.64 C381.64,21.09 382.6,21.33 383.71,21.33 Z" id="Path"></path>
                    <polygon id="Path" points="421.31 25.41 421.31 9.03 414.93 21.23 412.32 21.23 405.94 9.03 405.94 25.41 401.13 25.41 401.13 0.67 406.29 0.67 413.61 14.75 421 0.67 426.12 0.67 426.12 25.41"></polygon>
                    <path d="M441.62,12.87 C441.62,11.36 441.89,9.87 442.44,8.39 C442.98,6.92 443.78,5.6 444.83,4.43 C445.87,3.27 447.15,2.33 448.66,1.61 C450.17,0.89 451.89,0.53 453.82,0.53 C456.1,0.53 458.06,1.03 459.73,2.03 C461.39,3.03 462.63,4.33 463.44,5.93 L459.75,8.47 C459.42,7.77 459.03,7.19 458.57,6.71 C458.11,6.23 457.61,5.86 457.07,5.58 C456.53,5.3 455.98,5.1 455.4,4.97 C454.82,4.84 454.25,4.78 453.69,4.78 C452.48,4.78 451.43,5.02 450.54,5.51 C449.65,6 448.9,6.63 448.31,7.41 C447.72,8.19 447.27,9.07 446.97,10.06 C446.67,11.05 446.52,12.03 446.52,13 C446.52,14.09 446.69,15.14 447.04,16.15 C447.39,17.16 447.88,18.05 448.52,18.82 C449.16,19.59 449.93,20.2 450.82,20.67 C451.71,21.13 452.7,21.37 453.76,21.37 C454.32,21.37 454.9,21.3 455.5,21.16 C456.1,21.02 456.68,20.8 457.22,20.5 C457.77,20.2 458.27,19.81 458.74,19.33 C459.2,18.85 459.58,18.28 459.86,17.61 L463.8,19.87 C463.4,20.8 462.84,21.62 462.11,22.33 C461.38,23.04 460.55,23.64 459.64,24.12 C458.72,24.61 457.74,24.98 456.7,25.24 C455.66,25.49 454.63,25.62 453.63,25.62 C451.86,25.62 450.25,25.25 448.79,24.5 C447.33,23.76 446.07,22.79 445.01,21.59 C443.95,20.39 443.13,19.04 442.54,17.51 C441.92,16 441.62,14.45 441.62,12.87 Z" id="Path"></path>
                    <polygon id="Path" points="489.57 0.67 489.57 25.41 484.8 25.41 484.8 14.85 473.58 14.85 473.58 25.41 468.77 25.41 468.77 0.67 473.58 0.67 473.58 10.67 484.8 10.67 484.8 0.67 489.57 0.67"></polygon>
                    <polygon id="Path" points="496.46 25.41 496.46 0.67 501.27 0.67 501.27 25.41"></polygon>
                    <path d="M508.17,25.41 L508.17,0.67 L518.66,0.67 C519.8,0.67 520.85,0.91 521.81,1.38 C522.77,1.86 523.6,2.48 524.3,3.26 C525,4.04 525.54,4.92 525.94,5.91 C526.33,6.9 526.53,7.89 526.53,8.89 C526.53,9.94 526.34,10.95 525.97,11.94 C525.6,12.93 525.08,13.8 524.4,14.57 C523.73,15.34 522.91,15.95 521.96,16.42 C521.01,16.89 519.96,17.12 518.82,17.12 L512.97,17.12 L512.97,25.41 L508.17,25.41 Z M512.98,12.9 L518.56,12.9 C519.44,12.9 520.18,12.54 520.77,11.82 C521.36,11.1 521.66,10.12 521.66,8.89 C521.66,8.26 521.57,7.7 521.38,7.2 C521.19,6.7 520.95,6.28 520.65,5.93 C520.35,5.58 519.99,5.32 519.59,5.15 C519.18,4.98 518.77,4.89 518.35,4.89 L512.98,4.89 L512.98,12.9 L512.98,12.9 Z" id="Shape"></path>
                </g>
                <g id="Group" transform="translate(112.000000, 0.000000)">
                    <path d="M246.41,60.77 L197.35,60.77 C197.35,60.77 197.34,60.77 197.34,60.77 C189.21,60.76 182.61,54.17 182.61,46.04 C182.61,37.91 189.2,31.31 197.33,31.31 C197.33,31.31 197.34,31.31 197.34,31.31 L267.9,31.31 C275.52,31.31 281.7,25.13 281.7,17.51 C281.7,9.89 275.52,3.71 267.9,3.71 L197.34,3.71 C173.96,3.71 155.01,22.66 155.01,46.04 C155.01,69.42 173.96,88.37 197.34,88.37 L246.4,88.37 C246.4,88.37 246.41,88.37 246.41,88.37 C254.54,88.38 261.14,94.97 261.14,103.1 C261.14,111.23 254.55,117.83 246.42,117.83 C246.42,117.83 246.41,117.83 246.41,117.83 L170.16,117.83 C162.54,117.83 156.36,124.01 156.36,131.63 C156.36,139.25 162.54,145.43 170.16,145.43 L246.41,145.43 C269.79,145.43 288.74,126.48 288.74,103.1 C288.74,79.72 269.78,60.77 246.41,60.77 Z" id="Path" fill="url(#linearGradient-1)"></path>
                    <path d="M74.97,0.27 C33.67,0.27 0.19,33.75 0.19,75.05 C0.19,116.35 33.67,149.83 74.97,149.83 C83.92,149.83 92.5,148.25 100.46,145.37 C91.61,139.53 85.77,129.5 85.77,118.11 C85.77,100.08 100.39,85.46 118.42,85.46 C129.7,85.46 139.65,91.19 145.51,99.89 C148.25,92.12 149.75,83.76 149.75,75.05 C149.75,33.75 116.27,0.27 74.97,0.27 Z" id="Path" fill="url(#linearGradient-2)"></path>
                    <circle id="Oval" fill="#EC6E19" cx="118.41" cy="118.34" r="15.49"></circle>
                </g>
                <g id="Group" transform="translate(116.000000, 233.000000)" fill="#EB7422">
                    <path d="M10.46,21.1 C8.6,21.1 6.94,20.68 5.46,19.83 C3.98,18.98 2.81,17.79 1.95,16.26 C1.09,14.73 0.66,12.95 0.66,10.91 C0.66,8.87 1.1,7.09 1.97,5.56 C2.85,4.03 4.03,2.84 5.52,1.99 C7.01,1.14 8.67,0.72 10.5,0.72 C12.35,0.72 14.02,1.15 15.5,1.99 C16.98,2.84 18.15,4.03 19.03,5.56 C19.91,7.09 20.34,8.87 20.34,10.91 C20.34,12.95 19.9,14.73 19.03,16.26 C18.15,17.79 16.97,18.98 15.48,19.83 C13.99,20.68 12.31,21.1 10.46,21.1 Z M10.46,17.53 C11.45,17.53 12.37,17.28 13.22,16.79 C14.07,16.29 14.75,15.56 15.28,14.58 C15.8,13.6 16.06,12.38 16.06,10.92 C16.06,9.46 15.81,8.24 15.3,7.26 C14.79,6.28 14.11,5.54 13.26,5.05 C12.41,4.55 11.49,4.31 10.5,4.31 C9.51,4.31 8.59,4.56 7.74,5.05 C6.89,5.55 6.2,6.28 5.68,7.26 C5.16,8.24 4.9,9.46 4.9,10.92 C4.9,12.38 5.16,13.6 5.68,14.58 C6.2,15.56 6.88,16.3 7.72,16.79 C8.55,17.29 9.47,17.53 10.46,17.53 Z" id="Shape"></path>
                    <path d="M26.8,20.63 L26.8,1.19 L30.52,1.19 L30.87,4.87 C31.55,3.59 32.5,2.58 33.71,1.83 C34.93,1.09 36.39,0.71 38.12,0.71 L38.12,5.06 L36.98,5.06 C35.83,5.06 34.8,5.25 33.9,5.63 C33,6.01 32.28,6.65 31.74,7.55 C31.2,8.45 30.94,9.7 30.94,11.29 L30.94,20.62 L26.8,20.62 L26.8,20.63 Z" id="Path"></path>
                    <path d="M50.24,21.1 C48.59,21.1 47.24,20.83 46.16,20.28 C45.09,19.73 44.29,19.01 43.77,18.1 C43.25,17.2 42.99,16.21 42.99,15.14 C42.99,13.26 43.72,11.77 45.18,10.67 C46.64,9.57 48.73,9.02 51.45,9.02 L56.54,9.02 L56.54,8.67 C56.54,7.16 56.13,6.02 55.31,5.26 C54.49,4.5 53.42,4.12 52.12,4.12 C50.97,4.12 49.97,4.4 49.12,4.96 C48.27,5.52 47.75,6.35 47.57,7.45 L43.42,7.45 C43.55,6.04 44.03,4.83 44.85,3.82 C45.67,2.81 46.72,2.04 47.99,1.51 C49.26,0.97 50.65,0.71 52.16,0.71 C54.88,0.71 56.98,1.42 58.47,2.85 C59.96,4.27 60.7,6.21 60.7,8.67 L60.7,20.62 L57.09,20.62 L56.74,17.29 C56.19,18.36 55.39,19.26 54.35,19.99 C53.31,20.73 51.94,21.1 50.24,21.1 Z M51.06,17.73 C52.18,17.73 53.13,17.46 53.9,16.93 C54.67,16.39 55.27,15.68 55.7,14.79 C56.13,13.9 56.4,12.92 56.5,11.85 L51.88,11.85 C50.23,11.85 49.06,12.14 48.37,12.71 C47.68,13.28 47.33,14 47.33,14.87 C47.33,15.76 47.66,16.46 48.33,16.97 C49,17.48 49.91,17.73 51.06,17.73 Z" id="Shape"></path>
                    <path d="M67.52,20.63 L67.52,1.19 L71.2,1.19 L71.51,4.6 C72.11,3.4 72.99,2.45 74.16,1.76 C75.32,1.07 76.66,0.72 78.18,0.72 C80.53,0.72 82.38,1.45 83.73,2.91 C85.08,4.37 85.75,6.56 85.75,9.46 L85.75,20.63 L81.63,20.63 L81.63,9.89 C81.63,6.13 80.09,4.25 77.01,4.25 C75.47,4.25 74.19,4.8 73.19,5.9 C72.18,7 71.68,8.57 71.68,10.6 L71.68,20.63 L67.52,20.63 Z" id="Path"></path>
                    <path d="M100.56,14.67 C99.54,14.67 98.6,14.55 97.74,14.32 L96.05,15.97 C96.34,16.15 96.69,16.31 97.11,16.44 C97.53,16.57 98.12,16.69 98.87,16.79 C99.63,16.89 100.66,17 101.97,17.1 C104.56,17.34 106.42,17.96 107.57,18.96 C108.72,19.97 109.29,21.3 109.29,22.98 C109.29,24.13 108.98,25.22 108.37,26.25 C107.76,27.28 106.8,28.12 105.51,28.76 C104.22,29.4 102.56,29.72 100.55,29.72 C97.83,29.72 95.63,29.2 93.95,28.17 C92.26,27.14 91.42,25.58 91.42,23.49 C91.42,22.68 91.64,21.88 92.07,21.08 C92.5,20.28 93.19,19.53 94.13,18.83 C93.58,18.6 93.1,18.34 92.7,18.07 C92.29,17.8 91.94,17.51 91.62,17.23 L91.62,16.29 L94.99,12.84 C93.47,11.53 92.72,9.82 92.72,7.71 C92.72,6.43 93.03,5.26 93.64,4.2 C94.25,3.14 95.15,2.3 96.32,1.67 C97.5,1.04 98.91,0.73 100.55,0.73 C101.65,0.73 102.67,0.89 103.61,1.2 L110.86,1.2 L110.86,3.94 L107.41,4.14 C108.04,5.21 108.35,6.4 108.35,7.71 C108.35,9.02 108.04,10.19 107.43,11.24 C106.82,12.29 105.93,13.12 104.76,13.75 C103.61,14.36 102.21,14.67 100.56,14.67 Z M95.35,23.1 C95.35,24.22 95.85,25.07 96.84,25.63 C97.83,26.19 99.07,26.47 100.56,26.47 C102,26.47 103.16,26.16 104.05,25.55 C104.94,24.94 105.38,24.12 105.38,23.1 C105.38,22.34 105.08,21.7 104.48,21.16 C103.88,20.62 102.74,20.29 101.07,20.16 C99.82,20.08 98.7,19.96 97.74,19.81 C96.83,20.31 96.2,20.84 95.86,21.42 C95.52,21.99 95.35,22.55 95.35,23.1 Z M100.56,11.42 C101.76,11.42 102.74,11.1 103.48,10.46 C104.22,9.82 104.6,8.91 104.6,7.74 C104.6,6.54 104.23,5.62 103.48,5 C102.74,4.37 101.76,4.06 100.56,4.06 C99.33,4.06 98.35,4.37 97.6,5 C96.86,5.63 96.48,6.54 96.48,7.74 C96.48,8.92 96.85,9.82 97.6,10.46 C98.34,11.1 99.33,11.42 100.56,11.42 Z" id="Shape"></path>
                    <path d="M124.86,21.1 C122.95,21.1 121.26,20.68 119.78,19.83 C118.3,18.98 117.15,17.8 116.31,16.28 C115.47,14.76 115.06,13 115.06,10.99 C115.06,8.95 115.47,7.16 116.29,5.62 C117.11,4.08 118.26,2.88 119.74,2.01 C121.22,1.15 122.93,0.72 124.89,0.72 C126.8,0.72 128.46,1.15 129.87,1.99 C131.28,2.84 132.38,3.97 133.16,5.38 C133.94,6.79 134.34,8.35 134.34,10.04 C134.34,10.3 134.33,10.58 134.32,10.88 C134.31,11.18 134.29,11.51 134.26,11.88 L119.13,11.88 C119.26,13.76 119.88,15.19 120.99,16.17 C122.1,17.15 123.39,17.64 124.85,17.64 C126.03,17.64 127.01,17.37 127.81,16.84 C128.61,16.3 129.2,15.58 129.59,14.67 L133.74,14.67 C133.22,16.5 132.18,18.03 130.62,19.26 C129.08,20.49 127.16,21.1 124.86,21.1 Z M124.86,4.13 C123.47,4.13 122.25,4.54 121.18,5.36 C120.11,6.18 119.46,7.42 119.22,9.06 L130.19,9.06 C130.11,7.55 129.58,6.34 128.58,5.45 C127.59,4.58 126.35,4.13 124.86,4.13 Z" id="Shape"></path>
                    <path d="M156.29,29.25 L156.29,17.61 C155.66,18.53 154.8,19.33 153.7,20.04 C152.6,20.75 151.19,21.1 149.47,21.1 C147.59,21.1 145.93,20.66 144.49,19.77 C143.05,18.88 141.93,17.67 141.12,16.13 C140.31,14.59 139.9,12.84 139.9,10.88 C139.9,8.92 140.31,7.18 141.12,5.65 C141.93,4.12 143.06,2.92 144.51,2.04 C145.96,1.16 147.63,0.73 149.51,0.73 C151.05,0.73 152.4,1.03 153.57,1.63 C154.73,2.23 155.64,3.08 156.29,4.18 L156.72,1.2 L160.44,1.2 L160.44,29.26 L156.29,29.26 L156.29,29.25 Z M150.21,17.49 C151.99,17.49 153.44,16.88 154.58,15.65 C155.72,14.42 156.28,12.84 156.28,10.91 C156.28,8.95 155.71,7.36 154.58,6.15 C153.44,4.93 151.99,4.33 150.21,4.33 C148.43,4.33 146.97,4.94 145.82,6.15 C144.67,7.36 144.1,8.95 144.1,10.91 C144.1,12.19 144.36,13.33 144.88,14.32 C145.4,15.31 146.13,16.09 147.06,16.65 C147.99,17.21 149.04,17.49 150.21,17.49 Z" id="Shape"></path>
                    <path d="M175.41,21.1 C172.95,21.1 170.93,20.5 169.34,19.3 C167.75,18.1 166.83,16.5 166.6,14.52 L170.79,14.52 C171,15.41 171.5,16.17 172.28,16.81 C173.06,17.45 174.1,17.77 175.38,17.77 C176.63,17.77 177.55,17.51 178.12,16.99 C178.69,16.47 178.98,15.87 178.98,15.19 C178.98,14.2 178.58,13.52 177.78,13.17 C176.98,12.82 175.88,12.5 174.47,12.21 C173.37,11.98 172.28,11.66 171.2,11.27 C170.12,10.88 169.21,10.32 168.5,9.6 C167.78,8.88 167.42,7.91 167.42,6.68 C167.42,4.98 168.07,3.56 169.38,2.43 C170.69,1.29 172.52,0.72 174.87,0.72 C177.04,0.72 178.79,1.24 180.14,2.29 C181.49,3.33 182.28,4.81 182.51,6.72 L178.51,6.72 C178.38,5.88 177.99,5.23 177.35,4.76 C176.71,4.29 175.85,4.05 174.78,4.05 C173.73,4.05 172.92,4.27 172.35,4.7 C171.78,5.13 171.49,5.69 171.49,6.37 C171.49,7.05 171.89,7.58 172.69,7.98 C173.49,8.37 174.54,8.72 175.84,9.04 C177.15,9.33 178.35,9.66 179.47,10.04 C180.58,10.42 181.47,10.97 182.15,11.71 C182.83,12.44 183.17,13.51 183.17,14.92 C183.2,16.7 182.51,18.17 181.11,19.35 C179.72,20.51 177.82,21.1 175.41,21.1 Z" id="Path"></path>
                    <path d="M191.33,20.87 C190.55,20.87 189.9,20.62 189.39,20.11 C188.88,19.6 188.63,18.99 188.63,18.29 C188.63,17.56 188.88,16.94 189.39,16.43 C189.9,15.92 190.55,15.67 191.33,15.67 C192.11,15.67 192.75,15.92 193.25,16.43 C193.75,16.94 193.99,17.56 193.99,18.29 C193.99,19 193.74,19.6 193.25,20.11 C192.75,20.61 192.11,20.87 191.33,20.87 Z" id="Path"></path>
                    <path d="M209.35,21.1 C207.44,21.1 205.74,20.67 204.24,19.81 C202.74,18.95 201.56,17.75 200.71,16.22 C199.86,14.69 199.44,12.92 199.44,10.91 C199.44,8.9 199.86,7.13 200.71,5.6 C201.56,4.07 202.73,2.88 204.24,2.01 C205.74,1.15 207.45,0.72 209.35,0.72 C211.75,0.72 213.77,1.35 215.4,2.6 C217.03,3.85 218.08,5.55 218.55,7.7 L214.2,7.7 C213.94,6.63 213.36,5.79 212.48,5.19 C211.59,4.59 210.55,4.29 209.34,4.29 C208.32,4.29 207.38,4.54 206.52,5.05 C205.66,5.56 204.96,6.3 204.44,7.28 C203.92,8.26 203.66,9.47 203.66,10.91 C203.66,12.35 203.92,13.56 204.44,14.54 C204.96,15.52 205.66,16.27 206.52,16.79 C207.38,17.31 208.32,17.57 209.34,17.57 C210.54,17.57 211.59,17.27 212.48,16.67 C213.37,16.07 213.94,15.22 214.2,14.12 L218.55,14.12 C218.11,16.21 217.06,17.9 215.41,19.18 C213.78,20.46 211.76,21.1 209.35,21.1 Z" id="Path"></path>
                    <path d="M234.12,21.1 C232.26,21.1 230.6,20.68 229.12,19.83 C227.64,18.98 226.47,17.79 225.61,16.26 C224.75,14.73 224.32,12.95 224.32,10.91 C224.32,8.87 224.76,7.09 225.63,5.56 C226.51,4.03 227.69,2.84 229.18,1.99 C230.67,1.14 232.33,0.72 234.16,0.72 C236.02,0.72 237.68,1.15 239.16,1.99 C240.64,2.84 241.81,4.03 242.69,5.56 C243.57,7.09 244,8.87 244,10.91 C244,12.95 243.56,14.73 242.69,16.26 C241.81,17.79 240.63,18.98 239.14,19.83 C237.65,20.68 235.98,21.1 234.12,21.1 Z M234.12,17.53 C235.11,17.53 236.03,17.28 236.88,16.79 C237.73,16.29 238.41,15.56 238.94,14.58 C239.46,13.6 239.72,12.38 239.72,10.92 C239.72,9.46 239.47,8.24 238.96,7.26 C238.45,6.28 237.77,5.54 236.92,5.05 C236.07,4.55 235.15,4.31 234.16,4.31 C233.17,4.31 232.25,4.56 231.4,5.05 C230.55,5.55 229.86,6.28 229.34,7.26 C228.82,8.24 228.56,9.46 228.56,10.92 C228.56,12.38 228.82,13.6 229.34,14.58 C229.86,15.56 230.54,16.3 231.38,16.79 C232.22,17.28 233.13,17.53 234.12,17.53 Z" id="Shape"></path>
                    <path d="M250.46,20.63 L250.46,1.19 L254.14,1.19 L254.49,3.93 C255.12,2.94 255.95,2.15 256.98,1.58 C258.01,1.01 259.21,0.72 260.57,0.72 C263.65,0.72 265.8,1.94 267,4.37 C267.71,3.25 268.65,2.36 269.84,1.7 C271.03,1.05 272.32,0.72 273.7,0.72 C276.13,0.72 278.04,1.45 279.42,2.91 C280.8,4.37 281.5,6.56 281.5,9.46 L281.5,20.63 L277.35,20.63 L277.35,9.89 C277.35,6.13 275.91,4.25 273.04,4.25 C271.58,4.25 270.38,4.8 269.45,5.9 C268.52,7 268.06,8.57 268.06,10.6 L268.06,20.63 L263.91,20.63 L263.91,9.89 C263.91,6.13 262.46,4.25 259.56,4.25 C258.12,4.25 256.94,4.8 256.01,5.9 C255.08,7 254.62,8.57 254.62,10.6 L254.62,20.63 L250.46,20.63 L250.46,20.63 Z" id="Path"></path>
                </g>
                <g id="Group" transform="translate(112.000000, 0.000000)" fill="#FFFFFF">
                    <path d="M246.41,60.77 L197.35,60.77 C197.35,60.77 197.34,60.77 197.34,60.77 C189.21,60.76 182.61,54.17 182.61,46.04 C182.61,37.91 189.2,31.31 197.33,31.31 C197.33,31.31 197.34,31.31 197.34,31.31 L267.9,31.31 C275.52,31.31 281.7,25.13 281.7,17.51 C281.7,9.89 275.52,3.71 267.9,3.71 L197.34,3.71 C173.96,3.71 155.01,22.66 155.01,46.04 C155.01,69.42 173.96,88.37 197.34,88.37 L246.4,88.37 C246.4,88.37 246.41,88.37 246.41,88.37 C254.54,88.38 261.14,94.97 261.14,103.1 C261.14,111.23 254.55,117.83 246.42,117.83 C246.42,117.83 246.41,117.83 246.41,117.83 L170.16,117.83 C162.54,117.83 156.36,124.01 156.36,131.63 C156.36,139.25 162.54,145.43 170.16,145.43 L246.41,145.43 C269.79,145.43 288.74,126.48 288.74,103.1 C288.74,79.72 269.78,60.77 246.41,60.77 Z" id="Path"></path>
                    <path d="M74.97,0.27 C33.67,0.27 0.19,33.75 0.19,75.05 C0.19,116.35 33.67,149.83 74.97,149.83 C83.92,149.83 92.5,148.25 100.46,145.37 C91.61,139.53 85.77,129.5 85.77,118.11 C85.77,100.08 100.39,85.46 118.42,85.46 C129.7,85.46 139.65,91.19 145.51,99.89 C148.25,92.12 149.75,83.76 149.75,75.05 C149.75,33.75 116.27,0.27 74.97,0.27 Z" id="Path"></path>
                    <circle id="Oval" cx="118.41" cy="118.34" r="15.49"></circle>
                </g>
                <g id="Group" transform="translate(116.000000, 233.000000)" fill="#FFFFFF">
                    <path d="M10.46,21.1 C8.6,21.1 6.94,20.68 5.46,19.83 C3.98,18.98 2.81,17.79 1.95,16.26 C1.09,14.73 0.66,12.95 0.66,10.91 C0.66,8.87 1.1,7.09 1.97,5.56 C2.85,4.03 4.03,2.84 5.52,1.99 C7.01,1.14 8.67,0.72 10.5,0.72 C12.35,0.72 14.02,1.15 15.5,1.99 C16.98,2.84 18.15,4.03 19.03,5.56 C19.91,7.09 20.34,8.87 20.34,10.91 C20.34,12.95 19.9,14.73 19.03,16.26 C18.15,17.79 16.97,18.98 15.48,19.83 C13.99,20.68 12.31,21.1 10.46,21.1 Z M10.46,17.53 C11.45,17.53 12.37,17.28 13.22,16.79 C14.07,16.29 14.75,15.56 15.28,14.58 C15.8,13.6 16.06,12.38 16.06,10.92 C16.06,9.46 15.81,8.24 15.3,7.26 C14.79,6.28 14.11,5.54 13.26,5.05 C12.41,4.55 11.49,4.31 10.5,4.31 C9.51,4.31 8.59,4.56 7.74,5.05 C6.89,5.55 6.2,6.28 5.68,7.26 C5.16,8.24 4.9,9.46 4.9,10.92 C4.9,12.38 5.16,13.6 5.68,14.58 C6.2,15.56 6.88,16.3 7.72,16.79 C8.55,17.29 9.47,17.53 10.46,17.53 Z" id="Shape"></path>
                    <path d="M26.8,20.63 L26.8,1.19 L30.52,1.19 L30.87,4.87 C31.55,3.59 32.5,2.58 33.71,1.83 C34.93,1.09 36.39,0.71 38.12,0.71 L38.12,5.06 L36.98,5.06 C35.83,5.06 34.8,5.25 33.9,5.63 C33,6.01 32.28,6.65 31.74,7.55 C31.2,8.45 30.94,9.7 30.94,11.29 L30.94,20.62 L26.8,20.62 L26.8,20.63 Z" id="Path"></path>
                    <path d="M50.24,21.1 C48.59,21.1 47.24,20.83 46.16,20.28 C45.09,19.73 44.29,19.01 43.77,18.1 C43.25,17.2 42.99,16.21 42.99,15.14 C42.99,13.26 43.72,11.77 45.18,10.67 C46.64,9.57 48.73,9.02 51.45,9.02 L56.54,9.02 L56.54,8.67 C56.54,7.16 56.13,6.02 55.31,5.26 C54.49,4.5 53.42,4.12 52.12,4.12 C50.97,4.12 49.97,4.4 49.12,4.96 C48.27,5.52 47.75,6.35 47.57,7.45 L43.42,7.45 C43.55,6.04 44.03,4.83 44.85,3.82 C45.67,2.81 46.72,2.04 47.99,1.51 C49.26,0.97 50.65,0.71 52.16,0.71 C54.88,0.71 56.98,1.42 58.47,2.85 C59.96,4.27 60.7,6.21 60.7,8.67 L60.7,20.62 L57.09,20.62 L56.74,17.29 C56.19,18.36 55.39,19.26 54.35,19.99 C53.31,20.73 51.94,21.1 50.24,21.1 Z M51.06,17.73 C52.18,17.73 53.13,17.46 53.9,16.93 C54.67,16.39 55.27,15.68 55.7,14.79 C56.13,13.9 56.4,12.92 56.5,11.85 L51.88,11.85 C50.23,11.85 49.06,12.14 48.37,12.71 C47.68,13.28 47.33,14 47.33,14.87 C47.33,15.76 47.66,16.46 48.33,16.97 C49,17.48 49.91,17.73 51.06,17.73 Z" id="Shape"></path>
                    <path d="M67.52,20.63 L67.52,1.19 L71.2,1.19 L71.51,4.6 C72.11,3.4 72.99,2.45 74.16,1.76 C75.32,1.07 76.66,0.72 78.18,0.72 C80.53,0.72 82.38,1.45 83.73,2.91 C85.08,4.37 85.75,6.56 85.75,9.46 L85.75,20.63 L81.63,20.63 L81.63,9.89 C81.63,6.13 80.09,4.25 77.01,4.25 C75.47,4.25 74.19,4.8 73.19,5.9 C72.18,7 71.68,8.57 71.68,10.6 L71.68,20.63 L67.52,20.63 Z" id="Path"></path>
                    <path d="M100.56,14.67 C99.54,14.67 98.6,14.55 97.74,14.32 L96.05,15.97 C96.34,16.15 96.69,16.31 97.11,16.44 C97.53,16.57 98.12,16.69 98.87,16.79 C99.63,16.89 100.66,17 101.97,17.1 C104.56,17.34 106.42,17.96 107.57,18.96 C108.72,19.97 109.29,21.3 109.29,22.98 C109.29,24.13 108.98,25.22 108.37,26.25 C107.76,27.28 106.8,28.12 105.51,28.76 C104.22,29.4 102.56,29.72 100.55,29.72 C97.83,29.72 95.63,29.2 93.95,28.17 C92.26,27.14 91.42,25.58 91.42,23.49 C91.42,22.68 91.64,21.88 92.07,21.08 C92.5,20.28 93.19,19.53 94.13,18.83 C93.58,18.6 93.1,18.34 92.7,18.07 C92.29,17.8 91.94,17.51 91.62,17.23 L91.62,16.29 L94.99,12.84 C93.47,11.53 92.72,9.82 92.72,7.71 C92.72,6.43 93.03,5.26 93.64,4.2 C94.25,3.14 95.15,2.3 96.32,1.67 C97.5,1.04 98.91,0.73 100.55,0.73 C101.65,0.73 102.67,0.89 103.61,1.2 L110.86,1.2 L110.86,3.94 L107.41,4.14 C108.04,5.21 108.35,6.4 108.35,7.71 C108.35,9.02 108.04,10.19 107.43,11.24 C106.82,12.29 105.93,13.12 104.76,13.75 C103.61,14.36 102.21,14.67 100.56,14.67 Z M95.35,23.1 C95.35,24.22 95.85,25.07 96.84,25.63 C97.83,26.19 99.07,26.47 100.56,26.47 C102,26.47 103.16,26.16 104.05,25.55 C104.94,24.94 105.38,24.12 105.38,23.1 C105.38,22.34 105.08,21.7 104.48,21.16 C103.88,20.62 102.74,20.29 101.07,20.16 C99.82,20.08 98.7,19.96 97.74,19.81 C96.83,20.31 96.2,20.84 95.86,21.42 C95.52,21.99 95.35,22.55 95.35,23.1 Z M100.56,11.42 C101.76,11.42 102.74,11.1 103.48,10.46 C104.22,9.82 104.6,8.91 104.6,7.74 C104.6,6.54 104.23,5.62 103.48,5 C102.74,4.37 101.76,4.06 100.56,4.06 C99.33,4.06 98.35,4.37 97.6,5 C96.86,5.63 96.48,6.54 96.48,7.74 C96.48,8.92 96.85,9.82 97.6,10.46 C98.34,11.1 99.33,11.42 100.56,11.42 Z" id="Shape"></path>
                    <path d="M124.86,21.1 C122.95,21.1 121.26,20.68 119.78,19.83 C118.3,18.98 117.15,17.8 116.31,16.28 C115.47,14.76 115.06,13 115.06,10.99 C115.06,8.95 115.47,7.16 116.29,5.62 C117.11,4.08 118.26,2.88 119.74,2.01 C121.22,1.15 122.93,0.72 124.89,0.72 C126.8,0.72 128.46,1.15 129.87,1.99 C131.28,2.84 132.38,3.97 133.16,5.38 C133.94,6.79 134.34,8.35 134.34,10.04 C134.34,10.3 134.33,10.58 134.32,10.88 C134.31,11.18 134.29,11.51 134.26,11.88 L119.13,11.88 C119.26,13.76 119.88,15.19 120.99,16.17 C122.1,17.15 123.39,17.64 124.85,17.64 C126.03,17.64 127.01,17.37 127.81,16.84 C128.61,16.3 129.2,15.58 129.59,14.67 L133.74,14.67 C133.22,16.5 132.18,18.03 130.62,19.26 C129.08,20.49 127.16,21.1 124.86,21.1 Z M124.86,4.13 C123.47,4.13 122.25,4.54 121.18,5.36 C120.11,6.18 119.46,7.42 119.22,9.06 L130.19,9.06 C130.11,7.55 129.58,6.34 128.58,5.45 C127.59,4.58 126.35,4.13 124.86,4.13 Z" id="Shape"></path>
                    <path d="M156.29,29.25 L156.29,17.61 C155.66,18.53 154.8,19.33 153.7,20.04 C152.6,20.75 151.19,21.1 149.47,21.1 C147.59,21.1 145.93,20.66 144.49,19.77 C143.05,18.88 141.93,17.67 141.12,16.13 C140.31,14.59 139.9,12.84 139.9,10.88 C139.9,8.92 140.31,7.18 141.12,5.65 C141.93,4.12 143.06,2.92 144.51,2.04 C145.96,1.16 147.63,0.73 149.51,0.73 C151.05,0.73 152.4,1.03 153.57,1.63 C154.73,2.23 155.64,3.08 156.29,4.18 L156.72,1.2 L160.44,1.2 L160.44,29.26 L156.29,29.26 L156.29,29.25 Z M150.21,17.49 C151.99,17.49 153.44,16.88 154.58,15.65 C155.72,14.42 156.28,12.84 156.28,10.91 C156.28,8.95 155.71,7.36 154.58,6.15 C153.44,4.93 151.99,4.33 150.21,4.33 C148.43,4.33 146.97,4.94 145.82,6.15 C144.67,7.36 144.1,8.95 144.1,10.91 C144.1,12.19 144.36,13.33 144.88,14.32 C145.4,15.31 146.13,16.09 147.06,16.65 C147.99,17.21 149.04,17.49 150.21,17.49 Z" id="Shape"></path>
                    <path d="M175.41,21.1 C172.95,21.1 170.93,20.5 169.34,19.3 C167.75,18.1 166.83,16.5 166.6,14.52 L170.79,14.52 C171,15.41 171.5,16.17 172.28,16.81 C173.06,17.45 174.1,17.77 175.38,17.77 C176.63,17.77 177.55,17.51 178.12,16.99 C178.69,16.47 178.98,15.87 178.98,15.19 C178.98,14.2 178.58,13.52 177.78,13.17 C176.98,12.82 175.88,12.5 174.47,12.21 C173.37,11.98 172.28,11.66 171.2,11.27 C170.12,10.88 169.21,10.32 168.5,9.6 C167.78,8.88 167.42,7.91 167.42,6.68 C167.42,4.98 168.07,3.56 169.38,2.43 C170.69,1.29 172.52,0.72 174.87,0.72 C177.04,0.72 178.79,1.24 180.14,2.29 C181.49,3.33 182.28,4.81 182.51,6.72 L178.51,6.72 C178.38,5.88 177.99,5.23 177.35,4.76 C176.71,4.29 175.85,4.05 174.78,4.05 C173.73,4.05 172.92,4.27 172.35,4.7 C171.78,5.13 171.49,5.69 171.49,6.37 C171.49,7.05 171.89,7.58 172.69,7.98 C173.49,8.37 174.54,8.72 175.84,9.04 C177.15,9.33 178.35,9.66 179.47,10.04 C180.58,10.42 181.47,10.97 182.15,11.71 C182.83,12.44 183.17,13.51 183.17,14.92 C183.2,16.7 182.51,18.17 181.11,19.35 C179.72,20.51 177.82,21.1 175.41,21.1 Z" id="Path"></path>
                    <path d="M191.33,20.87 C190.55,20.87 189.9,20.62 189.39,20.11 C188.88,19.6 188.63,18.99 188.63,18.29 C188.63,17.56 188.88,16.94 189.39,16.43 C189.9,15.92 190.55,15.67 191.33,15.67 C192.11,15.67 192.75,15.92 193.25,16.43 C193.75,16.94 193.99,17.56 193.99,18.29 C193.99,19 193.74,19.6 193.25,20.11 C192.75,20.61 192.11,20.87 191.33,20.87 Z" id="Path"></path>
                    <path d="M209.35,21.1 C207.44,21.1 205.74,20.67 204.24,19.81 C202.74,18.95 201.56,17.75 200.71,16.22 C199.86,14.69 199.44,12.92 199.44,10.91 C199.44,8.9 199.86,7.13 200.71,5.6 C201.56,4.07 202.73,2.88 204.24,2.01 C205.74,1.15 207.45,0.72 209.35,0.72 C211.75,0.72 213.77,1.35 215.4,2.6 C217.03,3.85 218.08,5.55 218.55,7.7 L214.2,7.7 C213.94,6.63 213.36,5.79 212.48,5.19 C211.59,4.59 210.55,4.29 209.34,4.29 C208.32,4.29 207.38,4.54 206.52,5.05 C205.66,5.56 204.96,6.3 204.44,7.28 C203.92,8.26 203.66,9.47 203.66,10.91 C203.66,12.35 203.92,13.56 204.44,14.54 C204.96,15.52 205.66,16.27 206.52,16.79 C207.38,17.31 208.32,17.57 209.34,17.57 C210.54,17.57 211.59,17.27 212.48,16.67 C213.37,16.07 213.94,15.22 214.2,14.12 L218.55,14.12 C218.11,16.21 217.06,17.9 215.41,19.18 C213.78,20.46 211.76,21.1 209.35,21.1 Z" id="Path"></path>
                    <path d="M234.12,21.1 C232.26,21.1 230.6,20.68 229.12,19.83 C227.64,18.98 226.47,17.79 225.61,16.26 C224.75,14.73 224.32,12.95 224.32,10.91 C224.32,8.87 224.76,7.09 225.63,5.56 C226.51,4.03 227.69,2.84 229.18,1.99 C230.67,1.14 232.33,0.72 234.16,0.72 C236.02,0.72 237.68,1.15 239.16,1.99 C240.64,2.84 241.81,4.03 242.69,5.56 C243.57,7.09 244,8.87 244,10.91 C244,12.95 243.56,14.73 242.69,16.26 C241.81,17.79 240.63,18.98 239.14,19.83 C237.65,20.68 235.98,21.1 234.12,21.1 Z M234.12,17.53 C235.11,17.53 236.03,17.28 236.88,16.79 C237.73,16.29 238.41,15.56 238.94,14.58 C239.46,13.6 239.72,12.38 239.72,10.92 C239.72,9.46 239.47,8.24 238.96,7.26 C238.45,6.28 237.77,5.54 236.92,5.05 C236.07,4.55 235.15,4.31 234.16,4.31 C233.17,4.31 232.25,4.56 231.4,5.05 C230.55,5.55 229.86,6.28 229.34,7.26 C228.82,8.24 228.56,9.46 228.56,10.92 C228.56,12.38 228.82,13.6 229.34,14.58 C229.86,15.56 230.54,16.3 231.38,16.79 C232.22,17.28 233.13,17.53 234.12,17.53 Z" id="Shape"></path>
                    <path d="M250.46,20.63 L250.46,1.19 L254.14,1.19 L254.49,3.93 C255.12,2.94 255.95,2.15 256.98,1.58 C258.01,1.01 259.21,0.72 260.57,0.72 C263.65,0.72 265.8,1.94 267,4.37 C267.71,3.25 268.65,2.36 269.84,1.7 C271.03,1.05 272.32,0.72 273.7,0.72 C276.13,0.72 278.04,1.45 279.42,2.91 C280.8,4.37 281.5,6.56 281.5,9.46 L281.5,20.63 L277.35,20.63 L277.35,9.89 C277.35,6.13 275.91,4.25 273.04,4.25 C271.58,4.25 270.38,4.8 269.45,5.9 C268.52,7 268.06,8.57 268.06,10.6 L268.06,20.63 L263.91,20.63 L263.91,9.89 C263.91,6.13 262.46,4.25 259.56,4.25 C258.12,4.25 256.94,4.8 256.01,5.9 C255.08,7 254.62,8.57 254.62,10.6 L254.62,20.63 L250.46,20.63 L250.46,20.63 Z" id="Path"></path>
                </g>
            </g>
        </g>
    </g>
</svg>