<svg xmlns="http://www.w3.org/2000/svg" xmlns:xlink="http://www.w3.org/1999/xlink" version="1.1" class="marks" width="1196" height="364" viewBox="0 0 1196 364"><rect width="1196" height="364" fill="white"/><g fill="none" stroke-miterlimit="10" transform="translate(72,27)"><g class="mark-group role-frame root" role="graphics-object" aria-roledescription="group mark container"><g transform="translate(0,0)"><path class="background" aria-hidden="true" d="M0.5,0.5h1000v300h-1000Z" stroke="#ddd"/><g><g class="mark-group role-axis" aria-hidden="true"><g transform="translate(0.5,300.5)"><path class="background" aria-hidden="true" d="M0,0h0v0h0Z" pointer-events="none"/><g><g class="mark-rule role-axis-grid" pointer-events="none"><line transform="translate(37,-300)" x2="0" y2="300" stroke="#ddd" stroke-width="1" opacity="1"/><line transform="translate(100,-300)" x2="0" y2="300" stroke="#ddd" stroke-width="1" opacity="1"/><line transform="translate(161,-300)" x2="0" y2="300" stroke="#ddd" stroke-width="1" opacity="1"/><line transform="translate(224,-300)" x2="0" y2="300" stroke="#ddd" stroke-width="1" opacity="1"/><line transform="translate(287,-300)" x2="0" y2="300" stroke="#ddd" stroke-width="1" opacity="1"/><line transform="translate(346,-300)" x2="0" y2="300" stroke="#ddd" stroke-width="1" opacity="1"/><line transform="translate(409,-300)" x2="0" y2="300" stroke="#ddd" stroke-width="1" opacity="1"/><line transform="translate(470,-300)" x2="0" y2="300" stroke="#ddd" stroke-width="1" opacity="1"/><line transform="translate(532,-300)" x2="0" y2="300" stroke="#ddd" stroke-width="1" opacity="1"/><line transform="translate(593,-300)" x2="0" y2="300" stroke="#ddd" stroke-width="1" opacity="1"/><line transform="translate(656,-300)" x2="0" y2="300" stroke="#ddd" stroke-width="1" opacity="1"/><line transform="translate(719,-300)" x2="0" y2="300" stroke="#ddd" stroke-width="1" opacity="1"/><line transform="translate(780,-300)" x2="0" y2="300" stroke="#ddd" stroke-width="1" opacity="1"/><line transform="translate(843,-300)" x2="0" y2="300" stroke="#ddd" stroke-width="1" opacity="1"/><line transform="translate(904,-300)" x2="0" y2="300" stroke="#ddd" stroke-width="1" opacity="1"/><line transform="translate(967,-300)" x2="0" y2="300" stroke="#ddd" stroke-width="1" opacity="1"/></g></g><path class="foreground" aria-hidden="true" d="" pointer-events="none" display="none"/></g></g><g class="mark-group role-axis" aria-hidden="true"><g transform="translate(0.5,0.5)"><path class="background" aria-hidden="true" d="M0,0h0v0h0Z" pointer-events="none"/><g><g class="mark-rule role-axis-grid" pointer-events="none"><line transform="translate(0,300)" x2="1000" y2="0" stroke="#ddd" stroke-width="1" opacity="1"/><line transform="translate(0,257)" x2="1000" y2="0" stroke="#ddd" stroke-width="1" opacity="1"/><line transform="translate(0,214)" x2="1000" y2="0" stroke="#ddd" stroke-width="1" opacity="1"/><line transform="translate(0,171)" x2="1000" y2="0" stroke="#ddd" stroke-width="1" opacity="1"/><line transform="translate(0,129)" x2="1000" y2="0" stroke="#ddd" stroke-width="1" opacity="1"/><line transform="translate(0,86)" x2="1000" y2="0" stroke="#ddd" stroke-width="1" opacity="1"/><line transform="translate(0,43)" x2="1000" y2="0" stroke="#ddd" stroke-width="1" opacity="1"/><line transform="translate(0,0)" x2="1000" y2="0" stroke="#ddd" stroke-width="1" opacity="1"/></g></g><path class="foreground" aria-hidden="true" d="" pointer-events="none" display="none"/></g></g><g class="mark-group role-axis" role="graphics-symbol" aria-roledescription="axis" aria-label="X-axis titled 'date' for a time scale with values from Tuesday, 12 September 2023, 12:50:36 PM to Friday, 17 January 2025, 11:09:23 AM"><g transform="translate(0.5,300.5)"><path class="background" aria-hidden="true" d="M0,0h0v0h0Z" pointer-events="none"/><g><g class="mark-rule role-axis-tick" pointer-events="none"><line transform="translate(37,0)" x2="0" y2="5" stroke="#888" stroke-width="1" opacity="1"/><line transform="translate(100,0)" x2="0" y2="5" stroke="#888" stroke-width="1" opacity="1"/><line transform="translate(161,0)" x2="0" y2="5" stroke="#888" stroke-width="1" opacity="1"/><line transform="translate(224,0)" x2="0" y2="5" stroke="#888" stroke-width="1" opacity="1"/><line transform="translate(287,0)" x2="0" y2="5" stroke="#888" stroke-width="1" opacity="1"/><line transform="translate(346,0)" x2="0" y2="5" stroke="#888" stroke-width="1" opacity="1"/><line transform="translate(409,0)" x2="0" y2="5" stroke="#888" stroke-width="1" opacity="1"/><line transform="translate(470,0)" x2="0" y2="5" stroke="#888" stroke-width="1" opacity="1"/><line transform="translate(532,0)" x2="0" y2="5" stroke="#888" stroke-width="1" opacity="1"/><line transform="translate(593,0)" x2="0" y2="5" stroke="#888" stroke-width="1" opacity="1"/><line transform="translate(656,0)" x2="0" y2="5" stroke="#888" stroke-width="1" opacity="1"/><line transform="translate(719,0)" x2="0" y2="5" stroke="#888" stroke-width="1" opacity="1"/><line transform="translate(780,0)" x2="0" y2="5" stroke="#888" stroke-width="1" opacity="1"/><line transform="translate(843,0)" x2="0" y2="5" stroke="#888" stroke-width="1" opacity="1"/><line transform="translate(904,0)" x2="0" y2="5" stroke="#888" stroke-width="1" opacity="1"/><line transform="translate(967,0)" x2="0" y2="5" stroke="#888" stroke-width="1" opacity="1"/></g><g class="mark-text role-axis-label" pointer-events="none"><text text-anchor="middle" transform="translate(37.45624521234447,15)" font-family="sans-serif" font-size="10px" fill="#000" opacity="1">October</text><text text-anchor="middle" transform="translate(100.34022028237638,15)" font-family="sans-serif" font-size="10px" fill="#000" opacity="1">November</text><text text-anchor="middle" transform="translate(161.28020149943686,15)" font-family="sans-serif" font-size="10px" fill="#000" opacity="1">December</text><text text-anchor="middle" transform="translate(224.16417656946876,15)" font-family="sans-serif" font-size="10px" fill="#000" opacity="1">2024</text><text text-anchor="middle" transform="translate(287.04815163950065,15)" font-family="sans-serif" font-size="10px" fill="#000" opacity="1">February</text><text text-anchor="middle" transform="translate(345.8750960598531,15)" font-family="sans-serif" font-size="10px" fill="#000" opacity="1">March</text><text text-anchor="middle" transform="translate(408.6745496580167,15)" font-family="sans-serif" font-size="10px" fill="#000" opacity="1">April</text><text text-anchor="middle" transform="translate(469.53000940320885,15)" font-family="sans-serif" font-size="10px" fill="#000" opacity="1">May</text><text text-anchor="middle" transform="translate(532.4139844732407,15)" font-family="sans-serif" font-size="10px" fill="#000" opacity="1">June</text><text text-anchor="middle" transform="translate(593.269444218433,15)" font-family="sans-serif" font-size="10px" fill="#000" opacity="1">July</text><text text-anchor="middle" transform="translate(656.1534192884649,15)" font-family="sans-serif" font-size="10px" fill="#000" opacity="1">August</text><text text-anchor="middle" transform="translate(719.0373943584968,15)" font-family="sans-serif" font-size="10px" fill="#000" opacity="1">September</text><text text-anchor="middle" transform="translate(779.8928541036889,15)" font-family="sans-serif" font-size="10px" fill="#000" opacity="1">October</text><text text-anchor="middle" transform="translate(842.7768291737208,15)" font-family="sans-serif" font-size="10px" fill="#000" opacity="1">November</text><text text-anchor="middle" transform="translate(903.7168103907813,15)" font-family="sans-serif" font-size="10px" fill="#000" opacity="1">December</text><text text-anchor="middle" transform="translate(966.6007854608132,15)" font-family="sans-serif" font-size="10px" fill="#000" opacity="1">2025</text></g><g class="mark-rule role-axis-domain" pointer-events="none"><line transform="translate(0,0)" x2="1000" y2="0" stroke="#888" stroke-width="1" opacity="1"/></g><g class="mark-text role-axis-title" pointer-events="none"><text text-anchor="middle" transform="translate(500,30)" font-family="sans-serif" font-size="11px" font-weight="bold" fill="#000" opacity="1">date</text></g></g><path class="foreground" aria-hidden="true" d="" pointer-events="none" display="none"/></g></g><g class="mark-group role-axis" role="graphics-symbol" aria-roledescription="axis" aria-label="Y-axis titled 'count' for a linear scale with values from 0 to 1,400,000"><g transform="translate(0.5,0.5)"><path class="background" aria-hidden="true" d="M0,0h0v0h0Z" pointer-events="none"/><g><g class="mark-rule role-axis-tick" pointer-events="none"><line transform="translate(0,300)" x2="-5" y2="0" stroke="#888" stroke-width="1" opacity="1"/><line transform="translate(0,257)" x2="-5" y2="0" stroke="#888" stroke-width="1" opacity="1"/><line transform="translate(0,214)" x2="-5" y2="0" stroke="#888" stroke-width="1" opacity="1"/><line transform="translate(0,171)" x2="-5" y2="0" stroke="#888" stroke-width="1" opacity="1"/><line transform="translate(0,129)" x2="-5" y2="0" stroke="#888" stroke-width="1" opacity="1"/><line transform="translate(0,86)" x2="-5" y2="0" stroke="#888" stroke-width="1" opacity="1"/><line transform="translate(0,43)" x2="-5" y2="0" stroke="#888" stroke-width="1" opacity="1"/><line transform="translate(0,0)" x2="-5" y2="0" stroke="#888" stroke-width="1" opacity="1"/></g><g class="mark-text role-axis-label" pointer-events="none"><text text-anchor="end" transform="translate(-7,303)" font-family="sans-serif" font-size="10px" fill="#000" opacity="1">0</text><text text-anchor="end" transform="translate(-7,260.14285714285717)" font-family="sans-serif" font-size="10px" fill="#000" opacity="1">200,000</text><text text-anchor="end" transform="translate(-7,217.28571428571428)" font-family="sans-serif" font-size="10px" fill="#000" opacity="1">400,000</text><text text-anchor="end" transform="translate(-7,174.42857142857142)" font-family="sans-serif" font-size="10px" fill="#000" opacity="1">600,000</text><text text-anchor="end" transform="translate(-7,131.57142857142858)" font-family="sans-serif" font-size="10px" fill="#000" opacity="1">800,000</text><text text-anchor="end" transform="translate(-7,88.71428571428571)" font-family="sans-serif" font-size="10px" fill="#000" opacity="1">1,000,000</text><text text-anchor="end" transform="translate(-7,45.85714285714287)" font-family="sans-serif" font-size="10px" fill="#000" opacity="1">1,200,000</text><text text-anchor="end" transform="translate(-7,3)" font-family="sans-serif" font-size="10px" fill="#000" opacity="1">1,400,000</text></g><g class="mark-rule role-axis-domain" pointer-events="none"><line transform="translate(0,300)" x2="0" y2="-300" stroke="#888" stroke-width="1" opacity="1"/></g><g class="mark-text role-axis-title" pointer-events="none"><text text-anchor="middle" transform="translate(-55.4873046875,150) rotate(-90) translate(0,-2)" font-family="sans-serif" font-size="11px" font-weight="bold" fill="#000" opacity="1">count</text></g></g><path class="foreground" aria-hidden="true" d="" pointer-events="none" display="none"/></g></g><g class="mark-rect role-mark marks" clip-path="url(#clip15)" role="graphics-object" aria-roledescription="rect mark container"><path aria-label="date: Sep 15, 2023; count: 23; keyword: Restricted" role="graphics-symbol" aria-roledescription="bar" d="M-17.49999998509135,299.9950714285714h45v0.004928571428592932h-45Z" fill="#97BBF5"/><path aria-label="date: Oct 15, 2023; count: 105; keyword: Restricted" role="graphics-symbol" aria-roledescription="bar" d="M43.355459760100814,299.97749999999996h45v0.02250000000003638h-45Z" fill="#97BBF5"/><path aria-label="date: Nov 15, 2023; count: 92; keyword: Restricted" role="graphics-symbol" aria-roledescription="bar" d="M106.32395630200105,299.9802857142857h45v0.019714285714314883h-45Z" fill="#97BBF5"/><path aria-label="date: Dec 15, 2023; count: 115; keyword: Restricted" role="graphics-symbol" aria-roledescription="bar" d="M167.1794160471932,299.97535714285715h45v0.02464285714285097h-45Z" fill="#97BBF5"/><path aria-label="date: Jan 15, 2024; count: 235; keyword: Restricted" role="graphics-symbol" aria-roledescription="bar" d="M230.06339111722508,299.94964285714286h45v0.05035714285713766h-45Z" fill="#97BBF5"/><path aria-label="date: Feb 15, 2024; count: 254; keyword: Restricted" role="graphics-symbol" aria-roledescription="bar" d="M292.947366187257,299.94557142857144h45v0.05442857142855928h-45Z" fill="#97BBF5"/><path aria-label="date: Mar 15, 2024; count: 157; keyword: Restricted" role="graphics-symbol" aria-roledescription="bar" d="M351.68978913574114,299.96635714285713h45v0.03364285714286552h-45Z" fill="#97BBF5"/><path aria-label="date: Apr 15, 2024; count: 227; keyword: Restricted" role="graphics-symbol" aria-roledescription="bar" d="M414.57376420577305,299.95135714285715h45v0.04864285714285188h-45Z" fill="#97BBF5"/><path aria-label="date: May 15, 2024; count: 114; keyword: Restricted" role="graphics-symbol" aria-roledescription="bar" d="M475.4292239509652,299.9755714285714h45v0.024428571428586565h-45Z" fill="#97BBF5"/><path aria-label="date: Jun 15, 2024; count: 292; keyword: Restricted" role="graphics-symbol" aria-roledescription="bar" d="M538.3131990209971,299.93742857142854h45v0.06257142857145936h-45Z" fill="#97BBF5"/><path aria-label="date: Jul 15, 2024; count: 1231; keyword: Restricted" role="graphics-symbol" aria-roledescription="bar" d="M599.1686587661893,299.73621428571425h45v0.2637857142857456h-45Z" fill="#97BBF5"/><path aria-label="date: Aug 15, 2024; count: 26296; keyword: Restricted" role="graphics-symbol" aria-roledescription="bar" d="M662.0526338362212,294.36514285714287h45v5.634857142857129h-45Z" fill="#97BBF5"/><path aria-label="date: Sep 15, 2024; count: 91262; keyword: Restricted" role="graphics-symbol" aria-roledescription="bar" d="M724.9366089062531,280.44385714285715h45v19.556142857142845h-45Z" fill="#97BBF5"/><path aria-label="date: Oct 15, 2024; count: 80923; keyword: Restricted" role="graphics-symbol" aria-roledescription="bar" d="M785.7920686514452,282.6593571428571h45v17.340642857142882h-45Z" fill="#97BBF5"/><path aria-label="date: Nov 15, 2024; count: 70199; keyword: Restricted" role="graphics-symbol" aria-roledescription="bar" d="M848.7605651933455,284.9573571428571h45v15.04264285714288h-45Z" fill="#97BBF5"/><path aria-label="date: Dec 15, 2024; count: 82048; keyword: Restricted" role="graphics-symbol" aria-roledescription="bar" d="M909.6160249385376,282.41828571428573h45v17.58171428571427h-45Z" fill="#97BBF5"/><path aria-label="date: Jan 15, 2025; count: 95106; keyword: Restricted" role="graphics-symbol" aria-roledescription="bar" d="M972.5000000085696,279.62014285714287h45v20.379857142857134h-45Z" fill="#97BBF5"/><path aria-label="date: Sep 15, 2023; count: 4133; keyword: CSAM" role="graphics-symbol" aria-roledescription="bar" d="M-17.49999998509135,299.10835714285713h45v0.885642857142841h-45Z" fill="#EFB118"/><path aria-label="date: Oct 15, 2023; count: 38188; keyword: CSAM" role="graphics-symbol" aria-roledescription="bar" d="M43.355459760100814,291.77057142857143h45v8.183142857142855h-45Z" fill="#EFB118"/><path aria-label="date: Nov 15, 2023; count: 46967; keyword: CSAM" role="graphics-symbol" aria-roledescription="bar" d="M106.32395630200105,289.8906428571429h45v10.06435714285709h-45Z" fill="#EFB118"/><path aria-label="date: Dec 15, 2023; count: 47634; keyword: CSAM" role="graphics-symbol" aria-roledescription="bar" d="M167.1794160471932,289.74257142857147h45v10.207285714285717h-45Z" fill="#EFB118"/><path aria-label="date: Jan 15, 2024; count: 49901; keyword: CSAM" role="graphics-symbol" aria-roledescription="bar" d="M230.06339111722508,289.224h45v10.693071428571443h-45Z" fill="#EFB118"/><path aria-label="date: Feb 15, 2024; count: 47684; keyword: CSAM" role="graphics-symbol" aria-roledescription="bar" d="M292.947366187257,289.09992857142856h45v10.218000000000018h-45Z" fill="#EFB118"/><path aria-label="date: Mar 15, 2024; count: 33767; keyword: CSAM" role="graphics-symbol" aria-roledescription="bar" d="M351.68978913574114,291.83914285714286h45v7.235785714285726h-45Z" fill="#EFB118"/><path aria-label="date: Apr 15, 2024; count: 36600; keyword: CSAM" role="graphics-symbol" aria-roledescription="bar" d="M414.57376420577305,292.05600000000004h45v7.842857142857099h-45Z" fill="#EFB118"/><path aria-label="date: May 15, 2024; count: 36745; keyword: CSAM" role="graphics-symbol" aria-roledescription="bar" d="M475.4292239509652,292.0277142857143h45v7.873928571428564h-45Z" fill="#EFB118"/><path aria-label="date: Jun 15, 2024; count: 36755; keyword: CSAM" role="graphics-symbol" aria-roledescription="bar" d="M538.3131990209971,292.0275h45v7.876071428571436h-45Z" fill="#EFB118"/><path aria-label="date: Jul 15, 2024; count: 36994; keyword: CSAM" role="graphics-symbol" aria-roledescription="bar" d="M599.1686587661893,291.7225714285714h45v7.927285714285745h-45Z" fill="#EFB118"/><path aria-label="date: Aug 15, 2024; count: 174213; keyword: CSAM" role="graphics-symbol" aria-roledescription="bar" d="M662.0526338362212,254.81485714285714h45v37.331357142857144h-45Z" fill="#EFB118"/><path aria-label="date: Sep 15, 2024; count: 379212; keyword: CSAM" role="graphics-symbol" aria-roledescription="bar" d="M724.9366089062531,178.79142857142858h45v81.25971428571427h-45Z" fill="#EFB118"/><path aria-label="date: Oct 15, 2024; count: 316828; keyword: CSAM" role="graphics-symbol" aria-roledescription="bar" d="M785.7920686514452,153.5655h45v67.8917142857143h-45Z" fill="#EFB118"/><path aria-label="date: Nov 15, 2024; count: 321060; keyword: CSAM" role="graphics-symbol" aria-roledescription="bar" d="M848.7605651933455,190.51092857142856h45v68.79857142857145h-45Z" fill="#EFB118"/><path aria-label="date: Dec 15, 2024; count: 287602; keyword: CSAM" role="graphics-symbol" aria-roledescription="bar" d="M909.6160249385376,158.69014285714286h45v61.62899999999999h-45Z" fill="#EFB118"/><path aria-label="date: Jan 15, 2025; count: 778472; keyword: CSAM" role="graphics-symbol" aria-roledescription="bar" d="M972.5000000085696,17.67428571428571h45v166.8154285714286h-45Z" fill="#EFB118"/><path aria-label="date: Sep 15, 2023; count: 0; keyword: Deepfakes" role="graphics-symbol" aria-roledescription="bar" d="M-17.49999998509135,299.99399999999997h45v0h-45Z" fill="#6CC5B0"/><path aria-label="date: Oct 15, 2023; count: 0; keyword: Deepfakes" role="graphics-symbol" aria-roledescription="bar" d="M43.355459760100814,299.9537142857143h45v0h-45Z" fill="#6CC5B0"/><path aria-label="date: Nov 15, 2023; count: 0; keyword: Deepfakes" role="graphics-symbol" aria-roledescription="bar" d="M106.32395630200105,299.955h45v0h-45Z" fill="#6CC5B0"/><path aria-label="date: Dec 15, 2023; count: 0; keyword: Deepfakes" role="graphics-symbol" aria-roledescription="bar" d="M167.1794160471932,299.9498571428572h45v0h-45Z" fill="#6CC5B0"/><path aria-label="date: Jan 15, 2024; count: 0; keyword: Deepfakes" role="graphics-symbol" aria-roledescription="bar" d="M230.06339111722508,299.91707142857143h45v0h-45Z" fill="#6CC5B0"/><path aria-label="date: Feb 15, 2024; count: 0; keyword: Deepfakes" role="graphics-symbol" aria-roledescription="bar" d="M292.947366187257,299.3179285714286h45v0h-45Z" fill="#6CC5B0"/><path aria-label="date: Mar 15, 2024; count: 0; keyword: Deepfakes" role="graphics-symbol" aria-roledescription="bar" d="M351.68978913574114,299.0749285714286h45v0h-45Z" fill="#6CC5B0"/><path aria-label="date: Apr 15, 2024; count: 0; keyword: Deepfakes" role="graphics-symbol" aria-roledescription="bar" d="M414.57376420577305,299.89885714285714h45v0h-45Z" fill="#6CC5B0"/><path aria-label="date: May 15, 2024; count: 0; keyword: Deepfakes" role="graphics-symbol" aria-roledescription="bar" d="M475.4292239509652,299.90164285714286h45v0h-45Z" fill="#6CC5B0"/><path aria-label="date: Jun 15, 2024; count: 0; keyword: Deepfakes" role="graphics-symbol" aria-roledescription="bar" d="M538.3131990209971,299.9035714285714h45v0h-45Z" fill="#6CC5B0"/><path aria-label="date: Jul 15, 2024; count: 0; keyword: Deepfakes" role="graphics-symbol" aria-roledescription="bar" d="M599.1686587661893,299.6498571428572h45v0h-45Z" fill="#6CC5B0"/><path aria-label="date: Aug 15, 2024; count: 0; keyword: Deepfakes" role="graphics-symbol" aria-roledescription="bar" d="M662.0526338362212,292.1462142857143h45v0h-45Z" fill="#6CC5B0"/><path aria-label="date: Sep 15, 2024; count: 0; keyword: Deepfakes" role="graphics-symbol" aria-roledescription="bar" d="M724.9366089062531,260.05114285714285h45v0h-45Z" fill="#6CC5B0"/><path aria-label="date: Oct 15, 2024; count: 0; keyword: Deepfakes" role="graphics-symbol" aria-roledescription="bar" d="M785.7920686514452,221.4572142857143h45v0h-45Z" fill="#6CC5B0"/><path aria-label="date: Nov 15, 2024; count: 0; keyword: Deepfakes" role="graphics-symbol" aria-roledescription="bar" d="M848.7605651933455,259.3095h45v0h-45Z" fill="#6CC5B0"/><path aria-label="date: Dec 15, 2024; count: 0; keyword: Deepfakes" role="graphics-symbol" aria-roledescription="bar" d="M909.6160249385376,220.31914285714285h45v0h-45Z" fill="#6CC5B0"/><path aria-label="date: Jan 15, 2025; count: 0; keyword: Deepfakes" role="graphics-symbol" aria-roledescription="bar" d="M972.5000000085696,184.4897142857143h45v0h-45Z" fill="#6CC5B0"/><path aria-label="date: Sep 15, 2023; count: 5; keyword: Grooming" role="graphics-symbol" aria-roledescription="bar" d="M-17.49999998509135,299.99399999999997h45v0.0010714285714357175h-45Z" fill="#FF725C"/><path aria-label="date: Oct 15, 2023; count: 21; keyword: Grooming" role="graphics-symbol" aria-roledescription="bar" d="M43.355459760100814,299.9537142857143h45v0.004500000000007276h-45Z" fill="#FF725C"/><path aria-label="date: Nov 15, 2023; count: 57; keyword: Grooming" role="graphics-symbol" aria-roledescription="bar" d="M106.32395630200105,299.955h45v0.012214285714321704h-45Z" fill="#FF725C"/><path aria-label="date: Dec 15, 2023; count: 24; keyword: Grooming" role="graphics-symbol" aria-roledescription="bar" d="M167.1794160471932,299.9498571428572h45v0.005142857142800494h-45Z" fill="#FF725C"/><path aria-label="date: Jan 15, 2024; count: 36; keyword: Grooming" role="graphics-symbol" aria-roledescription="bar" d="M230.06339111722508,299.91707142857143h45v0.007714285714257585h-45Z" fill="#FF725C"/><path aria-label="date: Feb 15, 2024; count: 2829; keyword: Grooming" role="graphics-symbol" aria-roledescription="bar" d="M292.947366187257,299.3179285714286h45v0.606214285714259h-45Z" fill="#FF725C"/><path aria-label="date: Mar 15, 2024; count: 4092; keyword: Grooming" role="graphics-symbol" aria-roledescription="bar" d="M351.68978913574114,299.0749285714286h45v0.8768571428571477h-45Z" fill="#FF725C"/><path aria-label="date: Apr 15, 2024; count: 177; keyword: Grooming" role="graphics-symbol" aria-roledescription="bar" d="M414.57376420577305,299.89885714285714h45v0.03792857142855155h-45Z" fill="#FF725C"/><path aria-label="date: May 15, 2024; count: 272; keyword: Grooming" role="graphics-symbol" aria-roledescription="bar" d="M475.4292239509652,299.90164285714286h45v0.058285714285716494h-45Z" fill="#FF725C"/><path aria-label="date: Jun 15, 2024; count: 62; keyword: Grooming" role="graphics-symbol" aria-roledescription="bar" d="M538.3131990209971,299.9035714285714h45v0.013285714285757422h-45Z" fill="#FF725C"/><path aria-label="date: Jul 15, 2024; count: 311; keyword: Grooming" role="graphics-symbol" aria-roledescription="bar" d="M599.1686587661893,299.6498571428572h45v0.06664285714282414h-45Z" fill="#FF725C"/><path aria-label="date: Aug 15, 2024; count: 10306; keyword: Grooming" role="graphics-symbol" aria-roledescription="bar" d="M662.0526338362212,292.1462142857143h45v2.2084285714286125h-45Z" fill="#FF725C"/><path aria-label="date: Sep 15, 2024; count: 22022; keyword: Grooming" role="graphics-symbol" aria-roledescription="bar" d="M724.9366089062531,260.05114285714285h45v4.718999999999994h-45Z" fill="#FF725C"/><path aria-label="date: Oct 15, 2024; count: 6041; keyword: Grooming" role="graphics-symbol" aria-roledescription="bar" d="M785.7920686514452,221.4572142857143h45v1.2944999999999993h-45Z" fill="#FF725C"/><path aria-label="date: Nov 15, 2024; count: 5957; keyword: Grooming" role="graphics-symbol" aria-roledescription="bar" d="M848.7605651933455,259.3095h45v1.2764999999999986h-45Z" fill="#FF725C"/><path aria-label="date: Dec 15, 2024; count: 12617; keyword: Grooming" role="graphics-symbol" aria-roledescription="bar" d="M909.6160249385376,220.31914285714285h45v2.7036428571428814h-45Z" fill="#FF725C"/><path aria-label="date: Jan 15, 2025; count: 4639; keyword: Grooming" role="graphics-symbol" aria-roledescription="bar" d="M972.5000000085696,184.4897142857143h45v0.9940714285714023h-45Z" fill="#FF725C"/><path aria-label="date: Sep 15, 2023; count: 0; keyword: Other" role="graphics-symbol" aria-roledescription="bar" d="M-17.49999998509135,299.9950714285714h45v0h-45Z" fill="#A463F2"/><path aria-label="date: Oct 15, 2023; count: 90; keyword: Other" role="graphics-symbol" aria-roledescription="bar" d="M43.355459760100814,299.9582142857143h45v0.019285714285672384h-45Z" fill="#A463F2"/><path aria-label="date: Nov 15, 2023; count: 61; keyword: Other" role="graphics-symbol" aria-roledescription="bar" d="M106.32395630200105,299.9672142857143h45v0.013071428571379329h-45Z" fill="#A463F2"/><path aria-label="date: Dec 15, 2023; count: 95; keyword: Other" role="graphics-symbol" aria-roledescription="bar" d="M167.1794160471932,299.955h45v0.020357142857164945h-45Z" fill="#A463F2"/><path aria-label="date: Jan 15, 2024; count: 116; keyword: Other" role="graphics-symbol" aria-roledescription="bar" d="M230.06339111722508,299.9247857142857h45v0.02485714285717222h-45Z" fill="#A463F2"/><path aria-label="date: Feb 15, 2024; count: 100; keyword: Other" role="graphics-symbol" aria-roledescription="bar" d="M292.947366187257,299.92414285714284h45v0.021428571428600662h-45Z" fill="#A463F2"/><path aria-label="date: Mar 15, 2024; count: 68; keyword: Other" role="graphics-symbol" aria-roledescription="bar" d="M351.68978913574114,299.95178571428573h45v0.014571428571400702h-45Z" fill="#A463F2"/><path aria-label="date: Apr 15, 2024; count: 68; keyword: Other" role="graphics-symbol" aria-roledescription="bar" d="M414.57376420577305,299.9367857142857h45v0.014571428571457545h-45Z" fill="#A463F2"/><path aria-label="date: May 15, 2024; count: 73; keyword: Other" role="graphics-symbol" aria-roledescription="bar" d="M475.4292239509652,299.9599285714286h45v0.01564285714283642h-45Z" fill="#A463F2"/><path aria-label="date: Jun 15, 2024; count: 96; keyword: Other" role="graphics-symbol" aria-roledescription="bar" d="M538.3131990209971,299.91685714285717h45v0.020571428571372508h-45Z" fill="#A463F2"/><path aria-label="date: Jul 15, 2024; count: 92; keyword: Other" role="graphics-symbol" aria-roledescription="bar" d="M599.1686587661893,299.7165h45v0.01971428571425804h-45Z" fill="#A463F2"/><path aria-label="date: Aug 15, 2024; count: 49; keyword: Other" role="graphics-symbol" aria-roledescription="bar" d="M662.0526338362212,294.3546428571429h45v0.010499999999979082h-45Z" fill="#A463F2"/><path aria-label="date: Sep 15, 2024; count: 73144; keyword: Other" role="graphics-symbol" aria-roledescription="bar" d="M724.9366089062531,264.77014285714284h45v15.673714285714311h-45Z" fill="#A463F2"/><path aria-label="date: Oct 15, 2024; count: 279569; keyword: Other" role="graphics-symbol" aria-roledescription="bar" d="M785.7920686514452,222.75171428571429h45v59.90764285714283h-45Z" fill="#A463F2"/><path aria-label="date: Nov 15, 2024; count: 113733; keyword: Other" role="graphics-symbol" aria-roledescription="bar" d="M848.7605651933455,260.586h45v24.371357142857107h-45Z" fill="#A463F2"/><path aria-label="date: Dec 15, 2024; count: 277179; keyword: Other" role="graphics-symbol" aria-roledescription="bar" d="M909.6160249385376,223.02278571428573h45v59.3955h-45Z" fill="#A463F2"/><path aria-label="date: Jan 15, 2025; count: 439303; keyword: Other" role="graphics-symbol" aria-roledescription="bar" d="M972.5000000085696,185.48378571428572h45v94.13635714285715h-45Z" fill="#A463F2"/><path aria-label="date: Sep 15, 2023; count: 0; keyword: Unsafe Challenges" role="graphics-symbol" aria-roledescription="bar" d="M-17.49999998509135,300h45v0h-45Z" fill="#FF8AB7"/><path aria-label="date: Oct 15, 2023; count: 0; keyword: Unsafe Challenges" role="graphics-symbol" aria-roledescription="bar" d="M43.355459760100814,300h45v0h-45Z" fill="#FF8AB7"/><path aria-label="date: Nov 15, 2023; count: 0; keyword: Unsafe Challenges" role="graphics-symbol" aria-roledescription="bar" d="M106.32395630200105,300h45v0h-45Z" fill="#FF8AB7"/><path aria-label="date: Dec 15, 2023; count: 0; keyword: Unsafe Challenges" role="graphics-symbol" aria-roledescription="bar" d="M167.1794160471932,300h45v0h-45Z" fill="#FF8AB7"/><path aria-label="date: Jan 15, 2024; count: 0; keyword: Unsafe Challenges" role="graphics-symbol" aria-roledescription="bar" d="M230.06339111722508,300h45v0h-45Z" fill="#FF8AB7"/><path aria-label="date: Feb 15, 2024; count: 0; keyword: Unsafe Challenges" role="graphics-symbol" aria-roledescription="bar" d="M292.947366187257,300h45v0h-45Z" fill="#FF8AB7"/><path aria-label="date: Mar 15, 2024; count: 0; keyword: Unsafe Challenges" role="graphics-symbol" aria-roledescription="bar" d="M351.68978913574114,300h45v0h-45Z" fill="#FF8AB7"/><path aria-label="date: Apr 15, 2024; count: 0; keyword: Unsafe Challenges" role="graphics-symbol" aria-roledescription="bar" d="M414.57376420577305,300h45v0h-45Z" fill="#FF8AB7"/><path aria-label="date: May 15, 2024; count: 0; keyword: Unsafe Challenges" role="graphics-symbol" aria-roledescription="bar" d="M475.4292239509652,300h45v0h-45Z" fill="#FF8AB7"/><path aria-label="date: Jun 15, 2024; count: 0; keyword: Unsafe Challenges" role="graphics-symbol" aria-roledescription="bar" d="M538.3131990209971,300h45v0h-45Z" fill="#FF8AB7"/><path aria-label="date: Jul 15, 2024; count: 0; keyword: Unsafe Challenges" role="graphics-symbol" aria-roledescription="bar" d="M599.1686587661893,300h45v0h-45Z" fill="#FF8AB7"/><path aria-label="date: Aug 15, 2024; count: 0; keyword: Unsafe Challenges" role="graphics-symbol" aria-roledescription="bar" d="M662.0526338362212,300h45v0h-45Z" fill="#FF8AB7"/><path aria-label="date: Sep 15, 2024; count: 0; keyword: Unsafe Challenges" role="graphics-symbol" aria-roledescription="bar" d="M724.9366089062531,300h45v0h-45Z" fill="#FF8AB7"/><path aria-label="date: Oct 15, 2024; count: 0; keyword: Unsafe Challenges" role="graphics-symbol" aria-roledescription="bar" d="M785.7920686514452,300h45v0h-45Z" fill="#FF8AB7"/><path aria-label="date: Nov 15, 2024; count: 0; keyword: Unsafe Challenges" role="graphics-symbol" aria-roledescription="bar" d="M848.7605651933455,300h45v0h-45Z" fill="#FF8AB7"/><path aria-label="date: Dec 15, 2024; count: 0; keyword: Unsafe Challenges" role="graphics-symbol" aria-roledescription="bar" d="M909.6160249385376,300h45v0h-45Z" fill="#FF8AB7"/><path aria-label="date: Jan 15, 2025; count: 0; keyword: Unsafe Challenges" role="graphics-symbol" aria-roledescription="bar" d="M972.5000000085696,300h45v0h-45Z" fill="#FF8AB7"/></g><g class="mark-group role-legend" role="graphics-symbol" aria-roledescription="legend" aria-label="Symbol legend titled 'keyword' for fill color with 6 values: CSAM, Deepfakes, Grooming, Other, Restricted, Unsafe Challenges"><g transform="translate(1018,0)"><path class="background" aria-hidden="true" d="M0,0h101v92h-101Z" pointer-events="none"/><g><g class="mark-group role-legend-entry"><g transform="translate(0,16)"><path class="background" aria-hidden="true" d="M0,0h0v0h0Z" pointer-events="none"/><g><g class="mark-group role-scope" role="graphics-object" aria-roledescription="group mark container"><g transform="translate(0,0)"><path class="background" aria-hidden="true" d="M0,0h100.4970703125v11h-100.4970703125Z" pointer-events="none" opacity="1"/><g><g class="mark-symbol role-legend-symbol" pointer-events="none"><path transform="translate(6,6)" d="M-5,-5h10v10h-10Z" fill="#EFB118" stroke-width="1.5" opacity="1"/></g><g class="mark-text role-legend-label" pointer-events="none"><text text-anchor="start" transform="translate(16,9)" font-family="sans-serif" font-size="10px" fill="#000" opacity="1">CSAM</text></g></g><path class="foreground" aria-hidden="true" d="" pointer-events="none" display="none"/></g><g transform="translate(0,13)"><path class="background" aria-hidden="true" d="M0,0h100.4970703125v11h-100.4970703125Z" pointer-events="none" opacity="1"/><g><g class="mark-symbol role-legend-symbol" pointer-events="none"><path transform="translate(6,6)" d="M-5,-5h10v10h-10Z" fill="#6CC5B0" stroke-width="1.5" opacity="1"/></g><g class="mark-text role-legend-label" pointer-events="none"><text text-anchor="start" transform="translate(16,9)" font-family="sans-serif" font-size="10px" fill="#000" opacity="1">Deepfakes</text></g></g><path class="foreground" aria-hidden="true" d="" pointer-events="none" display="none"/></g><g transform="translate(0,26)"><path class="background" aria-hidden="true" d="M0,0h100.4970703125v11h-100.4970703125Z" pointer-events="none" opacity="1"/><g><g class="mark-symbol role-legend-symbol" pointer-events="none"><path transform="translate(6,6)" d="M-5,-5h10v10h-10Z" fill="#FF725C" stroke-width="1.5" opacity="1"/></g><g class="mark-text role-legend-label" pointer-events="none"><text text-anchor="start" transform="translate(16,9)" font-family="sans-serif" font-size="10px" fill="#000" opacity="1">Grooming</text></g></g><path class="foreground" aria-hidden="true" d="" pointer-events="none" display="none"/></g><g transform="translate(0,39)"><path class="background" aria-hidden="true" d="M0,0h100.4970703125v11h-100.4970703125Z" pointer-events="none" opacity="1"/><g><g class="mark-symbol role-legend-symbol" pointer-events="none"><path transform="translate(6,6)" d="M-5,-5h10v10h-10Z" fill="#A463F2" stroke-width="1.5" opacity="1"/></g><g class="mark-text role-legend-label" pointer-events="none"><text text-anchor="start" transform="translate(16,9)" font-family="sans-serif" font-size="10px" fill="#000" opacity="1">Other</text></g></g><path class="foreground" aria-hidden="true" d="" pointer-events="none" display="none"/></g><g transform="translate(0,52)"><path class="background" aria-hidden="true" d="M0,0h100.4970703125v11h-100.4970703125Z" pointer-events="none" opacity="1"/><g><g class="mark-symbol role-legend-symbol" pointer-events="none"><path transform="translate(6,6)" d="M-5,-5h10v10h-10Z" fill="#97BBF5" stroke-width="1.5" opacity="1"/></g><g class="mark-text role-legend-label" pointer-events="none"><text text-anchor="start" transform="translate(16,9)" font-family="sans-serif" font-size="10px" fill="#000" opacity="1">Restricted</text></g></g><path class="foreground" aria-hidden="true" d="" pointer-events="none" display="none"/></g><g transform="translate(0,65)"><path class="background" aria-hidden="true" d="M0,0h100.4970703125v11h-100.4970703125Z" pointer-events="none" opacity="1"/><g><g class="mark-symbol role-legend-symbol" pointer-events="none"><path transform="translate(6,6)" d="M-5,-5h10v10h-10Z" fill="#FF8AB7" stroke-width="1.5" opacity="1"/></g><g class="mark-text role-legend-label" pointer-events="none"><text text-anchor="start" transform="translate(16,9)" font-family="sans-serif" font-size="10px" fill="#000" opacity="1">Unsafe Challenges</text></g></g><path class="foreground" aria-hidden="true" d="" pointer-events="none" display="none"/></g></g></g><path class="foreground" aria-hidden="true" d="" pointer-events="none" display="none"/></g></g><g class="mark-text role-legend-title" pointer-events="none"><text text-anchor="start" transform="translate(0,9)" font-family="sans-serif" font-size="11px" font-weight="bold" fill="#000" opacity="1">keyword</text></g></g><path class="foreground" aria-hidden="true" d="" pointer-events="none" display="none"/></g></g><g class="mark-group role-title"><g transform="translate(500,-22)"><path class="background" aria-hidden="true" d="M0,0h0v0h0Z" pointer-events="none"/><g><g class="mark-text role-title-text" role="graphics-symbol" aria-roledescription="title" aria-label="Title text 'Protection of Minors SoRs: Keywords — Monthly Counts'" pointer-events="none"><text text-anchor="middle" transform="translate(0,10)" font-family="sans-serif" font-size="13px" font-weight="bold" fill="#000" opacity="1">Protection of Minors SoRs: Keywords — Monthly Counts</text></g></g><path class="foreground" aria-hidden="true" d="" pointer-events="none" display="none"/></g></g></g><path class="foreground" aria-hidden="true" d="" display="none"/></g></g></g><defs><clipPath id="clip15"><rect x="0" y="0" width="1000" height="300"/></clipPath></defs></svg>