<svg xmlns="http://www.w3.org/2000/svg" xmlns:xlink="http://www.w3.org/1999/xlink" version="1.1" class="marks" width="1191" height="364" viewBox="0 0 1191 364"><rect width="1191" height="364" fill="white"/><g fill="none" stroke-miterlimit="10" transform="translate(39,27)"><g class="mark-group role-frame root" role="graphics-object" aria-roledescription="group mark container"><g transform="translate(0,0)"><path class="background" aria-hidden="true" d="M0.5,0.5h1000v300h-1000Z" stroke="#ddd"/><g><g class="mark-group role-axis" aria-hidden="true"><g transform="translate(0.5,300.5)"><path class="background" aria-hidden="true" d="M0,0h0v0h0Z" pointer-events="none"/><g><g class="mark-rule role-axis-grid" pointer-events="none"><line transform="translate(12,-300)" x2="0" y2="300" stroke="#ddd" stroke-width="1" opacity="1"/><line transform="translate(75,-300)" x2="0" y2="300" stroke="#ddd" stroke-width="1" opacity="1"/><line transform="translate(136,-300)" x2="0" y2="300" stroke="#ddd" stroke-width="1" opacity="1"/><line transform="translate(198,-300)" x2="0" y2="300" stroke="#ddd" stroke-width="1" opacity="1"/><line transform="translate(261,-300)" x2="0" y2="300" stroke="#ddd" stroke-width="1" opacity="1"/><line transform="translate(320,-300)" x2="0" y2="300" stroke="#ddd" stroke-width="1" opacity="1"/><line transform="translate(383,-300)" x2="0" y2="300" stroke="#ddd" stroke-width="1" opacity="1"/><line transform="translate(443,-300)" x2="0" y2="300" stroke="#ddd" stroke-width="1" opacity="1"/><line transform="translate(506,-300)" x2="0" y2="300" stroke="#ddd" stroke-width="1" opacity="1"/><line transform="translate(567,-300)" x2="0" y2="300" stroke="#ddd" stroke-width="1" opacity="1"/><line transform="translate(630,-300)" x2="0" y2="300" stroke="#ddd" stroke-width="1" opacity="1"/><line transform="translate(692,-300)" x2="0" y2="300" stroke="#ddd" stroke-width="1" opacity="1"/><line transform="translate(753,-300)" x2="0" y2="300" stroke="#ddd" stroke-width="1" opacity="1"/><line transform="translate(816,-300)" x2="0" y2="300" stroke="#ddd" stroke-width="1" opacity="1"/><line transform="translate(877,-300)" x2="0" y2="300" stroke="#ddd" stroke-width="1" opacity="1"/><line transform="translate(939,-300)" x2="0" y2="300" stroke="#ddd" stroke-width="1" opacity="1"/></g></g><path class="foreground" aria-hidden="true" d="" pointer-events="none" display="none"/></g></g><g class="mark-group role-axis" aria-hidden="true"><g transform="translate(0.5,0.5)"><path class="background" aria-hidden="true" d="M0,0h0v0h0Z" pointer-events="none"/><g><g class="mark-rule role-axis-grid" pointer-events="none"><line transform="translate(0,300)" x2="1000" y2="0" stroke="#ddd" stroke-width="1" opacity="1"/><line transform="translate(0,267)" x2="1000" y2="0" stroke="#ddd" stroke-width="1" opacity="1"/><line transform="translate(0,233)" x2="1000" y2="0" stroke="#ddd" stroke-width="1" opacity="1"/><line transform="translate(0,200)" x2="1000" y2="0" stroke="#ddd" stroke-width="1" opacity="1"/><line transform="translate(0,167)" x2="1000" y2="0" stroke="#ddd" stroke-width="1" opacity="1"/><line transform="translate(0,133)" x2="1000" y2="0" stroke="#ddd" stroke-width="1" opacity="1"/><line transform="translate(0,100)" x2="1000" y2="0" stroke="#ddd" stroke-width="1" opacity="1"/><line transform="translate(0,67)" x2="1000" y2="0" stroke="#ddd" stroke-width="1" opacity="1"/><line transform="translate(0,33)" x2="1000" y2="0" stroke="#ddd" stroke-width="1" opacity="1"/><line transform="translate(0,0)" x2="1000" y2="0" stroke="#ddd" stroke-width="1" opacity="1"/></g></g><path class="foreground" aria-hidden="true" d="" pointer-events="none" display="none"/></g></g><g class="mark-group role-axis" role="graphics-symbol" aria-roledescription="axis" aria-label="X-axis titled 'release' for a time scale with values from Monday, 25 September 2023, 12:00:00 AM to Friday, 31 January 2025, 12:00:00 AM"><g transform="translate(0.5,300.5)"><path class="background" aria-hidden="true" d="M0,0h0v0h0Z" pointer-events="none"/><g><g class="mark-rule role-axis-tick" pointer-events="none"><line transform="translate(12,0)" x2="0" y2="5" stroke="#888" stroke-width="1" opacity="1"/><line transform="translate(75,0)" x2="0" y2="5" stroke="#888" stroke-width="1" opacity="1"/><line transform="translate(136,0)" x2="0" y2="5" stroke="#888" stroke-width="1" opacity="1"/><line transform="translate(198,0)" x2="0" y2="5" stroke="#888" stroke-width="1" opacity="1"/><line transform="translate(261,0)" x2="0" y2="5" stroke="#888" stroke-width="1" opacity="1"/><line transform="translate(320,0)" x2="0" y2="5" stroke="#888" stroke-width="1" opacity="1"/><line transform="translate(383,0)" x2="0" y2="5" stroke="#888" stroke-width="1" opacity="1"/><line transform="translate(443,0)" x2="0" y2="5" stroke="#888" stroke-width="1" opacity="1"/><line transform="translate(506,0)" x2="0" y2="5" stroke="#888" stroke-width="1" opacity="1"/><line transform="translate(567,0)" x2="0" y2="5" stroke="#888" stroke-width="1" opacity="1"/><line transform="translate(630,0)" x2="0" y2="5" stroke="#888" stroke-width="1" opacity="1"/><line transform="translate(692,0)" x2="0" y2="5" stroke="#888" stroke-width="1" opacity="1"/><line transform="translate(753,0)" x2="0" y2="5" stroke="#888" stroke-width="1" opacity="1"/><line transform="translate(816,0)" x2="0" y2="5" stroke="#888" stroke-width="1" opacity="1"/><line transform="translate(877,0)" x2="0" y2="5" stroke="#888" stroke-width="1" opacity="1"/><line transform="translate(939,0)" x2="0" y2="5" stroke="#888" stroke-width="1" opacity="1"/></g><g class="mark-text role-axis-label" pointer-events="none"><text text-anchor="middle" transform="translate(12.14472463523657,15)" font-family="sans-serif" font-size="10px" fill="#000" opacity="1">October</text><text text-anchor="middle" transform="translate(74.89246858395884,15)" font-family="sans-serif" font-size="10px" fill="#000" opacity="1">November</text><text text-anchor="middle" transform="translate(135.70043012566416,15)" font-family="sans-serif" font-size="10px" fill="#000" opacity="1">December</text><text text-anchor="middle" transform="translate(198.44817407438646,15)" font-family="sans-serif" font-size="10px" fill="#000" opacity="1">2024</text><text text-anchor="middle" transform="translate(261.19591802310873,15)" font-family="sans-serif" font-size="10px" fill="#000" opacity="1">February</text><text text-anchor="middle" transform="translate(319.89542042675214,15)" font-family="sans-serif" font-size="10px" fill="#000" opacity="1">March</text><text text-anchor="middle" transform="translate(382.55882600995193,15)" font-family="sans-serif" font-size="10px" fill="#000" opacity="1">April</text><text text-anchor="middle" transform="translate(443.2824491861348,15)" font-family="sans-serif" font-size="10px" fill="#000" opacity="1">May</text><text text-anchor="middle" transform="translate(506.0301931348571,15)" font-family="sans-serif" font-size="10px" fill="#000" opacity="1">June</text><text text-anchor="middle" transform="translate(566.7538163110399,15)" font-family="sans-serif" font-size="10px" fill="#000" opacity="1">July</text><text text-anchor="middle" transform="translate(629.5015602597621,15)" font-family="sans-serif" font-size="10px" fill="#000" opacity="1">August</text><text text-anchor="middle" transform="translate(692.2493042084844,15)" font-family="sans-serif" font-size="10px" fill="#000" opacity="1">September</text><text text-anchor="middle" transform="translate(752.9729273846673,15)" font-family="sans-serif" font-size="10px" fill="#000" opacity="1">October</text><text text-anchor="middle" transform="translate(815.7206713333895,15)" font-family="sans-serif" font-size="10px" fill="#000" opacity="1">November</text><text text-anchor="middle" transform="translate(876.5286328750949,15)" font-family="sans-serif" font-size="10px" fill="#000" opacity="1">December</text><text text-anchor="middle" transform="translate(939.2763768238171,15)" font-family="sans-serif" font-size="10px" fill="#000" opacity="1">2025</text></g><g class="mark-rule role-axis-domain" pointer-events="none"><line transform="translate(0,0)" x2="1000" y2="0" stroke="#888" stroke-width="1" opacity="1"/></g><g class="mark-text role-axis-title" pointer-events="none"><text text-anchor="middle" transform="translate(500,30)" font-family="sans-serif" font-size="11px" font-weight="bold" fill="#000" opacity="1">release</text></g></g><path class="foreground" aria-hidden="true" d="" pointer-events="none" display="none"/></g></g><g class="mark-group role-axis" role="graphics-symbol" aria-roledescription="axis" aria-label="Y-axis titled 'percent' for a linear scale with values from 0 to 90"><g transform="translate(0.5,0.5)"><path class="background" aria-hidden="true" d="M0,0h0v0h0Z" pointer-events="none"/><g><g class="mark-rule role-axis-tick" pointer-events="none"><line transform="translate(0,300)" x2="-5" y2="0" stroke="#888" stroke-width="1" opacity="1"/><line transform="translate(0,267)" x2="-5" y2="0" stroke="#888" stroke-width="1" opacity="1"/><line transform="translate(0,233)" x2="-5" y2="0" stroke="#888" stroke-width="1" opacity="1"/><line transform="translate(0,200)" x2="-5" y2="0" stroke="#888" stroke-width="1" opacity="1"/><line transform="translate(0,167)" x2="-5" y2="0" stroke="#888" stroke-width="1" opacity="1"/><line transform="translate(0,133)" x2="-5" y2="0" stroke="#888" stroke-width="1" opacity="1"/><line transform="translate(0,100)" x2="-5" y2="0" stroke="#888" stroke-width="1" opacity="1"/><line transform="translate(0,67)" x2="-5" y2="0" stroke="#888" stroke-width="1" opacity="1"/><line transform="translate(0,33)" x2="-5" y2="0" stroke="#888" stroke-width="1" opacity="1"/><line transform="translate(0,0)" x2="-5" y2="0" stroke="#888" stroke-width="1" opacity="1"/></g><g class="mark-text role-axis-label" pointer-events="none"><text text-anchor="end" transform="translate(-7,303)" font-family="sans-serif" font-size="10px" fill="#000" opacity="1">0</text><text text-anchor="end" transform="translate(-7,269.66666666666663)" font-family="sans-serif" font-size="10px" fill="#000" opacity="1">10</text><text text-anchor="end" transform="translate(-7,236.33333333333334)" font-family="sans-serif" font-size="10px" fill="#000" opacity="1">20</text><text text-anchor="end" transform="translate(-7,203.00000000000003)" font-family="sans-serif" font-size="10px" fill="#000" opacity="1">30</text><text text-anchor="end" transform="translate(-7,169.66666666666669)" font-family="sans-serif" font-size="10px" fill="#000" opacity="1">40</text><text text-anchor="end" transform="translate(-7,136.33333333333331)" font-family="sans-serif" font-size="10px" fill="#000" opacity="1">50</text><text text-anchor="end" transform="translate(-7,103.00000000000001)" font-family="sans-serif" font-size="10px" fill="#000" opacity="1">60</text><text text-anchor="end" transform="translate(-7,69.66666666666666)" font-family="sans-serif" font-size="10px" fill="#000" opacity="1">70</text><text text-anchor="end" transform="translate(-7,36.33333333333335)" font-family="sans-serif" font-size="10px" fill="#000" opacity="1">80</text><text text-anchor="end" transform="translate(-7,3)" font-family="sans-serif" font-size="10px" fill="#000" opacity="1">90</text></g><g class="mark-rule role-axis-domain" pointer-events="none"><line transform="translate(0,300)" x2="0" y2="-300" stroke="#888" stroke-width="1" opacity="1"/></g><g class="mark-text role-axis-title" pointer-events="none"><text text-anchor="middle" transform="translate(-22.123046875,150) rotate(-90) translate(0,-2)" font-family="sans-serif" font-size="11px" font-weight="bold" fill="#000" opacity="1">percent</text></g></g><path class="foreground" aria-hidden="true" d="" pointer-events="none" display="none"/></g></g><g class="mark-group role-scope pathgroup" role="graphics-object" aria-roledescription="group mark container"><g transform="translate(0,0)"><path class="background" aria-hidden="true" d="M0,0h1000v300h-1000Z"/><g><g class="mark-line role-mark marks" clip-path="url(#clip18)" role="graphics-object" aria-roledescription="line mark container"><path aria-label="release: Sep 25, 2023; percent: 1.86805875429; kind: Protection of Minors Only" role="graphics-symbol" aria-roledescription="line mark" d="M0,293.773L2.024,295.037L4.048,294.497L6.072,293.861L8.096,293.683L10.121,294.048L12.145,295.206L14.169,291.595L16.193,289.534L18.217,289.817L20.241,281.945L22.265,285.525L24.289,293.851L26.314,292.98L28.338,289.417L30.362,289.518L32.386,289.993L34.41,291.333L36.434,292.438L38.458,293.158L40.482,292.412L42.507,288.227L44.531,290.777L46.555,289.695L48.579,288.792L50.603,290.67L52.627,292.291L54.651,293.079L56.675,290.313L58.7,290.648L60.724,289.695L62.748,288.772L64.772,290.151L66.796,293.753L68.82,291.906L70.844,288.823L72.868,293.423L74.892,290.594L76.917,277.373L78.941,291.612L80.965,265.63L82.989,256.396L85.097,287.099L87.122,284.042L89.146,282.101L91.17,280.235L93.194,294.601L95.218,277.231L97.242,272.428L99.266,281.461L101.29,281.722L103.314,288.979L105.339,282.591L107.363,282.736L109.387,290.229L111.411,288.355L113.435,290.915L115.459,290.822L117.483,291.187L119.507,289.885L121.532,287.985L123.556,288.827L125.58,290.759L127.604,288.445L129.628,279.591L131.652,275.512L133.676,280.145L135.7,279.359L137.725,266.974L139.749,275.575L141.773,282.396L143.797,287.86L145.821,292.494L147.845,289.931L149.869,293.096L151.893,289.903L153.918,286.516L155.942,287.529L157.966,284.536L159.99,291.581L162.014,290.888L164.038,294.147L166.062,293.067L168.086,290.197L170.11,290.364L172.135,289.749L174.159,289.475L176.183,284.672L178.207,290.053L180.231,292.354L182.255,292.918L184.279,290.479L186.303,289.822L188.328,293.512L190.352,290.912L192.376,289.967L194.4,292.589L196.424,291.829L198.448,291.107L200.472,292.679L202.496,290.797L204.521,290.095L206.545,290.66L208.569,290.111L210.593,289.757L212.617,283.431L214.641,284.235L216.665,288.744L218.689,287.919L220.714,288.238L222.738,292.084L224.762,290.527L226.786,290.495L228.81,288.166L230.834,288.699L232.858,276.485L234.882,289.301L236.906,293.515L238.931,294.265L240.955,290.647L242.979,291.245L245.003,291.604L247.027,290.568L249.051,290.697L251.075,292.486L253.099,292.674L255.124,291.11L257.148,292.456L259.172,291.861L261.196,292.379L263.22,292.629L265.244,295.155L267.268,294.834L269.292,293.807L271.317,293.052L273.341,293.441L275.365,294.905L277.389,293.078L279.413,294.046L281.437,292.232L283.461,293.305L285.485,294.526L287.509,292.743L289.534,292.699L291.558,283.995L293.582,289.594L295.606,289.414L297.63,290.123L299.654,290.665L301.678,289.448L303.702,289.452L305.727,284.744L307.751,258.967L309.775,270.525L311.799,251.644L313.823,254.19L315.847,234.128L317.871,286.818L319.895,295.244L321.92,294.107L323.944,294.902L325.968,294.708L327.992,289.211L330.016,296.712L332.04,297.499L334.064,297.481L336.088,298.112L338.113,298.824L340.052,299.247L342.076,298.943L344.101,298.955L346.125,299.007L348.149,298.696L350.173,298.981L352.197,298.736L354.221,298.048L356.245,298.417L358.269,298.493L360.293,297.727L362.318,297.86L364.342,298.402L366.366,298.87L368.39,298.726L370.414,299.033L372.438,298.975L374.462,298.999L376.486,299.024L378.511,299.238L380.535,299.212L382.559,299.032L384.583,298.914L386.607,298.753L388.631,298.538L390.655,299.037L392.679,299.288L394.704,299.185L396.728,298.703L398.752,298.704L400.776,298.798L402.8,298.895L404.824,298.793L406.848,299.124L408.872,299.11L410.897,298.625L412.921,298.845L414.945,298.855L416.969,298.165L418.993,296.74L421.017,299.292L423.041,299.074L425.065,299.047L427.089,298.586L429.114,298.547L431.138,298.868L433.162,299.184L435.186,299.142L437.21,298.994L439.234,298.571L441.258,298.82L443.282,298.813L445.307,298.532L447.331,298.227L449.355,298.247L451.379,297.884L453.403,292.15L455.427,291.286L457.451,294.242L459.475,290.441L461.5,291.414L463.524,283.922L465.548,283.483L467.572,280.61L469.596,278.985L471.62,283.137L473.644,295.547L475.668,296.58L477.693,295.557L479.717,295.14L481.741,293.446L483.765,295.131L485.789,295.786L487.813,295.506L489.837,295.216L491.861,295.285L493.885,295.705L495.91,295.085L497.934,294.113L499.958,298.943L501.982,296.532L504.006,293.623L506.03,293L508.054,293.078L510.078,290.481L512.103,282.986L514.127,266.594L516.151,260.313L518.175,243.854L520.199,264.194L522.223,242.784L524.247,271.311L526.271,248.24L528.296,246.003L530.32,286.287L532.344,287.762L534.368,295.29L536.392,291.717L538.416,296.182L540.44,298.845L542.464,298.056L544.488,293.682L546.513,295.164L548.537,293.979L550.561,295.304L552.585,294.355L554.609,294.734L556.633,292.207L558.657,291.523L560.681,295.575L562.706,294.268L564.73,293.738L566.754,292.973L568.778,295.162L570.802,292.546L572.826,294.308L574.85,292.522L576.874,293.652L578.899,296.784L580.923,293.988L582.947,295.74L584.971,290.899L586.995,291.202L589.019,292.947L591.043,294.741L593.067,294.724L595.092,293.948L597.116,295.276L599.14,293.967L601.164,292.034L603.188,293.809L605.212,294.161L607.236,292.39L609.26,291.906L611.284,292.936L613.309,293.819L615.333,292.953L617.357,291.575L619.381,287.599L621.405,290.018L623.429,291.069L625.453,290.065L627.477,287.25L629.502,291.475L631.526,290.262L633.55,291.578L635.574,292.211L637.598,292.751L639.622,291.921L641.646,291.183L643.67,290.371L645.695,290.268L647.719,290.538L649.743,291.155L651.767,290.651L653.791,291.327L655.815,290.525L657.839,291.289L659.863,289.931L661.887,292.25L663.912,292.905L665.936,293.077L667.96,294.826L669.984,294.347L672.008,287.72L674.032,274.506L676.056,297.383L678.08,283.862L680.105,272.359L682.129,263.231L684.153,93.948L686.177,262.776L688.201,257.538L690.225,275.799L692.249,265.012L694.273,274.358L696.298,244.184L698.322,223.028L700.346,260.319L702.37,233.197L704.394,270.083L706.418,241.922L708.442,257.708L710.466,227.745L712.491,250.754L714.515,258.23L716.539,147.504L718.563,268.12L720.587,274.284L722.611,255.195L724.635,256.168L726.659,113.105L728.683,232.677L730.708,212.88L732.732,250.136L734.756,255.32L736.78,227.568L738.804,195.153L740.828,171.312L742.852,213.507L744.876,258.251L746.901,278.385L748.925,259.241L750.949,247.419L752.973,250.643L754.997,229.815L757.021,204.78L759.045,166.427L761.069,217.986L763.094,187.862L765.118,115.645L767.142,235.169L769.166,226.102L771.19,195.66L773.214,74.164L775.238,212.75L777.262,261.117L779.286,208.016L781.311,208.316L783.335,242.69L785.359,289.01L787.383,292.248L789.407,239.094L791.431,231.405L793.455,280.074L795.479,231.515L797.504,230.97L799.528,206.531L801.552,209.858L803.576,250.409L805.6,247.427L807.624,239.608L809.648,236.78L811.672,214.394L813.697,179.369L815.721,231.559L817.745,269.26L819.769,247.972L821.877,227.323L823.901,217.605L825.926,197.672L827.95,220.576L829.974,251.838L831.998,220.463L834.022,248.555L836.046,246.814L838.07,225.156L840.094,197.227L842.119,173.42L844.143,204.902L846.167,250.922L848.191,238.791L850.215,207.973L852.239,226.065L854.263,181.957L856.287,215.811L858.312,241.48L860.336,247.217L862.36,198.365L864.384,183.889L866.408,195.666L868.432,235.137L870.456,248.851L872.48,211.086L874.505,263.134L876.529,243.703L878.553,233.897L880.577,219.166L882.601,230.81L884.625,251.598L886.649,262.481L888.673,275.312L890.697,260.389L892.722,197.785L894.746,263.43L896.77,252.11L898.794,216.173L900.818,245.813L902.842,230.331L904.866,266.861L906.89,131.571L908.915,171.094L910.939,147.842L912.963,66.364L914.987,147.516L917.011,262.639L919.035,229.834L921.059,244.545L923.083,259.294L925.108,233.187L927.132,210.41L929.156,268.742L931.18,210.901L933.204,198.331L935.228,229.49L937.252,213.391L939.276,246.296L941.3,222.465L943.325,231.09L945.349,244.608L947.373,155.995L949.397,211.776L951.421,224.05L953.445,104.29L955.469,217.752L957.493,226.212L959.518,244.406L961.542,238.423L963.566,245.106L965.59,199.809L967.614,236.113L969.638,75.656L971.662,212.323L973.686,224.603L975.711,184.534L977.735,209.678L979.759,158.419L981.783,235.79L983.807,113.221L985.831,208.335L987.855,226.984L989.879,264.443L991.904,230.501L993.928,230.546L995.952,233.235L997.976,146.227L1000,32.38" stroke="#FF8AB7" stroke-width="2"/></g></g><path class="foreground" aria-hidden="true" d="" display="none"/></g><g transform="translate(0,0)"><path class="background" aria-hidden="true" d="M0,0h1000v300h-1000Z"/><g><g class="mark-line role-mark marks" clip-path="url(#clip19)" role="graphics-object" aria-roledescription="line mark container"><path aria-label="release: Sep 25, 2023; percent: 23.2150175041; kind: All SoRs" role="graphics-symbol" aria-roledescription="line mark" d="M0,222.617L2.024,223.355L4.048,234.373L6.072,228.044L8.096,214.618L10.121,206.36L12.145,223.827L14.169,241.011L16.193,222.698L18.217,230.224L20.241,249.033L22.265,250.621L24.289,227.968L26.314,244.892L28.338,240.118L30.362,243.387L32.386,242.648L34.41,245.08L36.434,232.718L38.458,246.641L40.482,250.429L42.507,246.869L44.531,288.501L46.555,295.705L48.579,290.819L50.603,262.214L52.627,265.417L54.651,255.018L56.675,257.45L58.7,251.535L60.724,265.845L62.748,275.979L64.772,287.628L66.796,267.203L68.82,264.292L70.844,271.251L72.868,274.952L74.892,269.465L76.917,263.769L78.941,272.741L80.965,257.981L82.989,262.014L85.097,269.822L87.122,279.366L89.146,269.024L91.17,265.617L93.194,286.094L95.218,270.164L97.242,270.975L99.266,282.051L101.29,253.743L103.314,281.663L105.339,286.523L107.363,282.902L109.387,283.273L111.411,285.075L113.435,276.634L115.459,258.923L117.483,278.17L119.507,277.774L121.532,276.744L123.556,281.813L125.58,281.055L127.604,279.22L129.628,284.093L131.652,279.001L133.676,280.087L135.7,277.288L137.725,275.485L139.749,276.93L141.773,271.441L143.797,268.868L145.821,208.755L147.845,271.645L149.869,272.827L151.893,278.227L153.918,279.146L155.942,274.706L157.966,267.675L159.99,275.043L162.014,272.755L164.038,289.754L166.062,254.107L168.086,287.187L170.11,292.524L172.135,292.929L174.159,293.874L176.183,295.175L178.207,295.575L180.231,292.27L182.255,295.729L184.279,295.892L186.303,293.627L188.328,293.385L190.352,294.459L192.376,294.592L194.4,293.648L196.424,296.045L198.448,295.581L200.472,295.372L202.496,294.486L204.521,294.754L206.545,293.455L208.569,294.99L210.593,294.159L212.617,294.168L214.641,292.147L216.665,295.904L218.689,298.038L220.714,298.103L222.738,298.303L224.762,298.444L226.786,296.056L228.81,294.914L230.834,296.16L232.858,298.474L234.882,296.906L236.906,294.264L238.931,295.357L240.955,295.208L242.979,294.938L245.003,295.681L247.027,294.985L249.051,294.634L251.075,296.968L253.099,296.888L255.124,296.662L257.148,295.596L259.172,294.918L261.196,293.5L263.22,298.608L265.244,298.29L267.268,294.936L269.292,297.986L271.317,296.88L273.341,298.152L275.365,297.151L277.389,297.808L279.413,297.865L281.437,297.525L283.461,297.413L285.485,297.056L287.509,297.655L289.534,297.693L291.558,297.687L293.582,296.706L295.606,297.404L297.63,298.136L299.654,297.157L301.678,297.306L303.702,297.667L305.727,299.633L307.751,299.762L309.775,299.705L311.799,299.37L313.823,298.698L315.847,285.741L317.871,293.207L319.895,291.456L321.92,279.444L323.944,296.226L325.968,295.912L327.992,293.662L330.016,290.577L332.04,290.905L334.064,291.633L336.088,290.814L338.113,290.53L340.052,292.856L342.076,295.027L344.101,294.336L346.125,293.002L348.149,289.649L350.173,287.565L352.197,290.38L354.221,294.557L356.245,294.112L358.269,292.774L360.293,292.863L362.318,295.912L364.342,293.154L366.366,291.705L368.39,295.784L370.414,289.014L372.438,282.529L374.462,278.343L376.486,201.385L378.511,165.105L380.535,188.693L382.559,290.405L384.583,293.22L386.607,291.152L388.631,292.262L390.655,291.936L392.679,294.905L394.704,294.066L396.728,293.435L398.752,295.166L400.776,292.304L402.8,296.223L404.824,295.074L406.848,290.225L408.872,293.887L410.897,291.14L412.921,276.828L414.945,296.333L416.969,297.412L418.993,296.397L421.017,298.793L423.041,298.768L425.065,297.609L427.089,298.178L429.114,297.825L431.138,297.482L433.162,298.021L435.186,298.153L437.21,298.332L439.234,296.878L441.258,295.156L443.282,296.342L445.307,295.676L447.331,295.857L449.355,297.489L451.379,296.457L453.403,297.639L455.427,297.094L457.451,296.306L459.475,297.894L461.5,298.131L463.524,297.954L465.548,298.406L467.572,297.6L469.596,297.276L471.62,297.803L473.644,297.273L475.668,294.027L477.693,297.158L479.717,298.163L481.741,298.077L483.765,297.792L485.789,294.826L487.813,296.674L489.837,297.984L491.861,298.221L493.885,297.714L495.91,296.842L497.934,297.65L499.958,297.301L501.982,298.189L504.006,297.572L506.03,298.318L508.054,298.806L510.078,298.428L512.103,298.093L514.127,296.703L516.151,293.398L518.175,297.311L520.199,297.494L522.223,297.162L524.247,297.907L526.271,296.753L528.296,298.303L530.32,297.791L532.344,297.745L534.368,298.385L536.392,298.567L538.416,298.009L540.44,298.734L542.464,298.725L544.488,298.009L546.513,298.064L548.537,297.719L550.561,298.245L552.585,297.766L554.609,297.806L556.633,297.777L558.657,297.498L560.681,295.919L562.706,296.169L564.73,297.387L566.754,295.614L568.778,295.807L570.802,294.58L572.826,295.479L574.85,296.523L576.874,297.446L578.899,297.986L580.923,295.257L582.947,294.819L584.971,295.537L586.995,296.307L589.019,296.089L591.043,294.45L593.067,296.21L595.092,295.669L597.116,295.153L599.14,294.764L601.164,295.377L603.188,295.666L605.212,295.911L607.236,294.974L609.26,296.447L611.284,296.296L613.309,293.657L615.333,295.136L617.357,295.178L619.381,295.885L621.405,296.436L623.429,296.889L625.453,296.557L627.477,296.333L629.502,296.169L631.526,296.341L633.55,295.382L635.574,295.2L637.598,295.735L639.622,293.171L641.646,296.923L643.67,298.287L645.695,296.602L647.719,295.958L649.743,295.871L651.767,294.656L653.791,295.435L655.815,294.176L657.839,290.52L659.863,292.094L661.887,297.223L663.912,294.04L665.936,295.981L667.96,292.459L669.984,283.306L672.008,293.899L674.032,291.865L676.056,291.393L678.08,290.05L680.105,289.484L682.129,295.705L684.153,294.093L686.177,291.204L688.201,291.167L690.225,294.334L692.249,295.101L694.273,293.11L696.298,290.963L698.322,297.136L700.346,295.191L702.37,294.997L704.394,295.74L706.418,294.736L708.442,296.279L710.466,295.294L712.491,293.704L714.515,291.375L716.539,294.45L718.563,297.515L720.587,296.857L722.611,294.902L724.635,295.19L726.659,294.369L728.683,296.26L730.708,296.671L732.732,293.837L734.756,294.961L736.78,294.526L738.804,292.092L740.828,295.4L742.852,295.607L744.876,296.21L746.901,294.55L748.925,295.015L750.949,295.057L752.973,294.327L754.997,293.774L757.021,295.373L759.045,284.865L761.069,282.587L763.094,259.039L765.118,278.263L767.142,284.564L769.166,246.088L771.19,259.626L773.214,274.93L775.238,293.749L777.262,294.106L779.286,295.309L781.311,292.357L783.335,291.314L785.359,295.274L787.383,294.306L789.407,294.184L791.431,295.564L793.455,294.881L795.479,290.801L797.504,292.899L799.528,295.273L801.552,297.082L803.576,294.803L805.6,295.968L807.624,295.355L809.648,292.318L811.672,290.466L813.697,295.602L815.721,294.161L817.745,297.164L819.769,295.766L821.877,294.041L823.901,294.753L825.926,291.578L827.95,294.998L829.974,296.702L831.998,295.574L834.022,296.201L836.046,294.758L838.07,293.108L840.094,294.676L842.119,294.097L844.143,294.159L846.167,293.754L848.191,292.572L850.215,294.612L852.239,294.527L854.263,295.086L856.287,295.245L858.312,294.771L860.336,293.943L862.36,296.139L864.384,292.087L866.408,291.327L868.432,292.402L870.456,291.967L872.48,293.556L874.505,294.688L876.529,294.429L878.553,294.114L880.577,289.553L882.601,292.855L884.625,294.609L886.649,296.758L888.673,296.075L890.697,296.688L892.722,294.303L894.746,293.669L896.77,293.598L898.794,294.105L900.818,292.822L902.842,294.284L904.866,294.317L906.89,294.435L908.915,294.604L910.939,294.291L912.963,292.558L914.987,293.512L917.011,293.21L919.035,294.637L921.059,292.793L923.083,296.173L925.108,293.196L927.132,294.447L929.156,294.564L931.18,291.816L933.204,292.297L935.228,295.937L937.252,293.744L939.276,293.201L941.3,294.143L943.325,293.146L945.349,292.64L947.373,294.546L949.397,295.389L951.421,295.08L953.445,291.693L955.469,294.411L957.493,293.303L959.518,294.694L961.542,293.61L963.566,296.046L965.59,294.004L967.614,294.693L969.638,295.291L971.662,295.141L973.686,293.937L975.711,296.451L977.735,295.626L979.759,293.908L981.783,295.071L983.807,294.644L985.831,293.858L987.855,293.236L989.879,294.769L991.904,295.951L993.928,293.805L995.952,288.291L997.976,284.414L1000,290.83" stroke="#4269D0" stroke-width="2"/></g></g><path class="foreground" aria-hidden="true" d="" display="none"/></g></g><g class="mark-group role-legend" role="graphics-symbol" aria-roledescription="legend" aria-label="Symbol legend titled 'kind' for stroke color with 2 values: Protection of Minors Only, All SoRs"><g transform="translate(1018,0)"><path class="background" aria-hidden="true" d="M0,0h129v40h-129Z" pointer-events="none"/><g><g class="mark-group role-legend-entry"><g transform="translate(0,16)"><path class="background" aria-hidden="true" d="M0,0h0v0h0Z" pointer-events="none"/><g><g class="mark-group role-scope" role="graphics-object" aria-roledescription="group mark container"><g transform="translate(0,0)"><path class="background" aria-hidden="true" d="M0,0h128.265625v11h-128.265625Z" pointer-events="none" opacity="1"/><g><g class="mark-symbol role-legend-symbol" pointer-events="none"><path transform="translate(6,6)" d="M-5,0L5,0" stroke="#FF8AB7" stroke-width="1.5" opacity="1"/></g><g class="mark-text role-legend-label" pointer-events="none"><text text-anchor="start" transform="translate(16,9)" font-family="sans-serif" font-size="10px" fill="#000" opacity="1">Protection of Minors Only</text></g></g><path class="foreground" aria-hidden="true" d="" pointer-events="none" display="none"/></g><g transform="translate(0,13)"><path class="background" aria-hidden="true" d="M0,0h128.265625v11h-128.265625Z" pointer-events="none" opacity="1"/><g><g class="mark-symbol role-legend-symbol" pointer-events="none"><path transform="translate(6,6)" d="M-5,0L5,0" stroke="#4269D0" stroke-width="1.5" opacity="1"/></g><g class="mark-text role-legend-label" pointer-events="none"><text text-anchor="start" transform="translate(16,9)" font-family="sans-serif" font-size="10px" fill="#000" opacity="1">All SoRs</text></g></g><path class="foreground" aria-hidden="true" d="" pointer-events="none" display="none"/></g></g></g><path class="foreground" aria-hidden="true" d="" pointer-events="none" display="none"/></g></g><g class="mark-text role-legend-title" pointer-events="none"><text text-anchor="start" transform="translate(0,9)" font-family="sans-serif" font-size="11px" font-weight="bold" fill="#000" opacity="1">kind</text></g></g><path class="foreground" aria-hidden="true" d="" pointer-events="none" display="none"/></g></g><g class="mark-group role-title"><g transform="translate(500,-22)"><path class="background" aria-hidden="true" d="M0,0h0v0h0Z" pointer-events="none"/><g><g class="mark-text role-title-text" role="graphics-symbol" aria-roledescription="title" aria-label="Title text 'Statements of Reason: With Keywords — Daily Percentage'" pointer-events="none"><text text-anchor="middle" transform="translate(0,10)" font-family="sans-serif" font-size="13px" font-weight="bold" fill="#000" opacity="1">Statements of Reason: With Keywords — Daily Percentage</text></g></g><path class="foreground" aria-hidden="true" d="" pointer-events="none" display="none"/></g></g></g><path class="foreground" aria-hidden="true" d="" display="none"/></g></g></g><defs><clipPath id="clip18"><rect x="0" y="0" width="1000" height="300"/></clipPath><clipPath id="clip19"><rect x="0" y="0" width="1000" height="300"/></clipPath></defs></svg>