<?xml version="1.0" encoding="UTF-8" standalone="no"?>
<!-- Created with Inkscape (http://www.inkscape.org/) -->

<svg
   width="164.52637mm"
   height="159.22748mm"
   viewBox="0 0 164.52637 159.22748"
   version="1.1"
   id="svg5"
   inkscape:version="1.1 (c68e22c387, 2021-05-23)"
   sodipodi:docname="MatchIt_logo.svg"
   xmlns:inkscape="http://www.inkscape.org/namespaces/inkscape"
   xmlns:sodipodi="http://sodipodi.sourceforge.net/DTD/sodipodi-0.dtd"
   xmlns="http://www.w3.org/2000/svg"
   xmlns:svg="http://www.w3.org/2000/svg">
  <sodipodi:namedview
     id="namedview7"
     pagecolor="#ffffff"
     bordercolor="#666666"
     borderopacity="1.0"
     inkscape:pageshadow="2"
     inkscape:pageopacity="0.0"
     inkscape:pagecheckerboard="0"
     inkscape:document-units="mm"
     showgrid="false"
     fit-margin-top="0"
     fit-margin-left="0"
     fit-margin-right="0"
     fit-margin-bottom="0"
     inkscape:zoom="0.26205012"
     inkscape:cx="431.21521"
     inkscape:cy="51.516862"
     inkscape:window-width="1920"
     inkscape:window-height="1017"
     inkscape:window-x="1912"
     inkscape:window-y="-8"
     inkscape:window-maximized="1"
     inkscape:current-layer="layer1" />
  <defs
     id="defs2" />
  <g
     inkscape:label="Layer 1"
     inkscape:groupmode="layer"
     id="layer1"
     transform="translate(-211.59071,-36.016598)">
    <path
       style="fill:#008000;stroke-width:0.264583"
       d="m 213.41553,194.65309 c -1.84423,-1.23202 -1.8242,-1.07447 -1.82466,-14.3525 -5.3e-4,-13.56317 -0.0492,-13.23426 2.12575,-14.34951 1.37709,-0.70614 2.24987,-0.74567 3.69517,-0.16737 1.06483,0.42606 3.47535,3.22132 8.70057,10.08924 0.91339,1.20055 1.76566,2.18281 1.89392,2.18281 0.12827,0 0.70627,-0.68461 1.28445,-1.52135 0.57818,-0.83675 1.80301,-2.48805 2.72184,-3.66957 0.91883,-1.18151 2.41972,-3.1158 3.33533,-4.29841 0.91559,-1.18261 2.00442,-2.32587 2.41961,-2.54058 2.2431,-1.15994 4.83153,-0.52535 5.82855,1.42896 0.54123,1.06091 0.55201,1.35509 0.47976,13.10003 -0.0721,11.71717 -0.0876,12.03325 -0.6274,12.76148 -1.9565,2.63956 -5.21276,2.51322 -6.46753,-0.25092 -0.45065,-0.99274 -0.50863,-1.7722 -0.51379,-6.90734 l -0.006,-5.78833 -1.38906,1.7312 c -0.76398,0.95215 -2.13848,2.70189 -3.05444,3.88829 -1.66364,2.15483 -3.0707,3.15885 -4.44706,3.17323 -1.01104,0.0106 -2.3277,-1.16715 -4.47089,-3.99909 -1.16417,-1.53828 -2.49963,-3.26078 -2.96769,-3.82776 l -0.85103,-1.03088 -0.009,5.71307 c -0.008,5.44454 -0.0375,5.76723 -0.61814,6.86522 -0.41643,0.78748 -0.97392,1.34497 -1.7614,1.7614 -1.45114,0.76738 -2.33816,0.7696 -3.47718,0.009 z m 36.0817,0.20832 c -0.95505,-0.41519 -1.83847,-1.67983 -2.0851,-2.98488 -0.18653,-0.98705 0.11639,-1.95151 1.80629,-5.75098 0.64723,-1.45521 2.58725,-6.08275 4.31115,-10.28344 1.7239,-4.20069 3.38103,-7.99974 3.68252,-8.44234 1.71638,-2.51972 5.06896,-2.92953 7.12728,-0.8712 0.61322,0.61321 1.39634,2.09964 2.53833,4.81794 0.90833,2.16212 2.58011,6.13378 3.71507,8.82592 3.98969,9.46363 4.23311,10.11039 4.23311,11.2474 0,2.79991 -3.41785,4.804 -5.66573,3.32214 -0.96833,-0.63834 -2.14915,-2.37931 -2.73767,-4.03633 l -0.45206,-1.2728 h -4.90018 -4.90018 l -0.59062,1.52316 c -1.34354,3.46488 -3.66568,4.95594 -6.08221,3.90541 z m 12.7535,-15.08724 c -0.55985,-1.38528 -1.10486,-2.42792 -1.21114,-2.31699 -0.10627,0.11094 -0.61125,1.21374 -1.12216,2.45067 l -0.92895,2.24895 2.03172,0.1323 c 1.11744,0.0728 2.08048,0.10337 2.14007,0.068 0.0596,-0.0353 -0.34969,-1.19767 -0.90954,-2.58295 z m 17.9458,14.96105 c -1.77036,-1.07945 -1.79015,-1.20439 -1.87724,-11.85081 l -0.0785,-9.59115 -1.90591,-5.3e-4 c -3.32095,-5.9e-4 -4.81633,-1.23713 -4.81633,-3.98253 0,-1.3938 0.0884,-1.65146 0.81704,-2.38004 0.44937,-0.44938 1.2828,-0.92508 1.85208,-1.05712 0.56928,-0.13204 4.16426,-0.24291 7.98886,-0.24638 7.72329,-0.007 8.25152,0.0844 9.34488,1.6174 0.47347,0.66386 0.63464,1.23765 0.63464,2.25949 0,2.45422 -1.60716,3.78857 -4.56406,3.7893 l -1.65365,4.1e-4 v 9.08865 c 0,6.09327 -0.0993,9.38505 -0.30123,9.98802 -0.82265,2.45612 -3.4315,3.59032 -5.44061,2.36529 z m 39.19046,0.0353 c -1.66067,-1.04471 -1.66372,-1.07012 -1.7206,-14.34229 -0.0595,-13.88801 -0.0939,-13.64146 2.03638,-14.5838 2.11283,-0.93461 3.98782,-0.30701 5.0222,1.68105 0.26909,0.51717 0.37174,1.76894 0.37174,4.5332 0,4.43795 -0.36756,4.01792 3.59996,4.11379 l 2.67391,0.0646 0.13539,-4.24309 c 0.14476,-4.53672 0.30339,-5.11182 1.65413,-5.99686 1.76322,-1.1553 4.68098,-0.47755 5.51556,1.28119 0.3953,0.83305 0.44392,2.25068 0.44355,12.93414 -5.3e-4,13.7581 0.0593,13.36213 -2.18445,14.47501 -1.60388,0.79552 -2.84845,0.61294 -4.05647,-0.59507 -1.18515,-1.18516 -1.46349,-2.50655 -1.4153,-6.71901 l 0.0415,-3.62904 -3.2039,-0.0743 -3.2039,-0.0743 v 4.24998 c 0,4.77071 -0.20694,5.63118 -1.59137,6.61698 -1.17926,0.83971 -3.0505,0.97956 -4.11835,0.3078 z m 44.30007,-0.05 c -0.63071,-0.33323 -1.15758,-0.90789 -1.52135,-1.65934 -0.53328,-1.10161 -0.0502,-1.55232 -0.5565,-10.45874 v -9.30918 l -2.05052,-5.3e-4 c -3.47222,-9e-4 -4.97094,-1.31543 -4.75653,-4.17263 0.12363,-1.64747 1.04747,-2.81567 2.55867,-3.23549 1.53504,-0.42643 15.46154,-0.33998 16.52067,0.10256 1.92044,0.80241 2.86204,3.64807 1.77799,5.37337 -0.86616,1.37851 -1.68973,1.77782 -4.14442,1.88176 l -2.20856,0.11592 -0.0783,9.6058 c -0.0755,9.26833 -0.0978,9.63202 -0.63184,10.35235 -1.37239,1.85111 -3.11811,2.35038 -4.90928,1.40403 z m -62.73497,-0.63209 c -2.39276,-0.84803 -4.09571,-1.9814 -5.94039,-3.95353 -3.65575,-3.90833 -4.64982,-8.99581 -2.82421,-14.45389 0.84314,-2.52079 1.81713,-4.04193 3.79764,-5.93102 5.33224,-5.08609 14.55609,-5.05543 18.1012,0.0602 1.43054,2.06426 0.68406,4.13058 -1.97988,5.48049 -1.63235,0.82718 -1.91323,0.81524 -3.0987,-0.13169 -2.06034,-1.64578 -4.97552,-1.72392 -6.99007,-0.18737 -1.76497,1.34619 -2.60449,2.73956 -2.77348,4.60325 -0.53932,5.94766 5.65159,9.35271 10.24209,5.63323 0.57706,-0.46756 0.79321,-0.49929 1.694,-0.24867 0.5679,0.15801 1.56198,0.78751 2.20907,1.39889 2.10639,1.99018 1.79349,4.07966 -0.92098,6.15005 -1.89033,1.44181 -3.80694,2.02819 -6.95084,2.1266 -2.39624,0.075 -3.02382,-1.2e-4 -4.56545,-0.5465 z m -57.25054,-45.36164 c -0.69363,-0.21126 -9.97077,-9.11269 -10.6904,-10.25746 -0.61328,-0.9756 -0.67066,-2.47913 -0.13421,-3.51652 0.44609,-0.86264 1.69919,-1.46564 2.66291,-1.28141 0.36861,0.0705 0.75765,-0.005 0.86452,-0.1672 0.10687,-0.16242 0.58243,-0.64722 1.0568,-1.07734 l 0.86248,-0.78202 1.99907,1.97265 c 1.09949,1.08496 3.55171,3.60988 5.44937,5.61094 l 3.45029,3.63829 -0.92618,1.02517 c -0.67979,0.75244 -0.89315,1.19798 -0.80202,1.67471 0.21035,1.10035 -0.58094,2.5626 -1.62216,2.99764 -0.98767,0.41268 -1.27783,0.43441 -2.17047,0.16255 z m 76.50036,-5.8309 c -5.64834,-1.64296 -9.75677,-5.76921 -11.14684,-11.1952 -0.59142,-2.30853 -0.38591,-6.37779 0.43159,-8.54597 1.66442,-4.41437 5.29174,-7.98244 9.52912,-9.37351 3.56115,-1.16906 7.88807,-0.92647 11.29497,0.63326 l 1.46847,0.67229 -0.17667,1.38815 c -0.19348,1.52018 -1.14249,3.65918 -2.08324,4.69544 -0.33027,0.3638 -1.63886,1.59864 -2.90797,2.74408 -1.26911,1.14545 -2.78224,2.79358 -3.36249,3.66253 -2.7396,4.10257 -3.15668,9.76212 -1.03725,14.07471 0.42264,0.85999 0.76844,1.60413 0.76844,1.65364 0,0.21146 -1.30457,0.0192 -2.77813,-0.40942 z m 6.85553,-1.14846 c -1.07438,-1.68232 -1.69615,-3.8285 -1.69615,-5.85461 0,-3.77535 1.05814,-5.65502 5.22624,-9.28382 2.74309,-2.38817 3.83932,-3.75555 4.6912,-5.85154 l 0.58152,-1.43082 0.54217,0.59113 c 0.81037,0.88355 1.88223,3.16627 2.36042,5.02695 0.54483,2.12003 0.35366,6.0408 -0.3991,8.18491 -1.1642,3.31607 -4.19764,6.64794 -7.52434,8.26462 -2.79999,1.36071 -3.11947,1.39054 -3.78196,0.35318 z m -80.19448,-7.45343 -5.72051,-5.65908 4.78134,-4.85677 4.78135,-4.85676 5.09552,5.2491 c 2.80254,2.88701 5.33354,5.55169 5.62445,5.92151 l 0.52892,0.67241 -4.68528,4.59433 -4.68529,4.59434 z m 9.19089,-0.83478 0.63479,-0.67571 -4.09181,-4.05955 -4.09181,-4.05955 -0.7302,0.51994 c -0.40161,0.28597 -0.73019,0.65923 -0.73019,0.82946 0,0.39091 7.69726,8.12112 8.0865,8.12112 0.15836,0 0.57358,-0.30407 0.92272,-0.67571 z m 31.1525,1.9058 c -3.24692,-0.90936 -5.23913,-3.57264 -5.23414,-6.99723 0.006,-4.35987 3.41393,-7.48412 7.78054,-7.13361 3.82414,0.30696 6.48872,3.21106 6.49598,7.07992 0.009,4.74352 -4.5601,8.30626 -9.04238,7.05092 z m -28.19746,-14.0103 c -3.08785,-3.10005 -5.61426,-5.83074 -5.61426,-6.06819 0,-1.40673 1.27859,-2.58285 2.80788,-2.58285 0.39462,0 1.22434,0.29703 1.84382,0.66007 l 1.12633,0.66007 1.10709,-1.38767 c 2.28969,-2.86998 3.92281,-7.29837 5.04897,-13.690796 0.18757,-1.06473 0.377,-7.7161 0.49732,-17.462505 0.18486,-14.974744 0.22253,-15.852417 0.7723,-17.991666 2.03237,-7.908271 5.44227,-13.633663 11.13795,-18.701185 6.28167,-5.588876 13.28469,-8.463603 21.29896,-8.743175 4.27568,-0.149156 7.06916,0.236506 11.17165,1.542336 5.45357,1.735883 10.19905,4.730858 14.09606,8.896349 3.76758,4.027141 6.22356,8.57631 7.83314,14.509189 0.64522,2.37826 0.71511,3.082636 0.73339,7.391278 0.0222,5.236268 -0.30856,7.557891 -1.6688,11.713074 -2.92646,8.939525 -9.37859,16.361775 -17.98481,20.688941 -2.79026,1.40293 -6.59563,2.49391 -15.23896,4.36891 -4.51115,0.9786 -9.80943,2.19082 -11.77396,2.69382 -7.84401,2.00839 -13.42054,4.97241 -18.6265,9.90029 l -2.30216,2.17918 0.94315,0.96588 c 1.17182,1.20005 1.55263,2.40463 1.18814,3.75826 -0.27134,1.00766 -1.63781,2.33685 -2.4024,2.33685 -0.20902,0 -2.90645,-2.53641 -5.9943,-5.63646 z m 25.61988,-21.540057 4.46979,-0.983479 11.05376,-10.912275 c 6.07957,-6.00175 11.12848,-10.917159 11.2198,-10.923126 0.0913,-0.006 0.31769,0.171879 0.50305,0.395216 0.27999,0.33737 0.23934,0.497052 -0.24028,0.94389 l -0.57729,0.53782 0.84323,1.06467 c 1.02354,1.29233 1.52081,1.51719 1.97663,0.89381 0.37249,-0.5094 1.08406,-0.3965 1.31636,0.20885 0.0835,0.21754 -0.68289,1.14741 -1.91298,2.32111 -1.12875,1.07698 -3.60513,3.45133 -5.50309,5.27632 -3.5391,3.403045 -7.86251,7.478015 -8.059,7.595905 -0.0606,0.0364 -0.0606,0.10993 0,0.16345 0.0606,0.0535 1.83666,-0.33492 3.94671,-0.8632 4.53078,-1.13434 6.77803,-2.19496 10.27336,-4.84865 5.54486,-4.209725 8.89653,-9.442735 10.34171,-16.146696 l 0.49891,-2.314364 -0.70126,0.516822 c -0.3857,0.284249 -1.77283,1.534398 -3.08252,2.778106 -2.2946,2.17901 -3.0427,2.555057 -3.0427,1.529482 0,-0.526502 -1.9543,-2.530956 -2.73399,-2.804144 -0.26676,-0.09347 -0.44449,-0.291526 -0.39495,-0.440129 0.0495,-0.148601 2.22657,-2.406563 4.83787,-5.017693 l 4.74781,-4.747506 -0.45637,-1.901573 c -1.91315,-7.971422 -9.13346,-15.049201 -17.40254,-17.059005 l -1.86759,-0.453919 -2.4271,2.39775 c -8.03177,7.934652 -7.83801,7.76343 -8.42813,7.447607 -0.36917,-0.197575 -0.45162,-0.358325 -0.24825,-0.484013 0.4933,-0.304882 -1.00955,-2.05115 -2.32797,-2.705017 l -1.16891,-0.579724 3.28558,-3.121387 c 1.80707,-1.716762 3.18892,-3.125211 3.07078,-3.129886 -0.11813,-0.0047 -1.30876,0.304837 -2.64583,0.687806 -9.22112,2.641152 -16.36954,9.762021 -18.84987,18.777224 -0.35095,1.275564 -0.60591,2.351373 -0.5666,2.390688 0.0393,0.03931 2.92185,-2.778975 6.40564,-6.26286 5.54607,-5.546211 6.38211,-6.286391 6.7195,-5.948999 0.33739,0.337391 0.32993,0.446561 -0.06,0.877424 -0.62803,0.693973 -0.55841,1.134729 0.3335,2.111251 0.85538,0.936519 1.36484,1.060907 1.867,0.45584 0.44044,-0.530696 0.60074,-0.502113 1.02889,0.183467 0.34617,0.554307 -0.0139,0.948933 -8.02792,8.797395 l -8.39036,8.217053 -0.0444,3.759795 -0.0444,3.7598 7.14375,-7.048403 c 3.92906,-3.876625 8.58013,-8.515329 10.33571,-10.308235 1.75558,-1.792907 3.32613,-3.259831 3.49012,-3.259831 0.54636,0 0.6513,0.556429 0.19916,1.056045 -0.57475,0.63509 -0.36731,1.260199 0.79061,2.382501 l 0.92105,0.89272 0.59834,-0.560586 c 0.45168,-0.423174 0.71184,-0.496811 1.06137,-0.300403 0.7308,0.41066 0.55539,0.876036 -0.79375,2.105877 -0.69123,0.630098 -6.33768,6.068806 -12.54768,12.086025 l -11.29089,10.940395 0.01,3.8477 0.01,3.84771 8.10631,-8.04668 c 4.45849,-4.425675 10.13039,-9.984205 12.60425,-12.352291 2.47385,-2.368084 5.36008,-5.214268 6.41384,-6.324851 1.79961,-1.896655 1.9431,-1.992069 2.36356,-1.571607 0.4196,0.419598 0.41974,0.478468 0.002,0.939729 -0.60352,0.666885 -0.57171,0.838001 0.36768,1.977641 0.9074,1.100841 1.17911,1.181045 1.87317,0.552934 0.39041,-0.353319 0.55313,-0.371774 0.88073,-0.0999 0.64355,0.534107 0.48656,0.890733 -0.98723,2.242561 -4.93261,4.524439 -26.59949,25.92483 -26.04074,25.72046 0.26606,-0.0973 2.49515,-0.6195 4.95353,-1.160417 z M 309.99521,70.03962 c -0.0111,-0.03638 -0.0625,-0.29093 -0.11424,-0.565668 -0.12816,-0.681104 -1.97304,-2.530808 -2.70825,-2.715334 -0.32827,-0.08239 -0.59685,-0.230307 -0.59685,-0.328703 0,-0.09839 2.25619,-2.42376 5.01375,-5.167476 l 5.01375,-4.98857 1.00552,0.159901 c 0.68435,0.108831 1.28018,0.457377 1.86542,1.091231 0.95676,1.036241 1.11036,2.081877 0.47996,3.267342 -0.72831,1.369597 -9.79382,9.787184 -9.95906,9.247277 z m -7.85111,-7.790486 c -0.1819,-0.06873 -0.33073,-0.329184 -0.33073,-0.578784 0,-0.520467 -1.97463,-2.675043 -2.45722,-2.681134 -0.17649,-0.0021 -0.48593,-0.108564 -0.68763,-0.236302 -0.27689,-0.175355 0.65912,-1.278612 3.82072,-4.503444 4.71065,-4.804849 5.55767,-5.452726 6.80309,-5.203639 1.85954,0.371906 3.03058,2.497108 2.21971,4.028315 -0.5844,1.103538 -8.97657,9.322861 -9.36794,9.174988 z m -59.05633,35.86393 c -3.75401,-0.69101 -6.37087,-4.6937 -5.575,-8.52738 0.81142,-3.908615 4.45443,-6.433615 8.24505,-5.714735 2.75826,0.52309 4.85761,2.42631 5.6612,5.132315 0.49275,1.65927 0.48781,2.36657 -0.0287,4.1059 -0.99437,3.34839 -4.80838,5.64708 -8.30253,5.0039 z M 242.7951,71.081108 c -1.39874,-0.392917 -2.50794,-1.126988 -3.62454,-2.398731 -2.86448,-3.262458 -1.79546,-8.929454 2.05225,-10.879238 3.62569,-1.837274 7.71182,-0.699902 9.70513,2.701422 0.93375,1.593313 1.14779,4.323628 0.47671,6.080829 -1.28192,3.35666 -5.26337,5.435684 -8.60955,4.495718 z"
       id="path836"
       sodipodi:nodetypes="ccssssssssssssccsssssccssccssssssssssscccssssscccssssccssssssscscsssssssscssssssscccsssscsscsssssscssccsssssssssssssssssssscscsscssssssssscssssssssssscsssssccccssccccscccssssscscssssscssssssssssssssscssssccsssscsssssssssscsssssscsscsssscsssssssssssscccssssscsssscccsssscsssssccscssscsssssscssssssssssssssssss" />
    <path
       d="m 346.28436,194.77215 c -0.63071,-0.33322 -1.1576,-0.90788 -1.52135,-1.65934 -0.5333,-1.10161 -0.49651,-4.31884 -0.5565,-12.8683 l 0.0316,-11.66398 c 0.01,-3.67117 7.62458,-3.97596 7.66567,-0.0491 -0.0151,2.17762 -0.0403,6.25592 -0.0783,12.16393 0.0506,9.01592 -0.0978,11.95233 -0.63185,12.67267 -1.37239,1.85111 -3.11811,2.35037 -4.90926,1.40403 z"
       style="fill:#000080;stroke-width:0.0700042"
       id="path1185"
       sodipodi:nodetypes="cscsccscc" />
  </g>
</svg>
