<?xml version="1.0" encoding="UTF-8"?>
<svg width="103.89" height="52" version="1.1" viewBox="0 0 27.487 13.758" xml:space="preserve" xmlns="http://www.w3.org/2000/svg" xmlns:xlink="http://www.w3.org/1999/xlink"><defs><linearGradient id="linearGradient101" x1="54.699" x2="233.25" y1="172.54" y2="172.54" gradientUnits="userSpaceOnUse"><stop stop-color="#00e56e" offset="0"/><stop stop-color="#02e8f7" offset="1"/></linearGradient></defs><g transform="translate(7.2518 -98.771)"><g transform="matrix(.11429 0 0 .11429 -6.423 87.482)"><path d="m54.754 178.01c-0.05732-0.14945-0.07191-2.7093-0.03241-5.6885l0.07181-5.4168 88.635-0.0401c48.749-0.0221 88.903 0.01 89.231 0.0712 0.59491 0.11122 0.59531 0.11506 0.59531 5.6625v5.5512l-66.212 7.5e-4c-36.417 4.2e-4 -76.556 0.0302-89.198 0.0661-15.542 0.0442-23.02-0.0226-23.091-0.20633z" fill="url(#linearGradient101)"/><g fill="#060e9f"><path d="m24.763 128.27v-5.424h21.96v10.848h-21.96z"/><path d="m93.936 146.51c-7.898-14.489 1.922-31.868 18.007-31.868 4.5374 0 9.9977 1.7121 11.946 3.7457l0.7359 0.76812-8.2807 8.2807-1.5884-0.48092c-7.1898-2.1769-14.66 6.0841-11.341 12.542l0.46794 0.91041-4.0398 4.1153c-4.8601 4.951-4.3797 4.7894-5.9072 1.9872z"/><path d="m170.28 135.35 4e-5 -19.91h5.6577c6.4268 0 5.9679-0.1826 5.9844 2.3812 0.0124 1.9295 0.26415 1.9925 1.7617 0.44109 4.9126-5.0893 14.74-4.9831 19.732 0.21328l1.5185 1.5804 1.2597-1.2164c5.8097-5.61 17.5-5.7351 22.773-0.24372 4.0263 4.1928 4.2729 5.5127 4.2788 22.906l5e-3 13.758-11.774-0.0926-0.13229-12.521c-0.12445-11.779-0.16373-12.595-0.66283-13.759-2.2424-5.2289-9.2977-4.9526-12.052 0.47212l-0.91115 1.7945-0.0787 11.987c-0.0598 9.1084-0.1551 11.99-0.39688 12-0.175 7e-3 -2.759 0.0135-5.7422 0.0139l-5.424 7.8e-4 -0.1323-12.648-0.13229-12.648-0.70467-1.5024c-2.2847-4.8712-9.2564-4.0956-11.927 1.327l-0.86206 1.7504-0.13229 11.883-0.13229 11.883-11.774 0.0586z"/><path d="m138.91 155.15c-0.0609-0.0606-0.11067-9.0224-0.11067-19.915v-19.805l11.509 0.1426 0.18328 2.2118c0.2291 2.7646 0.0696 2.7116 2.0597 0.68417 2.834-2.8872 6.0828-4.0504 10.362-3.7104 2.7601 0.2193 3.7476 0.58163 3.5716 1.3105-0.0747 0.30928-0.50691 2.6459-0.96054 5.1925-0.92623 5.1998-0.90288 5.147-2.0924 4.7323-3.1535-1.0993-8.2699 0.29154-10.331 2.8083-2.1287 2.5995-2.1441 2.7061-2.2077 15.283l-0.0562 11.109-5.9086 0.0329c-3.2497 0.0181-5.9584-0.0167-6.0193-0.0773z"/><path d="m54.771 155.15c-0.06073-0.0606-0.11042-12.771-0.11042-28.244v-28.134h37.306v11.377h-24.606v12.7h18.785v10.848h-18.779l-0.13822 21.479-6.1734 0.0424c-3.3954 0.0233-6.2231-7e-3 -6.2839-0.0678z"/><path d="m-7.1415 155.15c-0.06068-0.0606-0.11034-2.5907-0.11034-5.6224v-5.5122h7.9375v-33.867h-7.9375v-11.377h28.84v11.377h-8.206l0.0681 16.867 0.0681 16.867 8.0803 0.1462-0.07139 5.5641-0.07139 5.5641-14.243 0.0514c-7.8338 0.0283-14.293 2e-3 -14.354-0.0589z"/><path d="m109.44 156.95c-3.4483-0.41013-9.5674-2.899-9.7267-3.9562-0.03176-0.2107 1.7633-2.2718 3.9891-4.5803l4.0468-4.1972 0.90474 0.493c6.4366 3.5074 15.071-5.0218 12.043-11.896l-0.44575-1.0118 3.4262-3.6184c1.8844-1.9901 3.7798-3.9538 4.2119-4.3637l0.78576-0.74534 0.57088 0.72576c5.2853 6.7192 4.6559 18.912-1.3468 26.089-4.2552 5.0875-11.559 7.8814-18.459 7.0608z"/><path d="m212.98 190.2c-0.31057-0.80934 0.0167-1.3384 0.82805-1.3384 0.69803 0 0.79979 0.10023 0.87304 0.85989 0.0906 0.93949-1.3669 1.3494-1.7011 0.47848z"/><path d="m216.76 199.67c-0.54092-0.54093-0.17735-7.6991 0.3987-7.8498 0.68441-0.17898 1.0124-0.0179 1.0124 0.49727 0 0.29663 0.18397 0.2652 0.8599-0.14692 2.9694-1.8105 4.6964-0.10518 4.6964 4.6375v3.0734l-1.4552-0.1674-0.13229-2.9988c-0.16052-3.6388-0.57841-4.2192-2.5091-3.4852-1.013 0.38516-1.4596 1.7188-1.4596 4.3588 0 2.2455-0.50375 2.9884-1.4111 2.0811z"/><path d="m213.21 195.81c0.0694-3.8342 0.0994-4.0349 0.60221-4.0349 0.50284 0 0.5328 0.20073 0.6022 4.0349l0.073 4.0349h-1.3505z"/><path d="m206.8 195.9c0-3.2585 0.0687-3.9668 0.39687-4.0927 0.54417-0.20882 1.1906 0.074 1.1906 0.52086 0 0.48061 0.37991 0.47034 0.78794-0.0213 0.41681-0.50222 2.078-0.81878 2.4331-0.46366 0.52311 0.52312-0.0227 1.3827-0.87798 1.3827-1.6713 0-2.3431 1.1699-2.3431 4.0807v2.5339h-1.5875z"/><path d="m170.46 199.67c-0.097-0.097-0.17639-1.577-0.17639-3.2889 0-3.0263-0.0165-3.1148-0.59531-3.197-0.84547-0.12008-0.867-1.4355-0.0221-1.3484 0.48091 0.0496 0.60328-0.11866 0.75972-1.0447 0.25141-1.4881 1.3547-2.5863 2.5982-2.5863 1.8903 0 2.8406 0.79831 1.8897 1.5875-0.31493 0.26137-0.47811 0.26196-0.79032 3e-3 -0.59295-0.49211-1.6994-0.1-2.008 0.71163-0.30456 0.80105-0.14227 1.4474 0.34734 1.3832 1.2637-0.16543 1.8244 0.0323 1.7417 0.61425-0.0677 0.47637-0.29601 0.62174-1.1429 0.7276l-1.0583 0.1323-0.0743 3.2411c-0.0751 3.2773-0.45793 4.0759-1.4691 3.0648z"/><path d="m151.71 196c-0.0586-2.8398 8e-3 -3.9483 0.24743-4.1469 0.42578-0.35247 1.1278-0.0777 1.1278 0.44136 0 0.53419 0.14053 0.51274 1.051-0.16043 2.703-1.9984 4.7655 0.22759 4.7683 5.1464l1e-3 2.5964-1.7198-0.1658v-2.8675c0-5.6783-3.5614-5.5562-3.8364 0.13157l-0.1323 2.7359-1.4276 0.1648z"/><path d="m130.47 198.98c0.0604-0.47294 0.18512-2.982 0.2772-5.5758 0.17804-5.015 0.22912-5.1799 1.4986-4.8386 0.41285 0.11101 1.0397 0.96831 2.0499 2.8034 1.7602 3.1974 1.4136 3.2039 3.3364-0.0619 1.4225-2.4161 1.6853-2.7208 2.4089-2.7928l0.81222-0.0808 0.1694 4.1818c0.0932 2.3 0.23776 4.8749 0.3213 5.722l0.15188 1.5402-1.7761-0.17-0.16531-3.9136c-0.20193-4.7801-0.11745-4.6983-1.8424-1.7845-1.8011 3.0424-1.946 3.0405-3.7284-0.049l-1.4076-2.4398-0.17882 1.183c-0.0983 0.65065-0.18765 2.3341-0.19844 3.741-0.0237 3.0933-0.12056 3.3951-1.0896 3.3951-0.69094 0-0.74032-0.0665-0.63902-0.8599z"/><path d="m91.914 195.98c-0.08636-4.1839 0.31896-5.3676 1.3212-3.8581l0.36921 0.55607 0.75056-0.55492c0.94733-0.70039 2.9416-0.56127 3.7656 0.26269 1.2131 1.2131 1.3193 7.2719 0.12987 7.4088l-0.7276 0.0837-0.02637-2.465c-0.04117-3.8478-0.72068-4.9713-2.5488-4.214-1.2515 0.51838-1.5911 1.8406-1.6554 6.4454-0.0015 0.10914-0.29431 0.19844-0.65063 0.19844h-0.64786z"/><path d="m77.756 199.51c-0.13895-0.1819-0.41012-0.74745-0.60259-1.2568-0.19248-0.50933-0.80774-2.0213-1.3673-3.36-1.234-2.9523-1.2399-3.0458-0.18646-2.9407 0.79496 0.0793 0.87988 0.20854 1.9663 2.9919 1.1106 2.8453 1.142 2.8916 1.4319 2.1167 0.31089-0.83087 1.9337-5.0014 1.9685-5.0589 0.11857-0.19596 1.1539-0.30409 1.4041-0.14665 0.3084 0.19402-0.09358 1.3189-2.4989 6.993-0.44401 1.0474-1.5554 1.3949-2.1156 0.66146z"/><path d="m55.19 199.69c0-0.27135 1.6712-4.8385 2.9944-8.1834 1.1506-2.9086 1.1519-2.9104 2.0519-2.9104h0.90054l1.2709 3.175c0.69901 1.7462 1.4965 3.8298 1.7722 4.6302 0.2757 0.80037 0.69217 1.9092 0.9255 2.464l0.42424 1.0088-1.0027-0.0827c-0.96332-0.0795-1.0232-0.14246-1.5265-1.6041l-0.52381-1.5214h-4.5119l-0.54536 1.5214c-0.48976 1.3663-2.2295 2.5388-2.2295 1.5026zm6.6146-4.7885c0-2.7177-1.7236-4.2374-2.4829-2.1891-0.90616 2.4447-0.9359 2.3661 0.89539 2.3661 0.87312 0 1.5875-0.0797 1.5875-0.17704z"/><path d="m199.52 199.87c-1.3599-0.59137-1.5822-1.2088-1.6744-4.6488-0.0741-2.7641-0.0252-3.2678 0.33073-3.4044 1.035-0.39715 1.2114 0.027 1.2114 2.9115 0 3.0402 0.18458 3.6469 1.1859 3.8982 1.8546 0.46547 2.7788-1.0868 2.7813-4.6715l1e-3 -2.0505h1.5875v7.9375h-0.79375c-0.52917 0-0.79375-0.13229-0.79375-0.39688 0-0.50894-0.23861-0.5024-0.81853 0.0224-0.54988 0.49764-2.2712 0.72718-3.0179 0.40245z"/><path d="m193.36 199.83c-0.86455-0.34733-1.1206-1.2862-1.1206-4.1086 0-2.4566-0.0101-2.4963-0.63315-2.4963-0.34824 0-0.70748-0.19368-0.79832-0.43041-0.22711-0.59183 0.34007-1.2032 0.93965-1.0129 0.4352 0.13813 0.49182 2e-3 0.49182-1.1846 0-1.3133 0.0162-1.3408 0.79375-1.3408 0.76148 0 0.79375 0.0472 0.79375 1.1623 0 1.2274 0.25222 1.4835 1.4612 1.4835 0.72681 0 0.98768 0.30956 0.76028 0.90216-0.10933 0.28491-0.49401 0.42075-1.1915 0.42075h-1.03v2.5042c0 2.8295 0.38686 3.4429 1.7731 2.8113 0.75518-0.34408 1.1373-0.18332 1.1373 0.47845 0 0.88639-1.9963 1.3657-3.3773 0.81094z"/><path d="m185.12 199.64c-2.7138-1.3838-2.8938-5.6768-0.31041-7.4026 1.1706-0.78202 3.2389-0.8181 4.4533-0.0777 1.4293 0.87147 0.53641 1.917-0.98776 1.1567-2.8477-1.4206-5.0928 2.5602-2.6666 4.728 0.95419 0.85257 1.4951 0.90825 2.7962 0.28782 0.86154-0.41084 0.97562-0.41296 1.3632-0.0254 1.2532 1.2532-2.6238 2.3653-4.6479 1.3332z"/><path d="m175.93 199.84c-3.1799-1.2832-1.0718-5.5195 2.6142-5.2534 1.2995 0.0938 1.6229-0.42388 0.75529-1.209-0.39988-0.36189-0.7948-0.44031-1.6634-0.33033-0.62649 0.0793-1.433 0.18113-1.7923 0.22624-1.0963 0.13765-1.0264-0.77727 0.0952-1.2459 2.1178-0.88487 4.642-0.25745 5.1807 1.2877 0.99744 2.8613 0.084 7.5514-1.2173 6.2502-0.18672-0.18672-0.51527-0.14564-1.0451 0.13066-0.84664 0.44151-2.0439 0.50037-2.9273 0.14389zm3.1772-1.6089c0.51087-0.40184 0.69714-0.79067 0.69714-1.4552v-0.90684h-1.3229c-1.4895 0-2.3812 0.62419-2.3812 1.6669 0 1.3051 1.7248 1.7038 3.007 0.69517z"/><path d="m162.45 199.86c-1.6396-0.70218-2.7007-7.6325-1.2272-8.0147 1.0183-0.26411 1.1244 0.0107 1.1285 2.9247 4e-3 3.0219 0.0606 3.2294 1.0121 3.7308 1.721 0.90685 2.7293-0.49175 2.8993-4.0213 0.13013-2.7024 0.2456-2.983 1.114-2.7074 0.49503 0.15711 0.5268 0.40549 0.5268 4.1181v3.9509h-0.79375c-0.52917 0-0.79375-0.13229-0.79375-0.39688 0-0.50894-0.2386-0.5024-0.81853 0.0224-0.557 0.50408-2.272 0.7254-3.0475 0.39327z"/><path d="m144.05 199.7c-2.936-1.595-0.11481-5.9148 3.3027-5.0571 0.81112 0.20358 1.022-0.0308 0.65521-0.72804-0.54647-1.0387-1.6297-1.2457-3.3202-0.63444-0.87926 0.31794-1.3751 0.0798-1.3894-0.66719-0.016-0.83638 3.7026-1.2646 5.0283-0.57907 1.165 0.60242 1.3176 1.1365 1.3176 4.6101v3.1924h-0.63941c-0.35168 0-0.68434-0.1348-0.73926-0.29956-0.069-0.20713-0.35752-0.16631-0.93495 0.13229-1.0193 0.52712-2.344 0.53949-3.2807 0.0306zm3.3945-1.497c0.40203-0.37768 0.61237-0.87754 0.61237-1.4552 0-1.5986-3.1793-1.1798-3.5765 0.4711-0.34888 1.45 1.7326 2.1411 2.9642 0.98411z"/><path d="m119.88 199.85c-4.2209-1.7459-1.9105-8.7475 2.6789-8.1184l1.1576 0.15866v-3.4295h1.5875v11.377h-0.7717c-0.42443 0-0.81885-0.14144-0.87647-0.31431-0.0743-0.22291-0.29018-0.18444-0.74238 0.13229-0.67068 0.46977-2.1398 0.56381-3.0334 0.19418zm2.7576-1.4568c1.3664-0.70659 1.6389-4.7055 0.35397-5.1941-1.8964-0.72101-3.5085 0.53015-3.5085 2.723 0 2.4139 1.2983 3.4309 3.1545 2.4711z"/><path d="m111.02 199.64c-2.8416-1.4276-2.9033-6.2326-0.0976-7.5976 1.977-0.96184 4.2402-0.17524 5.129 1.7826 1.0201 2.2472 0.95182 2.3096-2.5231 2.3096-2.793 0-3.0427 0.0405-3.0427 0.49349 0 1.5988 2.1847 2.5599 3.9795 1.7506 0.82288-0.37107 1.1149-0.40095 1.4227-0.14555 1.464 1.215-2.7979 2.4467-4.8677 1.4068zm3.6989-5.0096c0-1.5196-2.4013-2.2039-3.5839-1.0213-1.1863 1.1863-0.90544 1.4672 1.4672 1.4672 1.8086 0 2.1167-0.0649 2.1167-0.44597z"/><path d="m102.66 199.61c-2.872-1.7514-2.7218-6.0704 0.26518-7.6238 1.8273-0.95033 5.4828 0.26407 4.3137 1.4331-0.42976 0.42976-0.49719 0.42982-1.223 1e-3 -1.9994-1.181-3.8747 0.17036-3.6695 2.6443 0.18497 2.2304 1.6384 3.1972 3.4876 2.3198 1.7082-0.81059 2.4752 0.22971 0.88447 1.1996-1.1085 0.67588-2.973 0.6878-4.0584 0.026z"/><path d="m84.11 199.59c-2.5169-1.5346-0.93144-4.8031 2.3947-4.9369 1.749-0.0704 2.1618-0.45411 1.3555-1.2603-0.50963-0.50963-1.7298-0.55324-2.9665-0.10603-0.87926 0.31794-1.3751 0.0798-1.3893-0.66719-0.01599-0.83638 3.7026-1.2646 5.0283-0.57907 1.165 0.60242 1.3176 1.1365 1.3176 4.6101v3.1924h-0.64584c-0.35521 0-0.715-0.1119-0.79953-0.24867-0.0911-0.1474-0.525-0.0935-1.0655 0.13229-1.241 0.51851-2.2233 0.47697-3.2295-0.13658zm3.4557-1.3538c0.51087-0.40184 0.69714-0.79067 0.69714-1.4552v-0.90684h-1.2723c-1.4499 0-2.066 0.36126-2.3042 1.351-0.34511 1.4344 1.5121 2.0865 2.8794 1.011z"/><path d="m67.969 199.59c-3.5965-2.1929-1.4742-8.246 2.7532-7.8525l1.377 0.12816 0.07824-1.6333c0.07486-1.5627 0.10968-1.6369 0.80585-1.717l0.7276-0.0837v11.412h-0.60854c-0.3347 0-0.74138-0.13284-0.90374-0.29521-0.21722-0.21721-0.45644-0.18226-0.90554 0.1323-0.82444 0.57746-2.2937 0.53725-3.324-0.091zm3.4654-1.4636c0.67011-0.62104 0.70679-0.77743 0.63395-2.7029l-0.07732-2.0437-0.85109-0.2433c-1.7411-0.49773-3.25 0.82323-3.25 2.8453 0 2.4212 1.9638 3.6094 3.5444 2.1445z"/><path d="m226.71 202.96c-0.69169-0.33359-0.7201-0.46363-0.24364-1.1152 0.28723-0.39281 0.45374-0.42632 0.90865-0.18286 1.6913 0.90517 3.6721 0.0632 3.9514-1.6796l0.16851-1.0516-0.69642 0.45631c-1.8905 1.2387-4.6433 0.19058-5.2309-1.9916-1.0586-3.9312 2.1639-6.6615 6.4557-5.4697l1.0138 0.2815-0.1754 9.2652-0.9883 0.90524c-1.0662 0.97657-3.7242 1.2763-5.1633 0.58231zm4.0469-5.089c0.57407-0.57407 0.64943-0.87972 0.64943-2.6338v-1.9844l-0.95548-0.17925c-2.0739-0.38907-3.7825 1.3849-3.3833 3.5128 0.36297 1.9348 2.348 2.6261 3.6893 1.2848z"/><path d="m161.35 214.59c0.0728-4.0231 0.83925-5.9796 1.441-3.6785 0.13754 0.52597 0.14594 0.52616 0.97289 0.0219 0.85674-0.52241 2.1531-0.68055 2.3933-0.29194 0.34928 0.56514-0.18319 1.3688-0.90688 1.3688-1.8639 0-2.372 0.90403-2.372 4.2202v2.3944h-1.6013z"/><path d="m145.88 218.43c-0.41865-0.88044 0.15261-8.0036 0.64187-8.0036 0.29985 0 0.58687 0.22083 0.6624 0.50962 0.1315 0.50288 0.1443 0.50289 0.96741 9.9e-4 1.7788-1.0846 4.6496-0.15235 4.6792 1.5196 0.0195 1.1047 0.0271 5.5357 0.01 5.8412-0.11492 2.0509-1.3414 0.0708-1.3414-2.1656 0-6.1783-3.8242-6.324-4.164-0.15861-0.13935 2.5288-0.85037 3.7289-1.4554 2.4565z"/><path d="m113.4 212.94v-5.6885h1.5875v4.2717l0.69714-0.54837c2.6995-2.1234 4.8591-0.0686 4.8591 4.6234v3.0303h-1.5875v-2.9104c0-3.1407-0.33484-3.9688-1.6049-3.9688-1.682 0-2.3639 1.2936-2.3639 4.4848v2.3944h-1.5875z"/><path d="m99.64 214.54c0-4.2928 0.3873-5.3377 1.3274-3.5811l0.28767 0.53753 0.68336-0.53753c0.79972-0.62907 2.4641-0.73869 2.4641-0.16229 0 0.86225-0.3401 1.2123-1.1779 1.2123-1.4708 0-1.8451 0.7117-1.9971 3.7967l-0.13229 2.6856-1.4552 0.1674z"/><path d="m56.195 218.44c-0.05665-0.11748-0.09766-2.6544-0.09113-5.6376l0.01187-5.424 2.5273-0.0751c4.5141-0.13413 6.765 3.0654 3.9352 5.5938l-0.86556 0.77338 1.1982 2.3382c1.2924 2.5219 1.2986 2.6145 0.17485 2.6145-0.67569 0-0.86116-0.22732-1.9429-2.3812l-1.1959-2.3812h-2.0908l-0.07645 2.3151c-0.07279 2.2042-0.98504 3.5076-1.5847 2.2641zm5.1463-6.6306c1.4704-1.3079 0.10015-3.2402-2.2977-3.2402h-1.208v1.808c0 0.9944 0.04955 1.8576 0.11011 1.9182 0.27193 0.27225 2.9787-0.11513 3.3956-0.48596z"/><path d="m168.78 218.36c-2.6886-1.3699-2.9101-5.6458-0.38-7.336 2.4464-1.6343 5.546-0.0708 5.8903 2.9713l0.0898 0.79375-3.1088 0.0745c-3.4238 0.0821-3.3841 0.059-2.453 1.4293 0.98825 1.4543 2.9929 1.5899 4.0189 0.2717 0.3301-0.42411 0.37728-0.42027 0.74916 0.061 1.2552 1.6243-2.4198 2.9505-4.8064 1.7345zm3.6702-4.7953c0.58927-0.36418-0.62678-1.6723-1.6478-1.7725-1.4801-0.14527-3.4475 1.5671-2.1636 1.8832 0.75587 0.18606 3.4582 0.1076 3.8114-0.11067z"/><path d="m156.87 218.62c-0.91767-0.36974-1.2197-1.2669-1.3521-4.0166-0.11406-2.3687-0.16727-2.5746-0.68429-2.6484-0.81553-0.11638-0.78626-1.3709 0.0347-1.4875 0.51506-0.0731 0.59531-0.24257 0.59531-1.2568 0-1.1261 0.0312-1.1722 0.79375-1.1722 0.76283 0 0.79375 0.0458 0.79375 1.1754v1.1754l1.1245 0.0814c1.6614 0.12021 1.7208 1.3953 0.0661 1.4203l-1.0583 0.016-0.0842 1.4392c-0.18525 3.1646 0.50074 4.6503 1.821 3.9437 0.55043-0.29458 1.306 0.0316 1.306 0.56382 0 0.71644-2.2212 1.2236-3.3561 0.7663z"/><path d="m139.15 218.6c-2.5942-0.75105-3.5483-5.0336-1.5637-7.0183 2.4802-2.4802 6.5027-0.92143 6.5027 2.5199v0.81991h-3.0427c-1.6735 0-3.0427 0.0752-3.0427 0.1672 0 1.9692 3.1952 3.0254 4.6751 1.5455 0.42157-0.42157 0.46938-0.41987 0.7971 0.0283 1.0564 1.4446-1.725 2.6904-4.3258 1.9374zm3.261-5.1471c0.44582-1.1618-2.2277-2.2458-3.372-1.3672-0.68935 0.52926-1.0912 1.446-0.70256 1.603 0.85585 0.34573 3.9194 0.16843 4.0746-0.23581z"/><path d="m128.92 218.52c-4.959-1.8462-4.6615-9.5015 0.44354-11.415 2.606-0.97696 7.4463 1.583 5.2329 2.7675-0.38799 0.20765-0.62272 0.12522-1.1048-0.38796-2.3709-2.5237-6.3365-0.43121-6.339 3.3449-2e-3 3.6154 3.2634 5.5567 5.9268 3.523 1.0258-0.78327 1.3103-0.89067 1.6383-0.61847 1.8248 1.5145-2.9937 3.8302-5.7977 2.7863z"/><path d="m107.71 218.7c-3.8448-0.93404-3.6516-7.263 0.25161-8.2459 2.1896-0.55136 4.7179 0.77105 3.4639 1.8118-0.30541 0.25347-0.51004 0.23272-0.98491-0.0999-2.4145-1.6912-5.0023 1.3756-3.391 4.0185 0.8776 1.4394 2.3649 1.6564 3.6143 0.52733 0.56966-0.51477 0.57433-0.51447 0.88027 0.0572 0.74495 1.392-1.4672 2.506-3.8342 1.9309z"/><path d="m92.496 218.72c-3.3767-1.3348-1.7915-5.3812 2.1082-5.3812 1.3888 0 1.7862-0.49772 1.0139-1.27-0.39386-0.39386-2.4431-0.4163-3.1564-0.0346-0.53266 0.28507-1.2886-0.0512-1.2886-0.57313 0-0.50185 1.6358-1.0327 3.1822-1.0327 2.7442 0 3.1678 0.65177 3.1678 4.8744v3.3276h-0.63941c-0.35168 0-0.69331-0.14882-0.75918-0.33073-0.09517-0.2628-0.23318-0.26382-0.67195-5e-3 -0.66542 0.39256-2.4059 0.6429-2.9565 0.42524zm2.3959-1.4203c0.63662-0.3407 1.3945-1.7671 1.2034-2.265-0.23691-0.61738-2.6853-0.49328-3.3483 0.1697-1.2437 1.2437 0.51889 2.9655 2.1449 2.0953z"/><path d="m84.087 218.38c-1.9968-0.932-2.807-3.9785-1.6198-6.0909 1.8894-3.3618 7.1188-1.9193 7.1188 1.9637v0.66996h-3.0427c-3.4325 0-3.6221 0.1369-2.276 1.6435 0.99074 1.1088 2.5392 1.2042 3.586 0.22082 0.66404-0.62383 0.68643-0.62649 1.0648-0.12628 1.1806 1.5607-2.4231 2.8432-4.8311 1.7193zm3.8454-4.7634c0.75938-0.19321-1.084-1.8689-2.0559-1.8689-1.4659 0-2.9263 1.3309-2.0725 1.8887 0.26186 0.17107 3.438 0.15584 4.1284-0.0198z"/><path d="m75.464 218.5c-1.4541-0.5183-1.6168-0.75654-1.0784-1.5782 0.4533-0.69181 0.46604-0.69432 1.0168-0.2 1.1316 1.0156 3.16 1.0213 3.481 0.01 0.23943-0.75436-0.27386-1.2054-1.9145-1.6824-2.673-0.77707-3.4551-2.3539-1.9258-3.8831 1.4303-1.4304 6.0013-0.75634 4.9045 0.7232-0.32644 0.44035-0.46377 0.46803-0.92504 0.1864-0.75156-0.45887-2.5277-0.41878-2.9301 0.0661-0.50705 0.61096 0.07573 1.1103 1.8901 1.6193 1.7315 0.48583 2.6079 1.312 2.6079 2.4585 0 2.053-2.5642 3.1936-5.1264 2.2803z"/><path d="m67.493 218.52c-1.6578-0.73682-2.6978-2.7412-2.4358-4.6945 0.62864-4.6868 7.5952-4.4306 7.5952 0.27936v0.81991h-3.0427c-3.3661 0-3.3173-0.0277-2.3661 1.3448 1.0022 1.4462 2.7511 1.583 4.1423 0.3239 0.41647-0.3769 0.48172-0.35093 0.78376 0.31199 0.65516 1.4379-2.5694 2.5512-4.6767 1.6146zm2.8443-4.8866c0.87664-0.038 0.92576-0.44796 0.15232-1.2712-0.88079-0.93755-2.3572-0.84467-3.2394 0.20379-1.0097 1.2-0.89398 1.24 3.0871 1.0675z"/></g></g></g></svg>
