<?xml version="1.0" encoding="UTF-8"?>
<svg id="Bold" xmlns="http://www.w3.org/2000/svg" xmlns:xlink="http://www.w3.org/1999/xlink" version="1.1" viewBox="0 0 512 512">
  <defs>
    <style>
      .cls-1 {
        fill: #383838;
      }

      .cls-1, .cls-2, .cls-3 {
        stroke-width: 0px;
      }

      .cls-2 {
        fill: #fffef8;
      }

      .cls-3 {
        fill: #bedddf;
      }

      .cls-4 {
        isolation: isolate;
      }
    </style>
  </defs>
  <rect class="cls-2" x="50.7" y="50.7" width="410.6" height="410.6" rx="83.2" ry="83.2"/>
  <g>
    <path class="cls-1" d="M170.1,358.5c-24.1,6.7-49.7-3.8-62.3-25.3-7.4-12.7-9.4-27.5-5.6-41.8,3.7-14.2,12.9-26.1,25.5-33.5,4-2.4,8.4-4.2,12.9-5.4,6.7-1.8,13.5-2.4,20.4-1.7h.8c.5-.1.9-.4,1.2-.9l49.7-72c.5-.6.6-1.5.2-2.2-12.1-25.7-2.5-56.8,22.2-71.1,4.1-2.5,8.4-4.2,13-5.4,9.4-2.6,19.2-2.6,28.7,0,14.2,3.7,26.1,12.9,33.4,25.6,7.4,12.7,9.4,27.6,5.7,41.7-3.7,14.2-12.9,26.1-25.6,33.4-4,2.4-8.4,4.2-13,5.4-6.5,1.8-13.1,2.3-19.9,1.7h-.8c-.5.1-.9.4-1.2.9l-50,72.2c-.5.6-.6,1.5-.2,2.2,11.8,25.5,2.1,56.5-22.2,70.7-4,2.4-8.4,4.2-12.9,5.4h0v.2Z"/>
    <g>
      <circle class="cls-3" cx="262.6" cy="152.4" r="34.8" transform="translate(89.1 401.6) rotate(-85.3)"/>
      <image class="cls-4" width="71" height="71" transform="translate(120 270)" xlink:href="tracyicon-1.png"/>
    </g>
  </g>
</svg>