<svg xmlns="http://www.w3.org/2000/svg" id="a" viewBox="0 0 400 400"><defs><style>.b{fill:#309}.c{fill:#fff}</style></defs><path d="M161 13c15 14 9 42-4 56-11 11-23 7-29-6-7-16-4-39 9-50 7-6 17-7 24-1v1Zm37 7c5 0 9 3 11 8 3 9-2 22-9 28-6 5-14 2-16-6-3-11 2-27 14-30Zm36 18c13-1 12 18 4 26-10 10-23 3-19-11 1-7 7-15 14-15h1Zm47 49c9 1 9 11 5 16-5 7-15 8-17-1-1-7 5-15 12-15Zm-30 212c-3 29-5 57-29 77-11 8-24 15-37 16l-5-1c0-2 11-4 16-6 17-7 32-25 38-41l-1 2c-8 14-21 30-37 36-14 6-31 5-39-10s-6-33 1-48c7-14 18-25 29-36 17-17 36-34 49-55l6-10-2 5-14 25 3-3c7-9 14-22 19-33 15-33 27-50 24-89 0-4 0-11 4-2 9 28 1 59-6 87-8 29-14 57-19 86Zm6-96-3 6c2 0 4-5 4-6h-1Zm-3 7c-1 0-3 3-2 4l2-3v-1Zm-4 78 2-6 1-6-3 10v2Zm-3 38s2-8 0-7l-1 7h1Zm-24 44c-1 0-6 3-5 4l5-4Z" class="b"/><path d="M146 377c-51-55 83-125 75-152v-4c0-2 2-2 4-1 4 4 3 10 1 14-18 31-62 57-77 90a60 60 0 0 0-1 49c1 2 2 6-2 4ZM260 62c7-2 12 5 11 11s-6 12-11 14c-8 3-14-4-13-12 1-6 7-12 13-13Z" class="b"/><path d="M185 82c6-19 22-8 23 8l1 1c10-22 32-13 23 9v1l1-1c4-3 8-6 13-7 13-2 19 9 7 22l-2 3v1c28-7 34 13 7 24l7 2c25 7 12 25-12 24l4 2c25 18 7 33-19 19l2 4c16 26-5 36-24 12-1-1-2-3-2 0 3 26-13 38-23 14a58 58 0 0 1-2-7h-1l-2 3c-14 24-28 12-22-10h-1c-14 11-31 10-23-7l2-6h-1c-19 6-30-5-15-18 1-2 5-3 5-5 2-3-14-1-18-7-2-3-1-7 1-10 4-6 13-7 20-9l-2-1c-23-8-21-31 5-25l5 1-1-2c-19-19-6-34 16-19l2 2-1-5c-8-24 16-26 25-4l2-9Z" class="b"/><path d="M199 134c16-72-22-78-7-3l1 3 3 1h3v-1Zm7 3c45-60 9-81-5-3 0 1 0 2 2 2l2 1h1Zm-21 0 3-1 2-1v-4c-17-80-51-56-5 6Zm66-40c-16 0-29 23-37 34l-5 7c-1 2 0 5 2 4 14-12 33-18 41-35 2-3 5-9-1-10Zm-109 0c-22 1 30 47 39 43 1 0 2-1 1-2-9-14-22-37-40-41Zm71 52c81-7 70-54 1-5l-1 1v4Zm-35-5-21-13c-45-20-48 1-8 13l7 2 14 3c4 1 8 0 8-4v-1Z" class="c"/><path d="M214 157c73 22 84-20 3-6l-3 1v3l-1 2h1Zm-16-17-1-1h-4c-7 0-11 7-11 12 0 3 0 5 1 3l1-2c2-8 11-9 17-10l-1-1-2-1Zm-21 17v-4l-1-1-6-1c-78-9-65 27 7 6Zm35 3c-2 10 19 18 26 24 6 4 26 12 25 1-10-15-34-21-51-25Zm-33 4c1-1 0-4-2-4l-6 1c-74 17-52 51 8 3Zm60 50c8-11-25-52-35-45v2c4 16 17 42 35 43Z" class="c"/><path d="M181 167c-42 18-53 70-10 22l1-1c0-2 17-20 9-21Zm15 5c-4 10-3 24-1 35 1 9 9 35 13 11 3-8-4-47-12-46Zm-4-1h-3c-2-1-3 1-3 2-41 65 2 68 6-2Z" class="c"/></svg>