<?xml version="1.0" encoding="UTF-8" standalone="no"?>
<!-- Created with Inkscape (http://www.inkscape.org/) -->

<svg
   width="800"
   height="800"
   viewBox="0 0 211.66666 211.66667"
   version="1.1"
   id="svg1528"
   inkscape:version="1.2.2 (b0a8486541, 2022-12-01)"
   sodipodi:docname="ollama-code.svg"
   xmlns:inkscape="http://www.inkscape.org/namespaces/inkscape"
   xmlns:sodipodi="http://sodipodi.sourceforge.net/DTD/sodipodi-0.dtd"
   xmlns:xlink="http://www.w3.org/1999/xlink"
   xmlns="http://www.w3.org/2000/svg"
   xmlns:svg="http://www.w3.org/2000/svg">
  <sodipodi:namedview
     id="namedview1530"
     pagecolor="#ffffff"
     bordercolor="#000000"
     borderopacity="0.25"
     inkscape:showpageshadow="2"
     inkscape:pageopacity="0.0"
     inkscape:pagecheckerboard="0"
     inkscape:deskcolor="#d1d1d1"
     inkscape:document-units="mm"
     showgrid="false"
     inkscape:zoom="0.75811588"
     inkscape:cx="511.79511"
     inkscape:cy="334.3816"
     inkscape:window-width="1434"
     inkscape:window-height="1025"
     inkscape:window-x="172"
     inkscape:window-y="41"
     inkscape:window-maximized="0"
     inkscape:current-layer="layer1" />
  <defs
     id="defs1525">
    <linearGradient
       inkscape:collect="always"
       id="linearGradient10359">
      <stop
         style="stop-color:#e09b1a;stop-opacity:1;"
         offset="0"
         id="stop10355" />
      <stop
         style="stop-color:#edc272;stop-opacity:1;"
         offset="1"
         id="stop10357" />
    </linearGradient>
    <linearGradient
       inkscape:collect="always"
       xlink:href="#linearGradient10359"
       id="linearGradient10353"
       x1="470.41473"
       y1="665.98932"
       x2="470.41473"
       y2="251.66214"
       gradientUnits="userSpaceOnUse" />
  </defs>
  <g
     inkscape:label="Layer 1"
     inkscape:groupmode="layer"
     id="layer1">
    <text
       xml:space="preserve"
       style="font-size:158.75px;font-family:'RobotoMono Nerd Font Mono';-inkscape-font-specification:'RobotoMono Nerd Font Mono';fill:#ffe200;fill-opacity:1;stroke:none;stroke-width:9.23301;stroke-dasharray:none;stroke-opacity:1"
       x="-8.0724449"
       y="156.15843"
       id="text14111"><tspan
         sodipodi:role="line"
         id="tspan14109"
         style="font-style:normal;font-variant:normal;font-weight:normal;font-stretch:normal;font-size:158.75px;font-family:'DejaVu Sans';-inkscape-font-specification:'DejaVu Sans';fill:#000000;fill-opacity:1;stroke-width:9.233"
         x="-8.0724449"
         y="156.15843">( ):</tspan></text>
    <g
       id="g14369"
       transform="matrix(0.65296692,0,0,0.65296692,11.421607,32.469226)">
      <path
         d="m 69.903648,20.974524 c -1.582967,0.251853 -3.482568,1.067365 -4.822002,2.074779 -4.054852,3.034205 -7.196493,9.474428 -8.52377,17.497675 -0.499243,3.034185 -0.84019,7.243776 -0.84019,10.45795 0,3.789748 0.450536,8.634779 1.09592,11.980815 0.14612,0.743628 0.21918,1.403327 0.158297,1.451259 -0.04871,0.04793 -0.645384,0.527642 -1.315121,1.055284 -2.289234,1.798912 -4.907279,4.569373 -6.709446,7.099981 -3.458234,4.833097 -5.69878,10.325893 -6.6364,16.274335 -0.365306,2.350618 -0.462721,7.099785 -0.170475,9.450403 0.645373,5.420805 2.301427,10.002115 5.138631,14.199765 l 0.925447,1.3552 -0.267887,0.44372 c -1.8996,3.14218 -3.519118,7.68749 -4.274082,12.0528 -0.596666,3.45403 -0.669728,4.37746 -0.669728,9.0067 0,4.66543 0.06089,5.58885 0.62102,8.81496 0.669729,3.86175 2.033536,7.95121 3.55564,10.67375 0.499263,0.88742 1.71695,2.73426 1.863071,2.83032 0.04871,0.0239 -0.09741,0.46758 -0.32877,0.98329 -1.753481,3.77781 -3.251232,8.80284 -3.872261,13.03649 -0.438361,2.90213 -0.499245,3.83768 -0.499245,6.89592 0,3.89755 0.21918,5.79253 1.047214,8.8987 l 0.121767,0.45565 h 5.211696 5.223892 l -0.340967,-0.63563 c -2.106585,-3.83769 -2.301411,-10.96153 -0.487067,-18.07325 0.828034,-3.28618 1.765657,-5.69666 3.519118,-9.01883 l 1.047213,-2.0147 v -1.23527 c 0,-1.15134 -0.02435,-1.28321 -0.401829,-2.03877 -0.292261,-0.57577 -0.681914,-1.06741 -1.376004,-1.73904 -1.181158,-1.12728 -2.033525,-2.31462 -2.715438,-3.77781 -2.995502,-6.40429 -3.580002,-15.91456 -1.473397,-24.02189 0.87674,-3.38204 2.325784,-6.39216 3.847888,-8.03514 1.035037,-1.12748 1.570811,-2.38662 1.570811,-3.69389 0,-1.3552 -0.487067,-2.47054 -1.582988,-3.63382 -3.141641,-3.31004 -5.077752,-7.33984 -5.771842,-12.028946 -0.986331,-6.680137 0.80368,-13.959911 4.870749,-19.728364 3.981851,-5.660851 9.570983,-9.294673 15.817835,-10.266027 1.400219,-0.227921 4.018302,-0.191924 5.479503,0.072 1.595284,0.275853 2.593652,0.191728 3.616651,-0.287982 1.266334,-0.587508 1.8996,-1.319203 2.642318,-2.998187 0.657501,-1.498996 1.169,-2.31462 2.544984,-4.005539 1.656067,-2.026833 3.251152,-3.406097 5.808253,-5.073148 2.922597,-1.882842 6.246854,-3.249976 9.558983,-3.909675 1.20535,-0.239855 1.76553,-0.275853 4.01831,-0.275853 2.25278,0 2.81295,0.036 4.0183,0.275853 4.85855,0.971549 9.68075,3.442095 13.52862,6.94386 0.82794,0.755562 2.81275,3.178176 3.44602,4.185724 0.24353,0.395584 0.66981,1.235272 0.93758,1.858778 0.74272,1.678984 1.37599,2.410679 2.64232,2.998187 0.98645,0.467775 2.02137,0.563835 3.55567,0.31185 2.42321,-0.407714 4.28627,-0.371716 6.66082,0.107993 8.08547,1.60699 15.1237,8.167199 18.24097,16.958099 2.71542,7.711357 1.94827,15.782687 -2.09447,21.946927 -0.68193,1.04354 -1.36387,1.88304 -2.35011,2.91445 -2.13102,2.24263 -2.13102,5.02502 -0.0121,7.32771 3.48256,3.75375 5.66225,12.98836 5.00455,21.13149 -0.4382,5.37287 -1.83861,10.1821 -3.76265,12.90444 -0.34087,0.47971 -1.04704,1.29513 -1.58297,1.79891 -0.69405,0.67163 -1.08358,1.16327 -1.37598,1.73904 -0.37742,0.75556 -0.40185,0.88743 -0.40185,2.03877 v 1.23527 l 1.04723,2.0147 c 1.7536,3.32217 2.69119,5.73265 3.51912,9.01883 1.79015,7.01585 1.63183,13.99571 -0.41397,17.96544 -0.17043,0.33573 -0.31663,0.64757 -0.31663,0.68358 0,0.036 2.32588,0.0599 5.17518,0.0599 h 5.16307 l 0.13389,-0.51571 c 0.0731,-0.27566 0.19487,-0.6955 0.25565,-0.93536 0.13408,-0.52764 0.40185,-2.08669 0.62115,-3.58588 0.20698,-1.51113 0.20698,-7.07592 0,-8.75491 -0.77927,-6.09243 -2.08236,-10.92553 -4.21317,-15.4949 -0.23142,-0.51571 -0.37761,-0.95942 -0.32895,-0.98329 0.061,-0.036 0.40185,-0.51571 0.76715,-1.05548 2.65463,-3.95761 4.28627,-8.93469 5.1144,-15.50684 0.2191,-1.81104 0.2191,-9.59439 0,-11.33344 -0.5846,-4.48525 -1.29077,-7.53156 -2.45977,-10.61368 -0.48707,-1.2832 -1.77783,-3.9936 -2.32568,-4.86909 l -0.26796,-0.44371 0.92546,-1.3552 c 2.83718,-4.19766 4.49325,-8.77897 5.13864,-14.19977 0.2922,-2.350618 0.19486,-7.099785 -0.17044,-9.450403 -0.9499,-5.960572 -3.17825,-11.429305 -6.63638,-16.274336 -1.80228,-2.530607 -4.42035,-5.301068 -6.70949,-7.099981 -0.66982,-0.527642 -1.26654,-1.007351 -1.3152,-1.055283 -0.0608,-0.04793 0.0123,-0.707631 0.15831,-1.45126 1.47352,-7.567561 1.42466,-17.005834 -0.12176,-24.38159 -1.33943,-6.428211 -3.77477,-11.537219 -6.91647,-14.487475 -2.50843,-2.350621 -5.06554,-3.35803 -8.13413,-3.166142 -7.03824,0.407759 -12.71261,8.383066 -14.95328,20.951643 -0.3653,2.026833 -0.68174,4.401514 -0.68174,5.049083 0,0.251789 -0.0489,0.455647 -0.10964,0.455647 -0.061,0 -0.53574,-0.239855 -1.04724,-0.539576 -5.43083,-3.166242 -11.4707,-4.857161 -17.35205,-4.857161 -5.88136,0 -11.921227,1.690919 -17.352062,4.857161 -0.511499,0.299721 -0.98625,0.539576 -1.047233,0.539576 -0.06078,0 -0.10965,-0.203858 -0.10965,-0.455647 0,-0.671633 -0.32875,-3.118114 -0.681734,-5.049083 C 84.905618,30.616878 80.241932,23.145278 74.043946,21.262381 73.191578,21.010529 70.768361,20.842635 69.903678,20.974557 Z m 2.070234,9.762268 c 1.753401,1.367193 3.701668,5.276888 4.822002,9.654319 0.206983,0.791502 0.426084,1.70299 0.487066,2.038709 0.04866,0.32398 0.182551,1.055479 0.292201,1.619119 0.47495,2.54254 0.69405,5.288939 0.718483,8.634974 l 0.01212,3.298104 -0.84025,1.223143 -0.840051,1.235272 H 74.66487 c -2.289135,0 -4.566352,0.287983 -6.746037,0.863556 -0.779267,0.191923 -1.5343,0.383846 -1.680301,0.419845 -0.231416,0.04793 -0.267966,-0.02406 -0.40185,-1.007548 -0.718483,-5.336871 -0.681933,-11.249315 0.10965,-16.166538 0.876601,-5.480686 2.922402,-10.445762 4.919336,-11.908897 0.47495,-0.347809 0.560167,-0.335816 1.108217,0.09594 z m 69.432458,-0.08397 c 1.20555,0.875491 2.53287,3.202123 3.51912,6.176364 1.98482,5.948481 2.54498,14.11568 1.49775,21.887098 -0.13388,0.983484 -0.17043,1.05548 -0.40185,1.007548 -0.146,-0.036 -0.90103,-0.227922 -1.6803,-0.419845 -2.17968,-0.575573 -4.4569,-0.863556 -6.74604,-0.863556 h -1.96058 l -0.84005,-1.235272 -0.84025,-1.223143 0.0121,-3.298104 c 0.0244,-4.653304 0.46283,-8.287126 1.50986,-12.32878 1.10822,-4.341453 3.06861,-8.251148 4.80989,-9.618341 0.54805,-0.431758 0.63327,-0.443751 1.12033,-0.08397 z"
         fill="#000000"
         id="path2"
         style="stroke-width:0.197135" />
      <path
         d="m 104.24246,91.013167 c -2.64252,0.251985 -3.3608,0.347849 -4.627329,0.599833 -2.057923,0.419649 -4.809885,1.355201 -6.721603,2.278623 -6.648507,3.202044 -11.226975,8.538917 -12.627392,14.715277 -0.280083,1.22334 -0.316633,1.63106 -0.316633,3.69389 0,2.03876 0.03655,2.48248 0.304516,3.64575 1.863051,8.07134 9.412588,14.03191 19.178555,15.12319 2.118706,0.22792 11.275846,0.22792 13.394536,0 7.84194,-0.87549 14.58798,-5.06101 17.62003,-10.93766 0.8035,-1.57099 1.19323,-2.59047 1.55853,-4.18553 0.26797,-1.16327 0.30452,-1.60699 0.30452,-3.64575 0,-2.06283 -0.0366,-2.47055 -0.31663,-3.69389 -2.03369,-8.970692 -10.87399,-16.034479 -21.71143,-17.377746 -1.41253,-0.167859 -5.1142,-0.31185 -6.03967,-0.215987 z m 4.55404,6.524212 c 3.61665,0.383846 7.25753,1.655116 10.17994,3.573961 1.57084,1.03141 3.78708,3.19011 4.73678,4.60537 1.169,1.75078 1.83862,3.53776 2.14313,5.70859 0.13389,0.99542 0.061,1.75098 -0.30451,3.35797 -0.57229,2.39855 -2.35012,4.90509 -4.74891,6.65607 -1.12033,0.80349 -3.44601,1.96697 -4.87066,2.42261 -2.70331,0.85143 -4.46902,1.00735 -10.77666,0.95942 -4.11563,-0.036 -4.84643,-0.072 -6.027548,-0.28778 -4.030422,-0.74363 -7.220788,-2.32675 -9.534356,-4.73724 -1.875367,-1.9429 -2.727734,-3.71775 -3.190368,-6.58407 -0.206984,-1.33134 0.182551,-3.53796 0.974134,-5.39694 0.962017,-2.26668 3.446019,-5.08488 5.905787,-6.704 2.8493,-1.870913 6.599836,-3.202049 10.045851,-3.561832 1.32732,-0.143991 4.14007,-0.143991 5.46739,-0.01213 z"
         fill="#000000"
         id="path4"
         style="stroke-width:0.197135" />
      <path
         d="m 101.47857,106.29248 c -0.92546,0.49164 -1.570843,1.73885 -1.37598,2.66227 0.2191,0.99542 1.10802,2.00297 2.49612,2.83053 0.74292,0.44371 0.79158,0.50357 0.82814,0.94729 0.0242,0.26391 -0.0731,1.01948 -0.20699,1.69111 -0.1462,0.6595 -0.25585,1.3552 -0.25585,1.54712 0.0123,0.51571 0.49938,1.3552 1.01069,1.76292 0.45071,0.35978 0.53593,0.37171 1.80226,0.40771 1.15688,0.036 1.40042,0.0119 1.86305,-0.20386 1.19343,-0.57576 1.49776,-1.63105 1.05935,-3.65788 -0.3653,-1.69092 -0.2922,-1.95484 0.62115,-2.47055 0.96182,-0.5517 1.98482,-1.52306 2.28914,-2.18275 0.5846,-1.25915 0.0486,-2.68634 -1.2421,-3.34604 -0.31644,-0.15593 -0.70617,-0.22773 -1.27846,-0.22773 -0.88891,0 -1.46119,0.20386 -2.50842,0.86337 l -0.59672,0.37191 -0.37742,-0.22792 c -1.54642,-0.89956 -1.82651,-1.00736 -2.76428,-0.99542 -0.66962,0 -1.03492,0.0599 -1.36368,0.22792 z"
         fill="#000000"
         id="path6"
         style="stroke-width:0.197135" />
      <path
         d="m 71.912898,92.368563 c -2.155251,0.671633 -3.762651,2.23069 -4.590585,4.449446 -0.40185,1.05548 -0.596717,2.722531 -0.426283,3.621891 0.40185,2.14676 2.191801,4.1016 4.225485,4.64137 2.557101,0.6595 4.468819,0.22773 6.161435,-1.4272 0.986251,-0.94748 1.522184,-1.77504 2.057918,-3.11831 0.389534,-0.947288 0.413967,-1.115148 0.413967,-2.458414 l 0.01212,-1.43913 -0.511301,-1.031415 c -0.816016,-1.631053 -2.289334,-2.842458 -3.994068,-3.28617 -0.962017,-0.239855 -2.508434,-0.227725 -3.348685,0.04793 z"
         fill="#000000"
         id="path8"
         style="stroke-width:0.197135" />
      <path
         d="m 136.94964,92.332761 c -1.66818,0.443712 -3.15382,1.666855 -3.9454,3.27404 l -0.5113,1.031415 0.0121,1.43913 c 0,1.343266 0.0244,1.511126 0.41396,2.458414 0.53594,1.34327 1.07167,2.17083 2.05792,3.11831 1.69262,1.65493 3.60434,2.0867 6.16164,1.4272 1.47331,-0.38385 2.94663,-1.60718 3.65299,-3.03438 0.60884,-1.21121 0.75484,-2.086702 0.56017,-3.465966 -0.45052,-3.154113 -2.32588,-5.444668 -5.1144,-6.248163 -0.81581,-0.239855 -2.39878,-0.239855 -3.2877,0 z"
         fill="#000000"
         id="path10"
         style="stroke-width:0.197135" />
      <path
         style="fill:url(#linearGradient10353);fill-opacity:1;stroke:none;stroke-width:46.0304;stroke-dasharray:none;stroke-opacity:1"
         d="m 400.05459,707.34123 -190.22456,-0.33421 -2.15398,-6.92062 c -7.06752,-22.70755 -1.99949,-60.10905 12.03171,-88.79265 4.59423,-9.39185 5.85142,-13.40741 5.85142,-18.68981 0,-6.17498 -0.54383,-7.36001 -6.61729,-14.41928 -7.78844,-9.05264 -12.25978,-17.88074 -16.12399,-31.83474 -2.40895,-8.69895 -2.80714,-13.64538 -2.7817,-34.55481 0.0255,-20.93807 0.43912,-25.90078 2.91358,-34.95508 3.57329,-13.07505 8.88901,-24.59575 15.10755,-32.74249 8.77057,-11.49007 8.19724,-18.42214 -2.63768,-31.89143 -17.03255,-21.17381 -23.24258,-45.99538 -18.31563,-73.2078 6.53146,-36.07439 32.25204,-67.44276 64.06977,-78.13838 7.20864,-2.4232 11.61945,-2.89023 27.70025,-2.93296 22.76614,-0.0605 24.06651,-0.62888 30.35059,-13.26598 10.66226,-21.44152 35.17313,-39.77708 62.52434,-46.77186 19.8313,-5.07165 36.95484,-2.9468 58.17321,7.21868 20.00234,9.58288 34.17144,22.58267 43.48955,39.90055 6.56376,12.19885 8.14217,12.86063 30.7911,12.90986 17.60364,0.0383 20.16215,0.35159 28.24927,3.45965 13.24395,5.08993 22.77714,11.26537 33.28334,21.56041 26.92881,26.38755 37.7692,67.86971 26.50505,101.42502 -4.06438,12.10759 -7.61182,18.47294 -15.8832,28.50002 -10.52253,12.75607 -10.92977,19.78723 -1.84055,31.77828 6.68785,8.82305 10.72593,17.6219 14.59743,31.80741 2.62773,9.62821 2.97967,13.95569 2.92828,36.00563 -0.0545,23.39605 -0.29549,25.83575 -3.62438,36.69934 -4.51468,14.73324 -6.98659,19.45285 -15.29178,29.19655 -8.94611,10.49562 -9.06945,15.1111 -0.86924,32.5272 11.73661,24.92689 15.94956,44.29212 14.8888,68.43794 -0.67346,15.3296 -2.17158,22.93935 -5.20565,26.44212 -1.44121,1.66388 -26.83641,1.87344 -191.88561,1.58344 z m 26.00165,-211.94104 c 17.42136,-0.97294 33.06951,-6.92179 48.16509,-18.31062 23.29661,-17.57606 32.0088,-45.89283 22.88076,-74.36808 -8.05381,-25.12414 -34.7096,-47.59155 -66.42914,-55.99123 -15.02471,-3.9787 -44.2931,-3.98436 -59.35768,-0.0119 -31.29576,8.25344 -57.09386,29.88809 -66.11586,55.4457 -2.43491,6.89761 -3.08495,11.50812 -3.10695,22.03643 -0.0428,20.46058 5.31433,33.19835 20.02543,47.61536 15.5364,15.2258 34.16175,22.64689 60.40938,24.06956 16.04015,0.86941 20.07042,0.82444 43.52897,-0.48565 z M 289.22815,395.01026 c 7.39392,-5.0243 12.80882,-15.36354 12.82411,-24.48638 0.0102,-6.05959 -0.67103,-8.3301 -3.79151,-12.63779 -5.32956,-7.35725 -11.64758,-10.06971 -21.92995,-9.41497 -9.78613,0.62312 -16.25324,4.75772 -20.51825,13.11782 -9.53471,18.68957 0.55007,36.72312 20.55399,36.75457 6.33716,0.0106 8.93084,-0.66222 12.86161,-3.33325 z m 251.31589,-0.41892 c 11.42035,-8.13202 12.57209,-25.64508 2.49083,-37.87539 -2.20094,-2.67013 -5.95619,-5.67141 -8.34496,-6.6695 -5.92634,-2.4762 -16.89412,-2.28227 -22.54359,0.39858 -6.60219,3.13295 -12.22275,12.42637 -12.22275,20.20997 0,10.40868 8.04918,22.98879 17.14778,26.80036 1.08822,0.45588 5.85012,0.68486 10.58199,0.50883 6.52823,-0.24284 9.63753,-1.0564 12.8907,-3.37285 z"
         id="path8833"
         transform="scale(0.26458333)" />
      <g
         id="g7335"
         transform="translate(-1.1151039,1.7395345)">
        <circle
           style="fill:none;stroke:#000000;stroke-width:7;stroke-dasharray:none;stroke-opacity:1"
           id="path6153"
           cx="73.962051"
           cy="98.368591"
           r="18.638416" />
        <circle
           style="fill:none;stroke:#000000;stroke-width:7;stroke-dasharray:none;stroke-opacity:1"
           id="path6153-3"
           cx="138.84012"
           cy="97.45195"
           r="18.638416" />
        <path
           style="fill:none;stroke:#000000;stroke-width:7;stroke-dasharray:none;stroke-opacity:1"
           d="m 89.778164,87.919453 c 0,0 4.799597,-7.089002 15.149816,-7.192311 10.35021,-0.103312 17.23521,6.406567 17.23521,6.406567 l -0.0245,0.66929 v 0 0"
           id="path6287" />
      </g>
    </g>
  </g>
</svg>
