<?xml version="1.0" encoding="UTF-8" standalone="no"?>
<!-- Created with Inkscape (http://www.inkscape.org/) -->

<svg
   width="240.50673mm"
   height="120.38505mm"
   viewBox="0 0 240.50673 120.38505"
   version="1.1"
   id="svg1"
   xml:space="preserve"
   inkscape:version="1.4 (e7c3feb100, 2024-10-09)"
   sodipodi:docname="I-Form.svg"
   xmlns:inkscape="http://www.inkscape.org/namespaces/inkscape"
   xmlns:sodipodi="http://sodipodi.sourceforge.net/DTD/sodipodi-0.dtd"
   xmlns:xlink="http://www.w3.org/1999/xlink"
   xmlns="http://www.w3.org/2000/svg"
   xmlns:svg="http://www.w3.org/2000/svg"><sodipodi:namedview
     id="namedview1"
     pagecolor="#ffffff"
     bordercolor="#000000"
     borderopacity="0.25"
     inkscape:showpageshadow="2"
     inkscape:pageopacity="0.0"
     inkscape:pagecheckerboard="0"
     inkscape:deskcolor="#d1d1d1"
     inkscape:document-units="mm"
     inkscape:zoom="0.74243066"
     inkscape:cx="432.36361"
     inkscape:cy="195.9779"
     inkscape:window-width="1584"
     inkscape:window-height="835"
     inkscape:window-x="0"
     inkscape:window-y="0"
     inkscape:window-maximized="1"
     inkscape:current-layer="layer1" /><defs
     id="defs1"><linearGradient
       id="linearGradient100"
       inkscape:collect="always"><stop
         style="stop-color:#00e56e;stop-opacity:1;"
         offset="0"
         id="stop100" /><stop
         style="stop-color:#02e8f7;stop-opacity:1;"
         offset="1"
         id="stop101" /></linearGradient><linearGradient
       inkscape:collect="always"
       xlink:href="#linearGradient100"
       id="linearGradient101"
       x1="54.698959"
       y1="172.53966"
       x2="233.25446"
       y2="172.53966"
       gradientUnits="userSpaceOnUse" /></defs><g
     inkscape:label="Layer 1"
     inkscape:groupmode="layer"
     id="layer1"
     transform="translate(7.251802,-98.770585)"><g
       id="g101"><path
         style="fill:url(#linearGradient101)"
         d="m 54.753591,178.00615 c -0.05732,-0.14945 -0.07191,-2.7093 -0.03241,-5.68854 l 0.07181,-5.41682 88.635419,-0.0401 c 48.74948,-0.0221 88.90331,0.01 89.23073,0.0712 0.59491,0.11122 0.59531,0.11506 0.59531,5.6625 v 5.55121 l -66.21198,7.5e-4 c -36.41658,4.2e-4 -76.555831,0.0302 -89.198316,0.0661 -15.541996,0.0442 -23.020091,-0.0226 -23.090562,-0.20633 z"
         id="path93" /><g
         id="g100"
         style="fill:#060e9f;fill-opacity:1"><path
           style="fill:#060e9f;fill-opacity:1"
           d="m 24.762782,128.27163 v -5.42396 H 35.74299 46.723198 v 5.42396 5.42395 H 35.74299 24.762782 Z"
           id="path100" /><path
           style="fill:#060e9f;fill-opacity:1"
           d="m 93.936018,146.51369 c -7.897975,-14.48903 1.922017,-31.86811 18.006972,-31.86811 4.53741,0 9.99772,1.7121 11.94607,3.74573 l 0.7359,0.76812 -4.14036,4.14036 -4.14037,4.14036 -1.58837,-0.48092 c -7.18977,-2.17689 -14.65982,6.08412 -11.34076,12.54155 l 0.46794,0.91041 -4.039818,4.11534 c -4.860148,4.951 -4.379708,4.78938 -5.907204,1.98716 z"
           id="path99" /><path
           style="fill:#060e9f;fill-opacity:1"
           d="m 170.28357,135.34923 4e-5,-19.9099 h 5.65768 c 6.42682,0 5.96792,-0.1826 5.98443,2.38125 0.0124,1.9295 0.26415,1.99252 1.76169,0.44109 4.91256,-5.08933 14.73969,-4.98311 19.73236,0.21328 l 1.51846,1.58041 1.25967,-1.21637 c 5.8097,-5.61001 17.49988,-5.73512 22.77323,-0.24372 4.02633,4.1928 4.27289,5.51271 4.2788,22.90552 l 0.005,13.75834 -5.88706,-0.0463 -5.88707,-0.0463 -0.13229,-12.52138 c -0.12445,-11.77942 -0.16373,-12.5947 -0.66283,-13.75855 -2.24238,-5.22893 -9.29768,-4.95255 -12.05206,0.47212 l -0.91115,1.79448 -0.0787,11.98684 c -0.0598,9.1084 -0.1551,11.98999 -0.39688,11.99996 -0.175,0.007 -2.75897,0.0135 -5.74215,0.0139 l -5.42395,7.8e-4 -0.1323,-12.64776 -0.13229,-12.64775 -0.70467,-1.50243 c -2.28472,-4.87122 -9.25637,-4.09559 -11.92702,1.32695 l -0.86206,1.75035 -0.13229,11.8833 -0.13229,11.88331 -5.88702,0.0293 -5.88701,0.0293 z"
           id="path98" /><path
           style="fill:#060e9f;fill-opacity:1"
           d="m 138.90886,155.14888 c -0.0609,-0.0606 -0.11067,-9.02241 -0.11067,-19.91505 v -19.80482 l 5.75469,0.0713 5.75469,0.0713 0.18328,2.21175 c 0.2291,2.76463 0.0696,2.71163 2.05973,0.68417 2.83405,-2.88715 6.08283,-4.05044 10.36229,-3.71042 2.76011,0.2193 3.74759,0.58163 3.57162,1.31051 -0.0747,0.30928 -0.50691,2.64591 -0.96054,5.19253 -0.92623,5.19976 -0.90288,5.14697 -2.09245,4.73228 -3.15349,-1.09931 -8.26994,0.29154 -10.33091,2.80834 -2.1287,2.59952 -2.14409,2.7061 -2.20768,15.28338 l -0.0562,11.10916 -5.9086,0.0329 c -3.24973,0.0181 -5.9584,-0.0167 -6.01927,-0.0773 z"
           id="path97" /><path
           style="fill:#060e9f;fill-opacity:1"
           d="m 54.77112,155.14888 c -0.06073,-0.0606 -0.110422,-12.77055 -0.110422,-28.24427 V 98.770585 h 18.653125 18.653125 v 5.688545 5.68854 H 79.663823 67.360698 v 6.35 6.35 h 9.392709 9.392708 v 5.42396 5.42395 h -9.38974 -9.389741 l -0.06911,10.73936 -0.06911,10.73936 -6.173432,0.0424 c -3.395388,0.0233 -6.223122,-0.007 -6.283855,-0.0678 z"
           id="path96" /><path
           style="fill:#060e9f;fill-opacity:1"
           d="m -7.141465,155.14888 c -0.06068,-0.0606 -0.110337,-2.59071 -0.110337,-5.62239 v -5.51216 h 3.96875 3.96875028 V 127.081 110.14767 H -3.283052 -7.251802 v -5.68854 -5.688545 H 7.16799 21.587782 v 5.688545 5.68854 h -4.103001 -4.103 l 0.0681,16.86718 0.0681,16.86719 4.040138,0.0731 4.040137,0.0731 -0.07139,5.5641 -0.07139,5.56411 -14.2433087,0.0514 c -7.83381992,0.0283 -14.292961,0.002 -14.353646,-0.0589 z"
           id="path95" /><path
           style="fill:#060e9f;fill-opacity:1"
           d="m 109.44309,156.95263 c -3.44831,-0.41013 -9.567383,-2.89899 -9.726733,-3.95624 -0.03176,-0.2107 1.763323,-2.27183 3.989073,-4.58027 l 4.04682,-4.19717 0.90474,0.493 c 6.43659,3.50738 15.07098,-5.0218 12.04262,-11.89588 l -0.44575,-1.01181 3.42617,-3.6184 c 1.8844,-1.99012 3.77977,-3.9538 4.21193,-4.36374 l 0.78576,-0.74534 0.57088,0.72576 c 5.28531,6.71918 4.65586,18.91242 -1.3468,26.08926 -4.25516,5.08751 -11.55913,7.88142 -18.45871,7.06083 z"
           id="path94" /><path
           style="fill:#060e9f;fill-opacity:1"
           d="m 212.98314,190.19963 c -0.31057,-0.80934 0.0167,-1.33837 0.82805,-1.33837 0.69803,0 0.79979,0.10023 0.87304,0.85989 0.0906,0.93949 -1.36687,1.34944 -1.70109,0.47848 z"
           id="path92" /><path
           style="fill:#060e9f;fill-opacity:1"
           d="m 216.76208,199.66508 c -0.54092,-0.54093 -0.17735,-7.69914 0.3987,-7.84978 0.68441,-0.17898 1.01241,-0.0179 1.01241,0.49727 0,0.29663 0.18397,0.2652 0.8599,-0.14692 2.96942,-1.81049 4.69635,-0.10518 4.69635,4.63754 v 3.07343 l -0.7276,-0.0837 -0.72761,-0.0837 -0.13229,-2.99878 c -0.16052,-3.6388 -0.57841,-4.21925 -2.50911,-3.4852 -1.01304,0.38516 -1.45964,1.7188 -1.45964,4.35881 0,2.24549 -0.50375,2.98842 -1.41111,2.08107 z"
           id="path91" /><path
           style="fill:#060e9f;fill-opacity:1"
           d="m 213.20536,195.80657 c 0.0694,-3.83416 0.0994,-4.03489 0.60221,-4.03489 0.50284,0 0.5328,0.20073 0.6022,4.03489 l 0.073,4.0349 h -0.67524 -0.67524 z"
           id="path90" /><path
           style="fill:#060e9f;fill-opacity:1"
           d="m 206.79611,195.90097 c 0,-3.25854 0.0687,-3.96679 0.39687,-4.09273 0.54417,-0.20882 1.19063,0.074 1.19063,0.52086 0,0.48061 0.37991,0.47034 0.78794,-0.0213 0.41681,-0.50222 2.07799,-0.81878 2.43311,-0.46366 0.52311,0.52312 -0.0227,1.3827 -0.87798,1.3827 -1.67132,0 -2.34307,1.16992 -2.34307,4.08069 v 2.5339 h -0.79375 -0.79375 z"
           id="path89" /><path
           style="fill:#060e9f;fill-opacity:1"
           d="m 170.46,199.66503 c -0.097,-0.097 -0.17639,-1.57702 -0.17639,-3.28889 0,-3.02634 -0.0165,-3.11484 -0.59531,-3.19705 -0.84547,-0.12008 -0.867,-1.43548 -0.0221,-1.34835 0.48091,0.0496 0.60328,-0.11866 0.75972,-1.04466 0.25141,-1.48806 1.35472,-2.58633 2.59821,-2.58633 1.89033,0 2.84058,0.79831 1.88966,1.5875 -0.31493,0.26137 -0.47811,0.26196 -0.79032,0.003 -0.59295,-0.49211 -1.69939,-0.1 -2.00796,0.71163 -0.30456,0.80105 -0.14227,1.44735 0.34734,1.38325 1.26369,-0.16543 1.82439,0.0323 1.74174,0.61425 -0.0677,0.47637 -0.29601,0.62174 -1.14289,0.7276 l -1.05833,0.1323 -0.0743,3.24114 c -0.0751,3.27733 -0.45793,4.07594 -1.46911,3.06476 z"
           id="path88" /><path
           style="fill:#060e9f;fill-opacity:1"
           d="m 151.71041,195.99801 c -0.0586,-2.83983 0.008,-3.94833 0.24743,-4.14688 0.42578,-0.35247 1.12785,-0.0777 1.12785,0.44136 0,0.53419 0.14053,0.51274 1.05104,-0.16043 2.70304,-1.99844 4.76553,0.22759 4.76832,5.14643 l 0.001,2.59645 -0.8599,-0.0829 -0.8599,-0.0829 v -2.86747 c 0,-5.67834 -3.56143,-5.5562 -3.83645,0.13157 l -0.1323,2.7359 -0.71382,0.0824 -0.71383,0.0824 z"
           id="path87" /><path
           style="fill:#060e9f;fill-opacity:1"
           d="m 130.47458,198.98152 c 0.0604,-0.47294 0.18512,-2.98204 0.2772,-5.57578 0.17804,-5.01496 0.22912,-5.1799 1.49857,-4.83856 0.41285,0.11101 1.03974,0.96831 2.04993,2.80335 1.76019,3.19744 1.41361,3.20387 3.33637,-0.0619 1.42247,-2.41606 1.68532,-2.72079 2.40891,-2.79276 l 0.81222,-0.0808 0.1694,4.18183 c 0.0932,2.3 0.23776,4.87492 0.3213,5.72204 l 0.15188,1.54022 -0.88806,-0.085 -0.88807,-0.085 -0.16531,-3.91359 c -0.20193,-4.78012 -0.11745,-4.6983 -1.84245,-1.78451 -1.80113,3.04238 -1.94605,3.04048 -3.72843,-0.049 l -1.40756,-2.43976 -0.17882,1.18299 c -0.0983,0.65065 -0.18765,2.33411 -0.19844,3.74104 -0.0237,3.09331 -0.12056,3.39508 -1.08962,3.39508 -0.69094,0 -0.74032,-0.0665 -0.63902,-0.8599 z"
           id="path86" /><path
           style="fill:#060e9f;fill-opacity:1"
           d="m 91.914396,195.97834 c -0.08636,-4.18394 0.318959,-5.36755 1.321188,-3.85812 l 0.369211,0.55607 0.750564,-0.55492 c 0.947327,-0.70039 2.941619,-0.56127 3.765573,0.26269 1.213088,1.21309 1.319295,7.27193 0.12987,7.40879 l -0.727604,0.0837 -0.02637,-2.46497 c -0.04117,-3.84781 -0.720684,-4.97127 -2.548829,-4.21402 -1.251483,0.51838 -1.591071,1.84062 -1.655361,6.4454 -0.0015,0.10914 -0.294309,0.19844 -0.650634,0.19844 h -0.647865 z"
           id="path85" /><path
           style="fill:#060e9f;fill-opacity:1"
           d="m 77.756189,199.51069 c -0.13895,-0.1819 -0.410117,-0.74745 -0.602594,-1.25677 -0.192476,-0.50933 -0.807743,-2.0213 -1.36726,-3.35995 -1.233984,-2.95232 -1.239911,-3.04579 -0.186457,-2.94067 0.794964,0.0793 0.879884,0.20854 1.966318,2.9919 1.110613,2.84529 1.141963,2.89164 1.431936,2.11666 0.310889,-0.83087 1.933698,-5.00145 1.968473,-5.05893 0.118566,-0.19596 1.153857,-0.30409 1.404105,-0.14665 0.308397,0.19402 -0.09358,1.31889 -2.498935,6.99295 -0.444014,1.0474 -1.555352,1.39487 -2.115586,0.66146 z"
           id="path84" /><path
           style="fill:#060e9f;fill-opacity:1"
           d="m 55.189865,199.69042 c 0,-0.27135 1.671198,-4.83853 2.994419,-8.18338 1.150635,-2.90858 1.151925,-2.91041 2.051899,-2.91041 h 0.90054 l 1.270929,3.175 c 0.699011,1.74625 1.496499,3.82984 1.772196,4.6302 0.275696,0.80037 0.692173,1.90916 0.925502,2.464 l 0.424236,1.00878 -1.002673,-0.0827 c -0.963317,-0.0795 -1.023233,-0.14246 -1.526484,-1.6041 l -0.523812,-1.52135 h -2.255964 -2.255964 l -0.545362,1.52135 c -0.489765,1.36626 -2.229462,2.53881 -2.229462,1.50265 z m 6.614583,-4.78854 c 0,-2.71773 -1.723644,-4.2374 -2.482887,-2.18908 -0.906161,2.44469 -0.935896,2.36612 0.895387,2.36612 0.873125,0 1.5875,-0.0797 1.5875,-0.17704 z"
           id="path83" /><path
           style="fill:#060e9f;fill-opacity:1"
           d="m 199.52007,199.86944 c -1.35986,-0.59137 -1.58225,-1.20879 -1.67445,-4.64884 -0.0741,-2.76414 -0.0252,-3.26778 0.33073,-3.40435 1.03495,-0.39715 1.21143,0.027 1.21143,2.91152 0,3.04017 0.18458,3.64691 1.18593,3.89823 1.85459,0.46547 2.77876,-1.08677 2.78134,-4.67153 l 0.001,-2.05052 h 0.79375 0.79375 v 3.96875 3.96875 h -0.79375 c -0.52917,0 -0.79375,-0.13229 -0.79375,-0.39688 0,-0.50894 -0.23861,-0.5024 -0.81853,0.0224 -0.54988,0.49764 -2.27122,0.72718 -3.01793,0.40245 z"
           id="path82" /><path
           style="fill:#060e9f;fill-opacity:1"
           d="m 193.36466,199.83174 c -0.86455,-0.34733 -1.12063,-1.28622 -1.12063,-4.1086 0,-2.45659 -0.0101,-2.49632 -0.63315,-2.49632 -0.34824,0 -0.70748,-0.19368 -0.79832,-0.43041 -0.22711,-0.59183 0.34007,-1.20324 0.93965,-1.01294 0.4352,0.13813 0.49182,0.002 0.49182,-1.18465 0,-1.31333 0.0162,-1.34075 0.79375,-1.34075 0.76148,0 0.79375,0.0472 0.79375,1.16232 0,1.22745 0.25222,1.48352 1.46123,1.48352 0.72681,0 0.98768,0.30956 0.76028,0.90216 -0.10933,0.28491 -0.49401,0.42075 -1.19149,0.42075 h -1.03002 v 2.50424 c 0,2.82951 0.38686,3.44289 1.77308,2.81129 0.75518,-0.34408 1.13733,-0.18332 1.13733,0.47845 0,0.88639 -1.99631,1.36574 -3.37728,0.81094 z"
           id="path81" /><path
           style="fill:#060e9f;fill-opacity:1"
           d="m 185.11908,199.64256 c -2.71384,-1.38382 -2.89385,-5.67679 -0.31041,-7.40265 1.17062,-0.78202 3.23892,-0.8181 4.45327,-0.0777 1.42929,0.87147 0.53641,1.91704 -0.98776,1.15668 -2.84766,-1.4206 -5.0928,2.56015 -2.66657,4.72798 0.95419,0.85257 1.49514,0.90825 2.79619,0.28782 0.86154,-0.41084 0.97562,-0.41296 1.3632,-0.0254 1.25322,1.25322 -2.62383,2.36534 -4.64792,1.33324 z"
           id="path80" /><path
           style="fill:#060e9f;fill-opacity:1"
           d="m 175.93432,199.84363 c -3.17992,-1.28325 -1.07183,-5.51954 2.61422,-5.2534 1.29948,0.0938 1.62289,-0.42388 0.75529,-1.20904 -0.39988,-0.36189 -0.7948,-0.44031 -1.66344,-0.33033 -0.62649,0.0793 -1.43301,0.18113 -1.79227,0.22624 -1.0963,0.13765 -1.02641,-0.77727 0.0952,-1.24589 2.11779,-0.88487 4.64205,-0.25745 5.18069,1.28768 0.99744,2.86126 0.084,7.55145 -1.21728,6.25019 -0.18672,-0.18672 -0.51527,-0.14564 -1.04511,0.13066 -0.84664,0.44151 -2.04393,0.50037 -2.92727,0.14389 z m 3.17715,-1.60893 c 0.51087,-0.40184 0.69714,-0.79067 0.69714,-1.4552 v -0.90684 h -1.32292 c -1.48954,0 -2.38125,0.62419 -2.38125,1.66687 0,1.30508 1.72476,1.70381 3.00703,0.69517 z"
           id="path79" /><path
           style="fill:#060e9f;fill-opacity:1"
           d="m 162.4488,199.86023 c -1.63956,-0.70218 -2.70069,-7.63251 -1.22717,-8.01468 1.01832,-0.26411 1.12435,0.0107 1.12853,2.92469 0.004,3.02192 0.0606,3.22941 1.01214,3.73081 1.72095,0.90685 2.72931,-0.49175 2.89927,-4.02129 0.13013,-2.70236 0.2456,-2.983 1.11399,-2.70738 0.49503,0.15711 0.5268,0.40549 0.5268,4.11812 v 3.95092 h -0.79375 c -0.52917,0 -0.79375,-0.13229 -0.79375,-0.39688 0,-0.50894 -0.2386,-0.5024 -0.81853,0.0224 -0.557,0.50408 -2.27203,0.7254 -3.04753,0.39327 z"
           id="path78" /><path
           style="fill:#060e9f;fill-opacity:1"
           d="m 144.05178,199.70479 c -2.93602,-1.59501 -0.11481,-5.91484 3.3027,-5.0571 0.81112,0.20358 1.02203,-0.0308 0.65521,-0.72804 -0.54647,-1.03874 -1.62969,-1.24573 -3.32018,-0.63444 -0.87926,0.31794 -1.37507,0.0798 -1.38935,-0.66719 -0.016,-0.83638 3.70262,-1.26462 5.02833,-0.57907 1.16496,0.60242 1.31762,1.13654 1.31762,4.61007 v 3.1924 h -0.63941 c -0.35168,0 -0.68434,-0.1348 -0.73926,-0.29956 -0.069,-0.20713 -0.35752,-0.16631 -0.93495,0.13229 -1.01934,0.52712 -2.34403,0.53949 -3.28071,0.0306 z m 3.39446,-1.49699 c 0.40203,-0.37768 0.61237,-0.87754 0.61237,-1.45521 0,-1.59857 -3.17933,-1.17979 -3.57653,0.4711 -0.34888,1.45003 1.73262,2.14109 2.96416,0.98411 z"
           id="path77" /><path
           style="fill:#060e9f;fill-opacity:1"
           d="m 119.88049,199.85358 c -4.22088,-1.74587 -1.91051,-8.7475 2.67889,-8.11845 l 1.15756,0.15866 v -1.71473 -1.71473 h 0.79375 0.79375 v 5.68855 5.68854 h -0.7717 c -0.42443,0 -0.81885,-0.14144 -0.87647,-0.31431 -0.0743,-0.22291 -0.29018,-0.18444 -0.74238,0.13229 -0.67068,0.46977 -2.13978,0.56381 -3.0334,0.19418 z m 2.75763,-1.45678 c 1.36641,-0.70659 1.63894,-4.70553 0.35397,-5.19407 -1.89641,-0.72101 -3.50848,0.53015 -3.50848,2.72301 0,2.41389 1.29834,3.43093 3.15451,2.47106 z"
           id="path76" /><path
           style="fill:#060e9f;fill-opacity:1"
           d="m 111.02222,199.64259 c -2.84157,-1.42765 -2.90328,-6.23259 -0.0976,-7.59761 1.977,-0.96184 4.24018,-0.17524 5.12896,1.78265 1.02008,2.24715 0.95182,2.30964 -2.52311,2.30964 -2.79299,0 -3.04271,0.0405 -3.04271,0.49349 0,1.59884 2.18474,2.55994 3.97948,1.75063 0.82288,-0.37107 1.11493,-0.40095 1.42267,-0.14555 1.46399,1.215 -2.79789,2.44666 -4.86771,1.40675 z m 3.69889,-5.00964 c 0,-1.5196 -2.4013,-2.20387 -3.5839,-1.02127 -1.18634,1.18634 -0.90544,1.46724 1.46723,1.46724 1.80865,0 2.11667,-0.0649 2.11667,-0.44597 z"
           id="path75" /><path
           style="fill:#060e9f;fill-opacity:1"
           d="m 102.65911,199.60569 c -2.872032,-1.75135 -2.721801,-6.07037 0.26518,-7.6238 1.82733,-0.95033 5.48275,0.26407 4.31372,1.4331 -0.42976,0.42976 -0.49719,0.42982 -1.22304,0.001 -1.99935,-1.18104 -3.87469,0.17036 -3.66953,2.64433 0.18497,2.23044 1.63845,3.19723 3.48756,2.31976 1.70819,-0.81059 2.4752,0.22971 0.88447,1.1996 -1.10851,0.67588 -2.97301,0.6878 -4.05836,0.026 z"
           id="path74" /><path
           style="fill:#060e9f;fill-opacity:1"
           d="m 84.109951,199.58846 c -2.516866,-1.53463 -0.931443,-4.80306 2.394737,-4.93688 1.749046,-0.0704 2.161769,-0.45411 1.355536,-1.26034 -0.509627,-0.50963 -1.729812,-0.55324 -2.966547,-0.10603 -0.879257,0.31794 -1.375063,0.0798 -1.389344,-0.66719 -0.01599,-0.83638 3.702623,-1.26462 5.028328,-0.57907 1.164962,0.60242 1.317621,1.13654 1.317621,4.61007 v 3.1924 h -0.645844 c -0.355214,0 -0.715002,-0.1119 -0.799528,-0.24867 -0.0911,-0.1474 -0.524998,-0.0935 -1.065451,0.13229 -1.240967,0.51851 -2.223268,0.47697 -3.229508,-0.13658 z m 3.455691,-1.35375 c 0.510867,-0.40184 0.69714,-0.79067 0.69714,-1.4552 v -0.90684 h -1.272347 c -1.449909,0 -2.066047,0.36126 -2.304184,1.35102 -0.345114,1.4344 1.512122,2.08652 2.879391,1.01102 z"
           id="path73" /><path
           style="fill:#060e9f;fill-opacity:1"
           d="m 67.968856,199.58755 c -3.59646,-2.19289 -1.474181,-8.24597 2.753183,-7.85252 l 1.376966,0.12816 0.07824,-1.63328 c 0.07486,-1.56272 0.109677,-1.6369 0.805846,-1.717 l 0.727604,-0.0837 v 5.70611 5.70612 h -0.608541 c -0.334698,0 -0.741384,-0.13284 -0.903745,-0.29521 -0.217216,-0.21721 -0.456444,-0.18226 -0.905539,0.1323 -0.824442,0.57746 -2.293708,0.53725 -3.324017,-0.091 z m 3.465419,-1.46364 c 0.670111,-0.62104 0.706791,-0.77743 0.633948,-2.70287 l -0.07732,-2.04369 -0.851087,-0.2433 c -1.741137,-0.49773 -3.249955,0.82323 -3.249955,2.84532 0,2.42125 1.963771,3.60942 3.54441,2.14454 z"
           id="path72" /><path
           style="fill:#060e9f;fill-opacity:1"
           d="m 226.70601,202.95807 c -0.69169,-0.33359 -0.7201,-0.46363 -0.24364,-1.11522 0.28723,-0.39281 0.45374,-0.42632 0.90865,-0.18286 1.69132,0.90517 3.6721,0.0632 3.95136,-1.67958 l 0.16851,-1.05162 -0.69642,0.45631 c -1.89046,1.23868 -4.64329,0.19058 -5.23089,-1.99159 -1.05856,-3.93119 2.16387,-6.66148 6.45567,-5.46973 l 1.01376,0.2815 -0.0877,4.63262 -0.0877,4.63262 -0.9883,0.90524 c -1.06619,0.97657 -3.72421,1.27634 -5.16326,0.58231 z m 4.04692,-5.08901 c 0.57407,-0.57407 0.64943,-0.87972 0.64943,-2.63385 v -1.98441 l -0.95548,-0.17925 c -2.07391,-0.38907 -3.78247,1.38487 -3.38327,3.51275 0.36297,1.93481 2.348,2.62608 3.68932,1.28476 z"
           id="path71" /><path
           style="fill:#060e9f;fill-opacity:1"
           d="m 161.34703,214.59193 c 0.0728,-4.02313 0.83925,-5.9796 1.441,-3.6785 0.13754,0.52597 0.14594,0.52616 0.97289,0.0219 0.85674,-0.52241 2.1531,-0.68055 2.39327,-0.29194 0.34928,0.56514 -0.18319,1.36883 -0.90688,1.36883 -1.86391,0 -2.37203,0.90403 -2.37203,4.22019 v 2.39439 h -0.80064 -0.80065 z"
           id="path70" /><path
           style="fill:#060e9f;fill-opacity:1"
           d="m 145.87882,218.42839 c -0.41865,-0.88044 0.15261,-8.00365 0.64187,-8.00365 0.29985,0 0.58687,0.22083 0.6624,0.50962 0.1315,0.50288 0.1443,0.50289 0.96741,9.9e-4 1.7788,-1.08464 4.6496,-0.15235 4.67916,1.51956 0.0195,1.10471 0.0271,5.53566 0.01,5.84118 -0.11492,2.05087 -1.34145,0.0708 -1.34145,-2.16558 0,-6.17828 -3.82425,-6.32395 -4.16398,-0.15861 -0.13935,2.52876 -0.85037,3.72887 -1.45539,2.45649 z"
           id="path69" /><path
           style="fill:#060e9f;fill-opacity:1"
           d="m 113.39819,212.93828 v -5.68854 h 0.79375 0.79375 v 2.13587 2.13587 l 0.69714,-0.54837 c 2.69951,-2.12343 4.85911,-0.0686 4.85911,4.62345 v 3.03026 h -0.79375 -0.79375 v -2.91041 c 0,-3.14073 -0.33484,-3.96875 -1.60489,-3.96875 -1.68201,0 -2.36386,1.29362 -2.36386,4.48477 v 2.39439 h -0.79375 -0.79375 z"
           id="path68" /><path
           style="fill:#060e9f;fill-opacity:1"
           d="m 99.639865,214.54336 c 0,-4.29282 0.387295,-5.33768 1.327395,-3.58109 l 0.28767,0.53753 0.68336,-0.53753 c 0.79972,-0.62907 2.46407,-0.73869 2.46407,-0.16229 0,0.86225 -0.3401,1.21226 -1.17792,1.21226 -1.47075,0 -1.84511,0.7117 -1.99708,3.7967 l -0.13229,2.68559 -0.7276,0.0837 -0.727605,0.0837 z"
           id="path67" /><path
           style="fill:#060e9f;fill-opacity:1"
           d="m 56.195168,218.44355 c -0.05665,-0.11748 -0.09766,-2.65438 -0.09113,-5.63756 l 0.01187,-5.42396 2.52728,-0.0751 c 4.51406,-0.13413 6.764953,3.06544 3.935227,5.5938 l -0.865559,0.77338 1.198215,2.33817 c 1.292379,2.52192 1.298573,2.61453 0.174853,2.61453 -0.675687,0 -0.861165,-0.22732 -1.942933,-2.38125 l -1.195936,-2.38125 h -1.045377 -1.045377 l -0.07645,2.31511 c -0.07279,2.20423 -0.985043,3.50762 -1.584685,2.26412 z m 5.146259,-6.63064 c 1.470407,-1.3079 0.100151,-3.24025 -2.29771,-3.24025 h -1.208019 v 1.80798 c 0,0.9944 0.04955,1.8576 0.110114,1.91823 0.271927,0.27225 2.978712,-0.11513 3.395615,-0.48596 z"
           id="path66" /><path
           style="fill:#060e9f;fill-opacity:1"
           d="m 168.78451,218.36138 c -2.68861,-1.36986 -2.9101,-5.64583 -0.38,-7.33605 2.44644,-1.63433 5.54601,-0.0708 5.89031,2.97129 l 0.0898,0.79375 -3.10885,0.0745 c -3.42381,0.0821 -3.38413,0.059 -2.45298,1.42929 0.98825,1.45433 2.99294,1.58986 4.01892,0.2717 0.3301,-0.42411 0.37728,-0.42027 0.74916,0.061 1.25518,1.62431 -2.41977,2.95051 -4.80639,1.73451 z m 3.67019,-4.79528 c 0.58927,-0.36418 -0.62678,-1.67227 -1.64777,-1.77248 -1.48008,-0.14527 -3.4475,1.56711 -2.16362,1.88315 0.75587,0.18606 3.45823,0.1076 3.81139,-0.11067 z"
           id="path65" /><path
           style="fill:#060e9f;fill-opacity:1"
           d="m 156.8733,218.62498 c -0.91767,-0.36974 -1.21969,-1.26693 -1.35209,-4.0166 -0.11406,-2.36872 -0.16727,-2.57465 -0.68429,-2.64843 -0.81553,-0.11638 -0.78626,-1.37087 0.0347,-1.48747 0.51506,-0.0731 0.59531,-0.24257 0.59531,-1.25677 0,-1.12608 0.0312,-1.17222 0.79375,-1.17222 0.76283,0 0.79375,0.0458 0.79375,1.17541 v 1.17541 l 1.12448,0.0814 c 1.6614,0.12021 1.72078,1.39527 0.0661,1.42027 l -1.05834,0.016 -0.0842,1.43922 c -0.18525,3.16459 0.50074,4.65026 1.82095,3.94371 0.55043,-0.29458 1.306,0.0316 1.306,0.56382 0,0.71644 -2.22115,1.22359 -3.35614,0.7663 z"
           id="path64" /><path
           style="fill:#060e9f;fill-opacity:1"
           d="m 139.15086,218.60108 c -2.59416,-0.75105 -3.54831,-5.03361 -1.56366,-7.01826 2.48021,-2.48022 6.50266,-0.92143 6.50266,2.51993 v 0.81991 h -3.04271 c -1.67349,0 -3.04271,0.0752 -3.04271,0.1672 0,1.96917 3.19516,3.02543 4.6751,1.5455 0.42157,-0.42157 0.46938,-0.41987 0.7971,0.0283 1.05635,1.44464 -1.72504,2.69035 -4.32578,1.9374 z m 3.26099,-5.14709 c 0.44582,-1.16181 -2.22766,-2.24578 -3.372,-1.36719 -0.68935,0.52926 -1.09115,1.44603 -0.70256,1.603 0.85585,0.34573 3.91943,0.16843 4.07456,-0.23581 z"
           id="path63" /><path
           style="fill:#060e9f;fill-opacity:1"
           d="m 128.92495,218.52388 c -4.95898,-1.84616 -4.66153,-9.5015 0.44354,-11.41537 2.60597,-0.97696 7.44629,1.58295 5.23288,2.76753 -0.38799,0.20765 -0.62272,0.12522 -1.10483,-0.38796 -2.37093,-2.52374 -6.3365,-0.43121 -6.33902,3.34494 -0.002,3.61545 3.26337,5.5567 5.92681,3.52302 1.02582,-0.78327 1.31033,-0.89067 1.63831,-0.61847 1.82482,1.51447 -2.9937,3.83019 -5.79769,2.78631 z"
           id="path62" /><path
           style="fill:#060e9f;fill-opacity:1"
           d="m 107.70965,218.70148 c -3.84475,-0.93404 -3.65164,-7.26301 0.25161,-8.24586 2.18963,-0.55136 4.71793,0.77105 3.46392,1.81178 -0.30541,0.25347 -0.51004,0.23272 -0.98491,-0.0999 -2.41446,-1.69116 -5.00232,1.37564 -3.39097,4.01852 0.8776,1.43939 2.36486,1.65638 3.61429,0.52733 0.56966,-0.51477 0.57433,-0.51447 0.88027,0.0572 0.74495,1.39195 -1.46716,2.50597 -3.83421,1.93093 z"
           id="path61" /><path
           style="fill:#060e9f;fill-opacity:1"
           d="m 92.496115,218.71637 c -3.37669,-1.33483 -1.791459,-5.3812 2.108169,-5.3812 1.388834,0 1.786193,-0.49772 1.013914,-1.27 -0.393857,-0.39386 -2.44311,-0.4163 -3.15639,-0.0346 -0.532661,0.28507 -1.28861,-0.0512 -1.28861,-0.57313 0,-0.50185 1.635823,-1.03273 3.182214,-1.03273 2.744218,0 3.167786,0.65177 3.167786,4.87444 v 3.32764 h -0.639409 c -0.351676,0 -0.693307,-0.14882 -0.759182,-0.33073 -0.09517,-0.2628 -0.233185,-0.26382 -0.671951,-0.005 -0.665419,0.39256 -2.405932,0.6429 -2.956541,0.42524 z m 2.395906,-1.4203 c 0.636619,-0.3407 1.394477,-1.7671 1.203417,-2.26499 -0.23691,-0.61738 -2.685287,-0.49328 -3.348274,0.1697 -1.243664,1.24367 0.518886,2.96549 2.144857,2.09529 z"
           id="path60" /><path
           style="fill:#060e9f;fill-opacity:1"
           d="m 84.086659,218.37996 c -1.996846,-0.932 -2.807014,-3.97852 -1.619772,-6.09093 1.889446,-3.36182 7.118811,-1.91933 7.118811,1.96368 v 0.66996 H 86.54299 c -3.432549,0 -3.622144,0.1369 -2.276035,1.64346 0.990738,1.10882 2.539227,1.20418 3.585965,0.22082 0.664037,-0.62383 0.686431,-0.62649 1.064834,-0.12628 1.180641,1.56068 -2.423097,2.84317 -4.831095,1.71929 z m 3.845394,-4.76338 c 0.759385,-0.19321 -1.083966,-1.86891 -2.055889,-1.86891 -1.465923,0 -2.926316,1.3309 -2.07247,1.8887 0.261861,0.17107 3.438045,0.15584 4.128359,-0.0198 z"
           id="path59" /><path
           style="fill:#060e9f;fill-opacity:1"
           d="m 75.463509,218.50272 c -1.454057,-0.5183 -1.616849,-0.75654 -1.078444,-1.57825 0.453295,-0.69181 0.466039,-0.69432 1.01682,-0.2 1.131615,1.01561 3.159986,1.02134 3.481027,0.01 0.239426,-0.75436 -0.273863,-1.20542 -1.914461,-1.68236 -2.673012,-0.77707 -3.455054,-2.35393 -1.92584,-3.88314 1.430346,-1.43035 6.001276,-0.75634 4.904498,0.7232 -0.326437,0.44035 -0.463768,0.46803 -0.92504,0.1864 -0.751563,-0.45887 -2.527675,-0.41878 -2.930121,0.0661 -0.507048,0.61096 0.07573,1.11026 1.890055,1.61933 1.731459,0.48583 2.607862,1.31204 2.607862,2.45852 0,2.05298 -2.56421,3.1936 -5.126356,2.28033 z"
           id="path58" /><path
           style="fill:#060e9f;fill-opacity:1"
           d="m 67.49299,218.51792 c -1.657819,-0.73682 -2.697776,-2.74115 -2.435775,-4.69452 0.62864,-4.68685 7.59515,-4.43062 7.59515,0.27936 v 0.81991 h -3.042708 c -3.366051,0 -3.317253,-0.0277 -2.366084,1.3448 1.002227,1.44621 2.751079,1.58296 4.142324,0.3239 0.416472,-0.3769 0.481721,-0.35093 0.783764,0.31199 0.655158,1.43791 -2.569391,2.55115 -4.676671,1.61456 z m 2.844271,-4.88664 c 0.876635,-0.038 0.925756,-0.44796 0.152317,-1.27125 -0.880787,-0.93755 -2.357197,-0.84467 -3.239421,0.20379 -1.009718,1.19998 -0.893976,1.24 3.087104,1.06746 z"
           id="path1" /></g></g></g></svg>
