<?xml version="1.0" encoding="UTF-8" standalone="no"?>
<!-- Created with Inkscape (http://www.inkscape.org/) -->

<svg
   width="800"
   height="800"
   viewBox="0 0 211.66666 211.66667"
   version="1.1"
   id="svg1528"
   inkscape:version="1.2.2 (b0a8486541, 2022-12-01)"
   sodipodi:docname="ollama-sentiment.svg"
   xml:space="preserve"
   xmlns:inkscape="http://www.inkscape.org/namespaces/inkscape"
   xmlns:sodipodi="http://sodipodi.sourceforge.net/DTD/sodipodi-0.dtd"
   xmlns:xlink="http://www.w3.org/1999/xlink"
   xmlns="http://www.w3.org/2000/svg"
   xmlns:svg="http://www.w3.org/2000/svg"><sodipodi:namedview
     id="namedview1530"
     pagecolor="#ffffff"
     bordercolor="#000000"
     borderopacity="0.25"
     inkscape:showpageshadow="2"
     inkscape:pageopacity="0.0"
     inkscape:pagecheckerboard="0"
     inkscape:deskcolor="#d1d1d1"
     inkscape:document-units="mm"
     showgrid="false"
     inkscape:zoom="1.229876"
     inkscape:cx="525.66274"
     inkscape:cy="426.46575"
     inkscape:window-width="1920"
     inkscape:window-height="1029"
     inkscape:window-x="0"
     inkscape:window-y="0"
     inkscape:window-maximized="1"
     inkscape:current-layer="layer1" /><defs
     id="defs1525"><linearGradient
       inkscape:collect="always"
       id="linearGradient10359"><stop
         style="stop-color:#e09b1a;stop-opacity:1;"
         offset="0"
         id="stop10355" /><stop
         style="stop-color:#edc272;stop-opacity:1;"
         offset="1"
         id="stop10357" /></linearGradient><linearGradient
       inkscape:collect="always"
       xlink:href="#linearGradient10359"
       id="linearGradient10353"
       x1="470.41473"
       y1="665.98932"
       x2="470.41473"
       y2="251.66214"
       gradientUnits="userSpaceOnUse"
       gradientTransform="matrix(0.24056347,0,0,0.24056347,-27.663837,9.9136896)" /></defs><g
     inkscape:label="Layer 1"
     inkscape:groupmode="layer"
     id="layer1"><g
       id="g30605"
       transform="translate(12.349575,0.29105063)"><path
         d="m 35.893698,28.984068 c -1.43926,0.228989 -3.166408,0.970466 -4.384243,1.886423 -3.686737,2.758749 -6.543169,8.614304 -7.74995,15.909171 -0.45392,2.758731 -0.763915,6.586159 -0.763915,9.508538 0,3.445701 0.409635,7.850882 0.996429,10.893153 0.132854,0.676118 0.199282,1.275927 0.143926,1.319508 -0.04429,0.04358 -0.586794,0.479741 -1.19573,0.959481 -2.081409,1.6356 -4.461778,4.154549 -6.100337,6.455419 -3.144283,4.39433 -5.181424,9.38847 -6.033923,14.79689 -0.332142,2.13722 -0.420714,6.45524 -0.154999,8.59246 0.586784,4.928689 2.092495,9.094089 4.672127,12.910659 l 0.841432,1.23217 -0.243568,0.40344 c -1.727147,2.85692 -3.199639,6.98959 -3.886065,10.9586 -0.542498,3.14046 -0.608927,3.98006 -0.608927,8.18904 0,4.24188 0.05536,5.08147 0.564641,8.0147 0.608929,3.51117 1.848924,7.22937 3.232846,9.70475 0.453938,0.80686 1.561079,2.48603 1.693935,2.57337 0.04429,0.0217 -0.08857,0.42513 -0.298923,0.89402 -1.594294,3.43485 -2.956073,8.00369 -3.520723,11.85299 -0.398565,2.63867 -0.453922,3.48929 -0.453922,6.26989 0,3.54371 0.199282,5.26666 0.952144,8.09084 l 0.110713,0.41428 h 4.738559 4.749647 l -0.310013,-0.57792 c -1.915341,-3.48929 -2.09248,-9.9664 -0.442849,-16.43249 0.752862,-2.98785 1.605364,-5.1795 3.19964,-8.20007 l 0.952143,-1.8318 v -1.12313 c 0,-1.04681 -0.02214,-1.16671 -0.36535,-1.85368 -0.265728,-0.5235 -0.620007,-0.97051 -1.251085,-1.58116 -1.073928,-1.02494 -1.848914,-2.10449 -2.46892,-3.43485 -2.72356,-5.82288 -3.254997,-14.46978 -1.339637,-21.84109 0.797146,-3.07501 2.114641,-5.81186 3.498562,-7.30568 0.941073,-1.02513 1.428207,-2.16996 1.428207,-3.35855 0,-1.23217 -0.442849,-2.24625 -1.439278,-3.30393 -2.856431,-3.00954 -4.616775,-6.6735 -5.247853,-10.93691 -0.896788,-6.073689 0.730719,-12.692578 4.428564,-17.93735 3.620364,-5.146938 8.702094,-8.450868 14.381834,-9.334039 1.273101,-0.207229 3.653505,-0.1745 4.982053,0.06546 1.450458,0.25081 2.358191,0.174322 3.288318,-0.261838 1.151371,-0.534172 1.727147,-1.199441 2.402438,-2.726 0.597811,-1.362912 1.062874,-2.104491 2.313941,-3.641902 1.505723,-1.842829 2.956001,-3.096879 5.280959,-4.612588 2.657272,-1.711911 5.679741,-2.954932 8.691182,-3.554741 1.095924,-0.21808 1.605249,-0.25081 3.653513,-0.25081 2.048265,0 2.55758,0.03273 3.653504,0.25081 4.417473,0.883349 8.801896,3.129609 12.300442,6.313471 0.752776,0.686969 2.557398,2.889649 3.133177,3.805728 0.221422,0.359672 0.609002,1.12313 0.852463,1.690032 0.675293,1.526559 1.251073,2.191828 2.402441,2.726 0.896896,0.425309 1.837862,0.512648 3.232873,0.283539 2.203222,-0.3707 3.897146,-0.33797 6.056129,0.09819 7.35144,1.461102 13.75071,7.42575 16.58498,15.41858 2.46891,7.011291 1.7714,14.349878 -1.90432,19.954508 -0.62002,0.9488 -1.24006,1.71209 -2.13676,2.64986 -1.93756,2.03904 -1.93756,4.56883 -0.011,6.66248 3.1664,3.41297 5.14821,11.80923 4.55022,19.21309 -0.39842,4.8851 -1.6717,9.25773 -3.42107,11.73293 -0.30992,0.43616 -0.95198,1.17755 -1.43926,1.6356 -0.63104,0.61065 -0.98521,1.05766 -1.25106,1.58116 -0.34316,0.68697 -0.36537,0.80687 -0.36537,1.85368 v 1.12313 l 0.95216,1.8318 c 1.5944,3.02057 2.44687,5.21222 3.19964,8.20007 1.62763,6.37892 1.48369,12.72512 -0.37639,16.33447 -0.15496,0.30525 -0.28788,0.58878 -0.28788,0.62152 0,0.0327 2.11472,0.0545 4.70535,0.0545 h 4.69435 l 0.12174,-0.46889 c 0.0665,-0.25064 0.17717,-0.63236 0.23244,-0.85045 0.1219,-0.47974 0.36537,-1.89725 0.56476,-3.26034 0.18819,-1.37394 0.18819,-6.43354 0,-7.9601 -0.70853,-5.53934 -1.89332,-9.93367 -3.83069,-14.08822 -0.21041,-0.46889 -0.34333,-0.87232 -0.29908,-0.89402 0.0555,-0.0327 0.36537,-0.46889 0.6975,-0.95966 2.41364,-3.59832 3.89715,-8.12357 4.6501,-14.09907 0.19921,-1.64663 0.19921,-8.72338 0,-10.30455 -0.53153,-4.07806 -1.17359,-6.84782 -2.23646,-9.65013 -0.44286,-1.16671 -1.61644,-3.63105 -2.11455,-4.42706 l -0.24363,-0.40343 0.84144,-1.23217 c 2.57961,-3.81658 4.08533,-7.98198 4.67213,-12.910661 0.26568,-2.13722 0.17717,-6.45524 -0.15496,-8.59246 -0.86367,-5.419449 -2.88972,-10.39171 -6.03391,-14.796891 -1.63866,-2.30087 -4.01905,-4.819818 -6.10038,-6.455419 -0.60901,-0.47974 -1.15155,-0.9159 -1.1958,-0.95948 -0.0553,-0.04358 0.0112,-0.64339 0.14394,-1.319509 1.33975,-6.88055 1.29533,-15.461982 -0.1107,-22.168139 -1.21784,-5.844634 -3.43209,-10.489827 -6.28857,-13.172248 -2.28071,-2.137223 -4.60567,-3.053176 -7.395685,-2.878708 -6.399283,0.370741 -11.558512,7.62202 -13.595766,19.049575 -0.332137,1.842829 -0.619849,4.001928 -0.619849,4.590708 0,0.228931 -0.04446,0.414282 -0.09969,0.414282 -0.05546,0 -0.487104,-0.21808 -0.952168,-0.490591 -4.937799,-2.878799 -10.429347,-4.41621 -15.776766,-4.41621 -5.347429,0 -10.838974,1.537411 -15.776778,4.41621 -0.465063,0.272511 -0.896714,0.490591 -0.952161,0.490591 -0.05526,0 -0.0997,-0.185351 -0.0997,-0.414282 0,-0.610659 -0.298904,-2.83504 -0.619843,-4.590708 C 49.533725,37.751091 45.293426,30.95779 39.658116,29.24583 38.883129,29.016842 36.679901,28.86419 35.893717,28.984135 Z m 1.88229,8.876013 c 1.594221,1.243074 3.365617,4.797833 4.384243,8.777864 0.188192,0.719647 0.387402,1.548387 0.442848,1.853628 0.04424,0.294568 0.165979,0.959658 0.265674,1.472129 0.431832,2.311719 0.631042,4.808789 0.653257,7.851059 l 0.01102,2.99869 -0.763969,1.112101 -0.763788,1.12313 h -1.782594 c -2.081318,0 -4.151801,0.261839 -6.133606,0.785159 -0.708523,0.174499 -1.395011,0.348999 -1.527757,0.38173 -0.210408,0.04358 -0.243639,-0.02188 -0.365369,-0.916079 -0.653256,-4.85237 -0.620024,-10.228061 0.0997,-14.69888 0.79702,-4.983129 2.657095,-9.497457 4.47274,-10.827763 0.431832,-0.316233 0.509313,-0.305329 1.007609,0.08723 z m 63.129122,-0.07635 c 1.09611,0.796011 2.30293,2.911423 3.19964,5.615651 1.80463,5.408456 2.31394,12.834206 1.36178,19.900106 -0.12173,0.8942 -0.15496,0.95966 -0.36537,0.916079 -0.13274,-0.03273 -0.81923,-0.20723 -1.52776,-0.38173 -1.9818,-0.52332 -4.052281,-0.785159 -6.133605,-0.785159 h -1.782591 l -0.763787,-1.12313 -0.763969,-1.112101 0.011,-2.99869 c 0.02218,-4.23086 0.420813,-7.53479 1.37279,-11.209527 1.007611,-3.94732 2.79003,-7.502078 4.37323,-8.745153 0.498292,-0.392561 0.575782,-0.403465 1.018622,-0.07635 z"
         fill="#000000"
         id="path2"
         style="stroke-width:0.179238" /><path
         d="m 67.115105,92.664343 c -2.402623,0.229109 -3.055694,0.31627 -4.207243,0.545378 -1.871097,0.381551 -4.373226,1.23217 -6.111391,2.071761 -6.044931,2.91135 -10.207748,7.763718 -11.48103,13.379368 -0.254656,1.11228 -0.287888,1.48299 -0.287888,3.35855 0,1.85367 0.03323,2.25711 0.276871,3.31477 1.693916,7.3386 8.558078,12.75804 17.437454,13.75025 1.926362,0.20723 10.252183,0.20723 12.17853,0 7.13002,-0.79601 13.263629,-4.60155 16.020418,-9.9447 0.730556,-1.42837 1.084905,-2.35529 1.417041,-3.80555 0.243643,-1.05766 0.276875,-1.4611 0.276875,-3.31477 0,-1.87556 -0.03328,-2.24627 -0.287885,-3.35855 -1.849064,-8.1563 -9.886809,-14.578808 -19.740386,-15.800128 -1.284295,-0.152621 -4.649914,-0.283539 -5.491366,-0.196379 z m 4.140607,5.931919 c 3.288317,0.349 6.598664,1.504858 9.255767,3.249508 1.428233,0.93777 3.443275,2.9005 4.306758,4.18727 1.062874,1.59184 1.671703,3.21659 1.948568,5.19035 0.121735,0.90505 0.05546,1.59202 -0.276865,3.05312 -0.520335,2.1808 -2.136767,4.45979 -4.317786,6.0518 -1.018623,0.73055 -3.133169,1.78841 -4.428484,2.20268 -2.457893,0.77414 -4.063305,0.9159 -9.798314,0.87232 -3.741998,-0.0327 -4.406454,-0.0655 -5.480345,-0.26165 -3.664526,-0.67612 -6.565258,-2.11552 -8.668792,-4.30718 -1.705114,-1.76652 -2.4801,-3.38024 -2.900734,-5.98634 -0.188194,-1.21048 0.165978,-3.21677 0.885698,-4.90699 0.874682,-2.0609 3.133177,-4.62325 5.369638,-6.09538 2.59063,-1.70107 6.000678,-2.911359 9.133851,-3.23848 1.206821,-0.130919 3.764219,-0.130919 4.97104,-0.01103 z"
         fill="#000000"
         id="path4"
         style="stroke-width:0.179238" /><path
         d="m 64.602131,106.55654 c -0.841443,0.44701 -1.428236,1.58099 -1.251064,2.42058 0.19921,0.90505 1.00743,1.82114 2.269513,2.57357 0.675475,0.40342 0.719718,0.45785 0.752959,0.86129 0.022,0.23995 -0.06646,0.92693 -0.188199,1.53758 -0.132927,0.59963 -0.232623,1.23217 -0.232623,1.40667 0.01118,0.46889 0.454045,1.23217 0.918936,1.60287 0.409793,0.32712 0.487276,0.33797 1.638644,0.3707 1.051854,0.0327 1.273285,0.0108 1.693915,-0.18535 1.085086,-0.52349 1.361788,-1.48298 0.963179,-3.32581 -0.332137,-1.53741 -0.265673,-1.77737 0.564759,-2.24626 0.874503,-0.50161 1.804631,-1.38479 2.081324,-1.98459 0.531528,-1.14484 0.04419,-2.44247 -1.129338,-3.04228 -0.287712,-0.14177 -0.642061,-0.20705 -1.162396,-0.20705 -0.808212,0 -1.328538,0.18535 -2.280697,0.78499 l -0.542547,0.33814 -0.343157,-0.20722 c -1.40603,-0.8179 -1.660692,-0.91591 -2.513328,-0.90506 -0.608829,0 -0.940966,0.0545 -1.23988,0.20723 z"
         fill="#000000"
         id="path6"
         style="stroke-width:0.179238" /><path
         d="m 37.720541,93.896691 c -1.95959,0.610659 -3.421064,2.02818 -4.173835,4.045509 -0.365369,0.959659 -0.542545,2.47537 -0.387583,3.29308 0.365368,1.95187 1.992821,3.72924 3.841879,4.22001 2.324958,0.59963 4.063123,0.20706 5.602077,-1.29763 0.896716,-0.86147 1.383995,-1.6139 1.871093,-2.83522 0.354171,-0.86129 0.376385,-1.01391 0.376385,-2.235231 l 0.01102,-1.30848 -0.464883,-0.937779 c -0.741935,-1.48298 -2.0815,-2.58441 -3.631472,-2.98784 -0.874681,-0.21808 -2.280709,-0.207051 -3.044679,0.04358 z"
         fill="#000000"
         id="path8"
         style="stroke-width:0.179238" /><path
         d="m 96.853005,93.864139 c -1.516736,0.40343 -2.867504,1.515532 -3.587222,2.976811 l -0.464882,0.937779 0.011,1.30848 c 0,1.221321 0.02218,1.373941 0.376379,2.235231 0.487285,1.22132 0.97438,1.97375 1.871094,2.83522 1.538958,1.50469 3.277125,1.89726 5.602266,1.29763 1.33956,-0.349 2.67912,-1.46127 3.32136,-2.75891 0.55356,-1.10125 0.68631,-1.89726 0.50931,-3.151309 -0.40962,-2.867771 -2.11472,-4.950381 -4.650095,-5.680932 -0.741747,-0.21808 -2.181009,-0.21808 -2.98923,0 z"
         fill="#000000"
         id="path10"
         style="stroke-width:0.179238" /><path
         style="fill:url(#linearGradient10353);fill-opacity:1;stroke:none;stroke-width:11.0732;stroke-dasharray:none;stroke-opacity:1"
         d="m 68.574683,180.07415 -45.76108,-0.0804 -0.518169,-1.66485 c -1.700187,-5.4626 -0.481004,-14.46004 2.89439,-21.36026 1.105204,-2.25934 1.407638,-3.22534 1.407638,-4.49609 0,-1.48547 -0.130826,-1.77055 -1.591878,-3.46875 -1.873614,-2.17774 -2.949255,-4.30146 -3.878843,-7.65828 -0.579506,-2.09265 -0.675296,-3.28258 -0.669176,-8.31262 0.0061,-5.03694 0.105637,-6.23078 0.700901,-8.40892 0.859603,-3.14538 2.138371,-5.91684 3.634325,-7.87665 2.109879,-2.76409 1.971956,-4.43169 -0.634529,-7.67191 -4.09741,-5.09364 -5.591316,-11.064806 -4.406072,-17.611121 1.571231,-8.67818 7.758663,-16.224264 15.412846,-18.797239 1.734136,-0.582934 2.795215,-0.695284 6.663668,-0.705563 5.476702,-0.01455 5.789524,-0.151286 7.301244,-3.191311 2.56495,-5.158046 8.46137,-9.568912 15.041072,-11.251601 4.770686,-1.220053 8.889984,-0.708892 13.994349,1.736551 4.811832,2.305291 8.2204,5.432566 10.461997,9.598615 1.579001,2.934598 1.958709,3.093798 7.407214,3.105641 4.23479,0.0092 4.85028,0.08458 6.79574,0.832265 3.18601,1.224451 5.47935,2.710036 8.00676,5.186647 6.47809,6.347881 9.08589,16.326973 6.37615,24.399156 -0.97775,2.91264 -1.83113,4.44391 -3.82092,6.85606 -2.53134,3.06865 -2.62931,4.76009 -0.44277,7.6447 1.60885,2.1225 2.58027,4.23918 3.51161,7.6517 0.63213,2.31619 0.7168,3.35723 0.70443,8.66164 -0.0131,5.62823 -0.0711,6.21513 -0.87189,8.82852 -1.08607,3.54428 -1.68072,4.67964 -3.67864,7.02362 -2.15211,2.52486 -2.18178,3.63518 -0.20911,7.82486 2.8234,5.9965 3.83688,10.65506 3.5817,16.46366 -0.16201,3.68775 -0.5224,5.51837 -1.25229,6.36101 -0.3467,0.40027 -6.45586,0.45068 -46.160667,0.38092 z m 6.255048,-50.98527 c 4.190942,-0.23406 7.955316,-1.66513 11.586761,-4.40487 5.604313,-4.22816 7.700148,-11.04014 5.504275,-17.89024 -1.937453,-6.04395 -8.349862,-11.44879 -15.980425,-13.469446 -3.614396,-0.95713 -10.655302,-0.958491 -14.279289,-0.0029 -7.528617,1.985477 -13.734697,7.189976 -15.905061,13.338206 -0.58575,1.65931 -0.742126,2.76843 -0.747419,5.30116 -0.0103,4.92207 1.278434,7.98631 4.817387,11.45452 3.737491,3.66277 8.218069,5.44801 14.53229,5.79025 3.858675,0.20915 4.82821,0.19833 10.471481,-0.11683 z M 41.91389,104.93873 c 1.778707,-1.20866 3.081335,-3.69591 3.085013,-5.89053 0.0025,-1.457716 -0.161426,-2.003918 -0.912099,-3.040191 -1.282097,-1.769885 -2.801982,-2.422404 -5.275545,-2.264898 -2.354185,0.1499 -3.909936,1.144534 -4.935941,3.155669 -2.293703,4.49603 0.132326,8.83424 4.944539,8.84181 1.524489,0.003 2.148434,-0.15931 3.094033,-0.80186 z m 60.45742,-0.10078 c 2.74732,-1.95627 3.02439,-6.169268 0.59921,-9.111434 -0.52947,-0.642335 -1.43285,-1.364334 -2.0075,-1.604438 -1.425658,-0.595683 -4.064105,-0.549031 -5.423161,0.09588 -1.588246,0.753673 -2.940347,2.989331 -2.940347,4.861781 0,2.503951 1.936338,5.530271 4.125129,6.447191 0.261786,0.10967 1.407325,0.16475 2.54564,0.12241 1.570459,-0.0584 2.318439,-0.25414 3.101029,-0.81139 z"
         id="path8833" /><g
         id="g7335"
         transform="matrix(0.90921628,0,0,0.90921628,-28.39486,10.395062)"><circle
           style="fill:none;stroke:#000000;stroke-width:7;stroke-dasharray:none;stroke-opacity:1"
           id="path6153"
           cx="73.962051"
           cy="98.368591"
           r="18.638416" /><circle
           style="fill:none;stroke:#000000;stroke-width:7;stroke-dasharray:none;stroke-opacity:1"
           id="path6153-3"
           cx="138.84012"
           cy="97.45195"
           r="18.638416" /><path
           style="fill:none;stroke:#000000;stroke-width:7;stroke-dasharray:none;stroke-opacity:1"
           d="m 89.778164,87.919453 c 0,0 4.799597,-7.089002 15.149816,-7.192311 10.35021,-0.103312 17.23521,6.406567 17.23521,6.406567 l -0.0245,0.66929 v 0 0"
           id="path6287" /></g></g><g
       id="hair"
       transform="matrix(0.92188554,0,0,0.92188554,138.03341,72.645454)" /><g
       id="skin"
       transform="matrix(0.92188554,0,0,0.92188554,138.03341,72.645454)" /><g
       id="skin-shadow"
       transform="matrix(0.92188554,0,0,0.92188554,138.03341,72.645454)" /><g
       id="hair-5"
       transform="matrix(0.92188554,0,0,0.92188554,138.05176,17.186675)" /><g
       id="skin-6"
       transform="matrix(0.92188554,0,0,0.92188554,138.05176,17.186675)" /><g
       id="skin-shadow-2"
       transform="matrix(0.92188554,0,0,0.92188554,138.05176,17.186675)" /><g
       id="g30619"
       transform="translate(-1.5306758,14.202725)"><g
         id="color-3"
         transform="matrix(0.92188554,0,0,0.92188554,129.20422,19.762833)"
         style="fill:#e09b1a;fill-opacity:1"><circle
           cx="36"
           cy="36"
           r="23"
           fill="#fcea2b"
           id="circle28942"
           style="fill:#e09b1a;fill-opacity:1" /><path
           fill="#ffffff"
           d="m 50.595,41.64 a 11.5554,11.5554 0 0 1 -0.87,4.49 C 37.235,49.16 24.295,46.47 22.235,46 a 11.4347,11.4347 0 0 1 -0.83,-4.36 h 0.11 c 0,0 14.8,3.59 28.89,0.07 z"
           id="path28944"
           style="fill:#e09b1a;fill-opacity:1" /><path
           fill="#ea5a47"
           d="m 49.7251,46.13 c -1.79,4.27 -6.35,7.23 -13.69,7.23 -7.41,0 -12.03,-3.03 -13.8,-7.36 2.06,0.47 14.9999,3.16 27.49,0.13 z"
           id="path28946"
           style="fill:#e09b1a;fill-opacity:1" /></g><g
         id="line-9"
         transform="matrix(0.92188554,0,0,0.92188554,129.20422,19.762833)"><circle
           cx="36"
           cy="36"
           r="23"
           fill="none"
           stroke="#000000"
           stroke-linecap="round"
           stroke-linejoin="round"
           stroke-width="2"
           id="circle28952" /><path
           fill="none"
           stroke="#000000"
           stroke-linecap="round"
           stroke-linejoin="round"
           stroke-width="2"
           d="m 50.595,41.64 a 11.5554,11.5554 0 0 1 -0.87,4.49 C 37.235,49.16 24.295,46.47 22.235,46 a 11.4347,11.4347 0 0 1 -0.83,-4.36 h 0.11 c 0,0 14.8,3.59 28.89,0.07 z"
           id="path28954" /><path
           fill="none"
           stroke="#000000"
           stroke-linecap="round"
           stroke-linejoin="round"
           stroke-width="2"
           d="m 49.7251,46.13 c -1.79,4.27 -6.35,7.23 -13.69,7.23 -7.41,0 -12.03,-3.03 -13.8,-7.36 2.06,0.47 14.9999,3.16 27.49,0.13 z"
           id="path28956" /><path
           fill="none"
           stroke="#000000"
           stroke-linecap="round"
           stroke-miterlimit="10"
           stroke-width="2"
           d="m 31.6941,32.4036 a 4.7262,4.7262 0 0 0 -8.6382,0"
           id="path28958" /><path
           fill="none"
           stroke="#000000"
           stroke-linecap="round"
           stroke-miterlimit="10"
           stroke-width="2"
           d="m 48.9441,32.4036 a 4.7262,4.7262 0 0 0 -8.6382,0"
           id="path28960" /></g><path
         style="fill:#000000;stroke-width:0.115528"
         d="m 169.29642,57.000838 c -3.72895,-0.572002 -6.29625,-3.737162 -6.29625,-7.762491 v -1.023403 l 0.18107,-0.890467 0.18107,-0.890467 0.40592,-0.924221 c 0.22325,-0.508322 0.4147,-0.99897 0.42544,-1.090329 l 0.0195,-0.166111 -0.46211,-0.265219 -0.46211,-0.265219 -0.51987,-0.0017 -0.51988,-0.0017 -0.69316,0.338952 c -0.38124,0.186426 -0.80949,0.433325 -0.95167,0.548667 l -0.2585,0.20971 0.3126,0.75093 0.31259,0.750929 0.003,1.617387 0.003,1.61739 -0.20625,0.747265 c -0.28683,1.039264 -0.88399,2.234242 -1.56716,3.136049 l -0.57882,0.764071 -0.67233,0.535843 c -0.81425,0.648957 -2.25247,1.373756 -3.2717,1.648807 l -0.75093,0.202643 -1.4441,0.0046 -1.4441,0.0046 -0.81349,-0.25431 -0.81349,-0.254316 -0.68836,-0.44541 c -1.58141,-1.023251 -2.70305,-2.593266 -3.12912,-4.379981 l -0.18736,-0.785686 0.001,-1.155276 10e-4,-1.155273 0.18454,-0.856442 0.18455,-0.856435 0.51324,-1.049767 0.51325,-1.049771 0.59099,-0.658893 0.59098,-0.658894 0.85582,-0.572408 c 0.97863,-0.654545 1.72931,-0.961782 2.98239,-1.220613 l 0.8798,-0.181729 1.01574,0.002 1.01574,0.002 0.78167,0.16564 c 0.42991,0.0911 1.09779,0.307508 1.48416,0.480904 l 0.70251,0.315264 0.24874,-0.160102 c 1.16051,-0.746967 2.11388,-1.261046 2.68719,-1.44899 l 0.6808,-0.223184 0.98844,2.14e-4 0.98843,2.13e-4 0.76256,0.387053 0.76256,0.387053 0.65224,0.652242 0.65224,0.652241 0.4272,-0.264721 c 0.75344,-0.466903 1.83777,-0.939082 2.76217,-1.202811 l 0.89979,-0.256708 1.55962,-0.0014 1.55962,-0.0014 0.75093,0.209863 c 0.41301,0.115423 1.02702,0.340381 1.36446,0.499908 l 0.61352,0.290049 0.60851,-0.404032 c 1.28422,-0.852665 2.36003,-1.301154 3.51278,-1.464403 l 0.73201,-0.103667 0.71448,0.112216 0.71447,0.112215 0.63108,0.313374 0.63108,0.313374 0.65017,0.635402 0.65016,0.635402 0.2686,0.693166 0.26859,0.693165 0.01,1.039749 0.01,1.039748 -0.16237,0.559275 -0.16237,0.55927 -0.16783,0.06441 -0.16784,0.0644 -0.62181,-0.196007 -0.62181,-0.196008 -0.11662,-0.2179 c -0.0642,-0.119846 -0.11663,-0.443076 -0.11663,-0.71829 v -0.50041 l -0.21197,-0.402541 -0.21197,-0.402545 -0.39455,-0.20945 -0.39455,-0.20945 -0.69656,0.04969 -0.69656,0.04969 -0.51648,0.2596 c -0.28406,0.142779 -0.68319,0.384564 -0.88695,0.537293 l -0.37047,0.277697 0.22788,0.531623 c 0.12534,0.292392 0.30773,0.980295 0.40533,1.52867 l 0.17744,0.997043 -0.0771,0.924224 c -0.20944,2.510089 -1.19835,4.603506 -2.93358,6.210066 l -0.82013,0.759309 -1.03377,0.533923 -1.03378,0.533927 -0.88211,0.225602 -0.8821,0.225602 -1.05571,0.05262 -1.05573,0.05262 z m 1.73752,-3.86873 c 0.37871,-0.09668 1.02648,-0.3395 1.43949,-0.539593 l 0.75093,-0.363808 0.76207,-0.760091 0.76207,-0.760088 0.4178,-0.869668 c 0.22979,-0.478317 0.4778,-1.14944 0.55114,-1.491386 l 0.13333,-0.621716 -0.0513,-0.934693 -0.0513,-0.934693 -0.24042,-0.462111 c -0.32057,-0.616167 -0.77507,-1.030455 -1.47462,-1.344161 l -0.57764,-0.259034 -1.04733,-0.04883 -1.04735,-0.04883 -0.91662,0.250753 c -1.07667,0.294533 -1.7438,0.660621 -2.51013,1.377434 l -0.55713,0.521128 -0.38849,0.699987 c -0.21367,0.384994 -0.48065,1.011915 -0.59329,1.393152 l -0.2048,0.693166 -0.005,1.102494 -0.005,1.102492 0.3794,0.770658 0.37939,0.770655 0.36786,0.26194 c 0.20233,0.144069 0.62889,0.352202 0.94792,0.462514 l 0.58005,0.200573 0.75554,0.0039 0.75554,0.0039 0.68856,-0.175787 z m -18.33974,-0.121996 0.89047,-0.182264 0.74858,-0.366491 0.74859,-0.366498 0.65182,-0.637779 0.65183,-0.637776 0.41022,-0.814573 0.41021,-0.814573 0.19011,-0.915964 0.19011,-0.915963 -0.0742,-0.500627 c -0.0408,-0.275342 -0.15053,-0.717043 -0.24386,-0.981554 l -0.16968,-0.480929 -0.35689,-0.368218 -0.35688,-0.368215 -0.5913,-0.257155 -0.59131,-0.257151 -0.86645,-0.05059 -0.86646,-0.05059 -0.78085,0.183114 c -2.4289,0.569597 -3.85783,2.148119 -4.25359,4.698915 l -0.12581,0.810827 0.13618,0.807376 0.13618,0.807379 0.36445,0.543803 0.36445,0.543799 0.48408,0.2663 c 0.87681,0.48233 1.64189,0.562901 2.89997,0.305398 z"
         id="path27827-1" /><path
         style="fill:#000000;stroke-width:0.264583"
         d="m 176.71993,41.153046 c -0.34453,-0.269411 -1.25037,-0.805008 -2.01299,-1.190218 l -1.38657,-0.70038 -1.52384,0.555497 c -0.83812,0.305524 -1.7322,0.618505 -1.98687,0.695515 l -0.46302,0.140016 v -0.32158 c 0,-0.17687 0.36024,-0.658094 0.80053,-1.069388 0.95725,-0.894198 0.86145,-0.975417 -1.42695,-1.209871 l -1.77391,-0.181743 0.097,-0.293213 0.097,-0.293214 2.16151,-0.07685 c 2.16658,-0.07703 2.50164,-0.237544 1.76756,-0.846778 -0.21668,-0.179828 -0.33193,-0.427331 -0.25611,-0.550008 0.18393,-0.297608 0.86322,-0.03908 1.88919,0.719009 l 0.84224,0.622331 h 1.05876 c 1.21655,0 2.41613,0.390837 2.41613,0.787201 0,0.149123 -0.33734,0.271132 -0.74965,0.271132 -1.14676,0 -1.14808,0.224719 -0.007,1.255243 0.57718,0.521441 1.16255,1.159478 1.30083,1.417859 l 0.25142,0.469784 -0.2342,0.144744 c -0.12881,0.07961 -0.51608,-0.07568 -0.86061,-0.345092 z"
         id="path30558" /></g><g
       id="g30636"
       transform="translate(-1.036167,4.3659827)"><g
         id="color-7"
         transform="matrix(0.92188554,0,0,0.92188554,129.18587,75.221612)"
         style="fill:#e09b1a;fill-opacity:1"><path
           fill="#fcea2b"
           d="M 36,13 C 23.3177,13 13,23.3177 13,36 13,48.6822 23.3177,59 36,59 48.6822,59 59,48.6822 59,36 59,23.3177 48.6822,13 36,13 Z"
           id="path28852"
           style="fill:#e09b1a;fill-opacity:1" /></g><g
         id="line-5"
         transform="matrix(0.92188554,0,0,0.92188554,129.18587,75.221612)"><circle
           cx="36"
           cy="36"
           r="23"
           fill="none"
           stroke="#000000"
           stroke-miterlimit="10"
           stroke-width="2"
           id="circle28858" /><line
           x1="27"
           x2="45"
           y1="43"
           y2="43"
           fill="none"
           stroke="#000000"
           stroke-linecap="round"
           stroke-linejoin="round"
           stroke-miterlimit="10"
           stroke-width="2"
           id="line28860" /><path
           d="m 30,31 c 0,1.6568 -1.3448,3 -3,3 -1.6553,0 -3,-1.3433 -3,-3 0,-1.6552 1.3447,-3 3,-3 1.6552,0 3,1.3448 3,3"
           id="path28862" /><path
           d="m 48,31 c 0,1.6568 -1.3447,3 -3,3 -1.6553,0 -3,-1.3433 -3,-3 0,-1.6552 1.3447,-3 3,-3 1.6553,0 3,1.3448 3,3"
           id="path28864" /></g><path
         style="fill:#000000;stroke-width:0.115528"
         d="m 169.03761,112.63465 c -3.72895,-0.572 -6.29625,-3.73716 -6.29625,-7.76249 v -1.02341 l 0.18107,-0.89046 0.18107,-0.89047 0.40592,-0.92422 c 0.22325,-0.50832 0.4147,-0.99897 0.42544,-1.09033 l 0.0195,-0.166112 -0.46211,-0.265219 -0.46211,-0.265219 -0.51987,-0.0017 -0.51988,-0.0017 -0.69316,0.338952 c -0.38124,0.186426 -0.80949,0.433328 -0.95167,0.548668 l -0.2585,0.20971 0.3126,0.75093 0.31259,0.75093 0.003,1.61739 0.003,1.61739 -0.20625,0.74726 c -0.28683,1.03927 -0.88399,2.23424 -1.56716,3.13605 l -0.57882,0.76407 -0.67233,0.53584 c -0.81425,0.64896 -2.25247,1.37376 -3.2717,1.64881 l -0.75093,0.20264 -1.4441,0.005 -1.4441,0.005 -0.81349,-0.25431 -0.81349,-0.25431 -0.68836,-0.44541 c -1.58141,-1.02325 -2.70305,-2.59327 -3.12912,-4.37998 l -0.18736,-0.78569 0.001,-1.15527 0.001,-1.15528 0.18454,-0.85644 0.18455,-0.85644 0.51324,-1.04976 0.51325,-1.049774 0.59099,-0.658893 0.59098,-0.658894 0.85582,-0.572408 c 0.97863,-0.654545 1.72931,-0.961782 2.98239,-1.220613 l 0.8798,-0.181729 1.01574,0.002 1.01574,0.002 0.78167,0.16564 c 0.42991,0.0911 1.09779,0.307508 1.48416,0.480904 l 0.70251,0.315264 0.24874,-0.160102 c 1.16051,-0.746967 2.11388,-1.261046 2.68719,-1.44899 l 0.6808,-0.223184 0.98844,2.14e-4 0.98843,2.13e-4 0.76256,0.387053 0.76256,0.387053 0.65224,0.652242 0.65224,0.652241 0.4272,-0.264721 c 0.75344,-0.466903 1.83777,-0.939082 2.76217,-1.202811 l 0.89979,-0.256708 1.55962,-0.0014 1.55962,-0.0014 0.75093,0.209863 c 0.41301,0.115423 1.02702,0.340381 1.36446,0.499908 l 0.61352,0.290049 0.60851,-0.404032 c 1.28422,-0.852665 2.36003,-1.301154 3.51278,-1.464403 l 0.73201,-0.103667 0.71448,0.112216 0.71447,0.112215 0.63108,0.313374 0.63108,0.313374 0.65017,0.635402 0.65016,0.635402 0.2686,0.693166 0.26859,0.693165 0.01,1.039749 0.01,1.039752 -0.16237,0.55927 -0.16237,0.55927 -0.16783,0.0644 -0.16784,0.0644 -0.62181,-0.19601 -0.62181,-0.196 -0.11662,-0.2179 c -0.0642,-0.11985 -0.11663,-0.44308 -0.11663,-0.71829 v -0.50041 l -0.21197,-0.402545 -0.21197,-0.402545 -0.39455,-0.20945 -0.39455,-0.20945 -0.69656,0.04969 -0.69656,0.04969 -0.51648,0.2596 c -0.28406,0.142779 -0.68319,0.384564 -0.88695,0.537293 l -0.37047,0.277697 0.22788,0.53162 c 0.12534,0.29239 0.30773,0.9803 0.40533,1.52867 l 0.17744,0.99705 -0.0771,0.92422 c -0.20944,2.51009 -1.19835,4.60351 -2.93358,6.21007 l -0.82013,0.75931 -1.03377,0.53392 -1.03378,0.53393 -0.88211,0.2256 -0.8821,0.2256 -1.05571,0.0526 -1.05573,0.0526 z m 1.73752,-3.86873 c 0.37871,-0.0967 1.02648,-0.3395 1.43949,-0.53959 l 0.75093,-0.36381 0.76207,-0.76009 0.76207,-0.76009 0.4178,-0.86967 c 0.22979,-0.47832 0.4778,-1.14944 0.55114,-1.49139 l 0.13333,-0.62171 -0.0513,-0.9347 -0.0513,-0.93469 -0.24042,-0.46211 c -0.32057,-0.61617 -0.77507,-1.030455 -1.47462,-1.344161 l -0.57764,-0.259034 -1.04733,-0.04883 -1.04735,-0.04883 -0.91662,0.250753 c -1.07667,0.294533 -1.7438,0.660622 -2.51013,1.377432 l -0.55713,0.52113 -0.38849,0.69999 c -0.21367,0.38499 -0.48065,1.01191 -0.59329,1.39315 l -0.2048,0.69317 -0.005,1.10249 -0.005,1.10249 0.3794,0.77066 0.37939,0.77066 0.36786,0.26194 c 0.20233,0.14406 0.62889,0.3522 0.94792,0.46251 l 0.58005,0.20057 0.75554,0.004 0.75554,0.004 0.68856,-0.17578 z m -18.33974,-0.122 0.89047,-0.18226 0.74858,-0.36649 0.74859,-0.3665 0.65182,-0.63778 0.65183,-0.63778 0.41022,-0.81457 0.41021,-0.81457 0.19011,-0.91597 0.19011,-0.91596 -0.0742,-0.50063 c -0.0408,-0.27534 -0.15053,-0.71704 -0.24386,-0.98155 l -0.16968,-0.48093 -0.35689,-0.36822 -0.35688,-0.36821 -0.5913,-0.25716 -0.59131,-0.257149 -0.86645,-0.05059 -0.86646,-0.05059 -0.78085,0.183114 c -2.4289,0.569595 -3.85783,2.148115 -4.25359,4.698915 l -0.12581,0.81083 0.13618,0.80737 0.13618,0.80738 0.36445,0.54381 0.36445,0.5438 0.48408,0.2663 c 0.87681,0.48233 1.64189,0.5629 2.89997,0.30539 z"
         id="path27827-1-2" /><path
         style="fill:#000000;stroke-width:0.264583"
         d="m 169.7869,93.988647 c -0.34453,-0.269411 -1.25037,-0.805008 -2.01299,-1.190218 l -1.38657,-0.70038 -1.52384,0.555497 c -0.83812,0.305524 -1.7322,0.618505 -1.98687,0.695515 l -0.46302,0.140016 v -0.32158 c 0,-0.17687 0.36024,-0.658094 0.80053,-1.069388 0.95725,-0.894198 0.86145,-0.975417 -1.42695,-1.209871 l -1.77391,-0.181743 0.097,-0.293213 0.097,-0.293214 2.16151,-0.07685 c 2.16658,-0.07703 2.50164,-0.237544 1.76756,-0.846778 -0.21668,-0.179828 -0.33193,-0.427331 -0.25611,-0.550008 0.18393,-0.297608 0.86322,-0.03908 1.88919,0.719009 l 0.84224,0.622331 h 1.05876 c 1.21655,0 2.41613,0.390837 2.41613,0.787201 0,0.149123 -0.33734,0.271132 -0.74965,0.271132 -1.14676,0 -1.14808,0.224719 -0.007,1.255243 0.57718,0.521441 1.16255,1.159478 1.30083,1.417859 l 0.25142,0.469784 -0.2342,0.144744 c -0.12881,0.07961 -0.51608,-0.07568 -0.86061,-0.345092 z"
         id="path30558-0" /></g><g
       id="g30647"
       transform="translate(-1.6547521,-3.4205131)"><g
         id="color"
         transform="matrix(0.92188554,0,0,0.92188554,128.87151,127.93329)"
         style="fill:#e09b1a;fill-opacity:1"><circle
           cx="36.341"
           cy="36.755901"
           r="22.999901"
           fill="#fcea2b"
           id="circle27888"
           style="fill:#e09b1a;fill-opacity:1" /></g><g
         id="line"
         transform="matrix(0.92188554,0,0,0.92188554,128.87151,127.93329)"><circle
           cx="36.341"
           cy="36.755901"
           r="23"
           fill="none"
           stroke="#000000"
           stroke-linecap="round"
           stroke-linejoin="round"
           stroke-width="2"
           id="circle27891" /><path
           d="m 30.341,31.7559 a 3,3 0 1 1 -3,-3 3.0011,3.0011 0 0 1 3,3"
           id="path27893" /><path
           d="m 48.341,31.7559 a 3,3 0 1 1 -3,-3 3.001,3.001 0 0 1 3,3"
           id="path27895" /><path
           fill="none"
           stroke="#000000"
           stroke-linecap="round"
           stroke-linejoin="round"
           stroke-width="2"
           d="M 26,48 C 36,43 47,43.97 47,43.97"
           id="path27897" /></g><path
         style="fill:#000000;stroke-width:0.115528"
         d="m 169.56292,166.58234 c -3.72895,-0.57201 -6.29625,-3.73717 -6.29625,-7.7625 v -1.0234 l 0.18107,-0.89047 0.18107,-0.89046 0.40592,-0.92422 c 0.22325,-0.50833 0.4147,-0.99897 0.42544,-1.09033 l 0.0195,-0.16611 -0.46211,-0.26522 -0.46211,-0.26522 -0.51987,-0.002 -0.51988,-0.002 -0.69316,0.33895 c -0.38124,0.18643 -0.80949,0.43333 -0.95167,0.54867 l -0.2585,0.20971 0.3126,0.75093 0.31259,0.75093 0.003,1.61738 0.003,1.61739 -0.20625,0.74727 c -0.28683,1.03926 -0.88399,2.23424 -1.56716,3.13605 l -0.57882,0.76407 -0.67233,0.53584 c -0.81425,0.64896 -2.25247,1.37376 -3.2717,1.64881 l -0.75093,0.20264 -1.4441,0.005 -1.4441,0.005 -0.81349,-0.25431 -0.81349,-0.25432 -0.68836,-0.4454 c -1.58141,-1.02326 -2.70305,-2.59327 -3.12912,-4.37999 l -0.18736,-0.78568 10e-4,-1.15528 0.001,-1.15527 0.18454,-0.85644 0.18455,-0.85644 0.51324,-1.04977 0.51325,-1.04977 0.59099,-0.65889 0.59098,-0.65889 0.85582,-0.57241 c 0.97863,-0.65455 1.72931,-0.96178 2.98239,-1.22061 l 0.8798,-0.18173 1.01574,0.002 1.01574,0.002 0.78167,0.16564 c 0.42991,0.0911 1.09779,0.30751 1.48416,0.4809 l 0.70251,0.31527 0.24874,-0.16011 c 1.16051,-0.74696 2.11388,-1.26104 2.68719,-1.44899 l 0.6808,-0.22318 0.98844,2.1e-4 0.98843,2.2e-4 0.76256,0.38705 0.76256,0.38705 0.65224,0.65224 0.65224,0.65225 0.4272,-0.26473 c 0.75344,-0.4669 1.83777,-0.93908 2.76217,-1.20281 l 0.89979,-0.2567 1.55962,-0.001 1.55962,-0.001 0.75093,0.20986 c 0.41301,0.11542 1.02702,0.34038 1.36446,0.49991 l 0.61352,0.29005 0.60851,-0.40404 c 1.28422,-0.85266 2.36003,-1.30115 3.51278,-1.4644 l 0.73201,-0.10367 0.71448,0.11222 0.71447,0.11221 0.63108,0.31338 0.63108,0.31337 0.65017,0.6354 0.65016,0.63541 0.2686,0.69316 0.26859,0.69317 0.01,1.03975 0.01,1.03974 -0.16237,0.55928 -0.16237,0.55927 -0.16783,0.0644 -0.16784,0.0644 -0.62181,-0.19601 -0.62181,-0.19601 -0.11662,-0.2179 c -0.0642,-0.11984 -0.11663,-0.44307 -0.11663,-0.71829 v -0.50041 l -0.21197,-0.40254 -0.21197,-0.40254 -0.39455,-0.20945 -0.39455,-0.20945 -0.69656,0.0497 -0.69656,0.0497 -0.51648,0.2596 c -0.28406,0.14278 -0.68319,0.38456 -0.88695,0.53729 l -0.37047,0.2777 0.22788,0.53162 c 0.12534,0.29239 0.30773,0.9803 0.40533,1.52867 l 0.17744,0.99704 -0.0771,0.92423 c -0.20944,2.51009 -1.19835,4.6035 -2.93358,6.21006 l -0.82013,0.75931 -1.03377,0.53393 -1.03378,0.53392 -0.88211,0.22561 -0.8821,0.2256 -1.05571,0.0526 -1.05573,0.0526 z m 1.73752,-3.86873 c 0.37871,-0.0967 1.02648,-0.33951 1.43949,-0.5396 l 0.75093,-0.36381 0.76207,-0.76009 0.76207,-0.76009 0.4178,-0.86966 c 0.22979,-0.47832 0.4778,-1.14944 0.55114,-1.49139 l 0.13333,-0.62171 -0.0513,-0.9347 -0.0513,-0.93469 -0.24042,-0.46211 c -0.32057,-0.61617 -0.77507,-1.03046 -1.47462,-1.34416 l -0.57764,-0.25904 -1.04733,-0.0488 -1.04735,-0.0488 -0.91662,0.25076 c -1.07667,0.29453 -1.7438,0.66062 -2.51013,1.37743 l -0.55713,0.52113 -0.38849,0.69998 c -0.21367,0.385 -0.48065,1.01192 -0.59329,1.39316 l -0.2048,0.69316 -0.005,1.1025 -0.005,1.10249 0.3794,0.77066 0.37939,0.77065 0.36786,0.26194 c 0.20233,0.14407 0.62889,0.3522 0.94792,0.46252 l 0.58005,0.20057 0.75554,0.004 0.75554,0.004 0.68856,-0.17579 z m -18.33974,-0.122 0.89047,-0.18227 0.74858,-0.36649 0.74859,-0.36649 0.65182,-0.63778 0.65183,-0.63778 0.41022,-0.81457 0.41021,-0.81458 0.19011,-0.91596 0.19011,-0.91596 -0.0742,-0.50063 c -0.0408,-0.27534 -0.15053,-0.71704 -0.24386,-0.98155 l -0.16968,-0.48093 -0.35689,-0.36822 -0.35688,-0.36822 -0.5913,-0.25715 -0.59131,-0.25715 -0.86645,-0.0506 -0.86646,-0.0506 -0.78085,0.18311 c -2.4289,0.5696 -3.85783,2.14812 -4.25359,4.69892 l -0.12581,0.81082 0.13618,0.80738 0.13618,0.80738 0.36445,0.5438 0.36445,0.5438 0.48408,0.2663 c 0.87681,0.48233 1.64189,0.5629 2.89997,0.3054 z"
         id="path27827-1-7" /><path
         style="fill:#000000;stroke-width:0.264583"
         d="m 172.3387,148.26448 c -0.34453,-0.26941 -1.25037,-0.805 -2.01299,-1.19021 l -1.38657,-0.70038 -1.52384,0.55549 c -0.83812,0.30553 -1.7322,0.61851 -1.98687,0.69552 l -0.46302,0.14001 v -0.32158 c 0,-0.17687 0.36024,-0.65809 0.80053,-1.06938 0.95725,-0.8942 0.86145,-0.97542 -1.42695,-1.20988 l -1.77391,-0.18174 0.097,-0.29321 0.097,-0.29322 2.16151,-0.0769 c 2.16658,-0.077 2.50164,-0.23754 1.76756,-0.84677 -0.21668,-0.17983 -0.33193,-0.42733 -0.25611,-0.55001 0.18393,-0.29761 0.86322,-0.0391 1.88919,0.71901 l 0.84224,0.62233 h 1.05876 c 1.21655,0 2.41613,0.39084 2.41613,0.7872 0,0.14912 -0.33734,0.27113 -0.74965,0.27113 -1.14676,0 -1.14808,0.22472 -0.007,1.25524 0.57718,0.52145 1.16255,1.15948 1.30083,1.41786 l 0.25142,0.46979 -0.2342,0.14474 c -0.12881,0.0796 -0.51608,-0.0757 -0.86061,-0.34509 z"
         id="path30558-9" /></g></g></svg>
