<?xml version="1.0" encoding="utf-8" standalone="no"?>
<!DOCTYPE svg PUBLIC "-//W3C//DTD SVG 1.1//EN"
  "http://www.w3.org/Graphics/SVG/1.1/DTD/svg11.dtd">
<svg xmlns:xlink="http://www.w3.org/1999/xlink" width="864pt" height="576pt" viewBox="0 0 864 576" xmlns="http://www.w3.org/2000/svg" version="1.1">
 <metadata>
  <rdf:RDF xmlns:dc="http://purl.org/dc/elements/1.1/" xmlns:cc="http://creativecommons.org/ns#" xmlns:rdf="http://www.w3.org/1999/02/22-rdf-syntax-ns#">
   <cc:Work>
    <dc:type rdf:resource="http://purl.org/dc/dcmitype/StillImage"/>
    <dc:date>2025-03-31T09:03:38.589996</dc:date>
    <dc:format>image/svg+xml</dc:format>
    <dc:creator>
     <cc:Agent>
      <dc:title>Matplotlib v3.10.1, https://matplotlib.org/</dc:title>
     </cc:Agent>
    </dc:creator>
   </cc:Work>
  </rdf:RDF>
 </metadata>
 <defs>
  <style type="text/css">*{stroke-linejoin: round; stroke-linecap: butt}</style>
 </defs>
 <g id="figure_1">
  <g id="patch_1">
   <path d="M 0 576 
L 864 576 
L 864 0 
L 0 0 
z
" style="fill: #ffffff"/>
  </g>
  <g id="axes_1">
   <g id="patch_2">
    <path d="M 50.338786 525.04 
L 427.231893 525.04 
L 427.231893 311.64 
L 50.338786 311.64 
z
" style="fill: #e5e5e5"/>
   </g>
   <g id="matplotlib.axis_1">
    <g id="xtick_1">
     <g id="line2d_1">
      <path d="M 50.338786 525.04 
L 50.338786 311.64 
" clip-path="url(#p7481eb259a)" style="fill: none; stroke: #ffffff; stroke-width: 0.8; stroke-linecap: square"/>
     </g>
     <g id="line2d_2">
      <defs>
       <path id="m13e6454fb7" d="M 0 0 
L 0 3.5 
" style="stroke: #555555; stroke-width: 0.8"/>
      </defs>
      <g>
       <use xlink:href="#m13e6454fb7" x="50.338786" y="525.04" style="fill: #555555; stroke: #555555; stroke-width: 0.8"/>
      </g>
     </g>
     <g id="text_1">
      <!-- 0 -->
      <g style="fill: #555555" transform="translate(45.885036 542.677812) scale(0.14 -0.14)">
       <defs>
        <path id="DejaVuSans-30" d="M 2034 4250 
Q 1547 4250 1301 3770 
Q 1056 3291 1056 2328 
Q 1056 1369 1301 889 
Q 1547 409 2034 409 
Q 2525 409 2770 889 
Q 3016 1369 3016 2328 
Q 3016 3291 2770 3770 
Q 2525 4250 2034 4250 
z
M 2034 4750 
Q 2819 4750 3233 4129 
Q 3647 3509 3647 2328 
Q 3647 1150 3233 529 
Q 2819 -91 2034 -91 
Q 1250 -91 836 529 
Q 422 1150 422 2328 
Q 422 3509 836 4129 
Q 1250 4750 2034 4750 
z
" transform="scale(0.015625)"/>
       </defs>
       <use xlink:href="#DejaVuSans-30"/>
      </g>
     </g>
    </g>
    <g id="xtick_2">
     <g id="line2d_3">
      <path d="M 113.154304 525.04 
L 113.154304 311.64 
" clip-path="url(#p7481eb259a)" style="fill: none; stroke: #ffffff; stroke-width: 0.8; stroke-linecap: square"/>
     </g>
     <g id="line2d_4">
      <g>
       <use xlink:href="#m13e6454fb7" x="113.154304" y="525.04" style="fill: #555555; stroke: #555555; stroke-width: 0.8"/>
      </g>
     </g>
     <g id="text_2">
      <!-- 1 -->
      <g style="fill: #555555" transform="translate(108.700554 542.677812) scale(0.14 -0.14)">
       <defs>
        <path id="DejaVuSans-31" d="M 794 531 
L 1825 531 
L 1825 4091 
L 703 3866 
L 703 4441 
L 1819 4666 
L 2450 4666 
L 2450 531 
L 3481 531 
L 3481 0 
L 794 0 
L 794 531 
z
" transform="scale(0.015625)"/>
       </defs>
       <use xlink:href="#DejaVuSans-31"/>
      </g>
     </g>
    </g>
    <g id="xtick_3">
     <g id="line2d_5">
      <path d="M 175.969822 525.04 
L 175.969822 311.64 
" clip-path="url(#p7481eb259a)" style="fill: none; stroke: #ffffff; stroke-width: 0.8; stroke-linecap: square"/>
     </g>
     <g id="line2d_6">
      <g>
       <use xlink:href="#m13e6454fb7" x="175.969822" y="525.04" style="fill: #555555; stroke: #555555; stroke-width: 0.8"/>
      </g>
     </g>
     <g id="text_3">
      <!-- 2 -->
      <g style="fill: #555555" transform="translate(171.516072 542.677812) scale(0.14 -0.14)">
       <defs>
        <path id="DejaVuSans-32" d="M 1228 531 
L 3431 531 
L 3431 0 
L 469 0 
L 469 531 
Q 828 903 1448 1529 
Q 2069 2156 2228 2338 
Q 2531 2678 2651 2914 
Q 2772 3150 2772 3378 
Q 2772 3750 2511 3984 
Q 2250 4219 1831 4219 
Q 1534 4219 1204 4116 
Q 875 4013 500 3803 
L 500 4441 
Q 881 4594 1212 4672 
Q 1544 4750 1819 4750 
Q 2544 4750 2975 4387 
Q 3406 4025 3406 3419 
Q 3406 3131 3298 2873 
Q 3191 2616 2906 2266 
Q 2828 2175 2409 1742 
Q 1991 1309 1228 531 
z
" transform="scale(0.015625)"/>
       </defs>
       <use xlink:href="#DejaVuSans-32"/>
      </g>
     </g>
    </g>
    <g id="xtick_4">
     <g id="line2d_7">
      <path d="M 238.78534 525.04 
L 238.78534 311.64 
" clip-path="url(#p7481eb259a)" style="fill: none; stroke: #ffffff; stroke-width: 0.8; stroke-linecap: square"/>
     </g>
     <g id="line2d_8">
      <g>
       <use xlink:href="#m13e6454fb7" x="238.78534" y="525.04" style="fill: #555555; stroke: #555555; stroke-width: 0.8"/>
      </g>
     </g>
     <g id="text_4">
      <!-- 3 -->
      <g style="fill: #555555" transform="translate(234.33159 542.677812) scale(0.14 -0.14)">
       <defs>
        <path id="DejaVuSans-33" d="M 2597 2516 
Q 3050 2419 3304 2112 
Q 3559 1806 3559 1356 
Q 3559 666 3084 287 
Q 2609 -91 1734 -91 
Q 1441 -91 1130 -33 
Q 819 25 488 141 
L 488 750 
Q 750 597 1062 519 
Q 1375 441 1716 441 
Q 2309 441 2620 675 
Q 2931 909 2931 1356 
Q 2931 1769 2642 2001 
Q 2353 2234 1838 2234 
L 1294 2234 
L 1294 2753 
L 1863 2753 
Q 2328 2753 2575 2939 
Q 2822 3125 2822 3475 
Q 2822 3834 2567 4026 
Q 2313 4219 1838 4219 
Q 1578 4219 1281 4162 
Q 984 4106 628 3988 
L 628 4550 
Q 988 4650 1302 4700 
Q 1616 4750 1894 4750 
Q 2613 4750 3031 4423 
Q 3450 4097 3450 3541 
Q 3450 3153 3228 2886 
Q 3006 2619 2597 2516 
z
" transform="scale(0.015625)"/>
       </defs>
       <use xlink:href="#DejaVuSans-33"/>
      </g>
     </g>
    </g>
    <g id="xtick_5">
     <g id="line2d_9">
      <path d="M 301.600858 525.04 
L 301.600858 311.64 
" clip-path="url(#p7481eb259a)" style="fill: none; stroke: #ffffff; stroke-width: 0.8; stroke-linecap: square"/>
     </g>
     <g id="line2d_10">
      <g>
       <use xlink:href="#m13e6454fb7" x="301.600858" y="525.04" style="fill: #555555; stroke: #555555; stroke-width: 0.8"/>
      </g>
     </g>
     <g id="text_5">
      <!-- 4 -->
      <g style="fill: #555555" transform="translate(297.147108 542.677812) scale(0.14 -0.14)">
       <defs>
        <path id="DejaVuSans-34" d="M 2419 4116 
L 825 1625 
L 2419 1625 
L 2419 4116 
z
M 2253 4666 
L 3047 4666 
L 3047 1625 
L 3713 1625 
L 3713 1100 
L 3047 1100 
L 3047 0 
L 2419 0 
L 2419 1100 
L 313 1100 
L 313 1709 
L 2253 4666 
z
" transform="scale(0.015625)"/>
       </defs>
       <use xlink:href="#DejaVuSans-34"/>
      </g>
     </g>
    </g>
    <g id="xtick_6">
     <g id="line2d_11">
      <path d="M 364.416375 525.04 
L 364.416375 311.64 
" clip-path="url(#p7481eb259a)" style="fill: none; stroke: #ffffff; stroke-width: 0.8; stroke-linecap: square"/>
     </g>
     <g id="line2d_12">
      <g>
       <use xlink:href="#m13e6454fb7" x="364.416375" y="525.04" style="fill: #555555; stroke: #555555; stroke-width: 0.8"/>
      </g>
     </g>
     <g id="text_6">
      <!-- 5 -->
      <g style="fill: #555555" transform="translate(359.962625 542.677812) scale(0.14 -0.14)">
       <defs>
        <path id="DejaVuSans-35" d="M 691 4666 
L 3169 4666 
L 3169 4134 
L 1269 4134 
L 1269 2991 
Q 1406 3038 1543 3061 
Q 1681 3084 1819 3084 
Q 2600 3084 3056 2656 
Q 3513 2228 3513 1497 
Q 3513 744 3044 326 
Q 2575 -91 1722 -91 
Q 1428 -91 1123 -41 
Q 819 9 494 109 
L 494 744 
Q 775 591 1075 516 
Q 1375 441 1709 441 
Q 2250 441 2565 725 
Q 2881 1009 2881 1497 
Q 2881 1984 2565 2268 
Q 2250 2553 1709 2553 
Q 1456 2553 1204 2497 
Q 953 2441 691 2322 
L 691 4666 
z
" transform="scale(0.015625)"/>
       </defs>
       <use xlink:href="#DejaVuSans-35"/>
      </g>
     </g>
    </g>
    <g id="xtick_7">
     <g id="line2d_13">
      <path d="M 427.231893 525.04 
L 427.231893 311.64 
" clip-path="url(#p7481eb259a)" style="fill: none; stroke: #ffffff; stroke-width: 0.8; stroke-linecap: square"/>
     </g>
     <g id="line2d_14">
      <g>
       <use xlink:href="#m13e6454fb7" x="427.231893" y="525.04" style="fill: #555555; stroke: #555555; stroke-width: 0.8"/>
      </g>
     </g>
     <g id="text_7">
      <!-- 6 -->
      <g style="fill: #555555" transform="translate(422.778143 542.677812) scale(0.14 -0.14)">
       <defs>
        <path id="DejaVuSans-36" d="M 2113 2584 
Q 1688 2584 1439 2293 
Q 1191 2003 1191 1497 
Q 1191 994 1439 701 
Q 1688 409 2113 409 
Q 2538 409 2786 701 
Q 3034 994 3034 1497 
Q 3034 2003 2786 2293 
Q 2538 2584 2113 2584 
z
M 3366 4563 
L 3366 3988 
Q 3128 4100 2886 4159 
Q 2644 4219 2406 4219 
Q 1781 4219 1451 3797 
Q 1122 3375 1075 2522 
Q 1259 2794 1537 2939 
Q 1816 3084 2150 3084 
Q 2853 3084 3261 2657 
Q 3669 2231 3669 1497 
Q 3669 778 3244 343 
Q 2819 -91 2113 -91 
Q 1303 -91 875 529 
Q 447 1150 447 2328 
Q 447 3434 972 4092 
Q 1497 4750 2381 4750 
Q 2619 4750 2861 4703 
Q 3103 4656 3366 4563 
z
" transform="scale(0.015625)"/>
       </defs>
       <use xlink:href="#DejaVuSans-36"/>
      </g>
     </g>
    </g>
    <g id="text_8">
     <!-- Wave-vector -->
     <g style="fill: #555555" transform="translate(188.77284 561.746875) scale(0.16 -0.16)">
      <defs>
       <path id="DejaVuSans-57" d="M 213 4666 
L 850 4666 
L 1831 722 
L 2809 4666 
L 3519 4666 
L 4500 722 
L 5478 4666 
L 6119 4666 
L 4947 0 
L 4153 0 
L 3169 4050 
L 2175 0 
L 1381 0 
L 213 4666 
z
" transform="scale(0.015625)"/>
       <path id="DejaVuSans-61" d="M 2194 1759 
Q 1497 1759 1228 1600 
Q 959 1441 959 1056 
Q 959 750 1161 570 
Q 1363 391 1709 391 
Q 2188 391 2477 730 
Q 2766 1069 2766 1631 
L 2766 1759 
L 2194 1759 
z
M 3341 1997 
L 3341 0 
L 2766 0 
L 2766 531 
Q 2569 213 2275 61 
Q 1981 -91 1556 -91 
Q 1019 -91 701 211 
Q 384 513 384 1019 
Q 384 1609 779 1909 
Q 1175 2209 1959 2209 
L 2766 2209 
L 2766 2266 
Q 2766 2663 2505 2880 
Q 2244 3097 1772 3097 
Q 1472 3097 1187 3025 
Q 903 2953 641 2809 
L 641 3341 
Q 956 3463 1253 3523 
Q 1550 3584 1831 3584 
Q 2591 3584 2966 3190 
Q 3341 2797 3341 1997 
z
" transform="scale(0.015625)"/>
       <path id="DejaVuSans-76" d="M 191 3500 
L 800 3500 
L 1894 563 
L 2988 3500 
L 3597 3500 
L 2284 0 
L 1503 0 
L 191 3500 
z
" transform="scale(0.015625)"/>
       <path id="DejaVuSans-65" d="M 3597 1894 
L 3597 1613 
L 953 1613 
Q 991 1019 1311 708 
Q 1631 397 2203 397 
Q 2534 397 2845 478 
Q 3156 559 3463 722 
L 3463 178 
Q 3153 47 2828 -22 
Q 2503 -91 2169 -91 
Q 1331 -91 842 396 
Q 353 884 353 1716 
Q 353 2575 817 3079 
Q 1281 3584 2069 3584 
Q 2775 3584 3186 3129 
Q 3597 2675 3597 1894 
z
M 3022 2063 
Q 3016 2534 2758 2815 
Q 2500 3097 2075 3097 
Q 1594 3097 1305 2825 
Q 1016 2553 972 2059 
L 3022 2063 
z
" transform="scale(0.015625)"/>
       <path id="DejaVuSans-2d" d="M 313 2009 
L 1997 2009 
L 1997 1497 
L 313 1497 
L 313 2009 
z
" transform="scale(0.015625)"/>
       <path id="DejaVuSans-63" d="M 3122 3366 
L 3122 2828 
Q 2878 2963 2633 3030 
Q 2388 3097 2138 3097 
Q 1578 3097 1268 2742 
Q 959 2388 959 1747 
Q 959 1106 1268 751 
Q 1578 397 2138 397 
Q 2388 397 2633 464 
Q 2878 531 3122 666 
L 3122 134 
Q 2881 22 2623 -34 
Q 2366 -91 2075 -91 
Q 1284 -91 818 406 
Q 353 903 353 1747 
Q 353 2603 823 3093 
Q 1294 3584 2113 3584 
Q 2378 3584 2631 3529 
Q 2884 3475 3122 3366 
z
" transform="scale(0.015625)"/>
       <path id="DejaVuSans-74" d="M 1172 4494 
L 1172 3500 
L 2356 3500 
L 2356 3053 
L 1172 3053 
L 1172 1153 
Q 1172 725 1289 603 
Q 1406 481 1766 481 
L 2356 481 
L 2356 0 
L 1766 0 
Q 1100 0 847 248 
Q 594 497 594 1153 
L 594 3053 
L 172 3053 
L 172 3500 
L 594 3500 
L 594 4494 
L 1172 4494 
z
" transform="scale(0.015625)"/>
       <path id="DejaVuSans-6f" d="M 1959 3097 
Q 1497 3097 1228 2736 
Q 959 2375 959 1747 
Q 959 1119 1226 758 
Q 1494 397 1959 397 
Q 2419 397 2687 759 
Q 2956 1122 2956 1747 
Q 2956 2369 2687 2733 
Q 2419 3097 1959 3097 
z
M 1959 3584 
Q 2709 3584 3137 3096 
Q 3566 2609 3566 1747 
Q 3566 888 3137 398 
Q 2709 -91 1959 -91 
Q 1206 -91 779 398 
Q 353 888 353 1747 
Q 353 2609 779 3096 
Q 1206 3584 1959 3584 
z
" transform="scale(0.015625)"/>
       <path id="DejaVuSans-72" d="M 2631 2963 
Q 2534 3019 2420 3045 
Q 2306 3072 2169 3072 
Q 1681 3072 1420 2755 
Q 1159 2438 1159 1844 
L 1159 0 
L 581 0 
L 581 3500 
L 1159 3500 
L 1159 2956 
Q 1341 3275 1631 3429 
Q 1922 3584 2338 3584 
Q 2397 3584 2469 3576 
Q 2541 3569 2628 3553 
L 2631 2963 
z
" transform="scale(0.015625)"/>
      </defs>
      <use xlink:href="#DejaVuSans-57"/>
      <use xlink:href="#DejaVuSans-61" transform="translate(92.501953 0)"/>
      <use xlink:href="#DejaVuSans-76" transform="translate(153.78125 0)"/>
      <use xlink:href="#DejaVuSans-65" transform="translate(212.960938 0)"/>
      <use xlink:href="#DejaVuSans-2d" transform="translate(274.484375 0)"/>
      <use xlink:href="#DejaVuSans-76" transform="translate(307.943359 0)"/>
      <use xlink:href="#DejaVuSans-65" transform="translate(367.123047 0)"/>
      <use xlink:href="#DejaVuSans-63" transform="translate(428.646484 0)"/>
      <use xlink:href="#DejaVuSans-74" transform="translate(483.626953 0)"/>
      <use xlink:href="#DejaVuSans-6f" transform="translate(522.835938 0)"/>
      <use xlink:href="#DejaVuSans-72" transform="translate(584.017578 0)"/>
     </g>
    </g>
   </g>
   <g id="matplotlib.axis_2">
    <g id="ytick_1">
     <g id="line2d_15">
      <path d="M 50.338786 515.34 
L 427.231893 515.34 
" clip-path="url(#p7481eb259a)" style="fill: none; stroke: #ffffff; stroke-width: 0.8; stroke-linecap: square"/>
     </g>
     <g id="line2d_16">
      <defs>
       <path id="m5c62302ed8" d="M 0 0 
L -3.5 0 
" style="stroke: #555555; stroke-width: 0.8"/>
      </defs>
      <g>
       <use xlink:href="#m5c62302ed8" x="50.338786" y="515.34" style="fill: #555555; stroke: #555555; stroke-width: 0.8"/>
      </g>
     </g>
     <g id="text_9">
      <!-- 0.0 -->
      <g style="fill: #555555" transform="translate(21.074411 520.658906) scale(0.14 -0.14)">
       <defs>
        <path id="DejaVuSans-2e" d="M 684 794 
L 1344 794 
L 1344 0 
L 684 0 
L 684 794 
z
" transform="scale(0.015625)"/>
       </defs>
       <use xlink:href="#DejaVuSans-30"/>
       <use xlink:href="#DejaVuSans-2e" transform="translate(63.623047 0)"/>
       <use xlink:href="#DejaVuSans-30" transform="translate(95.410156 0)"/>
      </g>
     </g>
    </g>
    <g id="ytick_2">
     <g id="line2d_17">
      <path d="M 50.338786 482.058003 
L 427.231893 482.058003 
" clip-path="url(#p7481eb259a)" style="fill: none; stroke: #ffffff; stroke-width: 0.8; stroke-linecap: square"/>
     </g>
     <g id="line2d_18">
      <g>
       <use xlink:href="#m5c62302ed8" x="50.338786" y="482.058003" style="fill: #555555; stroke: #555555; stroke-width: 0.8"/>
      </g>
     </g>
     <g id="text_10">
      <!-- 0.2 -->
      <g style="fill: #555555" transform="translate(21.074411 487.376909) scale(0.14 -0.14)">
       <use xlink:href="#DejaVuSans-30"/>
       <use xlink:href="#DejaVuSans-2e" transform="translate(63.623047 0)"/>
       <use xlink:href="#DejaVuSans-32" transform="translate(95.410156 0)"/>
      </g>
     </g>
    </g>
    <g id="ytick_3">
     <g id="line2d_19">
      <path d="M 50.338786 448.776006 
L 427.231893 448.776006 
" clip-path="url(#p7481eb259a)" style="fill: none; stroke: #ffffff; stroke-width: 0.8; stroke-linecap: square"/>
     </g>
     <g id="line2d_20">
      <g>
       <use xlink:href="#m5c62302ed8" x="50.338786" y="448.776006" style="fill: #555555; stroke: #555555; stroke-width: 0.8"/>
      </g>
     </g>
     <g id="text_11">
      <!-- 0.4 -->
      <g style="fill: #555555" transform="translate(21.074411 454.094912) scale(0.14 -0.14)">
       <use xlink:href="#DejaVuSans-30"/>
       <use xlink:href="#DejaVuSans-2e" transform="translate(63.623047 0)"/>
       <use xlink:href="#DejaVuSans-34" transform="translate(95.410156 0)"/>
      </g>
     </g>
    </g>
    <g id="ytick_4">
     <g id="line2d_21">
      <path d="M 50.338786 415.494009 
L 427.231893 415.494009 
" clip-path="url(#p7481eb259a)" style="fill: none; stroke: #ffffff; stroke-width: 0.8; stroke-linecap: square"/>
     </g>
     <g id="line2d_22">
      <g>
       <use xlink:href="#m5c62302ed8" x="50.338786" y="415.494009" style="fill: #555555; stroke: #555555; stroke-width: 0.8"/>
      </g>
     </g>
     <g id="text_12">
      <!-- 0.6 -->
      <g style="fill: #555555" transform="translate(21.074411 420.812915) scale(0.14 -0.14)">
       <use xlink:href="#DejaVuSans-30"/>
       <use xlink:href="#DejaVuSans-2e" transform="translate(63.623047 0)"/>
       <use xlink:href="#DejaVuSans-36" transform="translate(95.410156 0)"/>
      </g>
     </g>
    </g>
    <g id="ytick_5">
     <g id="line2d_23">
      <path d="M 50.338786 382.212012 
L 427.231893 382.212012 
" clip-path="url(#p7481eb259a)" style="fill: none; stroke: #ffffff; stroke-width: 0.8; stroke-linecap: square"/>
     </g>
     <g id="line2d_24">
      <g>
       <use xlink:href="#m5c62302ed8" x="50.338786" y="382.212012" style="fill: #555555; stroke: #555555; stroke-width: 0.8"/>
      </g>
     </g>
     <g id="text_13">
      <!-- 0.8 -->
      <g style="fill: #555555" transform="translate(21.074411 387.530918) scale(0.14 -0.14)">
       <defs>
        <path id="DejaVuSans-38" d="M 2034 2216 
Q 1584 2216 1326 1975 
Q 1069 1734 1069 1313 
Q 1069 891 1326 650 
Q 1584 409 2034 409 
Q 2484 409 2743 651 
Q 3003 894 3003 1313 
Q 3003 1734 2745 1975 
Q 2488 2216 2034 2216 
z
M 1403 2484 
Q 997 2584 770 2862 
Q 544 3141 544 3541 
Q 544 4100 942 4425 
Q 1341 4750 2034 4750 
Q 2731 4750 3128 4425 
Q 3525 4100 3525 3541 
Q 3525 3141 3298 2862 
Q 3072 2584 2669 2484 
Q 3125 2378 3379 2068 
Q 3634 1759 3634 1313 
Q 3634 634 3220 271 
Q 2806 -91 2034 -91 
Q 1263 -91 848 271 
Q 434 634 434 1313 
Q 434 1759 690 2068 
Q 947 2378 1403 2484 
z
M 1172 3481 
Q 1172 3119 1398 2916 
Q 1625 2713 2034 2713 
Q 2441 2713 2670 2916 
Q 2900 3119 2900 3481 
Q 2900 3844 2670 4047 
Q 2441 4250 2034 4250 
Q 1625 4250 1398 4047 
Q 1172 3844 1172 3481 
z
" transform="scale(0.015625)"/>
       </defs>
       <use xlink:href="#DejaVuSans-30"/>
       <use xlink:href="#DejaVuSans-2e" transform="translate(63.623047 0)"/>
       <use xlink:href="#DejaVuSans-38" transform="translate(95.410156 0)"/>
      </g>
     </g>
    </g>
    <g id="ytick_6">
     <g id="line2d_25">
      <path d="M 50.338786 348.930014 
L 427.231893 348.930014 
" clip-path="url(#p7481eb259a)" style="fill: none; stroke: #ffffff; stroke-width: 0.8; stroke-linecap: square"/>
     </g>
     <g id="line2d_26">
      <g>
       <use xlink:href="#m5c62302ed8" x="50.338786" y="348.930014" style="fill: #555555; stroke: #555555; stroke-width: 0.8"/>
      </g>
     </g>
     <g id="text_14">
      <!-- 1.0 -->
      <g style="fill: #555555" transform="translate(21.074411 354.248921) scale(0.14 -0.14)">
       <use xlink:href="#DejaVuSans-31"/>
       <use xlink:href="#DejaVuSans-2e" transform="translate(63.623047 0)"/>
       <use xlink:href="#DejaVuSans-30" transform="translate(95.410156 0)"/>
      </g>
     </g>
    </g>
    <g id="ytick_7">
     <g id="line2d_27">
      <path d="M 50.338786 315.648017 
L 427.231893 315.648017 
" clip-path="url(#p7481eb259a)" style="fill: none; stroke: #ffffff; stroke-width: 0.8; stroke-linecap: square"/>
     </g>
     <g id="line2d_28">
      <g>
       <use xlink:href="#m5c62302ed8" x="50.338786" y="315.648017" style="fill: #555555; stroke: #555555; stroke-width: 0.8"/>
      </g>
     </g>
     <g id="text_15">
      <!-- 1.2 -->
      <g style="fill: #555555" transform="translate(21.074411 320.966924) scale(0.14 -0.14)">
       <use xlink:href="#DejaVuSans-31"/>
       <use xlink:href="#DejaVuSans-2e" transform="translate(63.623047 0)"/>
       <use xlink:href="#DejaVuSans-32" transform="translate(95.410156 0)"/>
      </g>
     </g>
    </g>
   </g>
   <g id="line2d_29">
    <path d="M 50.338786 515.34 
L 56.620338 514.44821 
L 62.90189 511.861455 
L 69.183442 507.599833 
L 75.464993 501.718666 
L 81.746545 494.320932 
L 88.028097 485.529663 
L 94.309649 475.505097 
L 100.591201 464.440869 
L 106.872752 452.566407 
L 113.154304 440.144638 
L 119.435856 427.465827 
L 125.717408 414.836136 
L 131.998959 402.559276 
L 138.280511 390.91327 
L 144.562063 380.125792 
L 150.843615 370.355115 
L 157.125167 361.682481 
L 163.406718 354.116522 
L 169.68827 347.6107 
L 175.969822 342.081695 
L 182.251374 337.429011 
L 188.532926 333.549813 
L 194.814477 330.347333 
L 201.096029 327.737104 
L 207.377581 325.647411 
L 213.659133 324.020127 
L 219.940684 322.808715 
L 226.222236 321.976603 
L 232.503788 321.494819 
L 238.78534 321.34 
L 245.066892 321.492815 
L 251.348443 321.935086 
L 257.629995 322.649246 
L 263.911547 323.616505 
L 270.193099 324.816514 
L 276.47465 326.225432 
L 282.756202 327.817512 
L 289.037754 329.563129 
L 295.319306 331.431097 
L 301.600858 333.387787 
L 307.882409 335.398605 
L 314.163961 337.429097 
L 320.445513 339.445374 
L 326.727065 341.415878 
L 333.008616 343.311212 
L 339.290168 345.105906 
L 345.57172 346.778276 
L 351.853272 348.311492 
L 358.134824 349.692746 
L 364.416375 350.913975 
L 370.697927 351.971397 
L 376.979479 352.865172 
L 383.261031 353.598908 
L 389.542582 354.179207 
L 395.824134 354.615137 
L 402.105686 354.917716 
L 408.387238 355.099056 
L 414.66879 355.17211 
L 420.950341 355.150344 
L 427.231893 355.047668 
L 433.513445 354.876639 
L 439.794997 354.649949 
L 446.076549 354.379332 
L 452.3581 354.075467 
L 458.639652 353.748108 
L 464.921204 353.405896 
L 471.202756 353.056451 
L 477.484307 352.705995 
L 483.765859 352.360263 
L 490.047411 352.023424 
L 496.328963 351.699198 
L 502.610515 351.390057 
L 508.892066 351.09846 
L 515.173618 350.825419 
L 521.45517 350.571796 
L 527.736722 350.338224 
L 534.018273 350.124208 
L 540.299825 349.929892 
L 546.581377 349.754314 
L 552.862929 349.596727 
L 559.144481 349.456248 
L 565.426032 349.331868 
L 571.707584 349.22243 
L 577.989136 349.12682 
L 584.270688 349.043921 
L 590.552239 348.972612 
L 596.833791 348.911842 
L 603.115343 348.860585 
L 609.396895 348.81788 
L 615.678447 348.7828 
L 621.959998 348.754635 
L 628.24155 348.732505 
L 634.523102 348.715808 
L 640.804654 348.7039 
L 647.086205 348.696272 
L 653.367757 348.692466 
L 659.649309 348.691998 
L 665.930861 348.694764 
L 672.212413 348.700463 
L 678.493964 348.708932 
L 684.775516 348.72065 
" clip-path="url(#p7481eb259a)" style="fill: none; stroke: #440154; stroke-width: 2; stroke-linecap: square"/>
   </g>
   <g id="line2d_30">
    <path d="M 50.338786 515.34 
L 56.620338 514.345426 
L 62.90189 511.462652 
L 69.183442 506.747359 
L 75.464993 500.309692 
L 81.746545 492.320504 
L 88.028097 482.977039 
L 94.309649 472.512969 
L 100.591201 461.188197 
L 106.872752 449.285752 
L 113.154304 437.104861 
L 119.435856 424.952079 
L 125.717408 413.128297 
L 131.998959 401.911443 
L 138.280511 391.536633 
L 144.562063 382.177583 
L 150.843615 373.934695 
L 157.125167 366.834104 
L 163.406718 360.837763 
L 169.68827 355.86156 
L 175.969822 351.79483 
L 182.251374 348.517328 
L 188.532926 345.911478 
L 194.814477 343.869107 
L 201.096029 342.295267 
L 207.377581 341.108172 
L 213.659133 340.239164 
L 219.940684 339.630992 
L 226.222236 339.236422 
L 232.503788 339.016453 
L 238.78534 338.93916 
L 245.066892 338.978534 
L 251.348443 339.113339 
L 257.629995 339.326345 
L 263.911547 339.603575 
L 270.193099 339.933716 
L 276.47465 340.307567 
L 282.756202 340.71752 
L 289.037754 341.157557 
L 295.319306 341.622321 
L 301.600858 342.107321 
L 307.882409 342.608243 
L 314.163961 343.121152 
L 320.445513 343.64258 
L 326.727065 344.168658 
L 333.008616 344.695633 
L 339.290168 345.219689 
L 345.57172 345.737103 
L 351.853272 346.243634 
L 358.134824 346.735877 
L 364.416375 347.210012 
L 370.697927 347.662696 
L 376.979479 348.090402 
L 383.261031 348.490646 
L 389.542582 348.861036 
L 395.824134 349.199408 
L 402.105686 349.504488 
L 408.387238 349.775267 
L 414.66879 350.011795 
L 420.950341 350.213723 
L 427.231893 350.382064 
L 433.513445 350.517793 
L 439.794997 350.62245 
L 446.076549 350.697885 
L 452.3581 350.746195 
L 458.639652 350.769711 
L 464.921204 350.770885 
L 471.202756 350.752233 
L 477.484307 350.716295 
L 483.765859 350.665698 
L 490.047411 350.602813 
L 496.328963 350.530017 
L 502.610515 350.449407 
L 508.892066 350.363152 
L 515.173618 350.273035 
L 521.45517 350.180737 
L 527.736722 350.08772 
L 534.018273 349.995238 
L 540.299825 349.904418 
L 546.581377 349.816152 
L 552.862929 349.731152 
L 559.144481 349.650033 
L 565.426032 349.573221 
L 571.707584 349.501026 
L 577.989136 349.433671 
L 584.270688 349.371251 
L 590.552239 349.313791 
L 596.833791 349.261266 
L 603.115343 349.213534 
L 609.396895 349.170489 
L 615.678447 349.131926 
L 621.959998 349.097619 
L 628.24155 349.067474 
L 634.523102 349.041213 
L 640.804654 349.018605 
L 647.086205 348.999444 
L 653.367757 348.983528 
L 659.649309 348.970673 
L 665.930861 348.960726 
L 672.212413 348.953576 
L 678.493964 348.949212 
L 684.775516 348.947611 
" clip-path="url(#p7481eb259a)" style="fill: none; stroke: #414487; stroke-width: 2; stroke-linecap: square"/>
   </g>
   <g id="line2d_31">
    <path d="M 50.338786 515.34 
L 56.620338 514.34524 
L 62.90189 511.459789 
L 69.183442 506.733797 
L 75.464993 500.27066 
L 81.746545 492.236117 
L 88.028097 482.8266 
L 94.309649 472.280977 
L 100.591201 460.870698 
L 106.872752 448.89558 
L 113.154304 436.674507 
L 119.435856 424.533441 
L 125.717408 412.789109 
L 131.998959 401.728924 
L 138.280511 391.589533 
L 144.562063 382.538174 
L 150.843615 374.662271 
L 157.125167 367.970982 
L 163.406718 362.408022 
L 169.68827 357.871952 
L 175.969822 354.237364 
L 182.251374 351.371905 
L 188.532926 349.149066 
L 194.814477 347.454365 
L 201.096029 346.188464 
L 207.377581 345.267264 
L 213.659133 344.620877 
L 219.940684 344.191794 
L 226.222236 343.933227 
L 232.503788 343.807137 
L 238.78534 343.782771 
L 245.066892 343.83576 
L 251.348443 343.946397 
L 257.629995 344.099081 
L 263.911547 344.281643 
L 270.193099 344.484612 
L 276.47465 344.700619 
L 282.756202 344.924358 
L 289.037754 345.151717 
L 295.319306 345.379799 
L 301.600858 345.606597 
L 307.882409 345.830865 
L 314.163961 346.05151 
L 320.445513 346.268435 
L 326.727065 346.481212 
L 333.008616 346.689792 
L 339.290168 346.89425 
L 345.57172 347.094379 
L 351.853272 347.290086 
L 358.134824 347.48158 
L 364.416375 347.668228 
L 370.697927 347.850133 
L 376.979479 348.026593 
L 383.261031 348.197238 
L 389.542582 348.361534 
L 395.824134 348.518895 
L 402.105686 348.668731 
L 408.387238 348.810429 
L 414.66879 348.943463 
L 420.950341 349.067189 
L 427.231893 349.181297 
L 433.513445 349.285335 
L 439.794997 349.379083 
L 446.076549 349.462359 
L 452.3581 349.535099 
L 458.639652 349.597416 
L 464.921204 349.649472 
L 471.202756 349.691567 
L 477.484307 349.724108 
L 483.765859 349.747579 
L 490.047411 349.762533 
L 496.328963 349.769604 
L 502.610515 349.769465 
L 508.892066 349.762805 
L 515.173618 349.750377 
L 521.45517 349.732901 
L 527.736722 349.7111 
L 534.018273 349.685676 
L 540.299825 349.657326 
L 546.581377 349.626563 
L 552.862929 349.594205 
L 559.144481 349.560809 
L 565.426032 349.526672 
L 571.707584 349.492354 
L 577.989136 349.458256 
L 584.270688 349.424729 
L 590.552239 349.392075 
L 596.833791 349.360549 
L 603.115343 349.330347 
L 609.396895 349.301668 
L 615.678447 349.274629 
L 621.959998 349.249255 
L 628.24155 349.225776 
L 634.523102 349.204167 
L 640.804654 349.18445 
L 647.086205 349.166641 
L 653.367757 349.150743 
L 659.649309 349.136751 
L 665.930861 349.124765 
L 672.212413 349.114589 
L 678.493964 349.106365 
L 684.775516 349.100286 
" clip-path="url(#p7481eb259a)" style="fill: none; stroke: #2a788e; stroke-width: 2; stroke-linecap: square"/>
   </g>
   <g id="line2d_32">
    <path d="M 50.338786 515.34 
L 56.620338 514.345206 
L 62.90189 511.459252 
L 69.183442 506.731204 
L 75.464993 500.263018 
L 81.746545 492.219109 
L 88.028097 482.79524 
L 94.309649 472.230752 
L 100.591201 460.799045 
L 106.872752 448.803436 
L 113.154304 436.567624 
L 119.435856 424.423131 
L 125.717408 412.692186 
L 131.998959 401.66673 
L 138.280511 391.586172 
L 144.562063 382.618281 
L 150.843615 374.848764 
L 157.125167 368.283237 
L 163.406718 362.860706 
L 169.68827 358.474553 
L 175.969822 354.994281 
L 182.251374 352.282914 
L 188.532926 350.209954 
L 194.814477 348.65766 
L 201.096029 347.524091 
L 207.377581 346.723223 
L 213.659133 346.183782 
L 219.940684 345.847367 
L 226.222236 345.666707 
L 232.503788 345.603646 
L 238.78534 345.627572 
L 245.066892 345.714442 
L 251.348443 345.845169 
L 257.629995 346.004712 
L 263.911547 346.181644 
L 270.193099 346.367249 
L 276.47465 346.554937 
L 282.756202 346.740165 
L 289.037754 346.919582 
L 295.319306 347.09103 
L 301.600858 347.253226 
L 307.882409 347.405543 
L 314.163961 347.547877 
L 320.445513 347.680545 
L 326.727065 347.803959 
L 333.008616 347.91881 
L 339.290168 348.025853 
L 345.57172 348.125882 
L 351.853272 348.219657 
L 358.134824 348.308048 
L 364.416375 348.391444 
L 370.697927 348.47083 
L 376.979479 348.546453 
L 383.261031 348.618804 
L 389.542582 348.688253 
L 395.824134 348.75503 
L 402.105686 348.819298 
L 408.387238 348.881146 
L 414.66879 348.940581 
L 420.950341 348.997567 
L 427.231893 349.052018 
L 433.513445 349.103815 
L 439.794997 349.152793 
L 446.076549 349.198816 
L 452.3581 349.241721 
L 458.639652 349.281359 
L 464.921204 349.317594 
L 471.202756 349.350308 
L 477.484307 349.379425 
L 483.765859 349.4049 
L 490.047411 349.426715 
L 496.328963 349.444899 
L 502.610515 349.459513 
L 508.892066 349.470652 
L 515.173618 349.47845 
L 521.45517 349.483068 
L 527.736722 349.484684 
L 534.018273 349.483527 
L 540.299825 349.479733 
L 546.581377 349.473719 
L 552.862929 349.465648 
L 559.144481 349.455778 
L 565.426032 349.444362 
L 571.707584 349.431656 
L 577.989136 349.417907 
L 584.270688 349.40335 
L 590.552239 349.388211 
L 596.833791 349.372799 
L 603.115343 349.357105 
L 609.396895 349.341458 
L 615.678447 349.325917 
L 621.959998 349.31066 
L 628.24155 349.295932 
L 634.523102 349.281781 
L 640.804654 349.268307 
L 647.086205 349.255606 
L 653.367757 349.243759 
L 659.649309 349.232842 
L 665.930861 349.223026 
L 672.212413 349.214191 
L 678.493964 349.20641 
L 684.775516 349.200199 
" clip-path="url(#p7481eb259a)" style="fill: none; stroke: #22a884; stroke-width: 2; stroke-linecap: square"/>
   </g>
   <g id="line2d_33">
    <path d="M 50.338786 515.34 
L 56.620338 514.345194 
L 62.90189 511.459063 
L 69.183442 506.73029 
L 75.464993 500.260311 
L 81.746545 492.213043 
L 88.028097 482.783961 
L 94.309649 472.212512 
L 100.591201 460.772731 
L 106.872752 448.76916 
L 113.154304 436.527262 
L 119.435856 424.380698 
L 125.717408 412.653926 
L 131.998959 401.640867 
L 138.280511 391.582327 
L 144.562063 382.646663 
L 150.843615 374.919294 
L 157.125167 368.404773 
L 163.406718 363.040476 
L 169.68827 358.71786 
L 175.969822 355.304424 
L 182.251374 352.661269 
L 188.532926 350.656157 
L 194.814477 349.169843 
L 201.096029 348.099119 
L 207.377581 347.35695 
L 213.659133 346.871277 
L 219.940684 346.583125 
L 226.222236 346.444878 
L 232.503788 346.418084 
L 238.78534 346.472292 
L 245.066892 346.583318 
L 251.348443 346.732245 
L 257.629995 346.90441 
L 263.911547 347.088613 
L 270.193099 347.276454 
L 276.47465 347.461779 
L 282.756202 347.640224 
L 289.037754 347.808849 
L 295.319306 347.965818 
L 301.600858 348.110147 
L 307.882409 348.241484 
L 314.163961 348.359986 
L 320.445513 348.466197 
L 326.727065 348.560762 
L 333.008616 348.644669 
L 339.290168 348.718705 
L 345.57172 348.783867 
L 351.853272 348.841396 
L 358.134824 348.891923 
L 364.416375 348.936619 
L 370.697927 348.976333 
L 376.979479 349.011577 
L 383.261031 349.043382 
L 389.542582 349.072131 
L 395.824134 349.098416 
L 402.105686 349.122691 
L 408.387238 349.14536 
L 414.66879 349.166713 
L 420.950341 349.186993 
L 427.231893 349.206382 
L 433.513445 349.225006 
L 439.794997 349.242928 
L 446.076549 349.260196 
L 452.3581 349.276819 
L 458.639652 349.292649 
L 464.921204 349.307842 
L 471.202756 349.322234 
L 477.484307 349.335751 
L 483.765859 349.348316 
L 490.047411 349.359846 
L 496.328963 349.37027 
L 502.610515 349.379521 
L 508.892066 349.38754 
L 515.173618 349.394387 
L 521.45517 349.399825 
L 527.736722 349.403971 
L 534.018273 349.406785 
L 540.299825 349.408332 
L 546.581377 349.408613 
L 552.862929 349.40759 
L 559.144481 349.405521 
L 565.426032 349.402379 
L 571.707584 349.39825 
L 577.989136 349.393225 
L 584.270688 349.387399 
L 590.552239 349.380974 
L 596.833791 349.373853 
L 603.115343 349.366252 
L 609.396895 349.358278 
L 615.678447 349.35 
L 621.959998 349.341574 
L 628.24155 349.332965 
L 634.523102 349.324479 
L 640.804654 349.316103 
L 647.086205 349.307928 
L 653.367757 349.300136 
L 659.649309 349.292613 
L 665.930861 349.285442 
L 672.212413 349.278904 
L 678.493964 349.272987 
L 684.775516 349.267983 
" clip-path="url(#p7481eb259a)" style="fill: none; stroke: #7ad151; stroke-width: 2; stroke-linecap: square"/>
   </g>
   <g id="patch_3">
    <path d="M 50.338786 525.04 
L 50.338786 311.64 
" style="fill: none; stroke: #ffffff; stroke-linejoin: miter; stroke-linecap: square"/>
   </g>
   <g id="patch_4">
    <path d="M 427.231893 525.04 
L 427.231893 311.64 
" style="fill: none; stroke: #ffffff; stroke-linejoin: miter; stroke-linecap: square"/>
   </g>
   <g id="patch_5">
    <path d="M 50.338786 525.04 
L 427.231893 525.04 
" style="fill: none; stroke: #ffffff; stroke-linejoin: miter; stroke-linecap: square"/>
   </g>
   <g id="patch_6">
    <path d="M 50.338786 311.64 
L 427.231893 311.64 
" style="fill: none; stroke: #ffffff; stroke-linejoin: miter; stroke-linecap: square"/>
   </g>
   <g id="text_16">
    <!-- Density response -->
    <g transform="translate(160.45784 305.64) scale(0.16 -0.16)">
     <defs>
      <path id="DejaVuSans-Bold-44" d="M 1791 3756 
L 1791 909 
L 2222 909 
Q 2959 909 3348 1275 
Q 3738 1641 3738 2338 
Q 3738 3031 3350 3393 
Q 2963 3756 2222 3756 
L 1791 3756 
z
M 588 4666 
L 1856 4666 
Q 2919 4666 3439 4514 
Q 3959 4363 4331 4000 
Q 4659 3684 4818 3271 
Q 4978 2859 4978 2338 
Q 4978 1809 4818 1395 
Q 4659 981 4331 666 
Q 3956 303 3431 151 
Q 2906 0 1856 0 
L 588 0 
L 588 4666 
z
" transform="scale(0.015625)"/>
      <path id="DejaVuSans-Bold-65" d="M 4031 1759 
L 4031 1441 
L 1416 1441 
Q 1456 1047 1700 850 
Q 1944 653 2381 653 
Q 2734 653 3104 758 
Q 3475 863 3866 1075 
L 3866 213 
Q 3469 63 3072 -14 
Q 2675 -91 2278 -91 
Q 1328 -91 801 392 
Q 275 875 275 1747 
Q 275 2603 792 3093 
Q 1309 3584 2216 3584 
Q 3041 3584 3536 3087 
Q 4031 2591 4031 1759 
z
M 2881 2131 
Q 2881 2450 2695 2645 
Q 2509 2841 2209 2841 
Q 1884 2841 1681 2658 
Q 1478 2475 1428 2131 
L 2881 2131 
z
" transform="scale(0.015625)"/>
      <path id="DejaVuSans-Bold-6e" d="M 4056 2131 
L 4056 0 
L 2931 0 
L 2931 347 
L 2931 1631 
Q 2931 2084 2911 2256 
Q 2891 2428 2841 2509 
Q 2775 2619 2662 2680 
Q 2550 2741 2406 2741 
Q 2056 2741 1856 2470 
Q 1656 2200 1656 1722 
L 1656 0 
L 538 0 
L 538 3500 
L 1656 3500 
L 1656 2988 
Q 1909 3294 2193 3439 
Q 2478 3584 2822 3584 
Q 3428 3584 3742 3212 
Q 4056 2841 4056 2131 
z
" transform="scale(0.015625)"/>
      <path id="DejaVuSans-Bold-73" d="M 3272 3391 
L 3272 2541 
Q 2913 2691 2578 2766 
Q 2244 2841 1947 2841 
Q 1628 2841 1473 2761 
Q 1319 2681 1319 2516 
Q 1319 2381 1436 2309 
Q 1553 2238 1856 2203 
L 2053 2175 
Q 2913 2066 3209 1816 
Q 3506 1566 3506 1031 
Q 3506 472 3093 190 
Q 2681 -91 1863 -91 
Q 1516 -91 1145 -36 
Q 775 19 384 128 
L 384 978 
Q 719 816 1070 734 
Q 1422 653 1784 653 
Q 2113 653 2278 743 
Q 2444 834 2444 1013 
Q 2444 1163 2330 1236 
Q 2216 1309 1875 1350 
L 1678 1375 
Q 931 1469 631 1722 
Q 331 1975 331 2491 
Q 331 3047 712 3315 
Q 1094 3584 1881 3584 
Q 2191 3584 2531 3537 
Q 2872 3491 3272 3391 
z
" transform="scale(0.015625)"/>
      <path id="DejaVuSans-Bold-69" d="M 538 3500 
L 1656 3500 
L 1656 0 
L 538 0 
L 538 3500 
z
M 538 4863 
L 1656 4863 
L 1656 3950 
L 538 3950 
L 538 4863 
z
" transform="scale(0.015625)"/>
      <path id="DejaVuSans-Bold-74" d="M 1759 4494 
L 1759 3500 
L 2913 3500 
L 2913 2700 
L 1759 2700 
L 1759 1216 
Q 1759 972 1856 886 
Q 1953 800 2241 800 
L 2816 800 
L 2816 0 
L 1856 0 
Q 1194 0 917 276 
Q 641 553 641 1216 
L 641 2700 
L 84 2700 
L 84 3500 
L 641 3500 
L 641 4494 
L 1759 4494 
z
" transform="scale(0.015625)"/>
      <path id="DejaVuSans-Bold-79" d="M 78 3500 
L 1197 3500 
L 2138 1125 
L 2938 3500 
L 4056 3500 
L 2584 -331 
Q 2363 -916 2067 -1148 
Q 1772 -1381 1288 -1381 
L 641 -1381 
L 641 -647 
L 991 -647 
Q 1275 -647 1404 -556 
Q 1534 -466 1606 -231 
L 1638 -134 
L 78 3500 
z
" transform="scale(0.015625)"/>
      <path id="DejaVuSans-Bold-20" transform="scale(0.015625)"/>
      <path id="DejaVuSans-Bold-72" d="M 3138 2547 
Q 2991 2616 2845 2648 
Q 2700 2681 2553 2681 
Q 2122 2681 1889 2404 
Q 1656 2128 1656 1613 
L 1656 0 
L 538 0 
L 538 3500 
L 1656 3500 
L 1656 2925 
Q 1872 3269 2151 3426 
Q 2431 3584 2822 3584 
Q 2878 3584 2943 3579 
Q 3009 3575 3134 3559 
L 3138 2547 
z
" transform="scale(0.015625)"/>
      <path id="DejaVuSans-Bold-70" d="M 1656 506 
L 1656 -1331 
L 538 -1331 
L 538 3500 
L 1656 3500 
L 1656 2988 
Q 1888 3294 2169 3439 
Q 2450 3584 2816 3584 
Q 3463 3584 3878 3070 
Q 4294 2556 4294 1747 
Q 4294 938 3878 423 
Q 3463 -91 2816 -91 
Q 2450 -91 2169 54 
Q 1888 200 1656 506 
z
M 2400 2772 
Q 2041 2772 1848 2508 
Q 1656 2244 1656 1747 
Q 1656 1250 1848 986 
Q 2041 722 2400 722 
Q 2759 722 2948 984 
Q 3138 1247 3138 1747 
Q 3138 2247 2948 2509 
Q 2759 2772 2400 2772 
z
" transform="scale(0.015625)"/>
      <path id="DejaVuSans-Bold-6f" d="M 2203 2784 
Q 1831 2784 1636 2517 
Q 1441 2250 1441 1747 
Q 1441 1244 1636 976 
Q 1831 709 2203 709 
Q 2569 709 2762 976 
Q 2956 1244 2956 1747 
Q 2956 2250 2762 2517 
Q 2569 2784 2203 2784 
z
M 2203 3584 
Q 3106 3584 3614 3096 
Q 4122 2609 4122 1747 
Q 4122 884 3614 396 
Q 3106 -91 2203 -91 
Q 1297 -91 786 396 
Q 275 884 275 1747 
Q 275 2609 786 3096 
Q 1297 3584 2203 3584 
z
" transform="scale(0.015625)"/>
     </defs>
     <use xlink:href="#DejaVuSans-Bold-44"/>
     <use xlink:href="#DejaVuSans-Bold-65" transform="translate(83.007812 0)"/>
     <use xlink:href="#DejaVuSans-Bold-6e" transform="translate(150.830078 0)"/>
     <use xlink:href="#DejaVuSans-Bold-73" transform="translate(222.021484 0)"/>
     <use xlink:href="#DejaVuSans-Bold-69" transform="translate(281.542969 0)"/>
     <use xlink:href="#DejaVuSans-Bold-74" transform="translate(315.820312 0)"/>
     <use xlink:href="#DejaVuSans-Bold-79" transform="translate(363.623047 0)"/>
     <use xlink:href="#DejaVuSans-Bold-20" transform="translate(428.808594 0)"/>
     <use xlink:href="#DejaVuSans-Bold-72" transform="translate(463.623047 0)"/>
     <use xlink:href="#DejaVuSans-Bold-65" transform="translate(512.939453 0)"/>
     <use xlink:href="#DejaVuSans-Bold-73" transform="translate(580.761719 0)"/>
     <use xlink:href="#DejaVuSans-Bold-70" transform="translate(640.283203 0)"/>
     <use xlink:href="#DejaVuSans-Bold-6f" transform="translate(711.865234 0)"/>
     <use xlink:href="#DejaVuSans-Bold-6e" transform="translate(780.566406 0)"/>
     <use xlink:href="#DejaVuSans-Bold-73" transform="translate(851.757812 0)"/>
     <use xlink:href="#DejaVuSans-Bold-65" transform="translate(911.279297 0)"/>
    </g>
   </g>
   <g id="legend_1">
    <g id="patch_7">
     <path d="M 302.911893 518.04 
L 417.431893 518.04 
Q 420.231893 518.04 420.231893 515.24 
L 420.231893 413.210625 
Q 420.231893 410.410625 417.431893 410.410625 
L 302.911893 410.410625 
Q 300.111893 410.410625 300.111893 413.210625 
L 300.111893 515.24 
Q 300.111893 518.04 302.911893 518.04 
z
" style="fill: #e5e5e5; opacity: 0.8; stroke: #cccccc; stroke-width: 0.5; stroke-linejoin: miter"/>
    </g>
    <g id="line2d_34">
     <path d="M 305.711893 421.748437 
L 319.711893 421.748437 
L 333.711893 421.748437 
" style="fill: none; stroke: #440154; stroke-width: 2; stroke-linecap: square"/>
    </g>
    <g id="text_17">
     <!-- $\omega = 0$ -->
     <g transform="translate(344.911893 426.648437) scale(0.14 -0.14)">
      <defs>
       <path id="DejaVuSans-Oblique-3c9" d="M 1369 -91 
Q 72 -91 434 1766 
Q 575 2500 1256 3500 
L 1875 3500 
Q 1231 2500 1088 1750 
Q 819 397 1519 397 
Q 2166 397 2478 2078 
L 3009 2078 
Q 2669 388 3316 397 
Q 4013 403 4275 1750 
Q 4419 2500 4169 3500 
L 4788 3500 
Q 5075 2500 4934 1766 
Q 4578 -94 3278 -91 
Q 2428 -88 2503 844 
Q 2194 -91 1369 -91 
z
" transform="scale(0.015625)"/>
       <path id="DejaVuSans-3d" d="M 678 2906 
L 4684 2906 
L 4684 2381 
L 678 2381 
L 678 2906 
z
M 678 1631 
L 4684 1631 
L 4684 1100 
L 678 1100 
L 678 1631 
z
" transform="scale(0.015625)"/>
      </defs>
      <use xlink:href="#DejaVuSans-Oblique-3c9" transform="translate(0 0.78125)"/>
      <use xlink:href="#DejaVuSans-3d" transform="translate(103.222656 0.78125)"/>
      <use xlink:href="#DejaVuSans-30" transform="translate(206.494141 0.78125)"/>
     </g>
    </g>
    <g id="line2d_35">
     <path d="M 305.711893 442.44 
L 319.711893 442.44 
L 333.711893 442.44 
" style="fill: none; stroke: #414487; stroke-width: 2; stroke-linecap: square"/>
    </g>
    <g id="text_18">
     <!-- $\omega = 2\pi/\beta\hbar$ -->
     <g transform="translate(344.911893 447.34) scale(0.14 -0.14)">
      <defs>
       <path id="DejaVuSans-Oblique-3c0" d="M 584 3500 
L 3938 3500 
L 3825 2925 
L 3384 2925 
L 2966 775 
Q 2922 550 2981 450 
Q 3038 353 3209 353 
Q 3256 353 3325 363 
Q 3397 369 3419 372 
L 3338 -44 
Q 3222 -84 3103 -103 
Q 2981 -122 2866 -122 
Q 2491 -122 2388 81 
Q 2284 288 2391 838 
L 2797 2925 
L 1506 2925 
L 938 0 
L 350 0 
L 919 2925 
L 472 2925 
L 584 3500 
z
" transform="scale(0.015625)"/>
       <path id="DejaVuSans-2f" d="M 1625 4666 
L 2156 4666 
L 531 -594 
L 0 -594 
L 1625 4666 
z
" transform="scale(0.015625)"/>
       <path id="DejaVuSans-Oblique-3b2" d="M 872 216 
L 572 -1331 
L -6 -1331 
L 928 3478 
Q 1206 4903 2538 4903 
Q 3888 4903 3659 3700 
Q 3503 2844 2894 2531 
Q 3713 2250 3553 1416 
Q 3272 -69 1759 -66 
Q 1097 -63 872 216 
z
M 1019 966 
Q 1259 422 1875 425 
Q 2775 425 2966 1406 
Q 3138 2288 1675 2219 
L 1778 2750 
Q 2909 2731 3106 3750 
Q 3241 4438 2509 4434 
Q 1691 4434 1503 3459 
L 1019 966 
z
" transform="scale(0.015625)"/>
       <path id="DejaVuSans-Oblique-127" d="M 3634 2113 
L 3225 0 
L 2650 0 
L 3056 2094 
Q 3094 2291 3094 2450 
Q 3094 2688 3006 2838 
Q 2863 3084 2475 3084 
Q 2009 3084 1681 2788 
Q 1356 2491 1256 1978 
L 872 0 
L 294 0 
L 1066 3969 
L 675 3969 
L 775 4481 
L 1166 4481 
L 1238 4863 
L 1816 4863 
L 1744 4481 
L 2844 4481 
L 2744 3969 
L 1644 3969 
L 1447 2956 
Q 1713 3272 2025 3428 
Q 2331 3584 2700 3584 
Q 3300 3584 3538 3213 
Q 3688 2975 3688 2606 
Q 3688 2381 3634 2113 
z
" transform="scale(0.015625)"/>
      </defs>
      <use xlink:href="#DejaVuSans-Oblique-3c9" transform="translate(0 0.390625)"/>
      <use xlink:href="#DejaVuSans-3d" transform="translate(103.222656 0.390625)"/>
      <use xlink:href="#DejaVuSans-32" transform="translate(206.494141 0.390625)"/>
      <use xlink:href="#DejaVuSans-Oblique-3c0" transform="translate(270.117188 0.390625)"/>
      <use xlink:href="#DejaVuSans-2f" transform="translate(330.322266 0.390625)"/>
      <use xlink:href="#DejaVuSans-Oblique-3b2" transform="translate(364.013672 0.390625)"/>
      <use xlink:href="#DejaVuSans-Oblique-127" transform="translate(427.832031 0.390625)"/>
     </g>
    </g>
    <g id="line2d_36">
     <path d="M 305.711893 463.16 
L 319.711893 463.16 
L 333.711893 463.16 
" style="fill: none; stroke: #2a788e; stroke-width: 2; stroke-linecap: square"/>
    </g>
    <g id="text_19">
     <!-- $\omega = 4\pi/\beta\hbar$ -->
     <g transform="translate(344.911893 468.06) scale(0.14 -0.14)">
      <use xlink:href="#DejaVuSans-Oblique-3c9" transform="translate(0 0.390625)"/>
      <use xlink:href="#DejaVuSans-3d" transform="translate(103.222656 0.390625)"/>
      <use xlink:href="#DejaVuSans-34" transform="translate(206.494141 0.390625)"/>
      <use xlink:href="#DejaVuSans-Oblique-3c0" transform="translate(270.117188 0.390625)"/>
      <use xlink:href="#DejaVuSans-2f" transform="translate(330.322266 0.390625)"/>
      <use xlink:href="#DejaVuSans-Oblique-3b2" transform="translate(364.013672 0.390625)"/>
      <use xlink:href="#DejaVuSans-Oblique-127" transform="translate(427.832031 0.390625)"/>
     </g>
    </g>
    <g id="line2d_37">
     <path d="M 305.711893 483.88 
L 319.711893 483.88 
L 333.711893 483.88 
" style="fill: none; stroke: #22a884; stroke-width: 2; stroke-linecap: square"/>
    </g>
    <g id="text_20">
     <!-- $\omega = 6\pi/\beta\hbar$ -->
     <g transform="translate(344.911893 488.78) scale(0.14 -0.14)">
      <use xlink:href="#DejaVuSans-Oblique-3c9" transform="translate(0 0.390625)"/>
      <use xlink:href="#DejaVuSans-3d" transform="translate(103.222656 0.390625)"/>
      <use xlink:href="#DejaVuSans-36" transform="translate(206.494141 0.390625)"/>
      <use xlink:href="#DejaVuSans-Oblique-3c0" transform="translate(270.117188 0.390625)"/>
      <use xlink:href="#DejaVuSans-2f" transform="translate(330.322266 0.390625)"/>
      <use xlink:href="#DejaVuSans-Oblique-3b2" transform="translate(364.013672 0.390625)"/>
      <use xlink:href="#DejaVuSans-Oblique-127" transform="translate(427.832031 0.390625)"/>
     </g>
    </g>
    <g id="line2d_38">
     <path d="M 305.711893 504.6 
L 319.711893 504.6 
L 333.711893 504.6 
" style="fill: none; stroke: #7ad151; stroke-width: 2; stroke-linecap: square"/>
    </g>
    <g id="text_21">
     <!-- $\omega = 8\pi/\beta\hbar$ -->
     <g transform="translate(344.911893 509.5) scale(0.14 -0.14)">
      <use xlink:href="#DejaVuSans-Oblique-3c9" transform="translate(0 0.390625)"/>
      <use xlink:href="#DejaVuSans-3d" transform="translate(103.222656 0.390625)"/>
      <use xlink:href="#DejaVuSans-38" transform="translate(206.494141 0.390625)"/>
      <use xlink:href="#DejaVuSans-Oblique-3c0" transform="translate(270.117188 0.390625)"/>
      <use xlink:href="#DejaVuSans-2f" transform="translate(330.322266 0.390625)"/>
      <use xlink:href="#DejaVuSans-Oblique-3b2" transform="translate(364.013672 0.390625)"/>
      <use xlink:href="#DejaVuSans-Oblique-127" transform="translate(427.832031 0.390625)"/>
     </g>
    </g>
   </g>
  </g>
  <g id="axes_2">
   <g id="patch_8">
    <path d="M 471.829393 525.04 
L 848.7225 525.04 
L 848.7225 311.64 
L 471.829393 311.64 
z
" style="fill: #e5e5e5"/>
   </g>
   <g id="matplotlib.axis_3">
    <g id="xtick_8">
     <g id="line2d_39">
      <path d="M 471.829393 525.04 
L 471.829393 311.64 
" clip-path="url(#pe4eff99a36)" style="fill: none; stroke: #ffffff; stroke-width: 0.8; stroke-linecap: square"/>
     </g>
     <g id="line2d_40">
      <g>
       <use xlink:href="#m13e6454fb7" x="471.829393" y="525.04" style="fill: #555555; stroke: #555555; stroke-width: 0.8"/>
      </g>
     </g>
     <g id="text_22">
      <!-- 0 -->
      <g style="fill: #555555" transform="translate(467.375643 542.677812) scale(0.14 -0.14)">
       <use xlink:href="#DejaVuSans-30"/>
      </g>
     </g>
    </g>
    <g id="xtick_9">
     <g id="line2d_41">
      <path d="M 534.644911 525.04 
L 534.644911 311.64 
" clip-path="url(#pe4eff99a36)" style="fill: none; stroke: #ffffff; stroke-width: 0.8; stroke-linecap: square"/>
     </g>
     <g id="line2d_42">
      <g>
       <use xlink:href="#m13e6454fb7" x="534.644911" y="525.04" style="fill: #555555; stroke: #555555; stroke-width: 0.8"/>
      </g>
     </g>
     <g id="text_23">
      <!-- 1 -->
      <g style="fill: #555555" transform="translate(530.191161 542.677812) scale(0.14 -0.14)">
       <use xlink:href="#DejaVuSans-31"/>
      </g>
     </g>
    </g>
    <g id="xtick_10">
     <g id="line2d_43">
      <path d="M 597.460429 525.04 
L 597.460429 311.64 
" clip-path="url(#pe4eff99a36)" style="fill: none; stroke: #ffffff; stroke-width: 0.8; stroke-linecap: square"/>
     </g>
     <g id="line2d_44">
      <g>
       <use xlink:href="#m13e6454fb7" x="597.460429" y="525.04" style="fill: #555555; stroke: #555555; stroke-width: 0.8"/>
      </g>
     </g>
     <g id="text_24">
      <!-- 2 -->
      <g style="fill: #555555" transform="translate(593.006679 542.677812) scale(0.14 -0.14)">
       <use xlink:href="#DejaVuSans-32"/>
      </g>
     </g>
    </g>
    <g id="xtick_11">
     <g id="line2d_45">
      <path d="M 660.275947 525.04 
L 660.275947 311.64 
" clip-path="url(#pe4eff99a36)" style="fill: none; stroke: #ffffff; stroke-width: 0.8; stroke-linecap: square"/>
     </g>
     <g id="line2d_46">
      <g>
       <use xlink:href="#m13e6454fb7" x="660.275947" y="525.04" style="fill: #555555; stroke: #555555; stroke-width: 0.8"/>
      </g>
     </g>
     <g id="text_25">
      <!-- 3 -->
      <g style="fill: #555555" transform="translate(655.822197 542.677812) scale(0.14 -0.14)">
       <use xlink:href="#DejaVuSans-33"/>
      </g>
     </g>
    </g>
    <g id="xtick_12">
     <g id="line2d_47">
      <path d="M 723.091464 525.04 
L 723.091464 311.64 
" clip-path="url(#pe4eff99a36)" style="fill: none; stroke: #ffffff; stroke-width: 0.8; stroke-linecap: square"/>
     </g>
     <g id="line2d_48">
      <g>
       <use xlink:href="#m13e6454fb7" x="723.091464" y="525.04" style="fill: #555555; stroke: #555555; stroke-width: 0.8"/>
      </g>
     </g>
     <g id="text_26">
      <!-- 4 -->
      <g style="fill: #555555" transform="translate(718.637714 542.677812) scale(0.14 -0.14)">
       <use xlink:href="#DejaVuSans-34"/>
      </g>
     </g>
    </g>
    <g id="xtick_13">
     <g id="line2d_49">
      <path d="M 785.906982 525.04 
L 785.906982 311.64 
" clip-path="url(#pe4eff99a36)" style="fill: none; stroke: #ffffff; stroke-width: 0.8; stroke-linecap: square"/>
     </g>
     <g id="line2d_50">
      <g>
       <use xlink:href="#m13e6454fb7" x="785.906982" y="525.04" style="fill: #555555; stroke: #555555; stroke-width: 0.8"/>
      </g>
     </g>
     <g id="text_27">
      <!-- 5 -->
      <g style="fill: #555555" transform="translate(781.453232 542.677812) scale(0.14 -0.14)">
       <use xlink:href="#DejaVuSans-35"/>
      </g>
     </g>
    </g>
    <g id="xtick_14">
     <g id="line2d_51">
      <path d="M 848.7225 525.04 
L 848.7225 311.64 
" clip-path="url(#pe4eff99a36)" style="fill: none; stroke: #ffffff; stroke-width: 0.8; stroke-linecap: square"/>
     </g>
     <g id="line2d_52">
      <g>
       <use xlink:href="#m13e6454fb7" x="848.7225" y="525.04" style="fill: #555555; stroke: #555555; stroke-width: 0.8"/>
      </g>
     </g>
     <g id="text_28">
      <!-- 6 -->
      <g style="fill: #555555" transform="translate(844.26875 542.677812) scale(0.14 -0.14)">
       <use xlink:href="#DejaVuSans-36"/>
      </g>
     </g>
    </g>
    <g id="text_29">
     <!-- Wave-vector -->
     <g style="fill: #555555" transform="translate(610.263447 561.746875) scale(0.16 -0.16)">
      <use xlink:href="#DejaVuSans-57"/>
      <use xlink:href="#DejaVuSans-61" transform="translate(92.501953 0)"/>
      <use xlink:href="#DejaVuSans-76" transform="translate(153.78125 0)"/>
      <use xlink:href="#DejaVuSans-65" transform="translate(212.960938 0)"/>
      <use xlink:href="#DejaVuSans-2d" transform="translate(274.484375 0)"/>
      <use xlink:href="#DejaVuSans-76" transform="translate(307.943359 0)"/>
      <use xlink:href="#DejaVuSans-65" transform="translate(367.123047 0)"/>
      <use xlink:href="#DejaVuSans-63" transform="translate(428.646484 0)"/>
      <use xlink:href="#DejaVuSans-74" transform="translate(483.626953 0)"/>
      <use xlink:href="#DejaVuSans-6f" transform="translate(522.835938 0)"/>
      <use xlink:href="#DejaVuSans-72" transform="translate(584.017578 0)"/>
     </g>
    </g>
   </g>
   <g id="matplotlib.axis_4">
    <g id="ytick_8">
     <g id="line2d_53">
      <path d="M 471.829393 515.34 
L 848.7225 515.34 
" clip-path="url(#pe4eff99a36)" style="fill: none; stroke: #ffffff; stroke-width: 0.8; stroke-linecap: square"/>
     </g>
     <g id="line2d_54">
      <g>
       <use xlink:href="#m5c62302ed8" x="471.829393" y="515.34" style="fill: #555555; stroke: #555555; stroke-width: 0.8"/>
      </g>
     </g>
     <g id="text_30">
      <!-- 0.0 -->
      <g style="fill: #555555" transform="translate(442.565018 520.658906) scale(0.14 -0.14)">
       <use xlink:href="#DejaVuSans-30"/>
       <use xlink:href="#DejaVuSans-2e" transform="translate(63.623047 0)"/>
       <use xlink:href="#DejaVuSans-30" transform="translate(95.410156 0)"/>
      </g>
     </g>
    </g>
    <g id="ytick_9">
     <g id="line2d_55">
      <path d="M 471.829393 476.991762 
L 848.7225 476.991762 
" clip-path="url(#pe4eff99a36)" style="fill: none; stroke: #ffffff; stroke-width: 0.8; stroke-linecap: square"/>
     </g>
     <g id="line2d_56">
      <g>
       <use xlink:href="#m5c62302ed8" x="471.829393" y="476.991762" style="fill: #555555; stroke: #555555; stroke-width: 0.8"/>
      </g>
     </g>
     <g id="text_31">
      <!-- 0.2 -->
      <g style="fill: #555555" transform="translate(442.565018 482.310668) scale(0.14 -0.14)">
       <use xlink:href="#DejaVuSans-30"/>
       <use xlink:href="#DejaVuSans-2e" transform="translate(63.623047 0)"/>
       <use xlink:href="#DejaVuSans-32" transform="translate(95.410156 0)"/>
      </g>
     </g>
    </g>
    <g id="ytick_10">
     <g id="line2d_57">
      <path d="M 471.829393 438.643524 
L 848.7225 438.643524 
" clip-path="url(#pe4eff99a36)" style="fill: none; stroke: #ffffff; stroke-width: 0.8; stroke-linecap: square"/>
     </g>
     <g id="line2d_58">
      <g>
       <use xlink:href="#m5c62302ed8" x="471.829393" y="438.643524" style="fill: #555555; stroke: #555555; stroke-width: 0.8"/>
      </g>
     </g>
     <g id="text_32">
      <!-- 0.4 -->
      <g style="fill: #555555" transform="translate(442.565018 443.96243) scale(0.14 -0.14)">
       <use xlink:href="#DejaVuSans-30"/>
       <use xlink:href="#DejaVuSans-2e" transform="translate(63.623047 0)"/>
       <use xlink:href="#DejaVuSans-34" transform="translate(95.410156 0)"/>
      </g>
     </g>
    </g>
    <g id="ytick_11">
     <g id="line2d_59">
      <path d="M 471.829393 400.295286 
L 848.7225 400.295286 
" clip-path="url(#pe4eff99a36)" style="fill: none; stroke: #ffffff; stroke-width: 0.8; stroke-linecap: square"/>
     </g>
     <g id="line2d_60">
      <g>
       <use xlink:href="#m5c62302ed8" x="471.829393" y="400.295286" style="fill: #555555; stroke: #555555; stroke-width: 0.8"/>
      </g>
     </g>
     <g id="text_33">
      <!-- 0.6 -->
      <g style="fill: #555555" transform="translate(442.565018 405.614192) scale(0.14 -0.14)">
       <use xlink:href="#DejaVuSans-30"/>
       <use xlink:href="#DejaVuSans-2e" transform="translate(63.623047 0)"/>
       <use xlink:href="#DejaVuSans-36" transform="translate(95.410156 0)"/>
      </g>
     </g>
    </g>
    <g id="ytick_12">
     <g id="line2d_61">
      <path d="M 471.829393 361.947048 
L 848.7225 361.947048 
" clip-path="url(#pe4eff99a36)" style="fill: none; stroke: #ffffff; stroke-width: 0.8; stroke-linecap: square"/>
     </g>
     <g id="line2d_62">
      <g>
       <use xlink:href="#m5c62302ed8" x="471.829393" y="361.947048" style="fill: #555555; stroke: #555555; stroke-width: 0.8"/>
      </g>
     </g>
     <g id="text_34">
      <!-- 0.8 -->
      <g style="fill: #555555" transform="translate(442.565018 367.265954) scale(0.14 -0.14)">
       <use xlink:href="#DejaVuSans-30"/>
       <use xlink:href="#DejaVuSans-2e" transform="translate(63.623047 0)"/>
       <use xlink:href="#DejaVuSans-38" transform="translate(95.410156 0)"/>
      </g>
     </g>
    </g>
    <g id="ytick_13">
     <g id="line2d_63">
      <path d="M 471.829393 323.59881 
L 848.7225 323.59881 
" clip-path="url(#pe4eff99a36)" style="fill: none; stroke: #ffffff; stroke-width: 0.8; stroke-linecap: square"/>
     </g>
     <g id="line2d_64">
      <g>
       <use xlink:href="#m5c62302ed8" x="471.829393" y="323.59881" style="fill: #555555; stroke: #555555; stroke-width: 0.8"/>
      </g>
     </g>
     <g id="text_35">
      <!-- 1.0 -->
      <g style="fill: #555555" transform="translate(442.565018 328.917716) scale(0.14 -0.14)">
       <use xlink:href="#DejaVuSans-31"/>
       <use xlink:href="#DejaVuSans-2e" transform="translate(63.623047 0)"/>
       <use xlink:href="#DejaVuSans-30" transform="translate(95.410156 0)"/>
      </g>
     </g>
    </g>
   </g>
   <g id="line2d_65">
    <path d="M 471.829393 515.34 
L 478.110945 514.784249 
L 484.392497 513.1052 
L 490.674049 510.267419 
L 496.9556 506.211709 
L 503.237152 500.856436 
L 509.518704 494.10059 
L 515.800256 485.830489 
L 522.081807 475.934962 
L 528.363359 464.332716 
L 534.644911 451.018431 
L 540.926463 436.12608 
L 547.208015 420.001262 
L 553.489566 403.247551 
L 559.771118 386.699252 
L 566.05267 371.285072 
L 572.334222 357.812619 
L 578.615773 346.773083 
L 584.897325 338.266639 
L 591.178877 332.071182 
L 597.460429 327.783543 
L 603.741981 324.956759 
L 610.023532 323.186884 
L 616.305084 322.14889 
L 622.586636 321.600641 
L 628.868188 321.370281 
L 635.149739 321.34 
L 641.431291 321.430656 
L 647.712843 321.589934 
L 653.994395 321.78362 
L 660.275947 321.989715 
L 666.557498 322.194332 
L 672.83905 322.388941 
L 679.120602 322.568653 
L 685.402154 322.730984 
L 691.683705 322.875071 
L 697.965257 323.001087 
L 704.246809 323.109912 
L 710.528361 323.202816 
L 716.809913 323.281307 
L 723.091464 323.346971 
L 729.373016 323.401391 
L 735.654568 323.446084 
L 741.93612 323.482463 
L 748.217672 323.511808 
L 754.499223 323.535258 
L 760.780775 323.553814 
L 767.062327 323.568341 
L 773.343879 323.579578 
L 779.62543 323.588153 
L 785.906982 323.594588 
L 792.188534 323.59932 
L 798.470086 323.602707 
L 804.751638 323.605044 
L 811.033189 323.606568 
L 817.314741 323.607471 
L 823.596293 323.607908 
L 829.877845 323.608 
L 836.159396 323.607845 
L 842.440948 323.607515 
L 848.7225 323.607071 
L 855.004052 323.606557 
L 861.285604 323.606005 
L 865 323.605671 
" clip-path="url(#pe4eff99a36)" style="fill: none; stroke: #440154; stroke-width: 2; stroke-linecap: square"/>
   </g>
   <g id="patch_9">
    <path d="M 471.829393 525.04 
L 471.829393 311.64 
" style="fill: none; stroke: #ffffff; stroke-linejoin: miter; stroke-linecap: square"/>
   </g>
   <g id="patch_10">
    <path d="M 848.7225 525.04 
L 848.7225 311.64 
" style="fill: none; stroke: #ffffff; stroke-linejoin: miter; stroke-linecap: square"/>
   </g>
   <g id="patch_11">
    <path d="M 471.829393 525.04 
L 848.7225 525.04 
" style="fill: none; stroke: #ffffff; stroke-linejoin: miter; stroke-linecap: square"/>
   </g>
   <g id="patch_12">
    <path d="M 471.829393 311.64 
L 848.7225 311.64 
" style="fill: none; stroke: #ffffff; stroke-linejoin: miter; stroke-linecap: square"/>
   </g>
   <g id="text_36">
    <!-- Static structure factor -->
    <g transform="translate(559.669697 305.64) scale(0.16 -0.16)">
     <defs>
      <path id="DejaVuSans-Bold-53" d="M 3834 4519 
L 3834 3531 
Q 3450 3703 3084 3790 
Q 2719 3878 2394 3878 
Q 1963 3878 1756 3759 
Q 1550 3641 1550 3391 
Q 1550 3203 1689 3098 
Q 1828 2994 2194 2919 
L 2706 2816 
Q 3484 2659 3812 2340 
Q 4141 2022 4141 1434 
Q 4141 663 3683 286 
Q 3225 -91 2284 -91 
Q 1841 -91 1394 -6 
Q 947 78 500 244 
L 500 1259 
Q 947 1022 1364 901 
Q 1781 781 2169 781 
Q 2563 781 2772 912 
Q 2981 1044 2981 1288 
Q 2981 1506 2839 1625 
Q 2697 1744 2272 1838 
L 1806 1941 
Q 1106 2091 782 2419 
Q 459 2747 459 3303 
Q 459 4000 909 4375 
Q 1359 4750 2203 4750 
Q 2588 4750 2994 4692 
Q 3400 4634 3834 4519 
z
" transform="scale(0.015625)"/>
      <path id="DejaVuSans-Bold-61" d="M 2106 1575 
Q 1756 1575 1579 1456 
Q 1403 1338 1403 1106 
Q 1403 894 1545 773 
Q 1688 653 1941 653 
Q 2256 653 2472 879 
Q 2688 1106 2688 1447 
L 2688 1575 
L 2106 1575 
z
M 3816 1997 
L 3816 0 
L 2688 0 
L 2688 519 
Q 2463 200 2181 54 
Q 1900 -91 1497 -91 
Q 953 -91 614 226 
Q 275 544 275 1050 
Q 275 1666 698 1953 
Q 1122 2241 2028 2241 
L 2688 2241 
L 2688 2328 
Q 2688 2594 2478 2717 
Q 2269 2841 1825 2841 
Q 1466 2841 1156 2769 
Q 847 2697 581 2553 
L 581 3406 
Q 941 3494 1303 3539 
Q 1666 3584 2028 3584 
Q 2975 3584 3395 3211 
Q 3816 2838 3816 1997 
z
" transform="scale(0.015625)"/>
      <path id="DejaVuSans-Bold-63" d="M 3366 3391 
L 3366 2478 
Q 3138 2634 2908 2709 
Q 2678 2784 2431 2784 
Q 1963 2784 1702 2511 
Q 1441 2238 1441 1747 
Q 1441 1256 1702 982 
Q 1963 709 2431 709 
Q 2694 709 2930 787 
Q 3166 866 3366 1019 
L 3366 103 
Q 3103 6 2833 -42 
Q 2563 -91 2291 -91 
Q 1344 -91 809 395 
Q 275 881 275 1747 
Q 275 2613 809 3098 
Q 1344 3584 2291 3584 
Q 2566 3584 2833 3536 
Q 3100 3488 3366 3391 
z
" transform="scale(0.015625)"/>
      <path id="DejaVuSans-Bold-75" d="M 500 1363 
L 500 3500 
L 1625 3500 
L 1625 3150 
Q 1625 2866 1622 2436 
Q 1619 2006 1619 1863 
Q 1619 1441 1641 1255 
Q 1663 1069 1716 984 
Q 1784 875 1895 815 
Q 2006 756 2150 756 
Q 2500 756 2700 1025 
Q 2900 1294 2900 1772 
L 2900 3500 
L 4019 3500 
L 4019 0 
L 2900 0 
L 2900 506 
Q 2647 200 2364 54 
Q 2081 -91 1741 -91 
Q 1134 -91 817 281 
Q 500 653 500 1363 
z
" transform="scale(0.015625)"/>
      <path id="DejaVuSans-Bold-66" d="M 2841 4863 
L 2841 4128 
L 2222 4128 
Q 1984 4128 1890 4042 
Q 1797 3956 1797 3744 
L 1797 3500 
L 2753 3500 
L 2753 2700 
L 1797 2700 
L 1797 0 
L 678 0 
L 678 2700 
L 122 2700 
L 122 3500 
L 678 3500 
L 678 3744 
Q 678 4316 997 4589 
Q 1316 4863 1984 4863 
L 2841 4863 
z
" transform="scale(0.015625)"/>
     </defs>
     <use xlink:href="#DejaVuSans-Bold-53"/>
     <use xlink:href="#DejaVuSans-Bold-74" transform="translate(72.021484 0)"/>
     <use xlink:href="#DejaVuSans-Bold-61" transform="translate(119.824219 0)"/>
     <use xlink:href="#DejaVuSans-Bold-74" transform="translate(187.304688 0)"/>
     <use xlink:href="#DejaVuSans-Bold-69" transform="translate(235.107422 0)"/>
     <use xlink:href="#DejaVuSans-Bold-63" transform="translate(269.384766 0)"/>
     <use xlink:href="#DejaVuSans-Bold-20" transform="translate(328.662109 0)"/>
     <use xlink:href="#DejaVuSans-Bold-73" transform="translate(363.476562 0)"/>
     <use xlink:href="#DejaVuSans-Bold-74" transform="translate(422.998047 0)"/>
     <use xlink:href="#DejaVuSans-Bold-72" transform="translate(470.800781 0)"/>
     <use xlink:href="#DejaVuSans-Bold-75" transform="translate(520.117188 0)"/>
     <use xlink:href="#DejaVuSans-Bold-63" transform="translate(591.308594 0)"/>
     <use xlink:href="#DejaVuSans-Bold-74" transform="translate(650.585938 0)"/>
     <use xlink:href="#DejaVuSans-Bold-75" transform="translate(698.388672 0)"/>
     <use xlink:href="#DejaVuSans-Bold-72" transform="translate(769.580078 0)"/>
     <use xlink:href="#DejaVuSans-Bold-65" transform="translate(818.896484 0)"/>
     <use xlink:href="#DejaVuSans-Bold-20" transform="translate(886.71875 0)"/>
     <use xlink:href="#DejaVuSans-Bold-66" transform="translate(921.533203 0)"/>
     <use xlink:href="#DejaVuSans-Bold-61" transform="translate(965.039062 0)"/>
     <use xlink:href="#DejaVuSans-Bold-63" transform="translate(1032.519531 0)"/>
     <use xlink:href="#DejaVuSans-Bold-74" transform="translate(1091.796875 0)"/>
     <use xlink:href="#DejaVuSans-Bold-6f" transform="translate(1139.599609 0)"/>
     <use xlink:href="#DejaVuSans-Bold-72" transform="translate(1208.300781 0)"/>
    </g>
   </g>
  </g>
  <g id="axes_3">
   <g id="patch_13">
    <path d="M 50.338786 242.44 
L 848.7225 242.44 
L 848.7225 29.04 
L 50.338786 29.04 
z
" style="fill: #e5e5e5"/>
   </g>
   <g id="matplotlib.axis_5">
    <g id="xtick_15">
     <g id="line2d_66">
      <path d="M 50.338786 242.44 
L 50.338786 29.04 
" clip-path="url(#pf973fe8765)" style="fill: none; stroke: #ffffff; stroke-width: 0.8; stroke-linecap: square"/>
     </g>
     <g id="line2d_67">
      <g>
       <use xlink:href="#m13e6454fb7" x="50.338786" y="242.44" style="fill: #555555; stroke: #555555; stroke-width: 0.8"/>
      </g>
     </g>
     <g id="text_37">
      <!-- 0 -->
      <g style="fill: #555555" transform="translate(45.885036 260.077812) scale(0.14 -0.14)">
       <use xlink:href="#DejaVuSans-30"/>
      </g>
     </g>
    </g>
    <g id="xtick_16">
     <g id="line2d_68">
      <path d="M 171.306016 242.44 
L 171.306016 29.04 
" clip-path="url(#pf973fe8765)" style="fill: none; stroke: #ffffff; stroke-width: 0.8; stroke-linecap: square"/>
     </g>
     <g id="line2d_69">
      <g>
       <use xlink:href="#m13e6454fb7" x="171.306016" y="242.44" style="fill: #555555; stroke: #555555; stroke-width: 0.8"/>
      </g>
     </g>
     <g id="text_38">
      <!-- 5 -->
      <g style="fill: #555555" transform="translate(166.852266 260.077812) scale(0.14 -0.14)">
       <use xlink:href="#DejaVuSans-35"/>
      </g>
     </g>
    </g>
    <g id="xtick_17">
     <g id="line2d_70">
      <path d="M 292.273245 242.44 
L 292.273245 29.04 
" clip-path="url(#pf973fe8765)" style="fill: none; stroke: #ffffff; stroke-width: 0.8; stroke-linecap: square"/>
     </g>
     <g id="line2d_71">
      <g>
       <use xlink:href="#m13e6454fb7" x="292.273245" y="242.44" style="fill: #555555; stroke: #555555; stroke-width: 0.8"/>
      </g>
     </g>
     <g id="text_39">
      <!-- 10 -->
      <g style="fill: #555555" transform="translate(283.365745 260.077812) scale(0.14 -0.14)">
       <use xlink:href="#DejaVuSans-31"/>
       <use xlink:href="#DejaVuSans-30" transform="translate(63.623047 0)"/>
      </g>
     </g>
    </g>
    <g id="xtick_18">
     <g id="line2d_72">
      <path d="M 413.240474 242.44 
L 413.240474 29.04 
" clip-path="url(#pf973fe8765)" style="fill: none; stroke: #ffffff; stroke-width: 0.8; stroke-linecap: square"/>
     </g>
     <g id="line2d_73">
      <g>
       <use xlink:href="#m13e6454fb7" x="413.240474" y="242.44" style="fill: #555555; stroke: #555555; stroke-width: 0.8"/>
      </g>
     </g>
     <g id="text_40">
      <!-- 15 -->
      <g style="fill: #555555" transform="translate(404.332974 260.077812) scale(0.14 -0.14)">
       <use xlink:href="#DejaVuSans-31"/>
       <use xlink:href="#DejaVuSans-35" transform="translate(63.623047 0)"/>
      </g>
     </g>
    </g>
    <g id="xtick_19">
     <g id="line2d_74">
      <path d="M 534.207704 242.44 
L 534.207704 29.04 
" clip-path="url(#pf973fe8765)" style="fill: none; stroke: #ffffff; stroke-width: 0.8; stroke-linecap: square"/>
     </g>
     <g id="line2d_75">
      <g>
       <use xlink:href="#m13e6454fb7" x="534.207704" y="242.44" style="fill: #555555; stroke: #555555; stroke-width: 0.8"/>
      </g>
     </g>
     <g id="text_41">
      <!-- 20 -->
      <g style="fill: #555555" transform="translate(525.300204 260.077812) scale(0.14 -0.14)">
       <use xlink:href="#DejaVuSans-32"/>
       <use xlink:href="#DejaVuSans-30" transform="translate(63.623047 0)"/>
      </g>
     </g>
    </g>
    <g id="xtick_20">
     <g id="line2d_76">
      <path d="M 655.174933 242.44 
L 655.174933 29.04 
" clip-path="url(#pf973fe8765)" style="fill: none; stroke: #ffffff; stroke-width: 0.8; stroke-linecap: square"/>
     </g>
     <g id="line2d_77">
      <g>
       <use xlink:href="#m13e6454fb7" x="655.174933" y="242.44" style="fill: #555555; stroke: #555555; stroke-width: 0.8"/>
      </g>
     </g>
     <g id="text_42">
      <!-- 25 -->
      <g style="fill: #555555" transform="translate(646.267433 260.077812) scale(0.14 -0.14)">
       <use xlink:href="#DejaVuSans-32"/>
       <use xlink:href="#DejaVuSans-35" transform="translate(63.623047 0)"/>
      </g>
     </g>
    </g>
    <g id="xtick_21">
     <g id="line2d_78">
      <path d="M 776.142162 242.44 
L 776.142162 29.04 
" clip-path="url(#pf973fe8765)" style="fill: none; stroke: #ffffff; stroke-width: 0.8; stroke-linecap: square"/>
     </g>
     <g id="line2d_79">
      <g>
       <use xlink:href="#m13e6454fb7" x="776.142162" y="242.44" style="fill: #555555; stroke: #555555; stroke-width: 0.8"/>
      </g>
     </g>
     <g id="text_43">
      <!-- 30 -->
      <g style="fill: #555555" transform="translate(767.234662 260.077812) scale(0.14 -0.14)">
       <use xlink:href="#DejaVuSans-33"/>
       <use xlink:href="#DejaVuSans-30" transform="translate(63.623047 0)"/>
      </g>
     </g>
    </g>
    <g id="text_44">
     <!-- Iteration -->
     <g style="fill: #555555" transform="translate(415.596893 279.146875) scale(0.16 -0.16)">
      <defs>
       <path id="DejaVuSans-49" d="M 628 4666 
L 1259 4666 
L 1259 0 
L 628 0 
L 628 4666 
z
" transform="scale(0.015625)"/>
       <path id="DejaVuSans-69" d="M 603 3500 
L 1178 3500 
L 1178 0 
L 603 0 
L 603 3500 
z
M 603 4863 
L 1178 4863 
L 1178 4134 
L 603 4134 
L 603 4863 
z
" transform="scale(0.015625)"/>
       <path id="DejaVuSans-6e" d="M 3513 2113 
L 3513 0 
L 2938 0 
L 2938 2094 
Q 2938 2591 2744 2837 
Q 2550 3084 2163 3084 
Q 1697 3084 1428 2787 
Q 1159 2491 1159 1978 
L 1159 0 
L 581 0 
L 581 3500 
L 1159 3500 
L 1159 2956 
Q 1366 3272 1645 3428 
Q 1925 3584 2291 3584 
Q 2894 3584 3203 3211 
Q 3513 2838 3513 2113 
z
" transform="scale(0.015625)"/>
      </defs>
      <use xlink:href="#DejaVuSans-49"/>
      <use xlink:href="#DejaVuSans-74" transform="translate(29.492188 0)"/>
      <use xlink:href="#DejaVuSans-65" transform="translate(68.701172 0)"/>
      <use xlink:href="#DejaVuSans-72" transform="translate(130.224609 0)"/>
      <use xlink:href="#DejaVuSans-61" transform="translate(171.337891 0)"/>
      <use xlink:href="#DejaVuSans-74" transform="translate(232.617188 0)"/>
      <use xlink:href="#DejaVuSans-69" transform="translate(271.826172 0)"/>
      <use xlink:href="#DejaVuSans-6f" transform="translate(299.609375 0)"/>
      <use xlink:href="#DejaVuSans-6e" transform="translate(360.791016 0)"/>
     </g>
    </g>
   </g>
   <g id="matplotlib.axis_6">
    <g id="ytick_14">
     <g id="line2d_80">
      <path d="M 50.338786 242.44 
L 848.7225 242.44 
" clip-path="url(#pf973fe8765)" style="fill: none; stroke: #ffffff; stroke-width: 0.8; stroke-linecap: square"/>
     </g>
     <g id="line2d_81">
      <g>
       <use xlink:href="#m5c62302ed8" x="50.338786" y="242.44" style="fill: #555555; stroke: #555555; stroke-width: 0.8"/>
      </g>
     </g>
     <g id="text_45">
      <!-- $\mathdefault{10^{-6}}$ -->
      <g style="fill: #555555" transform="translate(10.438786 247.758906) scale(0.14 -0.14)">
       <defs>
        <path id="DejaVuSans-2212" d="M 678 2272 
L 4684 2272 
L 4684 1741 
L 678 1741 
L 678 2272 
z
" transform="scale(0.015625)"/>
       </defs>
       <use xlink:href="#DejaVuSans-31" transform="translate(0 0.765625)"/>
       <use xlink:href="#DejaVuSans-30" transform="translate(63.623047 0.765625)"/>
       <use xlink:href="#DejaVuSans-2212" transform="translate(128.203125 39.046875) scale(0.7)"/>
       <use xlink:href="#DejaVuSans-36" transform="translate(186.855469 39.046875) scale(0.7)"/>
      </g>
     </g>
    </g>
    <g id="ytick_15">
     <g id="line2d_82">
      <path d="M 50.338786 212.133495 
L 848.7225 212.133495 
" clip-path="url(#pf973fe8765)" style="fill: none; stroke: #ffffff; stroke-width: 0.8; stroke-linecap: square"/>
     </g>
     <g id="line2d_83">
      <g>
       <use xlink:href="#m5c62302ed8" x="50.338786" y="212.133495" style="fill: #555555; stroke: #555555; stroke-width: 0.8"/>
      </g>
     </g>
     <g id="text_46">
      <!-- $\mathdefault{10^{-5}}$ -->
      <g style="fill: #555555" transform="translate(10.438786 217.452402) scale(0.14 -0.14)">
       <use xlink:href="#DejaVuSans-31" transform="translate(0 0.684375)"/>
       <use xlink:href="#DejaVuSans-30" transform="translate(63.623047 0.684375)"/>
       <use xlink:href="#DejaVuSans-2212" transform="translate(128.203125 38.965625) scale(0.7)"/>
       <use xlink:href="#DejaVuSans-35" transform="translate(186.855469 38.965625) scale(0.7)"/>
      </g>
     </g>
    </g>
    <g id="ytick_16">
     <g id="line2d_84">
      <path d="M 50.338786 181.826991 
L 848.7225 181.826991 
" clip-path="url(#pf973fe8765)" style="fill: none; stroke: #ffffff; stroke-width: 0.8; stroke-linecap: square"/>
     </g>
     <g id="line2d_85">
      <g>
       <use xlink:href="#m5c62302ed8" x="50.338786" y="181.826991" style="fill: #555555; stroke: #555555; stroke-width: 0.8"/>
      </g>
     </g>
     <g id="text_47">
      <!-- $\mathdefault{10^{-4}}$ -->
      <g style="fill: #555555" transform="translate(10.438786 187.145897) scale(0.14 -0.14)">
       <use xlink:href="#DejaVuSans-31" transform="translate(0 0.684375)"/>
       <use xlink:href="#DejaVuSans-30" transform="translate(63.623047 0.684375)"/>
       <use xlink:href="#DejaVuSans-2212" transform="translate(128.203125 38.965625) scale(0.7)"/>
       <use xlink:href="#DejaVuSans-34" transform="translate(186.855469 38.965625) scale(0.7)"/>
      </g>
     </g>
    </g>
    <g id="ytick_17">
     <g id="line2d_86">
      <path d="M 50.338786 151.520486 
L 848.7225 151.520486 
" clip-path="url(#pf973fe8765)" style="fill: none; stroke: #ffffff; stroke-width: 0.8; stroke-linecap: square"/>
     </g>
     <g id="line2d_87">
      <g>
       <use xlink:href="#m5c62302ed8" x="50.338786" y="151.520486" style="fill: #555555; stroke: #555555; stroke-width: 0.8"/>
      </g>
     </g>
     <g id="text_48">
      <!-- $\mathdefault{10^{-3}}$ -->
      <g style="fill: #555555" transform="translate(10.438786 156.839392) scale(0.14 -0.14)">
       <use xlink:href="#DejaVuSans-31" transform="translate(0 0.765625)"/>
       <use xlink:href="#DejaVuSans-30" transform="translate(63.623047 0.765625)"/>
       <use xlink:href="#DejaVuSans-2212" transform="translate(128.203125 39.046875) scale(0.7)"/>
       <use xlink:href="#DejaVuSans-33" transform="translate(186.855469 39.046875) scale(0.7)"/>
      </g>
     </g>
    </g>
    <g id="ytick_18">
     <g id="line2d_88">
      <path d="M 50.338786 121.213981 
L 848.7225 121.213981 
" clip-path="url(#pf973fe8765)" style="fill: none; stroke: #ffffff; stroke-width: 0.8; stroke-linecap: square"/>
     </g>
     <g id="line2d_89">
      <g>
       <use xlink:href="#m5c62302ed8" x="50.338786" y="121.213981" style="fill: #555555; stroke: #555555; stroke-width: 0.8"/>
      </g>
     </g>
     <g id="text_49">
      <!-- $\mathdefault{10^{-2}}$ -->
      <g style="fill: #555555" transform="translate(10.438786 126.532888) scale(0.14 -0.14)">
       <use xlink:href="#DejaVuSans-31" transform="translate(0 0.765625)"/>
       <use xlink:href="#DejaVuSans-30" transform="translate(63.623047 0.765625)"/>
       <use xlink:href="#DejaVuSans-2212" transform="translate(128.203125 39.046875) scale(0.7)"/>
       <use xlink:href="#DejaVuSans-32" transform="translate(186.855469 39.046875) scale(0.7)"/>
      </g>
     </g>
    </g>
    <g id="ytick_19">
     <g id="line2d_90">
      <path d="M 50.338786 90.907477 
L 848.7225 90.907477 
" clip-path="url(#pf973fe8765)" style="fill: none; stroke: #ffffff; stroke-width: 0.8; stroke-linecap: square"/>
     </g>
     <g id="line2d_91">
      <g>
       <use xlink:href="#m5c62302ed8" x="50.338786" y="90.907477" style="fill: #555555; stroke: #555555; stroke-width: 0.8"/>
      </g>
     </g>
     <g id="text_50">
      <!-- $\mathdefault{10^{-1}}$ -->
      <g style="fill: #555555" transform="translate(10.438786 96.226383) scale(0.14 -0.14)">
       <use xlink:href="#DejaVuSans-31" transform="translate(0 0.684375)"/>
       <use xlink:href="#DejaVuSans-30" transform="translate(63.623047 0.684375)"/>
       <use xlink:href="#DejaVuSans-2212" transform="translate(128.203125 38.965625) scale(0.7)"/>
       <use xlink:href="#DejaVuSans-31" transform="translate(186.855469 38.965625) scale(0.7)"/>
      </g>
     </g>
    </g>
    <g id="ytick_20">
     <g id="line2d_92">
      <path d="M 50.338786 60.600972 
L 848.7225 60.600972 
" clip-path="url(#pf973fe8765)" style="fill: none; stroke: #ffffff; stroke-width: 0.8; stroke-linecap: square"/>
     </g>
     <g id="line2d_93">
      <g>
       <use xlink:href="#m5c62302ed8" x="50.338786" y="60.600972" style="fill: #555555; stroke: #555555; stroke-width: 0.8"/>
      </g>
     </g>
     <g id="text_51">
      <!-- $\mathdefault{10^{0}}$ -->
      <g style="fill: #555555" transform="translate(18.698786 65.919878) scale(0.14 -0.14)">
       <use xlink:href="#DejaVuSans-31" transform="translate(0 0.765625)"/>
       <use xlink:href="#DejaVuSans-30" transform="translate(63.623047 0.765625)"/>
       <use xlink:href="#DejaVuSans-30" transform="translate(128.203125 39.046875) scale(0.7)"/>
      </g>
     </g>
    </g>
    <g id="ytick_21">
     <g id="line2d_94">
      <path d="M 50.338786 30.294468 
L 848.7225 30.294468 
" clip-path="url(#pf973fe8765)" style="fill: none; stroke: #ffffff; stroke-width: 0.8; stroke-linecap: square"/>
     </g>
     <g id="line2d_95">
      <g>
       <use xlink:href="#m5c62302ed8" x="50.338786" y="30.294468" style="fill: #555555; stroke: #555555; stroke-width: 0.8"/>
      </g>
     </g>
     <g id="text_52">
      <!-- $\mathdefault{10^{1}}$ -->
      <g style="fill: #555555" transform="translate(18.698786 35.613374) scale(0.14 -0.14)">
       <use xlink:href="#DejaVuSans-31" transform="translate(0 0.684375)"/>
       <use xlink:href="#DejaVuSans-30" transform="translate(63.623047 0.684375)"/>
       <use xlink:href="#DejaVuSans-31" transform="translate(128.203125 38.965625) scale(0.7)"/>
      </g>
     </g>
    </g>
    <g id="ytick_22">
     <g id="line2d_96">
      <defs>
       <path id="m97170f5380" d="M 0 0 
L -2 0 
" style="stroke: #555555; stroke-width: 0.6"/>
      </defs>
      <g>
       <use xlink:href="#m97170f5380" x="50.338786" y="233.316833" style="fill: #555555; stroke: #555555; stroke-width: 0.6"/>
      </g>
     </g>
    </g>
    <g id="ytick_23">
     <g id="line2d_97">
      <g>
       <use xlink:href="#m97170f5380" x="50.338786" y="227.980122" style="fill: #555555; stroke: #555555; stroke-width: 0.6"/>
      </g>
     </g>
    </g>
    <g id="ytick_24">
     <g id="line2d_98">
      <g>
       <use xlink:href="#m97170f5380" x="50.338786" y="224.193666" style="fill: #555555; stroke: #555555; stroke-width: 0.6"/>
      </g>
     </g>
    </g>
    <g id="ytick_25">
     <g id="line2d_99">
      <g>
       <use xlink:href="#m97170f5380" x="50.338786" y="221.256662" style="fill: #555555; stroke: #555555; stroke-width: 0.6"/>
      </g>
     </g>
    </g>
    <g id="ytick_26">
     <g id="line2d_100">
      <g>
       <use xlink:href="#m97170f5380" x="50.338786" y="218.856956" style="fill: #555555; stroke: #555555; stroke-width: 0.6"/>
      </g>
     </g>
    </g>
    <g id="ytick_27">
     <g id="line2d_101">
      <g>
       <use xlink:href="#m97170f5380" x="50.338786" y="216.828032" style="fill: #555555; stroke: #555555; stroke-width: 0.6"/>
      </g>
     </g>
    </g>
    <g id="ytick_28">
     <g id="line2d_102">
      <g>
       <use xlink:href="#m97170f5380" x="50.338786" y="215.070499" style="fill: #555555; stroke: #555555; stroke-width: 0.6"/>
      </g>
     </g>
    </g>
    <g id="ytick_29">
     <g id="line2d_103">
      <g>
       <use xlink:href="#m97170f5380" x="50.338786" y="213.520245" style="fill: #555555; stroke: #555555; stroke-width: 0.6"/>
      </g>
     </g>
    </g>
    <g id="ytick_30">
     <g id="line2d_104">
      <g>
       <use xlink:href="#m97170f5380" x="50.338786" y="203.010328" style="fill: #555555; stroke: #555555; stroke-width: 0.6"/>
      </g>
     </g>
    </g>
    <g id="ytick_31">
     <g id="line2d_105">
      <g>
       <use xlink:href="#m97170f5380" x="50.338786" y="197.673618" style="fill: #555555; stroke: #555555; stroke-width: 0.6"/>
      </g>
     </g>
    </g>
    <g id="ytick_32">
     <g id="line2d_106">
      <g>
       <use xlink:href="#m97170f5380" x="50.338786" y="193.887161" style="fill: #555555; stroke: #555555; stroke-width: 0.6"/>
      </g>
     </g>
    </g>
    <g id="ytick_33">
     <g id="line2d_107">
      <g>
       <use xlink:href="#m97170f5380" x="50.338786" y="190.950158" style="fill: #555555; stroke: #555555; stroke-width: 0.6"/>
      </g>
     </g>
    </g>
    <g id="ytick_34">
     <g id="line2d_108">
      <g>
       <use xlink:href="#m97170f5380" x="50.338786" y="188.550451" style="fill: #555555; stroke: #555555; stroke-width: 0.6"/>
      </g>
     </g>
    </g>
    <g id="ytick_35">
     <g id="line2d_109">
      <g>
       <use xlink:href="#m97170f5380" x="50.338786" y="186.521528" style="fill: #555555; stroke: #555555; stroke-width: 0.6"/>
      </g>
     </g>
    </g>
    <g id="ytick_36">
     <g id="line2d_110">
      <g>
       <use xlink:href="#m97170f5380" x="50.338786" y="184.763995" style="fill: #555555; stroke: #555555; stroke-width: 0.6"/>
      </g>
     </g>
    </g>
    <g id="ytick_37">
     <g id="line2d_111">
      <g>
       <use xlink:href="#m97170f5380" x="50.338786" y="183.21374" style="fill: #555555; stroke: #555555; stroke-width: 0.6"/>
      </g>
     </g>
    </g>
    <g id="ytick_38">
     <g id="line2d_112">
      <g>
       <use xlink:href="#m97170f5380" x="50.338786" y="172.703824" style="fill: #555555; stroke: #555555; stroke-width: 0.6"/>
      </g>
     </g>
    </g>
    <g id="ytick_39">
     <g id="line2d_113">
      <g>
       <use xlink:href="#m97170f5380" x="50.338786" y="167.367113" style="fill: #555555; stroke: #555555; stroke-width: 0.6"/>
      </g>
     </g>
    </g>
    <g id="ytick_40">
     <g id="line2d_114">
      <g>
       <use xlink:href="#m97170f5380" x="50.338786" y="163.580657" style="fill: #555555; stroke: #555555; stroke-width: 0.6"/>
      </g>
     </g>
    </g>
    <g id="ytick_41">
     <g id="line2d_115">
      <g>
       <use xlink:href="#m97170f5380" x="50.338786" y="160.643653" style="fill: #555555; stroke: #555555; stroke-width: 0.6"/>
      </g>
     </g>
    </g>
    <g id="ytick_42">
     <g id="line2d_116">
      <g>
       <use xlink:href="#m97170f5380" x="50.338786" y="158.243946" style="fill: #555555; stroke: #555555; stroke-width: 0.6"/>
      </g>
     </g>
    </g>
    <g id="ytick_43">
     <g id="line2d_117">
      <g>
       <use xlink:href="#m97170f5380" x="50.338786" y="156.215023" style="fill: #555555; stroke: #555555; stroke-width: 0.6"/>
      </g>
     </g>
    </g>
    <g id="ytick_44">
     <g id="line2d_118">
      <g>
       <use xlink:href="#m97170f5380" x="50.338786" y="154.45749" style="fill: #555555; stroke: #555555; stroke-width: 0.6"/>
      </g>
     </g>
    </g>
    <g id="ytick_45">
     <g id="line2d_119">
      <g>
       <use xlink:href="#m97170f5380" x="50.338786" y="152.907236" style="fill: #555555; stroke: #555555; stroke-width: 0.6"/>
      </g>
     </g>
    </g>
    <g id="ytick_46">
     <g id="line2d_120">
      <g>
       <use xlink:href="#m97170f5380" x="50.338786" y="142.397319" style="fill: #555555; stroke: #555555; stroke-width: 0.6"/>
      </g>
     </g>
    </g>
    <g id="ytick_47">
     <g id="line2d_121">
      <g>
       <use xlink:href="#m97170f5380" x="50.338786" y="137.060609" style="fill: #555555; stroke: #555555; stroke-width: 0.6"/>
      </g>
     </g>
    </g>
    <g id="ytick_48">
     <g id="line2d_122">
      <g>
       <use xlink:href="#m97170f5380" x="50.338786" y="133.274152" style="fill: #555555; stroke: #555555; stroke-width: 0.6"/>
      </g>
     </g>
    </g>
    <g id="ytick_49">
     <g id="line2d_123">
      <g>
       <use xlink:href="#m97170f5380" x="50.338786" y="130.337148" style="fill: #555555; stroke: #555555; stroke-width: 0.6"/>
      </g>
     </g>
    </g>
    <g id="ytick_50">
     <g id="line2d_124">
      <g>
       <use xlink:href="#m97170f5380" x="50.338786" y="127.937442" style="fill: #555555; stroke: #555555; stroke-width: 0.6"/>
      </g>
     </g>
    </g>
    <g id="ytick_51">
     <g id="line2d_125">
      <g>
       <use xlink:href="#m97170f5380" x="50.338786" y="125.908518" style="fill: #555555; stroke: #555555; stroke-width: 0.6"/>
      </g>
     </g>
    </g>
    <g id="ytick_52">
     <g id="line2d_126">
      <g>
       <use xlink:href="#m97170f5380" x="50.338786" y="124.150985" style="fill: #555555; stroke: #555555; stroke-width: 0.6"/>
      </g>
     </g>
    </g>
    <g id="ytick_53">
     <g id="line2d_127">
      <g>
       <use xlink:href="#m97170f5380" x="50.338786" y="122.600731" style="fill: #555555; stroke: #555555; stroke-width: 0.6"/>
      </g>
     </g>
    </g>
    <g id="ytick_54">
     <g id="line2d_128">
      <g>
       <use xlink:href="#m97170f5380" x="50.338786" y="112.090815" style="fill: #555555; stroke: #555555; stroke-width: 0.6"/>
      </g>
     </g>
    </g>
    <g id="ytick_55">
     <g id="line2d_129">
      <g>
       <use xlink:href="#m97170f5380" x="50.338786" y="106.754104" style="fill: #555555; stroke: #555555; stroke-width: 0.6"/>
      </g>
     </g>
    </g>
    <g id="ytick_56">
     <g id="line2d_130">
      <g>
       <use xlink:href="#m97170f5380" x="50.338786" y="102.967648" style="fill: #555555; stroke: #555555; stroke-width: 0.6"/>
      </g>
     </g>
    </g>
    <g id="ytick_57">
     <g id="line2d_131">
      <g>
       <use xlink:href="#m97170f5380" x="50.338786" y="100.030644" style="fill: #555555; stroke: #555555; stroke-width: 0.6"/>
      </g>
     </g>
    </g>
    <g id="ytick_58">
     <g id="line2d_132">
      <g>
       <use xlink:href="#m97170f5380" x="50.338786" y="97.630937" style="fill: #555555; stroke: #555555; stroke-width: 0.6"/>
      </g>
     </g>
    </g>
    <g id="ytick_59">
     <g id="line2d_133">
      <g>
       <use xlink:href="#m97170f5380" x="50.338786" y="95.602014" style="fill: #555555; stroke: #555555; stroke-width: 0.6"/>
      </g>
     </g>
    </g>
    <g id="ytick_60">
     <g id="line2d_134">
      <g>
       <use xlink:href="#m97170f5380" x="50.338786" y="93.844481" style="fill: #555555; stroke: #555555; stroke-width: 0.6"/>
      </g>
     </g>
    </g>
    <g id="ytick_61">
     <g id="line2d_135">
      <g>
       <use xlink:href="#m97170f5380" x="50.338786" y="92.294226" style="fill: #555555; stroke: #555555; stroke-width: 0.6"/>
      </g>
     </g>
    </g>
    <g id="ytick_62">
     <g id="line2d_136">
      <g>
       <use xlink:href="#m97170f5380" x="50.338786" y="81.78431" style="fill: #555555; stroke: #555555; stroke-width: 0.6"/>
      </g>
     </g>
    </g>
    <g id="ytick_63">
     <g id="line2d_137">
      <g>
       <use xlink:href="#m97170f5380" x="50.338786" y="76.447599" style="fill: #555555; stroke: #555555; stroke-width: 0.6"/>
      </g>
     </g>
    </g>
    <g id="ytick_64">
     <g id="line2d_138">
      <g>
       <use xlink:href="#m97170f5380" x="50.338786" y="72.661143" style="fill: #555555; stroke: #555555; stroke-width: 0.6"/>
      </g>
     </g>
    </g>
    <g id="ytick_65">
     <g id="line2d_139">
      <g>
       <use xlink:href="#m97170f5380" x="50.338786" y="69.724139" style="fill: #555555; stroke: #555555; stroke-width: 0.6"/>
      </g>
     </g>
    </g>
    <g id="ytick_66">
     <g id="line2d_140">
      <g>
       <use xlink:href="#m97170f5380" x="50.338786" y="67.324432" style="fill: #555555; stroke: #555555; stroke-width: 0.6"/>
      </g>
     </g>
    </g>
    <g id="ytick_67">
     <g id="line2d_141">
      <g>
       <use xlink:href="#m97170f5380" x="50.338786" y="65.295509" style="fill: #555555; stroke: #555555; stroke-width: 0.6"/>
      </g>
     </g>
    </g>
    <g id="ytick_68">
     <g id="line2d_142">
      <g>
       <use xlink:href="#m97170f5380" x="50.338786" y="63.537976" style="fill: #555555; stroke: #555555; stroke-width: 0.6"/>
      </g>
     </g>
    </g>
    <g id="ytick_69">
     <g id="line2d_143">
      <g>
       <use xlink:href="#m97170f5380" x="50.338786" y="61.987722" style="fill: #555555; stroke: #555555; stroke-width: 0.6"/>
      </g>
     </g>
    </g>
    <g id="ytick_70">
     <g id="line2d_144">
      <g>
       <use xlink:href="#m97170f5380" x="50.338786" y="51.477805" style="fill: #555555; stroke: #555555; stroke-width: 0.6"/>
      </g>
     </g>
    </g>
    <g id="ytick_71">
     <g id="line2d_145">
      <g>
       <use xlink:href="#m97170f5380" x="50.338786" y="46.141095" style="fill: #555555; stroke: #555555; stroke-width: 0.6"/>
      </g>
     </g>
    </g>
    <g id="ytick_72">
     <g id="line2d_146">
      <g>
       <use xlink:href="#m97170f5380" x="50.338786" y="42.354638" style="fill: #555555; stroke: #555555; stroke-width: 0.6"/>
      </g>
     </g>
    </g>
    <g id="ytick_73">
     <g id="line2d_147">
      <g>
       <use xlink:href="#m97170f5380" x="50.338786" y="39.417635" style="fill: #555555; stroke: #555555; stroke-width: 0.6"/>
      </g>
     </g>
    </g>
    <g id="ytick_74">
     <g id="line2d_148">
      <g>
       <use xlink:href="#m97170f5380" x="50.338786" y="37.017928" style="fill: #555555; stroke: #555555; stroke-width: 0.6"/>
      </g>
     </g>
    </g>
    <g id="ytick_75">
     <g id="line2d_149">
      <g>
       <use xlink:href="#m97170f5380" x="50.338786" y="34.989005" style="fill: #555555; stroke: #555555; stroke-width: 0.6"/>
      </g>
     </g>
    </g>
    <g id="ytick_76">
     <g id="line2d_150">
      <g>
       <use xlink:href="#m97170f5380" x="50.338786" y="33.231471" style="fill: #555555; stroke: #555555; stroke-width: 0.6"/>
      </g>
     </g>
    </g>
    <g id="ytick_77">
     <g id="line2d_151">
      <g>
       <use xlink:href="#m97170f5380" x="50.338786" y="31.681217" style="fill: #555555; stroke: #555555; stroke-width: 0.6"/>
      </g>
     </g>
    </g>
   </g>
   <g id="PathCollection_1">
    <defs>
     <path id="m87a85c5bb2" d="M 0 6.123724 
C 1.624031 6.123724 3.181764 5.47849 4.330127 4.330127 
C 5.47849 3.181764 6.123724 1.624031 6.123724 0 
C 6.123724 -1.624031 5.47849 -3.181764 4.330127 -4.330127 
C 3.181764 -5.47849 1.624031 -6.123724 0 -6.123724 
C -1.624031 -6.123724 -3.181764 -5.47849 -4.330127 -4.330127 
C -5.47849 -3.181764 -6.123724 -1.624031 -6.123724 0 
C -6.123724 1.624031 -5.47849 3.181764 -4.330127 4.330127 
C -3.181764 5.47849 -1.624031 6.123724 0 6.123724 
z
" style="stroke: #ff0000; stroke-width: 0.5"/>
    </defs>
    <g clip-path="url(#pf973fe8765)">
     <use xlink:href="#m87a85c5bb2" x="800.335608" y="213.383154" style="fill: #ff0000; stroke: #ff0000; stroke-width: 0.5"/>
    </g>
   </g>
   <g id="line2d_152">
    <path d="M 50.338786 32.502945 
L 74.532232 46.130439 
L 98.725678 53.299495 
L 122.919124 61.389254 
L 147.11257 69.493349 
L 171.306016 76.484268 
L 195.499462 82.708945 
L 219.692907 88.551121 
L 243.886353 94.151502 
L 268.079799 99.617252 
L 292.273245 105.011811 
L 316.466691 110.362485 
L 340.660137 115.679807 
L 364.853583 120.968223 
L 389.047028 126.230736 
L 413.240474 131.470056 
L 437.43392 136.688726 
L 461.627366 141.888158 
L 485.820812 147.071204 
L 510.014258 152.238629 
L 534.207704 157.391101 
L 558.40115 162.530992 
L 582.594595 167.657197 
L 606.788041 172.772927 
L 630.981487 177.876496 
L 655.174933 182.971289 
L 679.368379 188.056364 
L 703.561825 193.132837 
L 727.755271 198.200877 
L 751.948717 203.259101 
L 776.142162 208.337994 
L 800.335608 213.383154 
" clip-path="url(#pf973fe8765)" style="fill: none; stroke: #440154; stroke-width: 2; stroke-linecap: square"/>
   </g>
   <g id="line2d_153">
    <path d="M 50.338786 212.133495 
L 848.7225 212.133495 
" clip-path="url(#pf973fe8765)" style="fill: none; stroke-dasharray: 5.55,2.4; stroke-dashoffset: 0; stroke: #000000; stroke-width: 1.5"/>
   </g>
   <g id="patch_14">
    <path d="M 50.338786 242.44 
L 50.338786 29.04 
" style="fill: none; stroke: #ffffff; stroke-linejoin: miter; stroke-linecap: square"/>
   </g>
   <g id="patch_15">
    <path d="M 848.7225 242.44 
L 848.7225 29.04 
" style="fill: none; stroke: #ffffff; stroke-linejoin: miter; stroke-linecap: square"/>
   </g>
   <g id="patch_16">
    <path d="M 50.338786 242.44 
L 848.7225 242.44 
" style="fill: none; stroke: #ffffff; stroke-linejoin: miter; stroke-linecap: square"/>
   </g>
   <g id="patch_17">
    <path d="M 50.338786 29.04 
L 848.7225 29.04 
" style="fill: none; stroke: #ffffff; stroke-linejoin: miter; stroke-linecap: square"/>
   </g>
   <g id="text_53">
    <!-- Convergence -->
    <g transform="translate(76.762874 206.796785) scale(0.14 -0.14)">
     <defs>
      <path id="DejaVuSans-43" d="M 4122 4306 
L 4122 3641 
Q 3803 3938 3442 4084 
Q 3081 4231 2675 4231 
Q 1875 4231 1450 3742 
Q 1025 3253 1025 2328 
Q 1025 1406 1450 917 
Q 1875 428 2675 428 
Q 3081 428 3442 575 
Q 3803 722 4122 1019 
L 4122 359 
Q 3791 134 3420 21 
Q 3050 -91 2638 -91 
Q 1578 -91 968 557 
Q 359 1206 359 2328 
Q 359 3453 968 4101 
Q 1578 4750 2638 4750 
Q 3056 4750 3426 4639 
Q 3797 4528 4122 4306 
z
" transform="scale(0.015625)"/>
      <path id="DejaVuSans-67" d="M 2906 1791 
Q 2906 2416 2648 2759 
Q 2391 3103 1925 3103 
Q 1463 3103 1205 2759 
Q 947 2416 947 1791 
Q 947 1169 1205 825 
Q 1463 481 1925 481 
Q 2391 481 2648 825 
Q 2906 1169 2906 1791 
z
M 3481 434 
Q 3481 -459 3084 -895 
Q 2688 -1331 1869 -1331 
Q 1566 -1331 1297 -1286 
Q 1028 -1241 775 -1147 
L 775 -588 
Q 1028 -725 1275 -790 
Q 1522 -856 1778 -856 
Q 2344 -856 2625 -561 
Q 2906 -266 2906 331 
L 2906 616 
Q 2728 306 2450 153 
Q 2172 0 1784 0 
Q 1141 0 747 490 
Q 353 981 353 1791 
Q 353 2603 747 3093 
Q 1141 3584 1784 3584 
Q 2172 3584 2450 3431 
Q 2728 3278 2906 2969 
L 2906 3500 
L 3481 3500 
L 3481 434 
z
" transform="scale(0.015625)"/>
     </defs>
     <use xlink:href="#DejaVuSans-43"/>
     <use xlink:href="#DejaVuSans-6f" transform="translate(69.824219 0)"/>
     <use xlink:href="#DejaVuSans-6e" transform="translate(131.005859 0)"/>
     <use xlink:href="#DejaVuSans-76" transform="translate(194.384766 0)"/>
     <use xlink:href="#DejaVuSans-65" transform="translate(253.564453 0)"/>
     <use xlink:href="#DejaVuSans-72" transform="translate(315.087891 0)"/>
     <use xlink:href="#DejaVuSans-67" transform="translate(354.451172 0)"/>
     <use xlink:href="#DejaVuSans-65" transform="translate(417.927734 0)"/>
     <use xlink:href="#DejaVuSans-6e" transform="translate(479.451172 0)"/>
     <use xlink:href="#DejaVuSans-63" transform="translate(542.830078 0)"/>
     <use xlink:href="#DejaVuSans-65" transform="translate(597.810547 0)"/>
    </g>
   </g>
   <g id="text_54">
    <!-- Residual error -->
    <g transform="translate(385.335643 23.04) scale(0.16 -0.16)">
     <defs>
      <path id="DejaVuSans-Bold-52" d="M 2297 2597 
Q 2675 2597 2839 2737 
Q 3003 2878 3003 3200 
Q 3003 3519 2839 3656 
Q 2675 3794 2297 3794 
L 1791 3794 
L 1791 2597 
L 2297 2597 
z
M 1791 1766 
L 1791 0 
L 588 0 
L 588 4666 
L 2425 4666 
Q 3347 4666 3776 4356 
Q 4206 4047 4206 3378 
Q 4206 2916 3982 2619 
Q 3759 2322 3309 2181 
Q 3556 2125 3751 1926 
Q 3947 1728 4147 1325 
L 4800 0 
L 3519 0 
L 2950 1159 
Q 2778 1509 2601 1637 
Q 2425 1766 2131 1766 
L 1791 1766 
z
" transform="scale(0.015625)"/>
      <path id="DejaVuSans-Bold-64" d="M 2919 2988 
L 2919 4863 
L 4044 4863 
L 4044 0 
L 2919 0 
L 2919 506 
Q 2688 197 2409 53 
Q 2131 -91 1766 -91 
Q 1119 -91 703 423 
Q 288 938 288 1747 
Q 288 2556 703 3070 
Q 1119 3584 1766 3584 
Q 2128 3584 2408 3439 
Q 2688 3294 2919 2988 
z
M 2181 722 
Q 2541 722 2730 984 
Q 2919 1247 2919 1747 
Q 2919 2247 2730 2509 
Q 2541 2772 2181 2772 
Q 1825 2772 1636 2509 
Q 1447 2247 1447 1747 
Q 1447 1247 1636 984 
Q 1825 722 2181 722 
z
" transform="scale(0.015625)"/>
      <path id="DejaVuSans-Bold-6c" d="M 538 4863 
L 1656 4863 
L 1656 0 
L 538 0 
L 538 4863 
z
" transform="scale(0.015625)"/>
     </defs>
     <use xlink:href="#DejaVuSans-Bold-52"/>
     <use xlink:href="#DejaVuSans-Bold-65" transform="translate(77.001953 0)"/>
     <use xlink:href="#DejaVuSans-Bold-73" transform="translate(144.824219 0)"/>
     <use xlink:href="#DejaVuSans-Bold-69" transform="translate(204.345703 0)"/>
     <use xlink:href="#DejaVuSans-Bold-64" transform="translate(238.623047 0)"/>
     <use xlink:href="#DejaVuSans-Bold-75" transform="translate(310.205078 0)"/>
     <use xlink:href="#DejaVuSans-Bold-61" transform="translate(381.396484 0)"/>
     <use xlink:href="#DejaVuSans-Bold-6c" transform="translate(448.876953 0)"/>
     <use xlink:href="#DejaVuSans-Bold-20" transform="translate(483.154297 0)"/>
     <use xlink:href="#DejaVuSans-Bold-65" transform="translate(517.96875 0)"/>
     <use xlink:href="#DejaVuSans-Bold-72" transform="translate(585.791016 0)"/>
     <use xlink:href="#DejaVuSans-Bold-72" transform="translate(635.107422 0)"/>
     <use xlink:href="#DejaVuSans-Bold-6f" transform="translate(684.423828 0)"/>
     <use xlink:href="#DejaVuSans-Bold-72" transform="translate(753.125 0)"/>
    </g>
   </g>
  </g>
 </g>
 <defs>
  <clipPath id="p7481eb259a">
   <rect x="50.338786" y="311.64" width="376.893107" height="213.4"/>
  </clipPath>
  <clipPath id="pe4eff99a36">
   <rect x="471.829393" y="311.64" width="376.893107" height="213.4"/>
  </clipPath>
  <clipPath id="pf973fe8765">
   <rect x="50.338786" y="29.04" width="798.383714" height="213.4"/>
  </clipPath>
 </defs>
</svg>
